<?xml version="1.0" encoding="UTF-8" standalone="no"?>
<!-- Created with Inkscape (http://www.inkscape.org/) -->

<svg
   xmlns:dc="http://purl.org/dc/elements/1.1/"
   xmlns:cc="http://creativecommons.org/ns#"
   xmlns:rdf="http://www.w3.org/1999/02/22-rdf-syntax-ns#"
   xmlns:svg="http://www.w3.org/2000/svg"
   xmlns="http://www.w3.org/2000/svg"
   xmlns:sodipodi="http://sodipodi.sourceforge.net/DTD/sodipodi-0.dtd"
   xmlns:inkscape="http://www.inkscape.org/namespaces/inkscape"
   version="1.1"
   id="svg2"
   xml:space="preserve"
   width="666.66669"
   height="666.66669"
   viewBox="0 0 666.66669 666.66669"
   sodipodi:docname="1.svg"
   inkscape:version="0.92.3 (2405546, 2018-03-11)"
   inkscape:export-filename="D:\Job\KPU Prabumulih\Website\Jadi 2\1.png"
   inkscape:export-xdpi="200"
   inkscape:export-ydpi="200"><metadata
     id="metadata8"><rdf:RDF><cc:Work
         rdf:about=""><dc:format>image/svg+xml</dc:format><dc:type
           rdf:resource="http://purl.org/dc/dcmitype/StillImage" /><dc:title></dc:title></cc:Work></rdf:RDF></metadata><defs
     id="defs6"><clipPath
       clipPathUnits="userSpaceOnUse"
       id="clipPath22"><path
         d="M 0,0 H 500 V 500 H 0 Z"
         id="path20"
         inkscape:connector-curvature="0" /></clipPath><clipPath
       clipPathUnits="userSpaceOnUse"
       id="clipPath38"><path
         d="M 309.672,181.133 H 353.5 V 63.675 h -43.828 z"
         id="path36"
         inkscape:connector-curvature="0" /></clipPath><clipPath
       clipPathUnits="userSpaceOnUse"
       id="clipPath66"><path
         d="M 185.539,141.98 H 309.691 V 85.1745 H 185.539 Z"
         id="path64"
         inkscape:connector-curvature="0" /></clipPath><clipPath
       clipPathUnits="userSpaceOnUse"
       id="clipPath86"><path
         d="M 0,0 H 500 V 500 H 0 Z"
         id="path84"
         inkscape:connector-curvature="0" /></clipPath><clipPath
       clipPathUnits="userSpaceOnUse"
       id="clipPath106"><path
         d="M 34.784,550.678 H 142.61 V 460.873 H 34.784 Z"
         id="path104"
         inkscape:connector-curvature="0" /></clipPath><linearGradient
       x1="0"
       y1="0"
       x2="1"
       y2="0"
       gradientUnits="userSpaceOnUse"
       gradientTransform="matrix(-4.6795979,11.80837,11.80837,4.6795979,213.81647,428.94992)"
       spreadMethod="pad"
       id="linearGradient136"><stop
         style="stop-opacity:1;stop-color:#9b4308"
         offset="0"
         id="stop132" /><stop
         style="stop-opacity:1;stop-color:#6b2d03"
         offset="1"
         id="stop134" /></linearGradient><clipPath
       clipPathUnits="userSpaceOnUse"
       id="clipPath146"><path
         d="M 0,0 H 500 V 500 H 0 Z"
         id="path144"
         inkscape:connector-curvature="0" /></clipPath><linearGradient
       x1="0"
       y1="0"
       x2="1"
       y2="0"
       gradientUnits="userSpaceOnUse"
       gradientTransform="matrix(7.784266,13.49201,13.49201,-7.784266,323.55386,458.75623)"
       spreadMethod="pad"
       id="linearGradient188"><stop
         style="stop-opacity:1;stop-color:#f2b93b"
         offset="0"
         id="stop184" /><stop
         style="stop-opacity:1;stop-color:#db881b"
         offset="1"
         id="stop186" /></linearGradient><clipPath
       clipPathUnits="userSpaceOnUse"
       id="clipPath198"><path
         d="M 0,0 H 500 V 500 H 0 Z"
         id="path196"
         inkscape:connector-curvature="0" /></clipPath><linearGradient
       x1="0"
       y1="0"
       x2="1"
       y2="0"
       gradientUnits="userSpaceOnUse"
       gradientTransform="matrix(10.468625,10.629062,10.629062,-10.468625,300.60992,284.05875)"
       spreadMethod="pad"
       id="linearGradient256"><stop
         style="stop-opacity:1;stop-color:#ffdc83"
         offset="0"
         id="stop252" /><stop
         style="stop-opacity:1;stop-color:#f79200"
         offset="1"
         id="stop254" /></linearGradient><clipPath
       clipPathUnits="userSpaceOnUse"
       id="clipPath266"><path
         d="M 0,0 H 500 V 500 H 0 Z"
         id="path264"
         inkscape:connector-curvature="0" /></clipPath><clipPath
       clipPathUnits="userSpaceOnUse"
       id="clipPath330"><path
         d="m 299.055,265.647 h 45.376 V 248.71 h -45.376 z"
         id="path328"
         inkscape:connector-curvature="0" /></clipPath><linearGradient
       x1="0"
       y1="0"
       x2="1"
       y2="0"
       gradientUnits="userSpaceOnUse"
       gradientTransform="matrix(-9.833334,7.5000005,7.5000005,9.833334,145.32056,300.12439)"
       spreadMethod="pad"
       id="linearGradient376"><stop
         style="stop-opacity:1;stop-color:#f27d27"
         offset="0"
         id="stop372" /><stop
         style="stop-opacity:1;stop-color:#c6590e"
         offset="1"
         id="stop374" /></linearGradient><clipPath
       clipPathUnits="userSpaceOnUse"
       id="clipPath386"><path
         d="M 0,0 H 500 V 500 H 0 Z"
         id="path384"
         inkscape:connector-curvature="0" /></clipPath><clipPath
       clipPathUnits="userSpaceOnUse"
       id="clipPath454"><path
         d="M 102.182,281.854 H 146.66 V 265.635 H 102.182 Z"
         id="path452"
         inkscape:connector-curvature="0" /></clipPath><clipPath
       clipPathUnits="userSpaceOnUse"
       id="clipPath474"><path
         d="M 0,500 H 500 V 0 H 0 Z"
         id="path472"
         inkscape:connector-curvature="0" /></clipPath></defs><sodipodi:namedview
     pagecolor="#ffffff"
     bordercolor="#666666"
     borderopacity="1"
     objecttolerance="10"
     gridtolerance="10"
     guidetolerance="10"
     inkscape:pageopacity="0"
     inkscape:pageshadow="2"
     inkscape:window-width="1366"
     inkscape:window-height="705"
     id="namedview4"
     showgrid="false"
     inkscape:zoom="0.35399999"
     inkscape:cx="333.33334"
     inkscape:cy="333.33334"
     inkscape:window-x="-8"
     inkscape:window-y="-8"
     inkscape:window-maximized="1"
     inkscape:current-layer="g10" /><g
     id="g10"
     inkscape:groupmode="layer"
     inkscape:label="417400-PDWZC6-680"
     transform="matrix(1.3333333,0,0,-1.3333333,0,666.66667)"><path
       d="M 0,0 H 500 V 500 H 0 Z"
       style="fill:#88ddff;fill-opacity:1;fill-rule:nonzero;stroke:none"
       id="path12"
       inkscape:connector-curvature="0" /><path
       d="M 0,0 H 500 V 95 H 0 Z"
       style="fill:#36c6e8;fill-opacity:1;fill-rule:nonzero;stroke:none"
       id="path14"
       inkscape:connector-curvature="0" /><g
       id="g16"><g
         id="g18"
         clip-path="url(#clipPath22)"><g
           id="g24"
           transform="translate(383.667,64.0273)"><path
             d="m 0,0 c 0,8.355 -60.591,10.093 -135.333,10.093 -74.743,0 -135.334,-1.738 -135.334,-10.093 0,-8.356 60.591,-10.36 135.334,-10.36 C -60.591,-10.36 0,-8.356 0,0"
             style="fill:#1da9bf;fill-opacity:1;fill-rule:nonzero;stroke:none"
             id="path26"
             inkscape:connector-curvature="0" /></g><path
           d="m 353.5,181.133 h -207 V 63.675 h 207 z"
           style="fill:#fb6200;fill-opacity:1;fill-rule:nonzero;stroke:none"
           id="path28"
           inkscape:connector-curvature="0" /><path
           d="M 167.311,181.133 H 146.5 V 63.675 h 20.811 z"
           style="fill:#fa7e00;fill-opacity:1;fill-rule:nonzero;stroke:none"
           id="path30"
           inkscape:connector-curvature="0" /><g
           id="g32"><g
             id="g34" /><g
             id="g44"><g
               clip-path="url(#clipPath38)"
               id="g42"
               style="opacity:0.53999299"><path
                 d="M 309.673,63.675 H 353.5 v 117.458 h -43.827 z"
                 style="fill:#de5407;fill-opacity:1;fill-rule:nonzero;stroke:none"
                 id="path40"
                 inkscape:connector-curvature="0" /></g></g></g><g
           id="g46"
           transform="translate(329.3271,199.2168)"><path
             d="m 0,0 h -158.655 l -24.172,-18.084 h 207 z"
             style="fill:#fa7e00;fill-opacity:1;fill-rule:nonzero;stroke:none"
             id="path48"
             inkscape:connector-curvature="0" /></g><g
           id="g50"
           transform="translate(294.1641,192.7871)"><path
             d="m 0,0 h -88.328 l -6.984,-5.225 H 6.983 Z"
             style="fill:#a13f08;fill-opacity:1;fill-rule:nonzero;stroke:none"
             id="path52"
             inkscape:connector-curvature="0" /></g><g
           id="g54"
           transform="translate(204.0547,191.0059)"><path
             d="m 0,0 h 88.328 l 4.603,-3.443 h 4.162 L 90.109,1.781 H 1.781 l -6.984,-5.224 h 0.6 z"
             style="fill:#752c07;fill-opacity:1;fill-rule:nonzero;stroke:none"
             id="path56"
             inkscape:connector-curvature="0" /></g><path
           d="m 353.5,181.133 h -207 v -1.522 h 207 z"
           style="fill:#ff9440;fill-opacity:1;fill-rule:nonzero;stroke:none"
           id="path58"
           inkscape:connector-curvature="0" /><g
           id="g60"><g
             id="g62" /><g
             id="g72"><g
               clip-path="url(#clipPath66)"
               id="g70"
               style="opacity:0.53999299"><path
                 d="M 309.691,141.979 H 185.538 V 85.174 h 124.153 z"
                 style="fill:#de5407;fill-opacity:1;fill-rule:nonzero;stroke:none"
                 id="path68"
                 inkscape:connector-curvature="0" /></g></g></g><path
           d="M 314.462,150.574 H 185.539 V 93.769 h 128.923 z"
           style="fill:#ffffff;fill-opacity:1;fill-rule:nonzero;stroke:none"
           id="path74"
           inkscape:connector-curvature="0" /></g></g><text
       transform="matrix(1,0,0,-1,217.5527,109.04)"
       style="font-variant:normal;font-weight:bold;font-stretch:normal;font-size:35.51879883px;font-family:'Bebas Neue Bold';-inkscape-font-specification:BebasNeueBold;writing-mode:lr-tb;fill:#2d2c2a;fill-opacity:1;fill-rule:nonzero;stroke:none"
       id="text78"><tspan
         x="0 17.794918 35.412243 51.608818"
         y="0"
         sodipodi:role="line"
         id="tspan76">VOTE</tspan></text>
<g
       id="g80"><g
         id="g82"
         clip-path="url(#clipPath86)"><g
           id="g88"
           transform="translate(156.2446,416.3027)"><path
             d="M 0,0 68.309,16.167 91.866,-82.318 23.557,-98.485 Z"
             style="fill:#ffffff;fill-opacity:1;fill-rule:nonzero;stroke:none"
             id="path90"
             inkscape:connector-curvature="0" /></g><g
           id="g92"
           transform="translate(161.5884,502.5034)"><path
             d="m 0,0 9.679,-7.437 -27.189,-35.385 -9.679,7.437 z"
             style="fill:#ffffff;fill-opacity:1;fill-rule:nonzero;stroke:none"
             id="path94"
             inkscape:connector-curvature="0" /></g><g
           id="g96"
           transform="translate(164.8862,506.8398)"><path
             d="M 0,0 -94.783,72.829 -130.102,26.863 -35.32,-45.966 Z"
             style="fill:#fa7e00;fill-opacity:1;fill-rule:nonzero;stroke:none"
             id="path98"
             inkscape:connector-curvature="0" /></g><g
           id="g100"><g
             id="g102" /><g
             id="g114"><g
               clip-path="url(#clipPath106)"
               id="g112"
               style="opacity:0.53999299"><g
                 transform="translate(142.6099,477.8486)"
                 id="g110"><path
                   d="m 0,0 -94.783,72.829 -13.043,-16.975 94.783,-72.829 z"
                   style="fill:#de5407;fill-opacity:1;fill-rule:nonzero;stroke:none"
                   id="path108"
                   inkscape:connector-curvature="0" /></g></g></g></g><g
           id="g116"
           transform="translate(167.5898,490.2266)"><path
             d="m 0,0 c 5.085,-3.964 10.092,-7.678 14.279,-10.724 6.847,-4.982 36.63,-17.491 41.912,-21.55 4.316,-3.316 11.607,-13.87 15.594,-21.305 1.874,-3.494 3.103,-6.82 3.172,-10.784 0.087,-4.937 0.754,-13.439 0.676,-15.941 -0.252,-8.1 -6.955,-26.517 -6.955,-26.517 l -11.745,48.98 -22.093,-5.154 c 0,0 -0.519,-2.674 5.481,-14.866 6,-12.191 -2.715,-18.199 -7.174,-16.002 -4.459,2.196 -11.264,20.539 -20.165,29.222 -7.721,7.534 -17.565,21.941 -20.036,25.624 -0.393,0.585 -0.874,1.102 -1.43,1.536 l -12.698,9.914 z"
             style="fill:#9b4308;fill-opacity:1;fill-rule:nonzero;stroke:none"
             id="path118"
             inkscape:connector-curvature="0" /></g></g></g><g
       id="g120"><g
         id="g122"><g
           id="g128"><g
             id="g130"><path
               d="m 202.43,427.232 22.092,5.153 c 0,0 -16.454,6.582 -21.933,6.594 v 0 c -0.002,0 -0.004,0 -0.005,0 v 0 c -4.37,0 -0.154,-11.747 -0.154,-11.747"
               style="fill:url(#linearGradient136);stroke:none"
               id="path138"
               inkscape:connector-curvature="0" /></g></g></g></g><g
       id="g140"><g
         id="g142"
         clip-path="url(#clipPath146)"><g
           id="g148"
           transform="translate(206.0488,409.0796)"><path
             d="m 0,0 c 0,0 3.183,-8.621 -1.675,-10.215 -4.857,-1.595 -7.687,6.068 -7.687,6.068 0,0 3.483,4.427 9.362,4.147"
             style="fill:#f49656;fill-opacity:1;fill-rule:nonzero;stroke:none"
             id="path150"
             inkscape:connector-curvature="0" /></g><g
           id="g152"
           transform="translate(206.0488,409.0796)"><path
             d="m 0,0 c 0,0 -3.303,-2.88 -9.362,-4.147 0,0 3.483,4.427 9.362,4.147"
             style="fill:#ffdfca;fill-opacity:1;fill-rule:nonzero;stroke:none"
             id="path154"
             inkscape:connector-curvature="0" /></g><g
           id="g156"
           transform="translate(183.2031,422.6831)"><path
             d="m 0,0 -26.958,-6.38 0.212,-0.89 44.276,-19.055 C 13.524,-24.346 7.619,-9.32 0,0"
             style="fill:#dbdddd;fill-opacity:1;fill-rule:nonzero;stroke:none"
             id="path158"
             inkscape:connector-curvature="0" /></g><g
           id="g160"
           transform="translate(210.4839,383.188)"><path
             d="m 0,0 -9.354,-13.363 c -0.208,-0.298 -0.619,-0.37 -0.917,-0.161 l -4.37,3.059 c -1.508,1.056 -3.588,0.689 -4.644,-0.82 -1.057,-1.508 -0.69,-3.588 0.819,-4.644 l 8.665,-6.067 c 0.942,-0.659 2.239,-0.43 2.897,0.511 L 5.462,-3.824 C 6.518,-2.315 6.151,-0.236 4.642,0.82 3.134,1.875 1.056,1.508 0,0"
             style="fill:#148cdd;fill-opacity:1;fill-rule:nonzero;stroke:none"
             id="path162"
             inkscape:connector-curvature="0" /></g><g
           id="g164"
           transform="translate(383.1016,457.8174)"><path
             d="m 0,0 -70.141,2.8 -4.279,-101.174 70.14,-2.799 z"
             style="fill:#ffffff;fill-opacity:1;fill-rule:nonzero;stroke:none"
             id="path166"
             inkscape:connector-curvature="0" /></g><g
           id="g168"
           transform="translate(357.8223,528.2051)"><path
             d="m 0,0 c -4.232,-4.864 -8.437,-9.467 -11.963,-13.257 -5.767,-6.201 -32.607,-24.177 -37.016,-29.171 -3.601,-4.081 -8.738,-15.835 -11.229,-23.895 -1.171,-3.788 -1.74,-7.288 -1.05,-11.192 0.86,-4.862 1.831,-13.336 2.386,-15.776 1.798,-7.902 11.9,-24.697 11.9,-24.697 l 2.158,50.322 22.67,-0.831 c 0,0 1.021,-2.526 -2.536,-15.64 -3.556,-13.114 6.147,-17.343 10.103,-14.334 3.957,3.009 7.127,22.315 14.202,32.54 6.138,8.872 13.043,24.896 14.764,28.984 0.273,0.65 0.647,1.249 1.109,1.781 l 10.567,12.161 z"
             style="fill:#f2b93b;fill-opacity:1;fill-rule:nonzero;stroke:none"
             id="path170"
             inkscape:connector-curvature="0" /></g></g></g><g
       id="g172"><g
         id="g174"><g
           id="g180"><g
             id="g182"><path
               d="M 333.275,471.208 C 327.9,470.148 313.007,460.54 313.007,460.54 v 0 l 22.671,-0.832 c 0,0 1.769,11.542 -1.996,11.542 v 0 c -0.129,0 -0.265,-0.013 -0.407,-0.042"
               style="fill:url(#linearGradient188);stroke:none"
               id="path190"
               inkscape:connector-curvature="0" /></g></g></g></g><g
       id="g192"><g
         id="g194"
         clip-path="url(#clipPath198)"><g
           id="g200"
           transform="translate(335.5996,441.1992)"><path
             d="M 0,0 C 0,0 -1.476,-9.07 3.598,-9.707 8.671,-10.342 9.981,-2.28 9.981,-2.28 9.981,-2.28 5.717,1.399 0,0"
             style="fill:#ffe1a6;fill-opacity:1;fill-rule:nonzero;stroke:none"
             id="path202"
             inkscape:connector-curvature="0" /></g><g
           id="g204"
           transform="translate(335.5996,441.1992)"><path
             d="M 0,0 C 0,0 3.793,-2.195 9.981,-2.28 9.981,-2.28 5.717,1.399 0,0"
             style="fill:#ffffff;fill-opacity:1;fill-rule:nonzero;stroke:none"
             id="path206"
             inkscape:connector-curvature="0" /></g><g
           id="g208"
           transform="translate(383.0977,457.8213)"><path
             d="m 0,0 -39.857,-28.092 c 3.562,2.71 6.485,18.586 12.185,29.192 z"
             style="fill:#dbdddd;fill-opacity:1;fill-rule:nonzero;stroke:none"
             id="path210"
             inkscape:connector-curvature="0" /></g><g
           id="g212"
           transform="translate(355.6006,409.3604)"><path
             d="m 0,0 -13.034,-9.807 c -0.29,-0.219 -0.703,-0.16 -0.922,0.131 l -3.207,4.262 c -1.108,1.472 -3.198,1.768 -4.67,0.661 -1.472,-1.108 -1.768,-3.199 -0.66,-4.67 l 6.359,-8.454 c 0.691,-0.918 1.994,-1.102 2.912,-0.412 L 4.008,-5.328 C 5.479,-4.221 5.775,-2.13 4.667,-0.659 3.561,0.812 1.471,1.107 0,0"
             style="fill:#148cdd;fill-opacity:1;fill-rule:nonzero;stroke:none"
             id="path214"
             inkscape:connector-curvature="0" /></g><g
           id="g216"
           transform="translate(300.9336,187.5625)"><path
             d="M 0,0 46.879,61.308 -8.984,103.813 -70.494,23.372 -39.777,0 Z"
             style="fill:#ffffff;fill-opacity:1;fill-rule:nonzero;stroke:none"
             id="path218"
             inkscape:connector-curvature="0" /></g><g
           id="g220"
           transform="translate(257.9521,190)"><path
             d="M 0,0 3.204,-2.438 H 42.981 L 44.845,0 Z"
             style="fill:#dbdddd;fill-opacity:1;fill-rule:nonzero;stroke:none"
             id="path222"
             inkscape:connector-curvature="0" /></g><g
           id="g224"
           transform="translate(377.9229,329.8174)"><path
             d="m 0,0 -11.864,-2.867 10.483,-43.376 11.864,2.867 z"
             style="fill:#ffffff;fill-opacity:1;fill-rule:nonzero;stroke:none"
             id="path226"
             inkscape:connector-curvature="0" /></g><g
           id="g228"
           transform="translate(376.6699,335.1191)"><path
             d="M 0,0 137.087,33.29 150.705,-23.057 13.618,-56.346 Z"
             style="fill:#148cdd;fill-opacity:1;fill-rule:nonzero;stroke:none"
             id="path230"
             inkscape:connector-curvature="0" /></g><g
           id="g232"
           transform="translate(385.2588,299.5811)"><path
             d="M 0,0 137.087,33.29 142.116,12.481 5.029,-20.808 Z"
             style="fill:#076d9b;fill-opacity:1;fill-rule:nonzero;stroke:none"
             id="path234"
             inkscape:connector-curvature="0" /></g><g
           id="g236"
           transform="translate(367.4551,321.0347)"><path
             d="m 0,0 c -6.257,-1.559 -12.34,-2.92 -17.403,-4.004 -8.28,-1.773 -40.576,-1.115 -47.052,-2.68 -5.29,-1.278 -16.237,-7.963 -22.899,-13.14 -3.131,-2.432 -5.605,-4.973 -7.278,-8.568 -2.083,-4.476 -6.144,-11.976 -7.089,-14.293 -3.057,-7.505 -4.409,-27.058 -4.409,-27.058 l 30.618,39.994 18.099,-13.678 c 0,0 -0.612,-2.655 -11.045,-11.361 -10.432,-8.706 -4.907,-17.734 0.06,-17.537 4.966,0.198 18.632,14.199 30.292,18.52 10.115,3.75 24.96,12.921 28.712,15.284 0.597,0.375 1.248,0.652 1.931,0.823 l 15.63,3.905 z"
             style="fill:#ffdc83;fill-opacity:1;fill-rule:nonzero;stroke:none"
             id="path238"
             inkscape:connector-curvature="0" /></g></g></g><g
       id="g240"><g
         id="g242"><g
           id="g248"><g
             id="g250"><path
               d="m 310.042,277.608 c 0,0 8.629,9.032 4.623,10.801 v 0 c -5.012,2.212 -22.721,2.877 -22.721,2.877 v 0 z"
               style="fill:url(#linearGradient256);stroke:none"
               id="path258"
               inkscape:connector-curvature="0" /></g></g></g></g><g
       id="g260"><g
         id="g262"
         clip-path="url(#clipPath266)"><g
           id="g268"
           transform="translate(299.3652,262.4878)"><path
             d="m 0,0 c 0,0 -6.408,-6.586 -2.617,-10.016 3.792,-3.429 9.488,2.425 9.488,2.425 0,0 -1.385,5.46 -6.871,7.591"
             style="fill:#fff1d2;fill-opacity:1;fill-rule:nonzero;stroke:none"
             id="path270"
             inkscape:connector-curvature="0" /></g><g
           id="g272"
           transform="translate(299.3652,262.4878)"><path
             d="m 0,0 c 0,0 1.849,-3.973 6.871,-7.591 0,0 -1.385,5.46 -6.871,7.591"
             style="fill:#ffffff;fill-opacity:1;fill-rule:nonzero;stroke:none"
             id="path274"
             inkscape:connector-curvature="0" /></g><g
           id="g276"
           transform="translate(402.207,328.3857)"><path
             d="m 0,0 c -0.674,2.788 -3.479,4.501 -6.268,3.828 -2.787,-0.674 -4.501,-3.48 -3.827,-6.267 0.674,-2.788 3.48,-4.502 6.268,-3.828 C -1.04,-5.593 0.674,-2.788 0,0"
             style="fill:#076d9b;fill-opacity:1;fill-rule:nonzero;stroke:none"
             id="path278"
             inkscape:connector-curvature="0" /></g><g
           id="g280"
           transform="translate(400.2129,329.5537)"><path
             d="M 0,0 C -0.674,2.788 -3.48,4.501 -6.268,3.828 -9.056,3.154 -10.77,0.348 -10.096,-2.44 -9.422,-5.228 -6.615,-6.941 -3.828,-6.268 -1.04,-5.594 0.673,-2.788 0,0"
             style="fill:#ffffff;fill-opacity:1;fill-rule:nonzero;stroke:none"
             id="path282"
             inkscape:connector-curvature="0" /></g><g
           id="g284"
           transform="translate(393.0762,328.4077)"><path
             d="M 0,0 C 0.414,-0.253 0.545,-0.794 0.292,-1.209 0.038,-1.624 -0.503,-1.754 -0.917,-1.501 -1.332,-1.248 -1.463,-0.707 -1.209,-0.292 -0.956,0.122 -0.415,0.253 0,0"
             style="fill:#2d2c2a;fill-opacity:1;fill-rule:nonzero;stroke:none"
             id="path286"
             inkscape:connector-curvature="0" /></g><g
           id="g288"
           transform="translate(395.0615,331.6597)"><path
             d="M 0,0 C 0.415,-0.253 0.546,-0.794 0.292,-1.209 0.039,-1.624 -0.502,-1.754 -0.916,-1.501 -1.331,-1.248 -1.462,-0.707 -1.209,-0.292 -0.955,0.122 -0.414,0.253 0,0"
             style="fill:#2d2c2a;fill-opacity:1;fill-rule:nonzero;stroke:none"
             id="path290"
             inkscape:connector-curvature="0" /></g><g
           id="g292"
           transform="translate(396.1846,326.5088)"><path
             d="M 0,0 C 0.415,-0.253 0.546,-0.794 0.292,-1.209 0.039,-1.624 -0.502,-1.754 -0.916,-1.501 -1.331,-1.248 -1.462,-0.707 -1.209,-0.292 -0.955,0.122 -0.414,0.253 0,0"
             style="fill:#2d2c2a;fill-opacity:1;fill-rule:nonzero;stroke:none"
             id="path294"
             inkscape:connector-curvature="0" /></g><g
           id="g296"
           transform="translate(398.1709,329.7607)"><path
             d="M 0,0 C 0.414,-0.253 0.545,-0.794 0.292,-1.209 0.039,-1.623 -0.502,-1.754 -0.917,-1.501 -1.331,-1.248 -1.462,-0.707 -1.209,-0.292 -0.956,0.123 -0.414,0.253 0,0"
             style="fill:#2d2c2a;fill-opacity:1;fill-rule:nonzero;stroke:none"
             id="path298"
             inkscape:connector-curvature="0" /></g><g
           id="g300"
           transform="translate(419.8311,332.6455)"><path
             d="m 0,0 c -0.674,2.788 -3.479,4.501 -6.267,3.828 -2.788,-0.674 -4.502,-3.48 -3.828,-6.268 0.674,-2.788 3.48,-4.501 6.268,-3.828 C -1.04,-5.594 0.674,-2.788 0,0"
             style="fill:#076d9b;fill-opacity:1;fill-rule:nonzero;stroke:none"
             id="path302"
             inkscape:connector-curvature="0" /></g><g
           id="g304"
           transform="translate(417.8369,333.813)"><path
             d="m 0,0 c -0.674,2.788 -3.479,4.501 -6.268,3.828 -2.787,-0.674 -4.501,-3.48 -3.827,-6.268 0.674,-2.788 3.48,-4.501 6.267,-3.828 C -1.04,-5.594 0.674,-2.788 0,0"
             style="fill:#ffffff;fill-opacity:1;fill-rule:nonzero;stroke:none"
             id="path306"
             inkscape:connector-curvature="0" /></g><g
           id="g308"
           transform="translate(410.7002,332.667)"><path
             d="M 0,0 C 0.414,-0.253 0.545,-0.794 0.292,-1.209 0.039,-1.624 -0.502,-1.754 -0.917,-1.501 -1.331,-1.248 -1.462,-0.707 -1.209,-0.292 -0.956,0.122 -0.415,0.253 0,0"
             style="fill:#2d2c2a;fill-opacity:1;fill-rule:nonzero;stroke:none"
             id="path310"
             inkscape:connector-curvature="0" /></g><g
           id="g312"
           transform="translate(412.6865,335.9189)"><path
             d="M 0,0 C 0.414,-0.253 0.545,-0.794 0.292,-1.209 0.039,-1.623 -0.503,-1.754 -0.917,-1.501 -1.332,-1.248 -1.462,-0.707 -1.209,-0.292 -0.956,0.123 -0.415,0.253 0,0"
             style="fill:#2d2c2a;fill-opacity:1;fill-rule:nonzero;stroke:none"
             id="path314"
             inkscape:connector-curvature="0" /></g><g
           id="g316"
           transform="translate(413.8096,330.7681)"><path
             d="M 0,0 C 0.414,-0.253 0.545,-0.794 0.292,-1.209 0.038,-1.623 -0.503,-1.754 -0.917,-1.501 -1.332,-1.248 -1.462,-0.707 -1.209,-0.292 -0.956,0.123 -0.415,0.253 0,0"
             style="fill:#2d2c2a;fill-opacity:1;fill-rule:nonzero;stroke:none"
             id="path318"
             inkscape:connector-curvature="0" /></g><g
           id="g320"
           transform="translate(415.7949,334.02)"><path
             d="M 0,0 C 0.415,-0.253 0.546,-0.794 0.292,-1.208 0.039,-1.623 -0.502,-1.754 -0.916,-1.501 -1.331,-1.248 -1.462,-0.707 -1.208,-0.292 -0.955,0.123 -0.414,0.253 0,0"
             style="fill:#2d2c2a;fill-opacity:1;fill-rule:nonzero;stroke:none"
             id="path322"
             inkscape:connector-curvature="0" /></g><g
           id="g324"><g
             id="g326" /><g
             id="g338"><g
               clip-path="url(#clipPath330)"
               id="g336"
               style="opacity:0.5"><g
                 transform="translate(325.7646,265.647)"
                 id="g334"><path
                   d="m 0,0 c -10.749,-5.426 -22.241,-16.757 -26.71,-16.937 l 45.377,2.733 z"
                   style="fill:#dbdddd;fill-opacity:1;fill-rule:nonzero;stroke:none"
                   id="path332"
                   inkscape:connector-curvature="0" /></g></g></g></g><g
           id="g340"
           transform="translate(299.1387,231.9443)"><path
             d="m 0,0 -14.749,-6.965 c -0.329,-0.155 -0.722,-0.014 -0.877,0.315 l -2.277,4.823 c -0.786,1.666 -2.774,2.379 -4.44,1.592 -1.665,-0.786 -2.378,-2.774 -1.592,-4.44 l 4.516,-9.565 c 0.49,-1.039 1.731,-1.484 2.769,-0.993 L 2.847,-6.028 C 4.513,-5.242 5.225,-3.255 4.438,-1.59 3.651,0.074 1.665,0.786 0,0"
             style="fill:#148cdd;fill-opacity:1;fill-rule:nonzero;stroke:none"
             id="path342"
             inkscape:connector-curvature="0" /></g><g
           id="g344"
           transform="translate(97.9155,264.4951)"><path
             d="M 0,0 54.713,43.977 118.341,-34.801 63.628,-78.777 Z"
             style="fill:#ffffff;fill-opacity:1;fill-rule:nonzero;stroke:none"
             id="path346"
             inkscape:connector-curvature="0" /></g><g
           id="g348"
           transform="translate(66.7749,349.9458)"><path
             d="m 0,0 -116.893,24.979 -12.114,-56.688 116.893,-24.979 z"
             style="fill:#2d2c2a;fill-opacity:1;fill-rule:nonzero;stroke:none"
             id="path350"
             inkscape:connector-curvature="0" /></g><g
           id="g352"
           transform="translate(59.1343,314.1919)"><path
             d="M 0,0 -116.892,24.979 -121.366,4.045 -4.474,-20.935 Z"
             style="fill:#161513;fill-opacity:1;fill-rule:nonzero;stroke:none"
             id="path354"
             inkscape:connector-curvature="0" /></g><g
           id="g356"
           transform="translate(76.3613,336.1113)"><path
             d="m 0,0 c 6.296,-1.392 12.413,-2.59 17.503,-3.54 8.324,-1.552 40.592,-0.035 47.106,-1.427 5.323,-1.137 16.444,-7.529 23.242,-12.526 3.194,-2.348 5.734,-4.823 7.502,-8.371 2.202,-4.42 6.461,-11.809 7.467,-14.1 3.256,-7.422 5.127,-26.931 5.127,-26.931 L 76.276,-27.729 58.548,-41.884 c 0,0 0.682,-2.638 11.342,-11.064 10.661,-8.425 5.378,-17.597 0.407,-17.531 -4.97,0.065 -19.004,13.697 -30.773,17.707 -10.212,3.48 -25.295,12.252 -29.11,14.514 -0.606,0.36 -1.264,0.619 -1.952,0.772 l -15.727,3.488 z"
             style="fill:#f27d27;fill-opacity:1;fill-rule:nonzero;stroke:none"
             id="path358"
             inkscape:connector-curvature="0" /></g></g></g><g
       id="g360"><g
         id="g362"><g
           id="g368"><g
             id="g370"><path
               d="m 130,304.901 c -3.957,-1.875 4.909,-10.674 4.909,-10.674 v 0 l 17.728,14.154 c 0,0 -17.686,-1.135 -22.637,-3.48"
               style="fill:url(#linearGradient376);stroke:none"
               id="path378"
               inkscape:connector-curvature="0" /></g></g></g></g><g
       id="g380"><g
         id="g382"
         clip-path="url(#clipPath386)"><g
           id="g388"
           transform="translate(145.9839,279.396)"><path
             d="m 0,0 c 0,0 6.582,-6.413 2.882,-9.942 -3.699,-3.529 -9.549,2.171 -9.549,2.171 0,0 1.239,5.495 6.667,7.771"
             style="fill:#ffd0b0;fill-opacity:1;fill-rule:nonzero;stroke:none"
             id="path390"
             inkscape:connector-curvature="0" /></g><g
           id="g392"
           transform="translate(145.9839,279.396)"><path
             d="m 0,0 c 0,0 -1.743,-4.021 -6.667,-7.771 0,0 1.239,5.495 6.667,7.771"
             style="fill:#ffffff;fill-opacity:1;fill-rule:nonzero;stroke:none"
             id="path394"
             inkscape:connector-curvature="0" /></g><g
           id="g396"
           transform="translate(41.4258,342.5356)"><path
             d="M 0,0 C 0.599,2.805 3.359,4.592 6.163,3.993 8.968,3.394 10.755,0.634 10.156,-2.17 9.557,-4.975 6.797,-6.763 3.993,-6.163 1.188,-5.564 -0.6,-2.805 0,0"
             style="fill:#161513;fill-opacity:1;fill-rule:nonzero;stroke:none"
             id="path398"
             inkscape:connector-curvature="0" /></g><g
           id="g400"
           transform="translate(43.3887,343.7559)"><path
             d="M 0,0 C 0.599,2.805 3.358,4.592 6.163,3.993 8.968,3.394 10.755,0.634 10.156,-2.17 9.557,-4.975 6.797,-6.763 3.993,-6.163 1.188,-5.564 -0.6,-2.805 0,0"
             style="fill:#ffffff;fill-opacity:1;fill-rule:nonzero;stroke:none"
             id="path402"
             inkscape:connector-curvature="0" /></g><g
           id="g404"
           transform="translate(50.5532,342.8003)"><path
             d="M 0,0 C -0.408,-0.264 -0.524,-0.809 -0.26,-1.216 0.004,-1.624 0.549,-1.74 0.957,-1.476 1.364,-1.212 1.48,-0.667 1.216,-0.26 0.952,0.147 0.408,0.264 0,0"
             style="fill:#2d2c2a;fill-opacity:1;fill-rule:nonzero;stroke:none"
             id="path406"
             inkscape:connector-curvature="0" /></g><g
           id="g408"
           transform="translate(48.4814,345.998)"><path
             d="M 0,0 C -0.408,-0.264 -0.524,-0.808 -0.26,-1.216 0.004,-1.624 0.549,-1.74 0.956,-1.476 1.364,-1.212 1.48,-0.667 1.216,-0.26 0.952,0.148 0.408,0.264 0,0"
             style="fill:#2d2c2a;fill-opacity:1;fill-rule:nonzero;stroke:none"
             id="path410"
             inkscape:connector-curvature="0" /></g><g
           id="g412"
           transform="translate(47.4956,340.8193)"><path
             d="M 0,0 C -0.407,-0.264 -0.524,-0.809 -0.26,-1.216 0.004,-1.624 0.549,-1.74 0.957,-1.476 1.364,-1.212 1.48,-0.667 1.216,-0.26 0.952,0.148 0.408,0.264 0,0"
             style="fill:#2d2c2a;fill-opacity:1;fill-rule:nonzero;stroke:none"
             id="path414"
             inkscape:connector-curvature="0" /></g><g
           id="g416"
           transform="translate(45.4238,344.0176)"><path
             d="M 0,0 C -0.408,-0.264 -0.524,-0.809 -0.26,-1.216 0.004,-1.624 0.549,-1.74 0.956,-1.476 1.364,-1.212 1.48,-0.667 1.216,-0.26 0.952,0.147 0.408,0.264 0,0"
             style="fill:#2d2c2a;fill-opacity:1;fill-rule:nonzero;stroke:none"
             id="path418"
             inkscape:connector-curvature="0" /></g><g
           id="g420"
           transform="translate(23.6943,346.3247)"><path
             d="M 0,0 C 0.599,2.805 3.359,4.592 6.163,3.993 8.968,3.394 10.755,0.634 10.156,-2.17 9.557,-4.975 6.797,-6.763 3.993,-6.163 1.188,-5.564 -0.599,-2.804 0,0"
             style="fill:#161513;fill-opacity:1;fill-rule:nonzero;stroke:none"
             id="path422"
             inkscape:connector-curvature="0" /></g><g
           id="g424"
           transform="translate(25.6572,347.5449)"><path
             d="M 0,0 C 0.599,2.805 3.359,4.592 6.163,3.993 8.968,3.394 10.755,0.634 10.156,-2.17 9.557,-4.975 6.797,-6.762 3.993,-6.163 1.188,-5.564 -0.6,-2.804 0,0"
             style="fill:#ffffff;fill-opacity:1;fill-rule:nonzero;stroke:none"
             id="path426"
             inkscape:connector-curvature="0" /></g><g
           id="g428"
           transform="translate(32.8218,346.5894)"><path
             d="M 0,0 C -0.408,-0.264 -0.524,-0.809 -0.26,-1.216 0.004,-1.624 0.549,-1.74 0.957,-1.476 1.364,-1.212 1.48,-0.667 1.216,-0.26 0.952,0.147 0.408,0.264 0,0"
             style="fill:#2d2c2a;fill-opacity:1;fill-rule:nonzero;stroke:none"
             id="path430"
             inkscape:connector-curvature="0" /></g><g
           id="g432"
           transform="translate(30.75,349.7876)"><path
             d="M 0,0 C -0.408,-0.264 -0.524,-0.809 -0.26,-1.216 0.004,-1.624 0.549,-1.74 0.956,-1.476 1.364,-1.212 1.48,-0.667 1.216,-0.26 0.952,0.147 0.408,0.264 0,0"
             style="fill:#2d2c2a;fill-opacity:1;fill-rule:nonzero;stroke:none"
             id="path434"
             inkscape:connector-curvature="0" /></g><g
           id="g436"
           transform="translate(29.7642,344.6084)"><path
             d="M 0,0 C -0.407,-0.264 -0.524,-0.809 -0.26,-1.216 0.004,-1.624 0.549,-1.74 0.957,-1.476 1.364,-1.212 1.48,-0.667 1.216,-0.26 0.952,0.148 0.408,0.264 0,0"
             style="fill:#2d2c2a;fill-opacity:1;fill-rule:nonzero;stroke:none"
             id="path438"
             inkscape:connector-curvature="0" /></g><g
           id="g440"
           transform="translate(27.6924,347.8066)"><path
             d="M 0,0 C -0.408,-0.264 -0.524,-0.809 -0.26,-1.216 0.004,-1.624 0.549,-1.74 0.957,-1.476 1.364,-1.212 1.48,-0.667 1.216,-0.26 0.952,0.147 0.408,0.264 0,0"
             style="fill:#2d2c2a;fill-opacity:1;fill-rule:nonzero;stroke:none"
             id="path442"
             inkscape:connector-curvature="0" /></g><g
           id="g444"
           transform="translate(78.2827,343.9766)"><path
             d="m 0,0 -10.59,-47.23 -11.87,2.19 -0.02,0.08 10.03,46.92 0.2,0.48 z"
             style="fill:#ffffff;fill-opacity:1;fill-rule:nonzero;stroke:none"
             id="path446"
             inkscape:connector-curvature="0" /></g><g
           id="g448"><g
             id="g450" /><g
             id="g462"><g
               clip-path="url(#clipPath454)"
               id="g460"
               style="opacity:0.5"><g
                 transform="translate(146.6597,265.6348)"
                 id="g458"><path
                   d="M 0,0 C -4.468,0.054 -16.257,11.079 -27.145,16.22 L -44.478,2.288 Z"
                   style="fill:#dbdddd;fill-opacity:1;fill-rule:nonzero;stroke:none"
                   id="path456"
                   inkscape:connector-curvature="0" /></g></g></g></g><g
           id="g464"
           transform="translate(176.8906,241.9736)"><path
             d="m 0,0 -6.828,0.406 0.407,6.828 c 0.115,1.839 -1.288,3.423 -3.133,3.525 -0.562,0.033 -1.095,-0.075 -1.569,-0.289 C -12.208,9.982 -13,8.913 -13.074,7.641 l -0.408,-6.839 -6.828,0.406 c -1.839,0.116 -3.422,-1.287 -3.525,-3.132 -0.032,-0.562 0.076,-1.095 0.289,-1.569 0.488,-1.085 1.557,-1.877 2.83,-1.951 l 6.836,-0.409 -0.408,-6.826 c -0.109,-1.822 1.267,-3.393 3.087,-3.525 1.854,-0.135 3.46,1.272 3.571,3.128 l 0.406,6.825 6.827,-0.407 c 1.822,-0.11 3.393,1.266 3.525,3.087 C 3.263,-1.717 1.855,-0.11 0,0"
             style="fill:#fb6200;fill-opacity:1;fill-rule:nonzero;stroke:none"
             id="path466"
             inkscape:connector-curvature="0" /></g></g></g><g
       id="g468"><g
         id="g470"
         clip-path="url(#clipPath474)"><g
           id="g476"
           transform="translate(260.1045,34.5342)"><path
             d="m 0,0 c -0.433,-0.442 -0.804,-0.931 -1.108,-1.453 l -0.466,0.241 c -0.067,0.298 -0.349,0.503 -0.658,0.467 -0.331,-0.039 -0.569,-0.339 -0.53,-0.67 0.039,-0.331 0.339,-0.568 0.67,-0.529 0.066,0.007 0.127,0.026 0.184,0.052 l 0.451,-0.234 C -1.708,-2.68 -1.89,-3.265 -1.996,-3.87 l 0.746,-0.131 c 0.23,1.306 0.85,2.506 1.792,3.472 z"
             style="fill:#1d262d;fill-opacity:1;fill-rule:nonzero;stroke:none"
             id="path478"
             inkscape:connector-curvature="0" /></g><g
           id="g480"
           transform="translate(265.5918,36.8369)"><path
             d="m 0,0 c -0.171,0 -0.341,-0.007 -0.51,-0.018 l -0.073,0.626 c 0.187,0.15 0.296,0.39 0.266,0.645 C -0.363,1.646 -0.72,1.928 -1.113,1.882 -1.506,1.835 -1.787,1.479 -1.741,1.086 -1.711,0.832 -1.552,0.625 -1.336,0.522 l 0.073,-0.624 c -0.714,-0.116 -1.403,-0.332 -2.059,-0.646 l 0.327,-0.684 c 0.933,0.448 1.941,0.673 2.995,0.673 0.496,0 0.993,-0.053 1.475,-0.157 l 0.161,0.741 C 1.101,-0.06 0.551,0 0,0"
             style="fill:#1d262d;fill-opacity:1;fill-rule:nonzero;stroke:none"
             id="path482"
             inkscape:connector-curvature="0" /></g><g
           id="g484"
           transform="translate(272.1943,34.2891)"><path
             d="M 0,0 C 0.331,0.041 0.566,0.342 0.525,0.673 0.485,1.004 0.184,1.238 -0.146,1.198 -0.456,1.16 -0.682,0.895 -0.677,0.59 L -1.093,0.227 c -0.418,0.429 -0.889,0.812 -1.408,1.138 l -0.403,-0.64 c 1.133,-0.715 2.02,-1.727 2.563,-2.926 l 0.691,0.312 c -0.251,0.555 -0.568,1.073 -0.943,1.545 L -0.19,0.008 C -0.13,-0.005 -0.065,-0.008 0,0"
             style="fill:#1d262d;fill-opacity:1;fill-rule:nonzero;stroke:none"
             id="path486"
             inkscape:connector-curvature="0" /></g><g
           id="g488"
           transform="translate(265.0439,26.6279)"><path
             d="m 0,0 c -0.386,-0.023 -0.774,-0.034 -1.157,-0.034 -0.88,0 -1.733,0.06 -2.478,0.179 -0.39,0.062 -0.846,0.155 -1.27,0.292 1.046,-1.861 3.069,-3.125 5.388,-3.125 2.856,0 5.262,1.916 5.95,4.503 C 5.751,1.366 4.927,0.99 3.974,0.692 2.795,0.325 1.42,0.086 0,0"
             style="fill:#1d262d;fill-opacity:1;fill-rule:nonzero;stroke:none"
             id="path490"
             inkscape:connector-curvature="0" /></g><g
           id="g492"
           transform="translate(268.1699,29.7139)"><path
             d="M 0,0 C -0.75,0 -1.36,0.61 -1.36,1.36 -1.36,2.11 -0.75,2.721 0,2.721 0.75,2.721 1.36,2.11 1.36,1.36 1.36,0.61 0.75,0 0,0 m -4.737,-0.908 c -1.021,0 -1.85,0.83 -1.85,1.849 0,1.021 0.829,1.85 1.85,1.85 1.019,0 1.849,-0.829 1.849,-1.85 0,-1.019 -0.83,-1.849 -1.849,-1.849 m 2.159,6.514 c -3.353,0 -6.079,-2.666 -6.079,-5.943 0,-0.426 0.046,-0.849 0.136,-1.262 0.674,-0.482 2.707,-0.889 5.348,-0.73 2.879,0.173 5.297,0.957 6.672,2.158 C 3.494,0.024 3.479,0.22 3.454,0.411 3.074,3.373 0.48,5.606 -2.578,5.606"
             style="fill:#1d262d;fill-opacity:1;fill-rule:nonzero;stroke:none"
             id="path494"
             inkscape:connector-curvature="0" /></g><g
           id="g496"
           transform="translate(281.5957,33.4531)"><path
             d="M 0,0 C -0.295,0.116 -0.806,0.309 -1.383,0.237 -1.934,0.169 -2.227,-0.103 -2.227,-0.77 v -0.865 h 2.228 v -1.718 h -2.228 v -5.454 h -1.931 v 5.454 h -1.34 v 1.718 h 1.34 v 0.888 c 0,1.681 0.895,2.783 2.568,2.783 0.643,0 1.157,-0.122 1.59,-0.308 z"
             style="fill:#1d262d;fill-opacity:1;fill-rule:nonzero;stroke:none"
             id="path498"
             inkscape:connector-curvature="0" /></g><g
           id="g500"
           transform="translate(286.2979,30.1211)"><path
             d="m 0,0 c -0.177,0.03 -0.357,0.047 -0.526,0.047 -0.896,0 -1.51,-0.548 -1.51,-1.614 v -3.908 h -1.932 v 7.172 h 1.873 V 0.912 c 0.451,0.674 1.14,0.978 2.021,0.978 0.414,0 0.847,-0.128 1.094,-0.337 z"
             style="fill:#1d262d;fill-opacity:1;fill-rule:nonzero;stroke:none"
             id="path502"
             inkscape:connector-curvature="0" /></g><g
           id="g504"
           transform="translate(288.8506,28.9092)"><path
             d="M 0,0 H 3.176 C 2.998,0.918 2.442,1.436 1.613,1.436 0.703,1.436 0.171,0.889 0,0 m 5.114,-0.666 c 0,-0.222 -0.014,-0.488 -0.037,-0.651 h -5.084 c 0.207,-1.037 0.933,-1.488 1.843,-1.488 0.621,0 1.295,0.251 1.813,0.688 L 4.781,-3.36 c -0.813,-0.747 -1.85,-1.088 -3.056,-1.088 -2.199,0 -3.723,1.495 -3.723,3.753 0,2.257 1.48,3.797 3.626,3.797 2.065,0 3.479,-1.533 3.486,-3.768"
             style="fill:#1d262d;fill-opacity:1;fill-rule:nonzero;stroke:none"
             id="path506"
             inkscape:connector-curvature="0" /></g><g
           id="g508"
           transform="translate(296.5039,28.9092)"><path
             d="M 0,0 H 3.176 C 2.998,0.918 2.442,1.436 1.613,1.436 0.703,1.436 0.17,0.889 0,0 m 5.114,-0.666 c 0,-0.222 -0.014,-0.488 -0.037,-0.651 h -5.084 c 0.207,-1.037 0.932,-1.488 1.843,-1.488 0.621,0 1.295,0.251 1.813,0.688 L 4.781,-3.36 c -0.813,-0.747 -1.85,-1.088 -3.056,-1.088 -2.199,0 -3.723,1.495 -3.723,3.753 0,2.257 1.48,3.797 3.626,3.797 2.065,0 3.479,-1.533 3.486,-3.768"
             style="fill:#1d262d;fill-opacity:1;fill-rule:nonzero;stroke:none"
             id="path510"
             inkscape:connector-curvature="0" /></g><g
           id="g512"
           transform="translate(304.2871,28.2354)"><path
             d="m 0,0 c 0,-1.132 0.748,-1.976 1.843,-1.976 1.139,0 1.85,0.881 1.85,1.976 0,1.096 -0.711,1.977 -1.85,1.977 C 0.748,1.977 0,1.133 0,0 m 5.677,0 c 0,-2.153 -1.495,-3.774 -3.471,-3.774 -0.963,0 -1.644,0.378 -2.109,0.932 V -6.55 H -1.828 V 3.583 H 0.06 V 2.791 C 0.525,3.375 1.214,3.775 2.198,3.775 4.182,3.775 5.677,2.154 5.677,0"
             style="fill:#1d262d;fill-opacity:1;fill-rule:nonzero;stroke:none"
             id="path514"
             inkscape:connector-curvature="0" /></g><path
           d="m 312.809,24.646 h -1.932 v 7.172 h 1.932 z m 0.258,9.518 c 0,-0.695 -0.54,-1.228 -1.235,-1.228 -0.696,0 -1.229,0.533 -1.229,1.228 0,0.696 0.533,1.243 1.229,1.243 0.695,0 1.235,-0.547 1.235,-1.243"
           style="fill:#1d262d;fill-opacity:1;fill-rule:nonzero;stroke:none"
           id="path516"
           inkscape:connector-curvature="0" /><g
           id="g518"
           transform="translate(316.0322,29.2646)"><path
             d="M 0,0 2.701,2.554 H 5.07 L 1.591,-0.821 5.092,-4.618 H 2.716 L 0,-1.717 V -4.618 H -1.932 V 6.039 H 0 Z"
             style="fill:#1d262d;fill-opacity:1;fill-rule:nonzero;stroke:none"
             id="path520"
             inkscape:connector-curvature="0" /></g><g
           id="g522"
           transform="translate(184.4126,26.6299)"><path
             d="m 0,0 v 3.208 c -0.396,0.615 -1.245,1.143 -2.124,1.143 -1.421,0 -2.271,-1.172 -2.271,-2.74 0,-1.567 0.85,-2.724 2.271,-2.724 0.879,0 1.728,0.498 2.124,1.113 m 0,-1.919 v 1.055 c -0.527,-0.718 -1.392,-1.231 -2.388,-1.231 -1.845,0 -3.149,1.407 -3.149,3.706 0,2.256 1.289,3.721 3.149,3.721 0.952,0 1.817,-0.469 2.388,-1.245 v 3.765 h 1.099 v -9.771 z"
             style="fill:#1d262d;fill-opacity:1;fill-rule:nonzero;stroke:none"
             id="path524"
             inkscape:connector-curvature="0" /></g><g
           id="g526"
           transform="translate(190.4033,31.0537)"><path
             d="M 0,0 C -1.509,0 -2.256,-1.274 -2.314,-2.358 H 2.329 C 2.314,-1.304 1.611,0 0,0 m -3.471,-2.798 c 0,2.051 1.464,3.706 3.486,3.706 2.138,0 3.398,-1.67 3.398,-3.794 v -0.278 h -5.727 c 0.087,-1.333 1.025,-2.446 2.548,-2.446 0.806,0 1.626,0.322 2.183,0.893 L 2.944,-5.435 C 2.241,-6.138 1.289,-6.519 0.132,-6.519 c -2.095,0 -3.603,1.509 -3.603,3.721"
             style="fill:#1d262d;fill-opacity:1;fill-rule:nonzero;stroke:none"
             id="path528"
             inkscape:connector-curvature="0" /></g><g
           id="g530"
           transform="translate(194.6069,25.6484)"><path
             d="M 0,0 0.571,0.791 C 1.04,0.249 1.934,-0.22 2.9,-0.22 c 1.084,0 1.67,0.513 1.67,1.216 0,1.714 -4.38,0.659 -4.38,3.281 0,1.099 0.953,2.036 2.637,2.036 1.201,0 2.051,-0.454 2.622,-1.025 L 4.936,4.526 C 4.512,5.039 3.735,5.42 2.827,5.42 1.86,5.42 1.26,4.937 1.26,4.307 1.26,2.754 5.639,3.779 5.639,1.025 5.639,-0.161 4.687,-1.113 2.856,-1.113 1.699,-1.113 0.718,-0.762 0,0"
             style="fill:#1d262d;fill-opacity:1;fill-rule:nonzero;stroke:none"
             id="path532"
             inkscape:connector-curvature="0" /></g><path
           d="m 201.667,31.786 h 1.099 v -7.075 h -1.099 z m -0.19,1.743 c 0,0.41 0.337,0.747 0.732,0.747 0.411,0 0.747,-0.337 0.747,-0.747 0,-0.41 -0.336,-0.732 -0.747,-0.732 -0.395,0 -0.732,0.322 -0.732,0.732"
           style="fill:#1d262d;fill-opacity:1;fill-rule:nonzero;stroke:none"
           id="path534"
           inkscape:connector-curvature="0" /><g
           id="g536"
           transform="translate(209.7085,26.7471)"><path
             d="m 0,0 v 3.091 c -0.381,0.615 -1.23,1.142 -2.109,1.142 -1.421,0 -2.27,-1.128 -2.27,-2.695 0,-1.553 0.849,-2.695 2.27,-2.695 0.879,0 1.728,0.542 2.109,1.157 m -5.126,-3.853 0.556,0.821 c 0.586,-0.703 1.289,-0.967 2.3,-0.967 1.172,0 2.27,0.571 2.27,2.124 v 1.011 c -0.512,-0.718 -1.376,-1.26 -2.373,-1.26 -1.845,0 -3.149,1.377 -3.149,3.662 0,2.271 1.289,3.677 3.149,3.677 0.952,0 1.802,-0.469 2.373,-1.245 v 1.069 h 1.099 v -6.87 c 0,-2.344 -1.641,-3.076 -3.369,-3.076 -1.201,0 -2.022,0.234 -2.856,1.054"
             style="fill:#1d262d;fill-opacity:1;fill-rule:nonzero;stroke:none"
             id="path538"
             inkscape:connector-curvature="0" /></g><g
           id="g540"
           transform="translate(217.4131,24.7109)"><path
             d="M 0,0 V 4.629 C 0,5.874 -0.629,6.27 -1.582,6.27 -2.446,6.27 -3.267,5.742 -3.676,5.171 V 0 h -1.099 v 7.075 h 1.099 V 6.05 c 0.498,0.586 1.464,1.201 2.519,1.201 1.479,0 2.256,-0.747 2.256,-2.285 L 1.099,0 Z"
             style="fill:#1d262d;fill-opacity:1;fill-rule:nonzero;stroke:none"
             id="path542"
             inkscape:connector-curvature="0" /></g><g
           id="g544"
           transform="translate(223.4043,31.0537)"><path
             d="M 0,0 C -1.509,0 -2.256,-1.274 -2.314,-2.358 H 2.329 C 2.314,-1.304 1.611,0 0,0 m -3.472,-2.798 c 0,2.051 1.465,3.706 3.487,3.706 2.138,0 3.398,-1.67 3.398,-3.794 v -0.278 h -5.727 c 0.087,-1.333 1.025,-2.446 2.548,-2.446 0.806,0 1.626,0.322 2.183,0.893 L 2.944,-5.435 C 2.241,-6.138 1.289,-6.519 0.132,-6.519 c -2.095,0 -3.604,1.509 -3.604,3.721"
             style="fill:#1d262d;fill-opacity:1;fill-rule:nonzero;stroke:none"
             id="path546"
             inkscape:connector-curvature="0" /></g><g
           id="g548"
           transform="translate(233.3501,26.6299)"><path
             d="m 0,0 v 3.208 c -0.396,0.615 -1.245,1.143 -2.124,1.143 -1.421,0 -2.271,-1.172 -2.271,-2.74 0,-1.567 0.85,-2.724 2.271,-2.724 0.879,0 1.728,0.498 2.124,1.113 m 0,-1.919 v 1.055 c -0.527,-0.718 -1.392,-1.231 -2.388,-1.231 -1.845,0 -3.149,1.407 -3.149,3.706 0,2.256 1.289,3.721 3.149,3.721 0.952,0 1.817,-0.469 2.388,-1.245 v 3.765 h 1.099 v -9.771 z"
             style="fill:#1d262d;fill-opacity:1;fill-rule:nonzero;stroke:none"
             id="path550"
             inkscape:connector-curvature="0" /></g><g
           id="g552"
           transform="translate(242.8999,25.5166)"><path
             d="M 0,0 C 1.436,0 2.285,1.157 2.285,2.725 2.285,4.292 1.436,5.464 0,5.464 -0.864,5.464 -1.729,4.937 -2.109,4.321 V 1.113 C -1.729,0.498 -0.864,0 0,0 m -3.208,-0.806 v 9.771 h 1.099 V 5.2 c 0.571,0.777 1.421,1.245 2.387,1.245 1.846,0 3.15,-1.465 3.15,-3.72 0,-2.3 -1.304,-3.706 -3.15,-3.706 -0.996,0 -1.86,0.512 -2.387,1.23 v -1.055 z"
             style="fill:#1d262d;fill-opacity:1;fill-rule:nonzero;stroke:none"
             id="path554"
             inkscape:connector-curvature="0" /></g><g
           id="g556"
           transform="translate(247.5283,22.9385)"><path
             d="m 0,0 c 0.161,-0.073 0.425,-0.117 0.601,-0.117 0.483,0 0.805,0.161 1.055,0.747 l 0.469,1.069 -2.96,7.149 H 0.352 L 2.71,3.047 5.054,8.848 H 6.255 L 2.71,0.337 C 2.285,-0.688 1.567,-1.084 0.63,-1.099 c -0.234,0 -0.601,0.044 -0.805,0.103 z"
             style="fill:#1d262d;fill-opacity:1;fill-rule:nonzero;stroke:none"
             id="path558"
             inkscape:connector-curvature="0" /></g></g></g></g></svg>