<?xml version="1.0" encoding="UTF-8" standalone="no"?>
<!-- Created with Inkscape (http://www.inkscape.org/) -->

<svg
   xmlns:dc="http://purl.org/dc/elements/1.1/"
   xmlns:cc="http://creativecommons.org/ns#"
   xmlns:rdf="http://www.w3.org/1999/02/22-rdf-syntax-ns#"
   xmlns:svg="http://www.w3.org/2000/svg"
   xmlns="http://www.w3.org/2000/svg"
   xmlns:sodipodi="http://sodipodi.sourceforge.net/DTD/sodipodi-0.dtd"
   xmlns:inkscape="http://www.inkscape.org/namespaces/inkscape"
   version="1.1"
   id="svg2"
   xml:space="preserve"
   width="666.66669"
   height="666.66669"
   viewBox="0 0 666.66669 666.66669"
   sodipodi:docname="2.svg"
   inkscape:version="0.92.3 (2405546, 2018-03-11)"
   inkscape:export-filename="D:\Job\KPU Prabumulih\Website\Jadi 2\2.png"
   inkscape:export-xdpi="200"
   inkscape:export-ydpi="200"><metadata
     id="metadata8"><rdf:RDF><cc:Work
         rdf:about=""><dc:format>image/svg+xml</dc:format><dc:type
           rdf:resource="http://purl.org/dc/dcmitype/StillImage" /><dc:title></dc:title></cc:Work></rdf:RDF></metadata><defs
     id="defs6"><linearGradient
       x1="0"
       y1="0"
       x2="1"
       y2="0"
       gradientUnits="userSpaceOnUse"
       gradientTransform="matrix(0,-474.00107,-474.00107,0,250,484)"
       spreadMethod="pad"
       id="linearGradient30"><stop
         style="stop-opacity:1;stop-color:#81d7e5"
         offset="0"
         id="stop24" /><stop
         style="stop-opacity:1;stop-color:#81d7e5"
         offset="0.0740394"
         id="stop26" /><stop
         style="stop-opacity:1;stop-color:#3da7be"
         offset="1"
         id="stop28" /></linearGradient><linearGradient
       x1="0"
       y1="0"
       x2="1"
       y2="0"
       gradientUnits="userSpaceOnUse"
       gradientTransform="matrix(0,-474.00107,-474.00107,0,251,484)"
       spreadMethod="pad"
       id="linearGradient52"><stop
         style="stop-opacity:1;stop-color:#81d7e5"
         offset="0"
         id="stop46" /><stop
         style="stop-opacity:1;stop-color:#81d7e5"
         offset="0.0740394"
         id="stop48" /><stop
         style="stop-opacity:1;stop-color:#3da7be"
         offset="1"
         id="stop50" /></linearGradient><clipPath
       clipPathUnits="userSpaceOnUse"
       id="clipPath62"><path
         d="M 0,500 H 500 V 0 H 0 Z"
         id="path60"
         inkscape:connector-curvature="0" /></clipPath><clipPath
       clipPathUnits="userSpaceOnUse"
       id="clipPath70"><path
         d="M 104.418,78.2509 H 395.582 V 16 H 104.418 Z"
         id="path68"
         inkscape:connector-curvature="0" /></clipPath><linearGradient
       x1="0"
       y1="0"
       x2="1"
       y2="0"
       gradientUnits="userSpaceOnUse"
       gradientTransform="matrix(291.16336,0,0,-291.16336,104.41832,47.125473)"
       spreadMethod="pad"
       id="linearGradient82"><stop
         style="stop-opacity:1;stop-color:#81d7e5"
         offset="0"
         id="stop76" /><stop
         style="stop-opacity:1;stop-color:#81d7e5"
         offset="0.0740394"
         id="stop78" /><stop
         style="stop-opacity:1;stop-color:#3da7be"
         offset="1"
         id="stop80" /></linearGradient><clipPath
       clipPathUnits="userSpaceOnUse"
       id="clipPath108"><path
         d="M 0,500 H 500 V 0 H 0 Z"
         id="path106"
         inkscape:connector-curvature="0" /></clipPath><clipPath
       clipPathUnits="userSpaceOnUse"
       id="clipPath122"><path
         d="M 153.547,186.367 H 346.453 V 175.819 H 153.547 Z"
         id="path120"
         inkscape:connector-curvature="0" /></clipPath><clipPath
       clipPathUnits="userSpaceOnUse"
       id="clipPath144"><path
         d="m 216.929,293.912 h 66.142 V 279.46 h -66.142 z"
         id="path142"
         inkscape:connector-curvature="0" /></clipPath><clipPath
       clipPathUnits="userSpaceOnUse"
       id="clipPath166"><path
         d="m 216.929,269.169 h 66.142 v -14.452 h -66.142 z"
         id="path164"
         inkscape:connector-curvature="0" /></clipPath><clipPath
       clipPathUnits="userSpaceOnUse"
       id="clipPath188"><path
         d="m 216.929,246.108 h 66.142 v -14.452 h -66.142 z"
         id="path186"
         inkscape:connector-curvature="0" /></clipPath><clipPath
       clipPathUnits="userSpaceOnUse"
       id="clipPath230"><path
         d="m 240.629,396.356 h 133.614 v -97.37 H 240.629 Z"
         id="path228"
         inkscape:connector-curvature="0" /></clipPath><clipPath
       clipPathUnits="userSpaceOnUse"
       id="clipPath282"><path
         d="M 0,500 H 500 V 0 H 0 Z"
         id="path280"
         inkscape:connector-curvature="0" /></clipPath></defs><sodipodi:namedview
     pagecolor="#ffffff"
     bordercolor="#666666"
     borderopacity="1"
     objecttolerance="10"
     gridtolerance="10"
     guidetolerance="10"
     inkscape:pageopacity="0"
     inkscape:pageshadow="2"
     inkscape:window-width="1366"
     inkscape:window-height="705"
     id="namedview4"
     showgrid="false"
     inkscape:zoom="0.35399999"
     inkscape:cx="333.33334"
     inkscape:cy="333.33334"
     inkscape:window-x="-8"
     inkscape:window-y="-8"
     inkscape:window-maximized="1"
     inkscape:current-layer="g10" /><g
     id="g10"
     inkscape:groupmode="layer"
     inkscape:label="420650-PDRFKB-413"
     transform="matrix(1.3333333,0,0,-1.3333333,0,666.66667)"><g
       id="g12"><g
         id="g14"><g
           id="g20"><g
             id="g22"><path
               d="M 0,0 H 500 V 500 H 0 Z"
               style="fill:url(#linearGradient30);stroke:none"
               id="path32"
               inkscape:connector-curvature="0" /></g></g></g></g><g
       id="g34"><g
         id="g36"><g
           id="g42"><g
             id="g44"><path
               d="M 0,0 H 500 V 500 H 0 Z"
               style="fill:url(#linearGradient52);stroke:none"
               id="path54"
               inkscape:connector-curvature="0" /></g></g></g></g><g
       id="g56"><g
         id="g58"
         clip-path="url(#clipPath62)"><g
           id="g64"><g
             id="g66" /><g
             id="g96"><g
               clip-path="url(#clipPath70)"
               id="g94"
               style="opacity:0.5"><g
                 id="g92"><g
                   id="g90"><g
                     id="g88"><g
                       id="g86"><path
                         d="M 173.386,78.251 104.418,16 h 291.164 l -68.968,62.251 z"
                         style="fill:url(#linearGradient82);stroke:none"
                         id="path84"
                         inkscape:connector-curvature="0" /></g></g></g></g></g></g></g></g></g><g
       id="g98"
       transform="translate(331.25,243.011)"><path
         d="m 0,0 h -79.855 -2.79 -79.855 l -19.004,-36.108 h 98.859 2.79 98.859 z"
         style="fill:#e6e6e6;fill-opacity:1;fill-rule:nonzero;stroke:none"
         id="path100"
         inkscape:connector-curvature="0" /></g><g
       id="g102"><g
         id="g104"
         clip-path="url(#clipPath108)"><g
           id="g110"
           transform="translate(307.5265,222.819)"><path
             d="m 0,0 h -115.053 c -1.096,0 -1.992,0.962 -1.992,2.138 0,1.176 0.896,2.138 1.992,2.138 45.018,0 70.035,0 115.053,0 1.096,0 1.993,-0.962 1.993,-2.138 C 1.993,0.962 1.096,0 0,0"
             style="fill:#aaaaaa;fill-opacity:1;fill-rule:nonzero;stroke:none"
             id="path112"
             inkscape:connector-curvature="0" /></g><path
           d="M 346.453,43 H 153.546 v 143.194 h 192.907 z"
           style="fill:#e6e6e6;fill-opacity:1;fill-rule:nonzero;stroke:none"
           id="path114"
           inkscape:connector-curvature="0" /><g
           id="g116"><g
             id="g118" /><g
             id="g128"><g
               clip-path="url(#clipPath122)"
               id="g126"
               style="opacity:0.19999701"><path
                 d="M 346.453,175.819 H 153.546 v 10.548 h 192.907 z"
                 style="fill:#aaaaaa;fill-opacity:1;fill-rule:nonzero;stroke:none"
                 id="path124"
                 inkscape:connector-curvature="0" /></g></g></g><path
           d="M 350.254,185.838 H 149.746 v 21.065 h 200.508 z"
           style="fill:#cccccc;fill-opacity:1;fill-rule:nonzero;stroke:none"
           id="path130"
           inkscape:connector-curvature="0" /><g
           id="g132"
           transform="translate(299.8495,336.3981)"><path
             d="m 0,0 -30.554,-21.095 c 0,0 10.995,-6.393 16.318,-5.666 5.982,0.817 8.437,6.701 6.395,9.636 -1.07,1.537 -2.301,3.211 -3.743,4.806 5.291,-2.804 13.424,-4.743 16.965,-2.933 2.169,1.109 5.102,3.721 3.426,8.444 C 7.657,-3.566 0,0 0,0"
             style="fill:#d7aa89;fill-opacity:1;fill-rule:nonzero;stroke:none"
             id="path134"
             inkscape:connector-curvature="0" /></g><path
           d="M 300.76,222.809 H 199.241 v 100.64 H 300.76 Z"
           style="fill:#ffffff;fill-opacity:1;fill-rule:nonzero;stroke:none"
           id="path136"
           inkscape:connector-curvature="0" /><g
           id="g138"><g
             id="g140" /><g
             id="g158"><g
               clip-path="url(#clipPath144)"
               id="g156"
               style="opacity:0.19999701"><path
                 d="m 217.929,280.46 h 12.452 v 12.452 h -12.452 z m 12.953,-1 h -13.453 c -0.276,0 -0.5,0.224 -0.5,0.5 v 13.452 c 0,0.276 0.224,0.5 0.5,0.5 h 13.453 c 0.276,0 0.5,-0.224 0.5,-0.5 V 279.96 c 0,-0.276 -0.224,-0.5 -0.5,-0.5"
                 style="fill:#727273;fill-opacity:1;fill-rule:nonzero;stroke:none"
                 id="path146"
                 inkscape:connector-curvature="0" /><g
                 transform="translate(282.5706,289.8691)"
                 id="g150"><path
                   d="m 0,0 h -45.923 c -0.277,0 -0.5,0.224 -0.5,0.5 0,0.276 0.223,0.5 0.5,0.5 H 0 C 0.276,1 0.5,0.776 0.5,0.5 0.5,0.224 0.276,0 0,0"
                   style="fill:#727273;fill-opacity:1;fill-rule:nonzero;stroke:none"
                   id="path148"
                   inkscape:connector-curvature="0" /></g><g
                 transform="translate(282.5706,282.5029)"
                 id="g154"><path
                   d="m 0,0 h -45.923 c -0.277,0 -0.5,0.224 -0.5,0.5 0,0.276 0.223,0.5 0.5,0.5 H 0 C 0.276,1 0.5,0.776 0.5,0.5 0.5,0.224 0.276,0 0,0"
                   style="fill:#727273;fill-opacity:1;fill-rule:nonzero;stroke:none"
                   id="path152"
                   inkscape:connector-curvature="0" /></g></g></g></g><g
           id="g160"><g
             id="g162" /><g
             id="g180"><g
               clip-path="url(#clipPath166)"
               id="g178"
               style="opacity:0.19999701"><path
                 d="m 217.929,255.717 h 12.452 v 12.452 h -12.452 z m 12.953,-1 h -13.453 c -0.276,0 -0.5,0.224 -0.5,0.5 v 13.452 c 0,0.277 0.224,0.5 0.5,0.5 h 13.453 c 0.276,0 0.5,-0.223 0.5,-0.5 v -13.452 c 0,-0.276 -0.224,-0.5 -0.5,-0.5"
                 style="fill:#727273;fill-opacity:1;fill-rule:nonzero;stroke:none"
                 id="path168"
                 inkscape:connector-curvature="0" /><g
                 transform="translate(282.5706,265.127)"
                 id="g172"><path
                   d="m 0,0 h -45.923 c -0.277,0 -0.5,0.224 -0.5,0.5 0,0.276 0.223,0.5 0.5,0.5 H 0 C 0.276,1 0.5,0.776 0.5,0.5 0.5,0.224 0.276,0 0,0"
                   style="fill:#727273;fill-opacity:1;fill-rule:nonzero;stroke:none"
                   id="path170"
                   inkscape:connector-curvature="0" /></g><g
                 transform="translate(282.5706,257.7603)"
                 id="g176"><path
                   d="m 0,0 h -45.923 c -0.277,0 -0.5,0.224 -0.5,0.5 0,0.276 0.223,0.5 0.5,0.5 H 0 C 0.276,1 0.5,0.776 0.5,0.5 0.5,0.224 0.276,0 0,0"
                   style="fill:#727273;fill-opacity:1;fill-rule:nonzero;stroke:none"
                   id="path174"
                   inkscape:connector-curvature="0" /></g></g></g></g><g
           id="g182"><g
             id="g184" /><g
             id="g202"><g
               clip-path="url(#clipPath188)"
               id="g200"
               style="opacity:0.19999701"><path
                 d="m 217.929,232.656 h 12.452 v 12.452 h -12.452 z m 12.953,-1 h -13.453 c -0.276,0 -0.5,0.224 -0.5,0.5 v 13.452 c 0,0.277 0.224,0.5 0.5,0.5 h 13.453 c 0.276,0 0.5,-0.223 0.5,-0.5 v -13.452 c 0,-0.276 -0.224,-0.5 -0.5,-0.5"
                 style="fill:#727273;fill-opacity:1;fill-rule:nonzero;stroke:none"
                 id="path190"
                 inkscape:connector-curvature="0" /><g
                 transform="translate(282.5706,242.0664)"
                 id="g194"><path
                   d="m 0,0 h -45.923 c -0.277,0 -0.5,0.224 -0.5,0.5 0,0.276 0.223,0.5 0.5,0.5 H 0 C 0.276,1 0.5,0.776 0.5,0.5 0.5,0.224 0.276,0 0,0"
                   style="fill:#727273;fill-opacity:1;fill-rule:nonzero;stroke:none"
                   id="path192"
                   inkscape:connector-curvature="0" /></g><g
                 transform="translate(282.5706,234.6992)"
                 id="g198"><path
                   d="m 0,0 h -45.923 c -0.277,0 -0.5,0.224 -0.5,0.5 0,0.276 0.223,0.5 0.5,0.5 H 0 C 0.276,1 0.5,0.776 0.5,0.5 0.5,0.224 0.276,0 0,0"
                   style="fill:#727273;fill-opacity:1;fill-rule:nonzero;stroke:none"
                   id="path196"
                   inkscape:connector-curvature="0" /></g></g></g></g><g
           id="g204"
           transform="translate(219.1344,289.4911)"><path
             d="m 0,0 c 1.49,-2.468 2.98,-4.936 4.47,-7.405 0.583,-0.965 2.01,-0.977 2.591,0 2.585,4.351 5.17,8.701 7.755,13.052 0.99,1.667 -1.604,3.175 -2.591,1.514 C 9.64,2.811 7.055,-1.54 4.47,-5.891 H 7.061 C 5.571,-3.422 4.081,-0.954 2.59,1.514 1.592,3.168 -1.003,1.661 0,0"
             style="fill:#15a0e9;fill-opacity:1;fill-rule:nonzero;stroke:none"
             id="path206"
             inkscape:connector-curvature="0" /></g><g
           id="g208"
           transform="translate(500,487.6536)"><path
             d="m 0,0 v 12.346 h -88.857 l -70.829,-49.935 37.128,-52.724 8.897,-12.633 0.216,0.152 -11.031,15.567 z"
             style="fill:#2b4371;fill-opacity:1;fill-rule:nonzero;stroke:none"
             id="path210"
             inkscape:connector-curvature="0" /></g><g
           id="g212"
           transform="translate(500,487.6536)"><path
             d="m 0,0 -124.476,-87.227 11.031,-15.567 L 0,-22.871 Z"
             style="fill:#626262;fill-opacity:1;fill-rule:nonzero;stroke:none"
             id="path214"
             inkscape:connector-curvature="0" /></g><g
           id="g216"
           transform="translate(500,487.6536)"><path
             d="m 0,0 -124.476,-87.227 11.031,-15.567 L 0,-22.871 Z"
             style="fill:#1a3156;fill-opacity:1;fill-rule:nonzero;stroke:none"
             id="path218"
             inkscape:connector-curvature="0" /></g><g
           id="g220"
           transform="translate(354.8507,375.6635)"><path
             d="M 0,0 19.392,13.935 -14.597,60.976 -33.881,47.119 -33.948,47.212 -99.461,34.55 c -6.663,-1.288 -12.186,-5.929 -14.602,-12.271 l -18.135,-47.602 c -2.249,-5.906 -1.386,-12.547 2.3,-17.681 l 12.033,-16.761 c 0,0 -3.485,-7.173 1.922,-13.452 0.415,-0.481 0.846,-0.885 1.285,-1.254 -0.015,-0.011 -0.038,-0.027 -0.038,-0.027 0.059,-0.029 0.111,-0.05 0.169,-0.079 1.993,-1.624 4.198,-2.17 6.394,-2.036 2.114,-0.145 3.704,0.478 5.335,1.5 1.145,0.554 2.225,1.207 3.19,1.896 4.484,3.203 26.276,20.948 31.709,24.342 0.925,0.578 2.753,1.528 5.143,2.709 9.421,4.307 27.229,12.175 35.073,16.74 1.404,0.717 2.476,1.296 3.099,1.69 5.954,3.77 24.457,27.822 24.457,27.822 z"
             style="fill:#ffcda3;fill-opacity:1;fill-rule:nonzero;stroke:none"
             id="path222"
             inkscape:connector-curvature="0" /></g><g
           id="g224"><g
             id="g226" /><g
             id="g238"><g
               clip-path="url(#clipPath230)"
               id="g236"
               style="opacity:0.27999902"><g
                 transform="translate(369.3605,396.3563)"
                 id="g234"><path
                   d="m 0,0 -19.033,-13.983 c 0,0 -9.396,-14.057 -21.745,-24.903 -6.292,-5.528 -39.074,-18.639 -44.44,-23.061 -21.86,-18.017 -43.513,-33.231 -43.513,-33.231 4.684,-3.856 10.049,-2.148 14.847,1.442 4.412,3.301 26.826,21.103 31.709,24.342 4.897,3.248 37.154,16.335 43.315,21.139 5.557,4.334 24.457,27.821 24.457,27.821 L 4.883,-6.757 Z"
                   style="fill:#b3825d;fill-opacity:1;fill-rule:nonzero;stroke:none"
                   id="path232"
                   inkscape:connector-curvature="0" /></g></g></g></g><g
           id="g240"
           transform="translate(277.9833,362.6611)"><path
             d="m 0,0 h -10.249 c 0,0 -7.047,-5.125 -12.171,-5.765 0,0 -3.844,-17.296 -10.25,-17.296 l 5.125,-6.406 c 0,0 26.264,16.655 27.545,29.467"
             style="fill:#d7aa89;fill-opacity:1;fill-rule:nonzero;stroke:none"
             id="path242"
             inkscape:connector-curvature="0" /></g><g
           id="g244"
           transform="translate(253.401,314.9385)"><path
             d="m 0,0 c 0,0 -3.843,3.603 -6.005,2.883 -2.162,-0.721 -7.855,-4.765 -8.408,-6.006 -2.532,-5.676 3.572,-9.79 6.783,-10.569 3.212,-0.78 10.513,4.323 11.714,6.245 C 5.285,-5.525 4.804,-4.324 0,0"
             style="fill:#ffe6d3;fill-opacity:1;fill-rule:nonzero;stroke:none"
             id="path246"
             inkscape:connector-curvature="0" /></g><g
           id="g248"
           transform="translate(257.7249,307.3309)"><path
             d="m 0,0 c 0.951,1.522 0.838,2.598 -1.634,5.127 -5.996,-4.486 -10.77,-7.938 -13.413,-9.83 1.165,-0.777 2.377,-1.31 3.333,-1.543 C -8.502,-7.025 -1.201,-1.922 0,0"
             style="fill:#f9ddc2;fill-opacity:1;fill-rule:nonzero;stroke:none"
             id="path250"
             inkscape:connector-curvature="0" /></g><g
           id="g252"
           transform="translate(331.3829,437.3215)"><path
             d="M 0,0 39.753,-56.421 51.694,-48.008 11.94,8.413 Z"
             style="fill:#ffffff;fill-opacity:1;fill-rule:nonzero;stroke:none"
             id="path254"
             inkscape:connector-curvature="0" /></g><g
           id="g256"
           transform="translate(383.0765,389.313)"><path
             d="m 0,0 -11.94,-8.413 -7.846,11.136 11.909,8.391 z"
             style="fill:#edecec;fill-opacity:1;fill-rule:nonzero;stroke:none"
             id="path258"
             inkscape:connector-curvature="0" /></g><g
           id="g260"
           transform="translate(395.5817,399.3968)"><path
             d="m 0,0 c 0,-2.475 -2.007,-4.482 -4.482,-4.482 -2.475,0 -4.482,2.007 -4.482,4.482 0,2.475 2.007,4.482 4.482,4.482 C -2.007,4.482 0,2.475 0,0"
             style="fill:#dedede;fill-opacity:1;fill-rule:nonzero;stroke:none"
             id="path262"
             inkscape:connector-curvature="0" /></g><g
           id="g264"
           transform="translate(405.6709,406.3631)"><path
             d="m 0,0 c 0,-2.475 -2.007,-4.482 -4.482,-4.482 -2.475,0 -4.482,2.007 -4.482,4.482 0,2.475 2.007,4.482 4.482,4.482 C -2.007,4.482 0,2.475 0,0"
             style="fill:#dedede;fill-opacity:1;fill-rule:nonzero;stroke:none"
             id="path266"
             inkscape:connector-curvature="0" /></g><path
           d="M 319.368,151 H 180.631 v -51 h 138.737 z"
           style="fill:#ff435a;fill-opacity:1;fill-rule:nonzero;stroke:none"
           id="path268"
           inkscape:connector-curvature="0" /><path
           d="m 186.382,105.75 h 127.236 v 39.5 H 186.382 Z m 128.736,-1.5 H 184.882 v 42.5 h 130.236 z"
           style="fill:#ffffff;fill-opacity:1;fill-rule:nonzero;stroke:none"
           id="path270"
           inkscape:connector-curvature="0" /></g></g><text
       transform="matrix(1,0,0,-1,195.9258,112.084)"
       style="font-variant:normal;font-weight:bold;font-stretch:normal;font-size:35.44380188px;font-family:Montserrat;-inkscape-font-specification:Montserrat-Bold;writing-mode:lr-tb;fill:#ffffff;fill-opacity:1;fill-rule:nonzero;stroke:none"
       id="text274"><tspan
         x="0 28.46137 60.857006 85.596779"
         y="0"
         sodipodi:role="line"
         id="tspan272">VOTE</tspan></text>
<g
       id="g276"><g
         id="g278"
         clip-path="url(#clipPath282)"><g
           id="g284"
           transform="translate(260.104,34.5346)"><path
             d="m 0,0 c -0.432,-0.443 -0.803,-0.931 -1.108,-1.453 l -0.466,0.241 c -0.067,0.298 -0.349,0.502 -0.658,0.466 -0.331,-0.039 -0.568,-0.339 -0.529,-0.67 0.039,-0.331 0.339,-0.567 0.67,-0.529 0.065,0.008 0.126,0.026 0.183,0.053 l 0.451,-0.235 C -1.707,-2.68 -1.889,-3.265 -1.996,-3.87 l 0.747,-0.132 c 0.23,1.306 0.849,2.507 1.792,3.473 z"
             style="fill:#ffffff;fill-opacity:1;fill-rule:nonzero;stroke:none"
             id="path286"
             inkscape:connector-curvature="0" /></g><g
           id="g288"
           transform="translate(265.5918,36.8366)"><path
             d="m 0,0 c -0.171,0 -0.341,-0.006 -0.51,-0.017 l -0.073,0.626 c 0.187,0.149 0.295,0.389 0.265,0.645 -0.046,0.393 -0.402,0.674 -0.795,0.628 -0.393,-0.047 -0.674,-0.403 -0.628,-0.796 0.03,-0.254 0.19,-0.461 0.405,-0.563 l 0.073,-0.625 c -0.714,-0.116 -1.403,-0.331 -2.06,-0.646 l 0.328,-0.683 c 0.934,0.446 1.941,0.673 2.995,0.673 0.496,0 0.993,-0.053 1.475,-0.158 l 0.161,0.741 C 1.101,-0.059 0.55,0 0,0"
             style="fill:#ffffff;fill-opacity:1;fill-rule:nonzero;stroke:none"
             id="path290"
             inkscape:connector-curvature="0" /></g><g
           id="g292"
           transform="translate(272.1942,34.2894)"><path
             d="M 0,0 C 0.331,0.04 0.566,0.342 0.525,0.672 0.485,1.003 0.184,1.238 -0.147,1.198 -0.456,1.16 -0.682,0.894 -0.677,0.589 L -1.093,0.226 c -0.418,0.43 -0.889,0.813 -1.408,1.139 L -2.905,0.724 c 1.135,-0.715 2.021,-1.726 2.564,-2.925 l 0.69,0.312 c -0.25,0.554 -0.567,1.072 -0.942,1.545 l 0.402,0.351 C -0.129,-0.005 -0.065,-0.008 0,0"
             style="fill:#ffffff;fill-opacity:1;fill-rule:nonzero;stroke:none"
             id="path294"
             inkscape:connector-curvature="0" /></g><g
           id="g296"
           transform="translate(265.0442,26.6282)"><path
             d="m 0,0 c -0.386,-0.023 -0.775,-0.035 -1.157,-0.035 -0.88,0 -1.733,0.061 -2.478,0.18 -0.391,0.061 -0.846,0.154 -1.271,0.291 1.047,-1.86 3.07,-3.125 5.389,-3.125 2.855,0 5.262,1.917 5.949,4.504 C 5.75,1.366 4.927,0.99 3.974,0.693 2.794,0.325 1.419,0.085 0,0"
             style="fill:#ffffff;fill-opacity:1;fill-rule:nonzero;stroke:none"
             id="path298"
             inkscape:connector-curvature="0" /></g><g
           id="g300"
           transform="translate(268.1698,29.7139)"><path
             d="M 0,0 C -0.75,0 -1.36,0.61 -1.36,1.36 -1.36,2.11 -0.75,2.721 0,2.721 0.75,2.721 1.361,2.11 1.361,1.36 1.361,0.61 0.75,0 0,0 m -4.737,-0.908 c -1.02,0 -1.85,0.83 -1.85,1.849 0,1.02 0.83,1.85 1.85,1.85 1.019,0 1.849,-0.83 1.849,-1.85 0,-1.019 -0.83,-1.849 -1.849,-1.849 m 2.159,6.515 c -3.352,0 -6.08,-2.667 -6.08,-5.944 0,-0.425 0.046,-0.849 0.137,-1.261 0.674,-0.483 2.706,-0.89 5.348,-0.731 2.879,0.173 5.297,0.957 6.672,2.158 C 3.494,0.024 3.478,0.219 3.454,0.411 3.074,3.373 0.481,5.607 -2.578,5.607"
             style="fill:#ffffff;fill-opacity:1;fill-rule:nonzero;stroke:none"
             id="path302"
             inkscape:connector-curvature="0" /></g><g
           id="g304"
           transform="translate(281.5952,33.4533)"><path
             d="m 0,0 c -0.295,0.116 -0.805,0.309 -1.382,0.237 -0.551,-0.068 -0.844,-0.34 -0.844,-1.006 v -0.866 h 2.228 v -1.717 h -2.228 v -5.455 h -1.932 v 5.455 h -1.339 v 1.717 h 1.339 v 0.888 c 0,1.68 0.896,2.783 2.568,2.783 0.643,0 1.158,-0.122 1.59,-0.308 z"
             style="fill:#ffffff;fill-opacity:1;fill-rule:nonzero;stroke:none"
             id="path306"
             inkscape:connector-curvature="0" /></g><g
           id="g308"
           transform="translate(286.2978,30.1213)"><path
             d="m 0,0 c -0.177,0.03 -0.358,0.046 -0.526,0.046 -0.896,0 -1.51,-0.548 -1.51,-1.613 v -3.908 h -1.932 v 7.172 h 1.873 V 0.912 c 0.451,0.674 1.14,0.977 2.02,0.977 0.415,0 0.848,-0.127 1.095,-0.337 z"
             style="fill:#ffffff;fill-opacity:1;fill-rule:nonzero;stroke:none"
             id="path310"
             inkscape:connector-curvature="0" /></g><g
           id="g312"
           transform="translate(288.8507,28.9093)"><path
             d="M 0,0 H 3.175 C 2.998,0.918 2.442,1.436 1.613,1.436 0.703,1.436 0.17,0.888 0,0 m 5.114,-0.666 c 0,-0.222 -0.015,-0.489 -0.037,-0.652 h -5.084 c 0.207,-1.036 0.932,-1.487 1.842,-1.487 0.622,0 1.296,0.252 1.814,0.688 L 4.781,-3.36 c -0.814,-0.748 -1.85,-1.088 -3.056,-1.088 -2.199,0 -3.723,1.495 -3.723,3.752 0,2.258 1.48,3.797 3.626,3.797 2.065,0 3.479,-1.532 3.486,-3.767"
             style="fill:#ffffff;fill-opacity:1;fill-rule:nonzero;stroke:none"
             id="path314"
             inkscape:connector-curvature="0" /></g><g
           id="g316"
           transform="translate(296.504,28.9093)"><path
             d="M 0,0 H 3.175 C 2.997,0.918 2.442,1.436 1.613,1.436 0.703,1.436 0.17,0.888 0,0 m 5.114,-0.666 c 0,-0.222 -0.015,-0.489 -0.037,-0.652 h -5.084 c 0.207,-1.036 0.932,-1.487 1.843,-1.487 0.621,0 1.295,0.252 1.813,0.688 L 4.781,-3.36 c -0.814,-0.748 -1.85,-1.088 -3.057,-1.088 -2.198,0 -3.722,1.495 -3.722,3.752 0,2.258 1.48,3.797 3.626,3.797 2.065,0 3.479,-1.532 3.486,-3.767"
             style="fill:#ffffff;fill-opacity:1;fill-rule:nonzero;stroke:none"
             id="path318"
             inkscape:connector-curvature="0" /></g><g
           id="g320"
           transform="translate(304.2871,28.2357)"><path
             d="m 0,0 c 0,-1.132 0.747,-1.976 1.843,-1.976 1.14,0 1.85,0.881 1.85,1.976 0,1.095 -0.71,1.976 -1.85,1.976 C 0.747,1.976 0,1.132 0,0 m 5.677,0 c 0,-2.154 -1.495,-3.775 -3.471,-3.775 -0.963,0 -1.644,0.378 -2.11,0.933 V -6.55 H -1.828 V 3.582 H 0.059 V 2.79 C 0.525,3.375 1.214,3.775 2.198,3.775 4.182,3.775 5.677,2.154 5.677,0"
             style="fill:#ffffff;fill-opacity:1;fill-rule:nonzero;stroke:none"
             id="path322"
             inkscape:connector-curvature="0" /></g><path
           d="m 312.809,24.646 h -1.932 v 7.172 h 1.932 z m 0.259,9.518 c 0,-0.695 -0.541,-1.228 -1.236,-1.228 -0.696,0 -1.229,0.533 -1.229,1.228 0,0.696 0.533,1.244 1.229,1.244 0.695,0 1.236,-0.548 1.236,-1.244"
           style="fill:#ffffff;fill-opacity:1;fill-rule:nonzero;stroke:none"
           id="path324"
           inkscape:connector-curvature="0" /><g
           id="g326"
           transform="translate(316.0321,29.2645)"><path
             d="M 0,0 2.702,2.554 H 5.07 L 1.591,-0.821 5.092,-4.618 H 2.716 L 0,-1.717 V -4.618 H -1.932 V 6.04 L 0,6.04 Z"
             style="fill:#ffffff;fill-opacity:1;fill-rule:nonzero;stroke:none"
             id="path328"
             inkscape:connector-curvature="0" /></g><g
           id="g330"
           transform="translate(184.4124,26.6299)"><path
             d="m 0,0 v 3.208 c -0.395,0.615 -1.245,1.143 -2.124,1.143 -1.421,0 -2.27,-1.172 -2.27,-2.74 0,-1.567 0.849,-2.724 2.27,-2.724 0.879,0 1.729,0.498 2.124,1.113 m 0,-1.919 v 1.055 c -0.527,-0.718 -1.391,-1.231 -2.387,-1.231 -1.846,0 -3.15,1.407 -3.15,3.706 0,2.256 1.289,3.721 3.15,3.721 0.952,0 1.816,-0.469 2.387,-1.245 v 3.764 h 1.099 v -9.77 z"
             style="fill:#ffffff;fill-opacity:1;fill-rule:nonzero;stroke:none"
             id="path332"
             inkscape:connector-curvature="0" /></g><g
           id="g334"
           transform="translate(190.4035,31.0534)"><path
             d="M 0,0 C -1.509,0 -2.256,-1.274 -2.314,-2.358 H 2.329 C 2.314,-1.303 1.611,0 0,0 m -3.472,-2.798 c 0,2.051 1.465,3.706 3.486,3.706 2.139,0 3.399,-1.67 3.399,-3.793 v -0.279 h -5.727 c 0.088,-1.333 1.025,-2.446 2.548,-2.446 0.806,0 1.626,0.322 2.183,0.893 L 2.944,-5.434 C 2.241,-6.137 1.289,-6.518 0.132,-6.518 c -2.095,0 -3.604,1.508 -3.604,3.72"
             style="fill:#ffffff;fill-opacity:1;fill-rule:nonzero;stroke:none"
             id="path336"
             inkscape:connector-curvature="0" /></g><g
           id="g338"
           transform="translate(194.6071,25.6486)"><path
             d="M 0,0 0.571,0.791 C 1.04,0.249 1.934,-0.22 2.9,-0.22 c 1.084,0 1.67,0.513 1.67,1.216 0,1.714 -4.379,0.659 -4.379,3.281 0,1.099 0.951,2.036 2.636,2.036 1.201,0 2.051,-0.454 2.622,-1.025 L 4.936,4.526 C 4.512,5.039 3.735,5.419 2.827,5.419 1.86,5.419 1.26,4.936 1.26,4.306 1.26,2.754 5.639,3.779 5.639,1.025 5.639,-0.161 4.687,-1.113 2.856,-1.113 1.699,-1.113 0.717,-0.762 0,0"
             style="fill:#ffffff;fill-opacity:1;fill-rule:nonzero;stroke:none"
             id="path340"
             inkscape:connector-curvature="0" /></g><path
           d="m 201.667,31.786 h 1.099 v -7.075 h -1.099 z m -0.19,1.743 c 0,0.41 0.337,0.747 0.732,0.747 0.41,0 0.747,-0.337 0.747,-0.747 0,-0.41 -0.337,-0.732 -0.747,-0.732 -0.395,0 -0.732,0.322 -0.732,0.732"
           style="fill:#ffffff;fill-opacity:1;fill-rule:nonzero;stroke:none"
           id="path342"
           inkscape:connector-curvature="0" /><g
           id="g344"
           transform="translate(209.7087,26.747)"><path
             d="m 0,0 v 3.091 c -0.381,0.615 -1.23,1.142 -2.109,1.142 -1.421,0 -2.271,-1.128 -2.271,-2.695 0,-1.553 0.85,-2.695 2.271,-2.695 0.879,0 1.728,0.542 2.109,1.157 m -5.127,-3.852 0.557,0.82 c 0.586,-0.703 1.289,-0.967 2.3,-0.967 1.172,0 2.27,0.571 2.27,2.124 v 1.011 c -0.513,-0.718 -1.377,-1.26 -2.373,-1.26 -1.846,0 -3.149,1.377 -3.149,3.662 0,2.271 1.289,3.677 3.149,3.677 0.952,0 1.802,-0.469 2.373,-1.245 v 1.069 h 1.099 v -6.87 c 0,-2.344 -1.641,-3.076 -3.369,-3.076 -1.202,0 -2.022,0.234 -2.857,1.055"
             style="fill:#ffffff;fill-opacity:1;fill-rule:nonzero;stroke:none"
             id="path346"
             inkscape:connector-curvature="0" /></g><g
           id="g348"
           transform="translate(217.4133,24.7111)"><path
             d="m 0,0 v 4.629 c 0,1.245 -0.63,1.64 -1.582,1.64 -0.864,0 -1.685,-0.527 -2.094,-1.099 V 0 h -1.099 v 7.075 h 1.099 V 6.049 c 0.497,0.586 1.464,1.202 2.519,1.202 1.479,0 2.256,-0.747 2.256,-2.285 L 1.099,0 Z"
             style="fill:#ffffff;fill-opacity:1;fill-rule:nonzero;stroke:none"
             id="path350"
             inkscape:connector-curvature="0" /></g><g
           id="g352"
           transform="translate(223.4042,31.0534)"><path
             d="M 0,0 C -1.509,0 -2.256,-1.274 -2.314,-2.358 H 2.329 C 2.314,-1.303 1.611,0 0,0 m -3.472,-2.798 c 0,2.051 1.465,3.706 3.487,3.706 2.138,0 3.398,-1.67 3.398,-3.793 v -0.279 h -5.727 c 0.087,-1.333 1.025,-2.446 2.548,-2.446 0.806,0 1.626,0.322 2.183,0.893 L 2.944,-5.434 C 2.241,-6.137 1.289,-6.518 0.132,-6.518 c -2.095,0 -3.604,1.508 -3.604,3.72"
             style="fill:#ffffff;fill-opacity:1;fill-rule:nonzero;stroke:none"
             id="path354"
             inkscape:connector-curvature="0" /></g><g
           id="g356"
           transform="translate(233.35,26.6299)"><path
             d="m 0,0 v 3.208 c -0.396,0.615 -1.245,1.143 -2.124,1.143 -1.421,0 -2.27,-1.172 -2.27,-2.74 0,-1.567 0.849,-2.724 2.27,-2.724 0.879,0 1.728,0.498 2.124,1.113 m 0,-1.919 v 1.055 c -0.527,-0.718 -1.392,-1.231 -2.388,-1.231 -1.845,0 -3.149,1.407 -3.149,3.706 0,2.256 1.289,3.721 3.149,3.721 0.952,0 1.817,-0.469 2.388,-1.245 v 3.764 h 1.098 v -9.77 z"
             style="fill:#ffffff;fill-opacity:1;fill-rule:nonzero;stroke:none"
             id="path358"
             inkscape:connector-curvature="0" /></g><g
           id="g360"
           transform="translate(242.8998,25.5167)"><path
             d="m 0,0 c 1.436,0 2.286,1.157 2.286,2.724 0,1.568 -0.85,2.74 -2.286,2.74 -0.864,0 -1.728,-0.528 -2.109,-1.143 V 1.113 C -1.728,0.498 -0.864,0 0,0 m -3.208,-0.806 v 9.77 h 1.099 V 5.2 c 0.571,0.776 1.421,1.245 2.388,1.245 1.845,0 3.149,-1.465 3.149,-3.721 0,-2.299 -1.304,-3.705 -3.149,-3.705 -0.996,0 -1.861,0.512 -2.388,1.23 v -1.055 z"
             style="fill:#ffffff;fill-opacity:1;fill-rule:nonzero;stroke:none"
             id="path362"
             inkscape:connector-curvature="0" /></g><g
           id="g364"
           transform="translate(247.5285,22.9386)"><path
             d="m 0,0 c 0.161,-0.073 0.425,-0.117 0.601,-0.117 0.483,0 0.805,0.161 1.054,0.747 l 0.469,1.069 -2.959,7.148 h 1.187 l 2.358,-5.8 2.344,5.8 H 6.255 L 2.71,0.337 C 2.285,-0.688 1.567,-1.084 0.63,-1.099 c -0.234,0 -0.601,0.044 -0.806,0.103 z"
             style="fill:#ffffff;fill-opacity:1;fill-rule:nonzero;stroke:none"
             id="path366"
             inkscape:connector-curvature="0" /></g></g></g></g></svg>