<?xml version="1.0" encoding="UTF-8" standalone="no"?>
<!-- Created with Inkscape (http://www.inkscape.org/) -->

<svg
   xmlns:dc="http://purl.org/dc/elements/1.1/"
   xmlns:cc="http://creativecommons.org/ns#"
   xmlns:rdf="http://www.w3.org/1999/02/22-rdf-syntax-ns#"
   xmlns:svg="http://www.w3.org/2000/svg"
   xmlns="http://www.w3.org/2000/svg"
   xmlns:sodipodi="http://sodipodi.sourceforge.net/DTD/sodipodi-0.dtd"
   xmlns:inkscape="http://www.inkscape.org/namespaces/inkscape"
   version="1.1"
   id="svg2"
   xml:space="preserve"
   width="666.66669"
   height="666.66669"
   viewBox="0 0 666.66669 666.66669"
   sodipodi:docname="3.svg"
   inkscape:version="0.92.3 (2405546, 2018-03-11)"
   inkscape:export-filename="D:\Job\KPU Prabumulih\Website\Jadi 2\3.png"
   inkscape:export-xdpi="200"
   inkscape:export-ydpi="200"><metadata
     id="metadata8"><rdf:RDF><cc:Work
         rdf:about=""><dc:format>image/svg+xml</dc:format><dc:type
           rdf:resource="http://purl.org/dc/dcmitype/StillImage" /><dc:title></dc:title></cc:Work></rdf:RDF></metadata><defs
     id="defs6"><clipPath
       clipPathUnits="userSpaceOnUse"
       id="clipPath20"><path
         d="M 0,500 H 500 V 0 H 0 Z"
         id="path18"
         inkscape:connector-curvature="0" /></clipPath><clipPath
       clipPathUnits="userSpaceOnUse"
       id="clipPath28"><path
         d="M 68.9964,410.973 H 134.797 V 382.469 H 68.9964 Z"
         id="path26"
         inkscape:connector-curvature="0" /></clipPath><clipPath
       clipPathUnits="userSpaceOnUse"
       id="clipPath44"><path
         d="m 68.9964,407.442 h 9.5967 V 304.506 h -9.5967 z"
         id="path42"
         inkscape:connector-curvature="0" /></clipPath><clipPath
       clipPathUnits="userSpaceOnUse"
       id="clipPath60"><path
         d="M 0,89.613 H 500 V 457.267 H 0 Z"
         id="path58"
         inkscape:connector-curvature="0" /></clipPath><clipPath
       clipPathUnits="userSpaceOnUse"
       id="clipPath292"><path
         d="M 0,500 H 500 V 0 H 0 Z"
         id="path290"
         inkscape:connector-curvature="0" /></clipPath><clipPath
       clipPathUnits="userSpaceOnUse"
       id="clipPath316"><path
         d="M 0,500 H 500 V 0 H 0 Z"
         id="path314"
         inkscape:connector-curvature="0" /></clipPath><clipPath
       clipPathUnits="userSpaceOnUse"
       id="clipPath328"><path
         d="m 14.5,119.18 h 471 V 13 h -471 z"
         id="path326"
         inkscape:connector-curvature="0" /></clipPath><clipPath
       clipPathUnits="userSpaceOnUse"
       id="clipPath344"><path
         d="M 91,104.791 H 409 V 38.5 H 91 Z"
         id="path342"
         inkscape:connector-curvature="0" /></clipPath><clipPath
       clipPathUnits="userSpaceOnUse"
       id="clipPath372"><path
         d="m 177.82,353.75 h 36.72 v -27.06 h -36.72 z"
         id="path370"
         inkscape:connector-curvature="0" /></clipPath><clipPath
       clipPathUnits="userSpaceOnUse"
       id="clipPath428"><path
         d="m 247.93,348.013 h 10.06 v -55.96 h -10.06 z"
         id="path426"
         inkscape:connector-curvature="0" /></clipPath><clipPath
       clipPathUnits="userSpaceOnUse"
       id="clipPath464"><path
         d="m 155.819,263.523 h 188.362 v -7.02 H 155.819 Z"
         id="path462"
         inkscape:connector-curvature="0" /></clipPath><clipPath
       clipPathUnits="userSpaceOnUse"
       id="clipPath502"><path
         d="M 231.593,421.499 H 266.21 V 364.956 H 231.593 Z"
         id="path500"
         inkscape:connector-curvature="0" /></clipPath><clipPath
       clipPathUnits="userSpaceOnUse"
       id="clipPath542"><path
         d="m 246.03,319.513 h 10.75 v -48.26 h -10.75 z"
         id="path540"
         inkscape:connector-curvature="0" /></clipPath><clipPath
       clipPathUnits="userSpaceOnUse"
       id="clipPath578"><path
         d="m 182.506,317.103 h 31.48 v -45.85 h -31.48 z"
         id="path576"
         inkscape:connector-curvature="0" /></clipPath><clipPath
       clipPathUnits="userSpaceOnUse"
       id="clipPath614"><path
         d="m 268.169,319.518 h 39.81 v -48.265 h -39.81 z"
         id="path612"
         inkscape:connector-curvature="0" /></clipPath><clipPath
       clipPathUnits="userSpaceOnUse"
       id="clipPath642"><path
         d="m 193.26,256.5 h 79.15 v -10 h -79.15 z"
         id="path640"
         inkscape:connector-curvature="0" /></clipPath><clipPath
       clipPathUnits="userSpaceOnUse"
       id="clipPath682"><path
         d="m 256.672,396.243 h 7.591 V 384.95 h -7.591 z"
         id="path680"
         inkscape:connector-curvature="0" /></clipPath><clipPath
       clipPathUnits="userSpaceOnUse"
       id="clipPath714"><path
         d="m 159.875,414.885 h 19.919 v -21.004 h -19.919 z"
         id="path712"
         inkscape:connector-curvature="0" /></clipPath><clipPath
       clipPathUnits="userSpaceOnUse"
       id="clipPath738"><path
         d="M 0,500 H 500 V 0 H 0 Z"
         id="path736"
         inkscape:connector-curvature="0" /></clipPath></defs><sodipodi:namedview
     pagecolor="#ffffff"
     bordercolor="#666666"
     borderopacity="1"
     objecttolerance="10"
     gridtolerance="10"
     guidetolerance="10"
     inkscape:pageopacity="0"
     inkscape:pageshadow="2"
     inkscape:window-width="1366"
     inkscape:window-height="705"
     id="namedview4"
     showgrid="false"
     inkscape:zoom="0.35399999"
     inkscape:cx="333.33334"
     inkscape:cy="333.33334"
     inkscape:window-x="-8"
     inkscape:window-y="-8"
     inkscape:window-maximized="1"
     inkscape:current-layer="g10" /><g
     id="g10"
     inkscape:groupmode="layer"
     inkscape:label="418413-PDU8HB-491"
     transform="matrix(1.3333333,0,0,-1.3333333,0,666.66667)"><path
       d="M 0,0 H 500 V 500 H 0 Z"
       style="fill:#1a98af;fill-opacity:1;fill-rule:nonzero;stroke:none"
       id="path12"
       inkscape:connector-curvature="0" /><g
       id="g14"><g
         id="g16"
         clip-path="url(#clipPath20)"><g
           id="g22"><g
             id="g24" /><g
             id="g36"><g
               clip-path="url(#clipPath28)"
               id="g34"
               style="opacity:0.5"><g
                 transform="translate(68.9966,407.4414)"
                 id="g32"><path
                   d="m 0,0 c 0,0 17.3,6.676 37.969,1.669 15.907,-3.853 27.832,-1.41 27.832,-1.41 0,0 -0.655,-17.925 -2.183,-18.841 -6.107,-3.66 -15.767,-8.982 -29.269,-4.946 -13.503,4.035 -31.916,0.963 -31.916,0.963 z"
                   style="fill:#198fa5;fill-opacity:1;fill-rule:nonzero;stroke:none"
                   id="path30"
                   inkscape:connector-curvature="0" /></g></g></g></g><g
           id="g38"><g
             id="g40" /><g
             id="g52"><g
               clip-path="url(#clipPath44)"
               id="g50"
               style="opacity:0.5"><g
                 transform="translate(68.9966,407.4414)"
                 id="g48"><path
                   d="m 0,0 7.494,-102.935 c 0,0 1.519,-0.079 2.073,1.066 0.555,1.144 -6.965,101.525 -6.965,101.525 z"
                   style="fill:#198fa5;fill-opacity:1;fill-rule:nonzero;stroke:none"
                   id="path46"
                   inkscape:connector-curvature="0" /></g></g></g></g></g></g><g
       id="g54"><g
         id="g56"
         clip-path="url(#clipPath60)"><g
           id="g62"
           transform="translate(376.8779,341.2129)"><path
             d="m 0,0 c 0,-9.221 -7.476,-16.696 -16.697,-16.696 -9.221,0 -16.697,7.475 -16.697,16.696 0,9.222 7.476,16.697 16.697,16.697 C -7.476,16.697 0,9.222 0,0"
             style="fill:#198fa5;fill-opacity:1;fill-rule:nonzero;stroke:none"
             id="path64"
             inkscape:connector-curvature="0" /></g><g
           id="g66"
           transform="translate(382.2617,221.2617)"><path
             d="m 0,0 h -44.161 v 82.384 c 0,12.195 9.886,22.08 22.08,22.08 C -9.886,104.464 0,94.579 0,82.384 Z"
             style="fill:#198fa5;fill-opacity:1;fill-rule:nonzero;stroke:none"
             id="path68"
             inkscape:connector-curvature="0" /></g><g
           id="g70"
           transform="translate(122.458,334.1997)"><path
             d="m 0,0 c 0,-9.221 -7.476,-16.697 -16.697,-16.697 -9.221,0 -16.697,7.476 -16.697,16.697 0,9.221 7.476,16.697 16.697,16.697 C -7.476,16.697 0,9.221 0,0"
             style="fill:#198fa5;fill-opacity:1;fill-rule:nonzero;stroke:none"
             id="path72"
             inkscape:connector-curvature="0" /></g><g
           id="g74"
           transform="translate(127.8418,214.249)"><path
             d="m 0,0 h -44.161 v 82.383 c 0,12.195 9.886,22.081 22.08,22.081 C -9.886,104.464 0,94.578 0,82.383 Z"
             style="fill:#198fa5;fill-opacity:1;fill-rule:nonzero;stroke:none"
             id="path76"
             inkscape:connector-curvature="0" /></g><g
           id="g78"
           transform="translate(32.6167,329.229)"><path
             d="m 0,0 c 0,-9.222 -7.476,-16.697 -16.697,-16.697 -9.221,0 -16.697,7.475 -16.697,16.697 0,9.221 7.476,16.696 16.697,16.696 C -7.476,16.696 0,9.221 0,0"
             style="fill:#198fa5;fill-opacity:1;fill-rule:nonzero;stroke:none"
             id="path80"
             inkscape:connector-curvature="0" /></g><g
           id="g82"
           transform="translate(38.0005,209.2773)"><path
             d="m 0,0 h -44.161 v 82.384 c 0,12.195 9.886,22.081 22.08,22.081 C -9.886,104.465 0,94.579 0,82.384 Z"
             style="fill:#198fa5;fill-opacity:1;fill-rule:nonzero;stroke:none"
             id="path84"
             inkscape:connector-curvature="0" /></g><g
           id="g86"
           transform="translate(338.7041,344.0386)"><path
             d="m 0,0 c 0,-10.109 -8.195,-18.305 -18.305,-18.305 -10.109,0 -18.304,8.196 -18.304,18.305 0,10.109 8.195,18.305 18.304,18.305 C -8.195,18.305 0,10.109 0,0"
             style="fill:#198fa5;fill-opacity:1;fill-rule:nonzero;stroke:none"
             id="path88"
             inkscape:connector-curvature="0" /></g><g
           id="g90"
           transform="translate(344.6064,216.8281)"><path
             d="m 0,0 h -48.414 v 86.025 c 0,13.37 10.838,24.207 24.207,24.207 C -10.838,110.232 0,99.395 0,86.025 Z"
             style="fill:#198fa5;fill-opacity:1;fill-rule:nonzero;stroke:none"
             id="path92"
             inkscape:connector-curvature="0" /></g><g
           id="g94"
           transform="translate(165.0767,330.6753)"><path
             d="m 0,0 c 0,-10.109 -8.195,-18.305 -18.305,-18.305 -10.109,0 -18.304,8.196 -18.304,18.305 0,10.109 8.195,18.305 18.304,18.305 C -8.195,18.305 0,10.109 0,0"
             style="fill:#198fa5;fill-opacity:1;fill-rule:nonzero;stroke:none"
             id="path96"
             inkscape:connector-curvature="0" /></g><g
           id="g98"
           transform="translate(170.979,203.4648)"><path
             d="m 0,0 h -48.414 v 86.025 c 0,13.37 10.838,24.207 24.207,24.207 C -10.838,110.232 0,99.395 0,86.025 Z"
             style="fill:#198fa5;fill-opacity:1;fill-rule:nonzero;stroke:none"
             id="path100"
             inkscape:connector-curvature="0" /></g><g
           id="g102"
           transform="translate(76.7842,320.1138)"><path
             d="m 0,0 c 0,-10.109 -8.195,-18.305 -18.305,-18.305 -10.109,0 -18.304,8.196 -18.304,18.305 0,10.109 8.195,18.305 18.304,18.305 C -8.195,18.305 0,10.109 0,0"
             style="fill:#198fa5;fill-opacity:1;fill-rule:nonzero;stroke:none"
             id="path104"
             inkscape:connector-curvature="0" /></g><g
           id="g106"
           transform="translate(82.6865,192.9033)"><path
             d="m 0,0 h -48.414 v 86.025 c 0,13.369 10.838,24.207 24.207,24.207 C -10.838,110.232 0,99.394 0,86.025 Z"
             style="fill:#198fa5;fill-opacity:1;fill-rule:nonzero;stroke:none"
             id="path108"
             inkscape:connector-curvature="0" /></g><g
           id="g110"
           transform="translate(213.7471,357.5884)"><path
             d="m 0,0 c 0,-10.109 -8.195,-18.305 -18.305,-18.305 -10.109,0 -18.304,8.196 -18.304,18.305 0,10.109 8.195,18.305 18.304,18.305 C -8.195,18.305 0,10.109 0,0"
             style="fill:#198fa5;fill-opacity:1;fill-rule:nonzero;stroke:none"
             id="path112"
             inkscape:connector-curvature="0" /></g><g
           id="g114"
           transform="translate(219.6494,230.3779)"><path
             d="m 0,0 h -48.414 v 86.025 c 0,13.369 10.838,24.207 24.207,24.207 C -10.838,110.232 0,99.394 0,86.025 Z"
             style="fill:#198fa5;fill-opacity:1;fill-rule:nonzero;stroke:none"
             id="path116"
             inkscape:connector-curvature="0" /></g><g
           id="g118"
           transform="translate(504.1514,327.9473)"><path
             d="m 0,0 c 0,-10.109 -8.195,-18.305 -18.305,-18.305 -10.109,0 -18.304,8.196 -18.304,18.305 0,10.109 8.195,18.305 18.304,18.305 C -8.195,18.305 0,10.109 0,0"
             style="fill:#198fa5;fill-opacity:1;fill-rule:nonzero;stroke:none"
             id="path120"
             inkscape:connector-curvature="0" /></g><g
           id="g122"
           transform="translate(510.0537,200.7363)"><path
             d="m 0,0 h -48.414 v 86.025 c 0,13.37 10.838,24.207 24.207,24.207 C -10.838,110.232 0,99.395 0,86.025 Z"
             style="fill:#198fa5;fill-opacity:1;fill-rule:nonzero;stroke:none"
             id="path124"
             inkscape:connector-curvature="0" /></g><g
           id="g126"
           transform="translate(423.0381,332.6235)"><path
             d="m 0,0 c 0,-10.109 -8.195,-18.305 -18.305,-18.305 -10.109,0 -18.304,8.196 -18.304,18.305 0,10.109 8.195,18.305 18.304,18.305 C -8.195,18.305 0,10.109 0,0"
             style="fill:#198fa5;fill-opacity:1;fill-rule:nonzero;stroke:none"
             id="path128"
             inkscape:connector-curvature="0" /></g><g
           id="g130"
           transform="translate(428.9404,205.4131)"><path
             d="m 0,0 h -48.414 v 86.025 c 0,13.37 10.838,24.207 24.207,24.207 C -10.838,110.232 0,99.395 0,86.025 Z"
             style="fill:#198fa5;fill-opacity:1;fill-rule:nonzero;stroke:none"
             id="path132"
             inkscape:connector-curvature="0" /></g><g
           id="g134"
           transform="translate(462.6982,351.7617)"><path
             d="m 0,0 c 0,-10.109 -8.195,-18.305 -18.305,-18.305 -10.109,0 -18.304,8.196 -18.304,18.305 0,10.109 8.195,18.305 18.304,18.305 C -8.195,18.305 0,10.109 0,0"
             style="fill:#198fa5;fill-opacity:1;fill-rule:nonzero;stroke:none"
             id="path136"
             inkscape:connector-curvature="0" /></g><g
           id="g138"
           transform="translate(468.6006,224.5508)"><path
             d="m 0,0 h -48.414 v 86.025 c 0,13.37 10.838,24.207 24.207,24.207 C -10.838,110.232 0,99.395 0,86.025 Z"
             style="fill:#198fa5;fill-opacity:1;fill-rule:nonzero;stroke:none"
             id="path140"
             inkscape:connector-curvature="0" /></g><g
           id="g142"
           transform="translate(100.2993,259.6675)"><path
             d="m 0,0 c 0,-9.869 8,-17.869 17.869,-17.869 9.869,0 17.869,8 17.869,17.869 0,9.869 -8,17.869 -17.869,17.869 C 8,17.869 0,9.869 0,0"
             style="fill:#188497;fill-opacity:1;fill-rule:nonzero;stroke:none"
             id="path144"
             inkscape:connector-curvature="0" /></g><g
           id="g146"
           transform="translate(94.5376,123.9092)"><path
             d="m 0,0 h 47.261 v 97.179 c 0,12.153 -9.852,22.006 -22.005,22.006 H 22.005 C 9.852,119.185 0,109.332 0,97.179 Z"
             style="fill:#188497;fill-opacity:1;fill-rule:nonzero;stroke:none"
             id="path148"
             inkscape:connector-curvature="0" /></g><g
           id="g150"
           transform="translate(382.749,265.0132)"><path
             d="m 0,0 c 0,-9.869 8.001,-17.869 17.869,-17.869 9.869,0 17.869,8 17.869,17.869 0,9.869 -8,17.869 -17.869,17.869 C 8.001,17.869 0,9.869 0,0"
             style="fill:#188497;fill-opacity:1;fill-rule:nonzero;stroke:none"
             id="path152"
             inkscape:connector-curvature="0" /></g><g
           id="g154"
           transform="translate(376.9873,129.2549)"><path
             d="m 0,0 h 47.262 v 97.179 c 0,12.153 -9.853,22.006 -22.006,22.006 h -3.25 C 9.853,119.185 0,109.332 0,97.179 Z"
             style="fill:#188497;fill-opacity:1;fill-rule:nonzero;stroke:none"
             id="path156"
             inkscape:connector-curvature="0" /></g><g
           id="g158"
           transform="translate(459.6963,247.792)"><path
             d="m 0,0 c 0,-9.869 8,-17.869 17.868,-17.869 9.869,0 17.869,8 17.869,17.869 0,9.869 -8,17.869 -17.869,17.869 C 8,17.869 0,9.869 0,0"
             style="fill:#188497;fill-opacity:1;fill-rule:nonzero;stroke:none"
             id="path160"
             inkscape:connector-curvature="0" /></g><g
           id="g162"
           transform="translate(453.9346,112.0332)"><path
             d="m 0,0 h 47.261 v 97.179 c 0,12.153 -9.852,22.006 -22.005,22.006 H 22.005 C 9.852,119.185 0,109.332 0,97.179 Z"
             style="fill:#188497;fill-opacity:1;fill-rule:nonzero;stroke:none"
             id="path164"
             inkscape:connector-curvature="0" /></g><g
           id="g166"
           transform="translate(141.7988,286.9175)"><path
             d="m 0,0 c 0,-10.819 8.771,-19.59 19.59,-19.59 10.819,0 19.59,8.771 19.59,19.59 0,10.819 -8.771,19.59 -19.59,19.59 C 8.771,19.59 0,10.819 0,0"
             style="fill:#188497;fill-opacity:1;fill-rule:nonzero;stroke:none"
             id="path168"
             inkscape:connector-curvature="0" /></g><g
           id="g170"
           transform="translate(135.4824,143.3896)"><path
             d="m 0,0 h 51.813 v 101.232 c 0,13.324 -10.801,24.125 -24.125,24.125 H 24.125 C 10.801,125.357 0,114.556 0,101.232 Z"
             style="fill:#188497;fill-opacity:1;fill-rule:nonzero;stroke:none"
             id="path172"
             inkscape:connector-curvature="0" /></g><g
           id="g174"
           transform="translate(341.4346,291.0562)"><path
             d="m 0,0 c 0,-10.819 8.771,-19.59 19.59,-19.59 10.819,0 19.59,8.771 19.59,19.59 0,10.819 -8.771,19.59 -19.59,19.59 C 8.771,19.59 0,10.819 0,0"
             style="fill:#188497;fill-opacity:1;fill-rule:nonzero;stroke:none"
             id="path176"
             inkscape:connector-curvature="0" /></g><g
           id="g178"
           transform="translate(335.1182,159.5479)"><path
             d="m 0,0 h 51.813 v 89.213 c 0,13.324 -10.801,24.125 -24.125,24.125 H 24.125 C 10.801,113.338 0,102.537 0,89.213 Z"
             style="fill:#188497;fill-opacity:1;fill-rule:nonzero;stroke:none"
             id="path180"
             inkscape:connector-curvature="0" /></g><g
           id="g182"
           transform="translate(424.8037,277.5171)"><path
             d="m 0,0 c 0,-10.819 8.771,-19.59 19.59,-19.59 10.819,0 19.59,8.771 19.59,19.59 0,10.819 -8.771,19.59 -19.59,19.59 C 8.771,19.59 0,10.819 0,0"
             style="fill:#188497;fill-opacity:1;fill-rule:nonzero;stroke:none"
             id="path184"
             inkscape:connector-curvature="0" /></g><g
           id="g186"
           transform="translate(418.4873,133.9893)"><path
             d="m 0,0 h 51.813 v 101.232 c 0,13.325 -10.801,24.125 -24.125,24.125 H 24.125 C 10.801,125.357 0,114.557 0,101.232 Z"
             style="fill:#188497;fill-opacity:1;fill-rule:nonzero;stroke:none"
             id="path188"
             inkscape:connector-curvature="0" /></g><g
           id="g190"
           transform="translate(298.2139,282.1724)"><path
             d="m 0,0 c 0,-10.819 8.771,-19.59 19.59,-19.59 10.819,0 19.59,8.771 19.59,19.59 0,10.819 -8.771,19.59 -19.59,19.59 C 8.771,19.59 0,10.819 0,0"
             style="fill:#188497;fill-opacity:1;fill-rule:nonzero;stroke:none"
             id="path192"
             inkscape:connector-curvature="0" /></g><g
           id="g194"
           transform="translate(291.8975,138.6445)"><path
             d="m 0,0 h 51.813 v 101.232 c 0,13.325 -10.801,24.125 -24.125,24.125 H 24.125 C 10.801,125.357 0,114.557 0,101.232 Z"
             style="fill:#188497;fill-opacity:1;fill-rule:nonzero;stroke:none"
             id="path196"
             inkscape:connector-curvature="0" /></g><g
           id="g198"
           transform="translate(7.6191,257.9463)"><path
             d="m 0,0 c 0,-10.819 8.771,-19.59 19.59,-19.59 10.819,0 19.59,8.771 19.59,19.59 0,10.819 -8.771,19.59 -19.59,19.59 C 8.771,19.59 0,10.819 0,0"
             style="fill:#188497;fill-opacity:1;fill-rule:nonzero;stroke:none"
             id="path200"
             inkscape:connector-curvature="0" /></g><g
           id="g202"
           transform="translate(1.3027,114.4189)"><path
             d="m 0,0 h 51.813 v 101.232 c 0,13.324 -10.801,24.125 -24.125,24.125 H 24.125 C 10.801,125.357 0,114.556 0,101.232 Z"
             style="fill:#188497;fill-opacity:1;fill-rule:nonzero;stroke:none"
             id="path204"
             inkscape:connector-curvature="0" /></g><g
           id="g206"
           transform="translate(54.8027,276.2222)"><path
             d="m 0,0 c 0,-10.819 8.771,-19.59 19.59,-19.59 10.819,0 19.59,8.771 19.59,19.59 0,10.819 -8.771,19.59 -19.59,19.59 C 8.771,19.59 0,10.819 0,0"
             style="fill:#188497;fill-opacity:1;fill-rule:nonzero;stroke:none"
             id="path208"
             inkscape:connector-curvature="0" /></g><g
           id="g210"
           transform="translate(48.4863,132.6943)"><path
             d="m 0,0 h 51.813 v 101.232 c 0,13.325 -10.801,24.125 -24.125,24.125 H 24.125 C 10.801,125.357 0,114.557 0,101.232 Z"
             style="fill:#188497;fill-opacity:1;fill-rule:nonzero;stroke:none"
             id="path212"
             inkscape:connector-curvature="0" /></g><g
           id="g214"
           transform="translate(411.3984,204.0937)"><path
             d="m 0,0 c 0,-10.679 -8.656,-19.335 -19.336,-19.335 -10.679,0 -19.335,8.656 -19.335,19.335 0,10.68 8.656,19.336 19.335,19.336 C -8.656,19.336 0,10.68 0,0"
             style="fill:#177889;fill-opacity:1;fill-rule:nonzero;stroke:none"
             id="path216"
             inkscape:connector-curvature="0" /></g><g
           id="g218"
           transform="translate(417.6338,67.1982)"><path
             d="m 0,0 h -51.142 v 94.628 c 0,13.438 10.895,24.333 24.333,24.333 h 2.475 C -10.895,118.961 0,108.066 0,94.628 Z"
             style="fill:#177889;fill-opacity:1;fill-rule:nonzero;stroke:none"
             id="path220"
             inkscape:connector-curvature="0" /></g><g
           id="g222"
           transform="translate(105.7612,209.8789)"><path
             d="m 0,0 c 0,-10.679 -8.657,-19.336 -19.336,-19.336 -10.679,0 -19.336,8.657 -19.336,19.336 0,10.679 8.657,19.336 19.336,19.336 C -8.657,19.336 0,10.679 0,0"
             style="fill:#177889;fill-opacity:1;fill-rule:nonzero;stroke:none"
             id="path224"
             inkscape:connector-curvature="0" /></g><g
           id="g226"
           transform="translate(111.9961,72.9834)"><path
             d="m 0,0 h -51.142 v 94.627 c 0,13.439 10.895,24.334 24.334,24.334 h 2.475 C -10.895,118.961 0,108.066 0,94.627 Z"
             style="fill:#177889;fill-opacity:1;fill-rule:nonzero;stroke:none"
             id="path228"
             inkscape:connector-curvature="0" /></g><g
           id="g230"
           transform="translate(22.4976,191.2432)"><path
             d="m 0,0 c 0,-10.679 -8.657,-19.336 -19.336,-19.336 -10.679,0 -19.335,8.657 -19.335,19.336 0,10.68 8.656,19.336 19.335,19.336 C -8.657,19.336 0,10.68 0,0"
             style="fill:#177889;fill-opacity:1;fill-rule:nonzero;stroke:none"
             id="path232"
             inkscape:connector-curvature="0" /></g><g
           id="g234"
           transform="translate(28.7324,54.3477)"><path
             d="m 0,0 h -51.141 v 94.628 c 0,13.438 10.894,24.333 24.333,24.333 h 2.475 C -10.895,118.961 0,108.066 0,94.628 Z"
             style="fill:#177889;fill-opacity:1;fill-rule:nonzero;stroke:none"
             id="path236"
             inkscape:connector-curvature="0" /></g><g
           id="g238"
           transform="translate(366.4922,233.5811)"><path
             d="m 0,0 c 0,-11.707 -9.49,-21.198 -21.198,-21.198 -11.707,0 -21.198,9.491 -21.198,21.198 0,11.708 9.491,21.198 21.198,21.198 C -9.49,21.198 0,11.708 0,0"
             style="fill:#177889;fill-opacity:1;fill-rule:nonzero;stroke:none"
             id="path240"
             inkscape:connector-curvature="0" /></g><g
           id="g242"
           transform="translate(373.3271,88.2783)"><path
             d="m 0,0 h -56.066 l -7.297,98.722 c 0,13.438 18.191,26.919 31.63,26.919 h 7.4 C -10.894,125.641 0,114.746 0,101.308 Z"
             style="fill:#177889;fill-opacity:1;fill-rule:nonzero;stroke:none"
             id="path244"
             inkscape:connector-curvature="0" /></g><g
           id="g246"
           transform="translate(150.4678,238.0596)"><path
             d="m 0,0 c 0,-11.707 -9.491,-21.198 -21.198,-21.198 -11.708,0 -21.198,9.491 -21.198,21.198 0,11.708 9.49,21.198 21.198,21.198 C -9.491,21.198 0,11.708 0,0"
             style="fill:#177889;fill-opacity:1;fill-rule:nonzero;stroke:none"
             id="path248"
             inkscape:connector-curvature="0" /></g><g
           id="g250"
           transform="translate(157.3027,92.7568)"><path
             d="m 0,0 h -56.066 v 101.308 c 0,13.438 10.894,24.333 24.333,24.333 h 7.4 C -10.895,125.641 0,114.746 0,101.308 Z"
             style="fill:#177889;fill-opacity:1;fill-rule:nonzero;stroke:none"
             id="path252"
             inkscape:connector-curvature="0" /></g><g
           id="g254"
           transform="translate(60.2544,223.4092)"><path
             d="m 0,0 c 0,-11.707 -9.491,-21.198 -21.198,-21.198 -11.708,0 -21.198,9.491 -21.198,21.198 0,11.707 9.49,21.198 21.198,21.198 C -9.491,21.198 0,11.707 0,0"
             style="fill:#177889;fill-opacity:1;fill-rule:nonzero;stroke:none"
             id="path256"
             inkscape:connector-curvature="0" /></g><g
           id="g258"
           transform="translate(67.0894,78.1064)"><path
             d="m 0,0 h -56.066 v 101.308 c 0,13.438 10.894,24.333 24.333,24.333 h 7.4 C -10.894,125.641 0,114.746 0,101.308 Z"
             style="fill:#177889;fill-opacity:1;fill-rule:nonzero;stroke:none"
             id="path260"
             inkscape:connector-curvature="0" /></g><g
           id="g262"
           transform="translate(197.2363,228.4463)"><path
             d="m 0,0 c 0,-11.707 -9.491,-21.197 -21.198,-21.197 -11.707,0 -21.198,9.49 -21.198,21.197 0,11.708 9.491,21.198 21.198,21.198 C -9.491,21.198 0,11.708 0,0"
             style="fill:#177889;fill-opacity:1;fill-rule:nonzero;stroke:none"
             id="path264"
             inkscape:connector-curvature="0" /></g><g
           id="g266"
           transform="translate(204.0718,83.1436)"><path
             d="m 0,0 h -56.067 v 101.308 c 0,13.439 10.895,24.333 24.334,24.333 h 7.4 C -10.895,125.641 0,114.747 0,101.308 Z"
             style="fill:#177889;fill-opacity:1;fill-rule:nonzero;stroke:none"
             id="path268"
             inkscape:connector-curvature="0" /></g><g
           id="g270"
           transform="translate(511.6875,202.2314)"><path
             d="m 0,0 c 0,-11.707 -9.491,-21.197 -21.198,-21.197 -11.707,0 -21.198,9.49 -21.198,21.197 0,11.708 9.491,21.198 21.198,21.198 C -9.491,21.198 0,11.708 0,0"
             style="fill:#177889;fill-opacity:1;fill-rule:nonzero;stroke:none"
             id="path272"
             inkscape:connector-curvature="0" /></g><g
           id="g274"
           transform="translate(518.5225,56.9297)"><path
             d="m 0,0 h -56.066 v 101.307 c 0,13.439 10.894,24.334 24.333,24.334 h 7.4 C -10.895,125.641 0,114.746 0,101.307 Z"
             style="fill:#177889;fill-opacity:1;fill-rule:nonzero;stroke:none"
             id="path276"
             inkscape:connector-curvature="0" /></g><g
           id="g278"
           transform="translate(460.6299,222.0078)"><path
             d="m 0,0 c 0,-11.707 -9.49,-21.198 -21.198,-21.198 -11.707,0 -21.198,9.491 -21.198,21.198 0,11.708 9.491,21.198 21.198,21.198 C -9.49,21.198 0,11.708 0,0"
             style="fill:#177889;fill-opacity:1;fill-rule:nonzero;stroke:none"
             id="path280"
             inkscape:connector-curvature="0" /></g><g
           id="g282"
           transform="translate(467.4658,76.7051)"><path
             d="m 0,0 h -56.067 v 101.308 c 0,13.439 10.894,24.333 24.334,24.333 h 7.399 C -10.895,125.641 0,114.747 0,101.308 Z"
             style="fill:#177889;fill-opacity:1;fill-rule:nonzero;stroke:none"
             id="path284"
             inkscape:connector-curvature="0" /></g></g></g><g
       id="g286"><g
         id="g288"
         clip-path="url(#clipPath292)"><g
           id="g294"
           transform="translate(49.519,298.4907)"><path
             d="M 0,0 C 0,0 25.067,15.245 53.891,6.728 76.074,0.172 93.165,6.235 93.165,6.235 c 0,0 -2.48,-36.965 -4.722,-38.983 -8.962,-8.065 -23.097,-19.861 -41.86,-12.722 -18.764,7.138 -45.094,-0.782 -45.094,-0.782 z"
             style="fill:#177889;fill-opacity:1;fill-rule:nonzero;stroke:none"
             id="path296"
             inkscape:connector-curvature="0" /></g><g
           id="g298"
           transform="translate(49.519,298.4907)"><path
             d="m 0,0 1.688,-90.941 c 0,0 2.143,-0.031 3.027,2.373 0.884,2.405 -1.062,88.085 -1.062,88.085 z"
             style="fill:#177889;fill-opacity:1;fill-rule:nonzero;stroke:none"
             id="path300"
             inkscape:connector-curvature="0" /></g><g
           id="g302"
           transform="translate(392.2783,398.7192)"><path
             d="m 0,0 c 0,0 -17.854,10.857 -38.383,4.792 -15.8,-4.669 -27.971,-0.351 -27.971,-0.351 0,0 1.766,-26.328 3.363,-27.765 6.383,-5.744 16.45,-14.146 29.813,-9.061 13.365,5.084 32.117,-0.557 32.117,-0.557 z"
             style="fill:#198fa5;fill-opacity:1;fill-rule:nonzero;stroke:none"
             id="path304"
             inkscape:connector-curvature="0" /></g><g
           id="g306"
           transform="translate(392.2783,398.7192)"><path
             d="m 0,0 -1.203,-64.77 c 0,0 -1.526,-0.022 -2.155,1.69 -0.63,1.713 0.755,62.736 0.755,62.736 z"
             style="fill:#198fa5;fill-opacity:1;fill-rule:nonzero;stroke:none"
             id="path308"
             inkscape:connector-curvature="0" /></g></g></g><g
       id="g310"><g
         id="g312"
         clip-path="url(#clipPath316)"><g
           id="g318"
           transform="translate(500,102.9297)"><path
             d="M 0,0 V -102.93 H -500 V 0.25 c 60.22,15.851 149.67,25.891 249.53,25.891 C -150.09,26.141 -60.23,15.99 0,0"
             style="fill:#08b2bf;fill-opacity:1;fill-rule:nonzero;stroke:none"
             id="path320"
             inkscape:connector-curvature="0" /></g><g
           id="g322"><g
             id="g324" /><g
             id="g336"><g
               clip-path="url(#clipPath328)"
               id="g334"
               style="opacity:0.30000299"><g
                 transform="translate(485.5,66.0898)"
                 id="g332"><path
                   d="m 0,0 c 0,-29.32 -105.437,-53.09 -235.5,-53.09 -130.063,0 -235.5,23.77 -235.5,53.09 0,29.321 105.437,53.09 235.5,53.09 C -105.437,53.09 0,29.321 0,0"
                   style="fill:#1a98af;fill-opacity:1;fill-rule:nonzero;stroke:none"
                   id="path330"
                   inkscape:connector-curvature="0" /></g></g></g></g><g
           id="g338"><g
             id="g340" /><g
             id="g352"><g
               clip-path="url(#clipPath344)"
               id="g350"
               style="opacity:0.5"><g
                 transform="translate(409,71.6455)"
                 id="g348"><path
                   d="m 0,0 c 0,-18.306 -71.187,-33.146 -159,-33.146 -87.813,0 -159,14.84 -159,33.146 0,18.306 71.187,33.146 159,33.146 C -71.187,33.146 0,18.306 0,0"
                   style="fill:#1a98af;fill-opacity:1;fill-rule:nonzero;stroke:none"
                   id="path346"
                   inkscape:connector-curvature="0" /></g></g></g></g><g
           id="g354"
           transform="translate(352.4326,74.1514)"><path
             d="m 0,0 c 0,-8.539 -45.86,-15.461 -102.433,-15.461 -56.571,0 -102.432,6.922 -102.432,15.461 0,8.539 45.861,15.462 102.432,15.462 C -45.86,15.462 0,8.539 0,0"
             style="fill:#1a98af;fill-opacity:1;fill-rule:nonzero;stroke:none"
             id="path356"
             inkscape:connector-curvature="0" /></g><g
           id="g358"
           transform="translate(222.3057,402.2842)"><path
             d="M 0,0 C 0,0 -0.286,-7.072 2.454,-10.85 5.194,-14.628 7.787,3.865 7.787,3.865 Z"
             style="fill:#492727;fill-opacity:1;fill-rule:nonzero;stroke:none"
             id="path360"
             inkscape:connector-curvature="0" /></g><g
           id="g362"
           transform="translate(216.9697,325.8799)"><path
             d="m 0,0 c -1.54,0.17 -3.2,0.45 -4.95,0.81 -14.34,2.9 -34.2,11.05 -34.2,11.05 l 9.07,12.02 c 1.31,1.71 4.49,3.01 8.52,3.99 12.22,2.98 32.21,5.814 32.21,5.814 C 10.65,33.684 14.17,-1.59 0,0"
             style="fill:#5f6571;fill-opacity:1;fill-rule:nonzero;stroke:none"
             id="path364"
             inkscape:connector-curvature="0" /></g><g
           id="g366"><g
             id="g368" /><g
             id="g380"><g
               clip-path="url(#clipPath372)"
               id="g378"
               style="opacity:0.5"><g
                 transform="translate(214.54,343.02)"
                 id="g376"><path
                   d="m 0,0 c -2.09,-5.48 -2.52,-16.33 -2.52,-16.33 -14.34,2.9 -34.2,11.05 -34.2,11.05 l 9.07,12.02 c 1.31,1.71 3.56,3.01 7.59,3.99 3.98,-2.06 3.77,-10.18 3.77,-10.18 C -9.915,-2.8 0,0 0,0"
                   style="fill:#49515c;fill-opacity:1;fill-rule:nonzero;stroke:none"
                   id="path374"
                   inkscape:connector-curvature="0" /></g></g></g></g><g
           id="g382"
           transform="translate(177.8179,337.7432)"><path
             d="m 0,0 c -10.983,9.272 -13.974,53.151 -13.974,53.151 l 14.289,2.732 c 0,0 10.763,-22.867 16.275,-39.516 C 19.386,7.922 11.107,-0.524 0,0"
             style="fill:#5f6571;fill-opacity:1;fill-rule:nonzero;stroke:none"
             id="path384"
             inkscape:connector-curvature="0" /></g><g
           id="g386"
           transform="translate(164.9717,391.1099)"><path
             d="M 0,0 -0.483,2.517 12.376,4.779 13.162,2.517 Z"
             style="fill:#ffffff;fill-opacity:1;fill-rule:nonzero;stroke:none"
             id="path388"
             inkscape:connector-curvature="0" /></g><g
           id="g390"
           transform="translate(168.7383,388.4038)"><path
             d="m 0,0 c 0,-0.657 -0.533,-1.19 -1.19,-1.19 -0.658,0 -1.19,0.533 -1.19,1.19 0,0.657 0.532,1.19 1.19,1.19 C -0.533,1.19 0,0.657 0,0"
             style="fill:#41444d;fill-opacity:1;fill-rule:nonzero;stroke:none"
             id="path392"
             inkscape:connector-curvature="0" /></g><g
           id="g394"
           transform="translate(169.75,382.4687)"><path
             d="m 0,0 c 0,-0.756 -0.613,-1.369 -1.369,-1.369 -0.756,0 -1.368,0.613 -1.368,1.369 0,0.756 0.612,1.369 1.368,1.369 C -0.613,1.369 0,0.756 0,0"
             style="fill:#41444d;fill-opacity:1;fill-rule:nonzero;stroke:none"
             id="path396"
             inkscape:connector-curvature="0" /></g><g
           id="g398"
           transform="translate(288.9619,252.1377)"><path
             d="m 0,0 c 0,0 -21.141,-0.45 -40.416,-0.61 -16.153,-0.13 -37.352,-0.68 -37.352,0 0,1.5 -0.977,75.61 2.256,88.36 3.232,12.75 20.948,24.05 20.948,24.05 h 24.474 c 0,0 28.704,-7.63 30.09,-13.47 C 6.16,67.67 0,0 0,0"
             style="fill:#5f6571;fill-opacity:1;fill-rule:nonzero;stroke:none"
             id="path400"
             inkscape:connector-curvature="0" /></g><g
           id="g402"
           transform="translate(289.041,252.1377)"><path
             d="m 0,0 c 0,0 -20.523,-0.45 -39.236,-0.61 v 40.53 l -1.704,71.88 h 11.728 c 0,0 27.867,-7.63 29.212,-13.47 C 5.98,67.67 0,0 0,0"
             style="fill:#49515c;fill-opacity:1;fill-rule:nonzero;stroke:none"
             id="path404"
             inkscape:connector-curvature="0" /></g><g
           id="g406"
           transform="translate(234.6812,352.6377)"><path
             d="m 0,0 -2.125,-7.875 17.444,-52.709 9.056,32.459 3.625,16.75 -7,8 z"
             style="fill:#d9e5e8;fill-opacity:1;fill-rule:nonzero;stroke:none"
             id="path408"
             inkscape:connector-curvature="0" /></g><g
           id="g410"
           transform="translate(247.9312,346.2642)"><path
             d="M 0,0 V 0 C -6.712,0 -12.153,5.441 -12.153,12.153 V 41.901 H 12.153 V 12.153 C 12.153,5.441 6.712,0 0,0"
             style="fill:#fcbf73;fill-opacity:1;fill-rule:nonzero;stroke:none"
             id="path412"
             inkscape:connector-curvature="0" /></g><g
           id="g414"
           transform="translate(254.6797,344.8032)"><path
             d="M 0,0 -3.649,-5.67 H -9 l -4.37,4.92 6.62,3.96 z"
             style="fill:#4bb5f5;fill-opacity:1;fill-rule:nonzero;stroke:none"
             id="path416"
             inkscape:connector-curvature="0" /></g><g
           id="g418"
           transform="translate(257.9902,313.7632)"><path
             d="m 0,0 -7.99,-21.71 -8.69,19.58 0.61,9.06 3.76,18.44 h 5.35 L -1.431,6.62 Z"
             style="fill:#46a8ce;fill-opacity:1;fill-rule:nonzero;stroke:none"
             id="path420"
             inkscape:connector-curvature="0" /></g><g
           id="g422"><g
             id="g424" /><g
             id="g436"><g
               clip-path="url(#clipPath428)"
               id="g434"
               style="opacity:0.5"><g
                 transform="translate(257.9902,313.7632)"
                 id="g432"><path
                   d="m 0,0 -7.99,-21.71 -1.74,47.08 -0.33,8.88 6.749,-3.21 -3.649,-5.67 5.529,-18.75 z"
                   style="fill:#7d92bb;fill-opacity:1;fill-rule:nonzero;stroke:none"
                   id="path430"
                   inkscape:connector-curvature="0" /></g></g></g></g><g
           id="g438"
           transform="translate(285.4238,354.1475)"><path
             d="m 0,0 c 0,0 -10.879,-32.29 15.456,-55.837 23.495,-11.201 20.38,2.358 20.38,2.358 0,0 -16.321,47.844 -35.836,53.479"
             style="fill:#515c66;fill-opacity:1;fill-rule:nonzero;stroke:none"
             id="path440"
             inkscape:connector-curvature="0" /></g><g
           id="g442"
           transform="translate(260.084,367.875)"><path
             d="m 0,0 c 0,-2.952 -1.527,-15.487 -12.153,-19.862 0,0 5.001,-2.625 10.626,-8.125 0,0 8.625,12 6.875,22.936 z"
             style="fill:#f2f6f9;fill-opacity:1;fill-rule:nonzero;stroke:none"
             id="path444"
             inkscape:connector-curvature="0" /></g><g
           id="g446"
           transform="translate(235.7778,366.0625)"><path
             d="m 0,0 c 0,0 -0.597,-11.092 12.153,-18.05 0,0 -3.833,-2.875 -8.75,-8.125 0,0 -10.231,8.47 -8.032,21.694 z"
             style="fill:#ffffff;fill-opacity:1;fill-rule:nonzero;stroke:none"
             id="path448"
             inkscape:connector-curvature="0" /></g><g
           id="g450"
           transform="translate(321.3965,300.375)"><path
             d="m 0,0 c 0.944,-4.024 -3.746,-20.838 -22.104,-45.237 l -11.541,1.937 c 0,0 4.553,28.207 11.661,42.597 C -18.882,5.578 -1.584,6.75 0,0"
             style="fill:#49515c;fill-opacity:1;fill-rule:nonzero;stroke:none"
             id="path452"
             inkscape:connector-curvature="0" /></g><path
           d="M 351.932,263.253 H 148.069 v 8 h 203.863 z"
           style="fill:#764646;fill-opacity:1;fill-rule:nonzero;stroke:none"
           id="path454"
           inkscape:connector-curvature="0" /><path
           d="M 344.182,256.503 H 155.819 v 7.02 h 188.363 z"
           style="fill:#542c2a;fill-opacity:1;fill-rule:nonzero;stroke:none"
           id="path456"
           inkscape:connector-curvature="0" /><g
           id="g458"><g
             id="g460" /><g
             id="g470"><g
               clip-path="url(#clipPath464)"
               id="g468"
               style="opacity:0.30000299"><path
                 d="M 344.182,256.503 H 155.819 v 7.02 h 188.363 z"
                 style="fill:#774544;fill-opacity:1;fill-rule:nonzero;stroke:none"
                 id="path466"
                 inkscape:connector-curvature="0" /></g></g></g><path
           d="M 315.682,263.523 H 148.069 v 7.73 h 167.613 z"
           style="fill:#955a5a;fill-opacity:1;fill-rule:nonzero;stroke:none"
           id="path472"
           inkscape:connector-curvature="0" /><path
           d="M 309.31,256.503 H 154.441 v 7.02 H 309.31 Z"
           style="fill:#542c2a;fill-opacity:1;fill-rule:nonzero;stroke:none"
           id="path474"
           inkscape:connector-curvature="0" /><g
           id="g476"
           transform="translate(333.3115,256.5029)"><path
             d="m 0,0 -25.66,-179.75 h -115.3 L -166.62,0 Z"
             style="fill:#643632;fill-opacity:1;fill-rule:nonzero;stroke:none"
             id="path478"
             inkscape:connector-curvature="0" /></g><g
           id="g480"
           transform="translate(168.1553,246.5029)"><path
             d="m 0,0 24.196,-169.75 h 94.128 L 132.423,0 Z"
             style="fill:#935b5a;fill-opacity:1;fill-rule:nonzero;stroke:none"
             id="path482"
             inkscape:connector-curvature="0" /></g><g
           id="g484"
           transform="translate(263.5332,364.6162)"><path
             d="m 0,0 c 0,0 -7.283,-53.563 -13.533,-72.563 l 18.431,39.251 -6.375,2.666 8.375,2.334 c 0,0 0.301,13.451 -2,25.225 z"
             style="fill:#383a42;fill-opacity:1;fill-rule:nonzero;stroke:none"
             id="path486"
             inkscape:connector-curvature="0" /></g><g
           id="g488"
           transform="translate(231.5835,362.1724)"><path
             d="m 0,0 c 0,0 12.167,-51.119 18.417,-70.119 l -21.03,38.164 5.711,3.42 -7.691,2 c 0,0 -1.611,12.475 0.691,24.25 z"
             style="fill:#41444d;fill-opacity:1;fill-rule:nonzero;stroke:none"
             id="path490"
             inkscape:connector-curvature="0" /></g><g
           id="g492"
           transform="translate(266.21,402.0459)"><path
             d="m 0,0 v -17.34 c 0,-9.57 -6.9,-17.61 -15.97,-19.38 -1.23,-0.24 -2.49,-0.37 -3.78,-0.37 h -1.95 c -0.91,0 -1.81,0.06 -2.69,0.19 -9.6,1.32 -17.06,9.61 -17.06,19.56 V 0 c 0,10.86 8.89,19.75 19.75,19.75 h 1.95 c 1.15,0 2.27,-0.1 3.37,-0.3 0.14,-0.02 0.27,-0.04 0.41,-0.07 C -6.9,17.61 0,9.57 0,0"
             style="fill:#ffe0a9;fill-opacity:1;fill-rule:nonzero;stroke:none"
             id="path494"
             inkscape:connector-curvature="0" /></g><g
           id="g496"><g
             id="g498" /><g
             id="g510"><g
               clip-path="url(#clipPath502)"
               id="g508"
               style="opacity:0.30000299"><g
                 transform="translate(266.21,402.0459)"
                 id="g506"><path
                   d="m 0,0 v -17.34 c 0,-9.57 -6.9,-17.61 -15.97,-19.38 -1.23,-0.24 -2.49,-0.37 -3.78,-0.37 h -1.95 c -0.91,0 -1.81,0.06 -2.69,0.19 -5.89,3.01 -7.692,15.632 -7.692,15.632 l -1.506,-0.037 c -0.775,-0.019 -1.277,0.807 -0.902,1.486 0.785,1.422 1.85,3.516 2.114,4.846 -0.23,4.17 0.846,12.063 0.846,12.063 0,0 7.82,14.85 8.87,16.52 0.51,0.8 3.35,3.39 6.28,5.84 0.005,0.001 0.008,0.002 0.012,0.003 C -7.103,17.844 0,9.709 0,0"
                   style="fill:#fcbf73;fill-opacity:1;fill-rule:nonzero;stroke:none"
                   id="path504"
                   inkscape:connector-curvature="0" /></g></g></g></g><g
           id="g512"
           transform="translate(268.3301,382.5728)"><path
             d="m 0,0 c 0,-0.02 -0.01,-0.04 -0.01,-0.05 -0.39,-1.44 -2.1,-2.01 -3.301,-1.13 -1.179,0.86 -2.319,2.14 -2.309,3.86 0,0.63 -2.12,9.91 -2.64,10.24 -3.48,2.23 -5.52,-5.02 -5.52,-5.02 l -1.63,-0.26 c 0,0 0.07,6.66 -4.61,10.39 0,0 -13.43,-2.23 -19.63,-1.27 -6.81,1.05 -12.88,8.71 -12.75,16.47 0.05,4.18 1.9,8.38 6.37,11.6 11.13,8.03 19.32,-0.55 20.18,-1.52 0.05,-0.06 0.08,-0.09 0.08,-0.09 0,0 14.91,5.95 19.85,-9 0,0 7.56,-0.5 8.609,-6.39 C 3.27,24.57 2.4,9.04 0,0"
             style="fill:#5e3232;fill-opacity:1;fill-rule:nonzero;stroke:none"
             id="path514"
             inkscape:connector-curvature="0" /></g><g
           id="g516"
           transform="translate(254.8203,310.7231)"><path
             d="m 0,0 v -9.94 c 0,-4.08 -2.771,-7.5 -6.53,-8.49 -0.72,-0.2 -1.48,-0.3 -2.26,-0.3 -0.78,0 -1.54,0.1 -2.26,0.3 -3.761,0.99 -6.53,4.41 -6.53,8.49 V 0 c 0,4.86 3.93,8.79 8.79,8.79 2.43,0 4.63,-0.98 6.22,-2.57 C -0.98,4.63 0,2.43 0,0"
             style="fill:#c6d3e4;fill-opacity:1;fill-rule:nonzero;stroke:none"
             id="path518"
             inkscape:connector-curvature="0" /></g><g
           id="g520"
           transform="translate(252.7949,298.7529)"><path
             d="m 0,0 c 0,-3.736 -3.029,-6.765 -6.765,-6.765 -3.736,0 -6.764,3.029 -6.764,6.765 0,3.736 3.028,6.765 6.764,6.765 C -3.029,6.765 0,3.736 0,0"
             style="fill:#7d92bb;fill-opacity:1;fill-rule:nonzero;stroke:none"
             id="path522"
             inkscape:connector-curvature="0" /></g><g
           id="g524"
           transform="translate(248.29,286.4131)"><path
             d="m 0,0 v -12.9 c 0,-1.25 -1.01,-2.26 -2.26,-2.26 -1.25,0 -2.26,1.01 -2.26,2.26 V 0 c 0,1.25 1.01,2.26 2.26,2.26 0.62,0 1.19,-0.25 1.6,-0.66 C -0.25,1.19 0,0.62 0,0"
             style="fill:#383a42;fill-opacity:1;fill-rule:nonzero;stroke:none"
             id="path526"
             inkscape:connector-curvature="0" /></g><g
           id="g528"
           transform="translate(248.29,296.4932)"><path
             d="m 0,0 v -10.32 c 0,-1.24 -1.01,-2.25 -2.26,-2.25 -1.25,0 -2.26,1.01 -2.26,2.25 V 0 c 0,1.25 1.01,2.26 2.26,2.26 0.62,0 1.19,-0.25 1.6,-0.66 C -0.25,1.19 0,0.62 0,0"
             style="fill:#41434d;fill-opacity:1;fill-rule:nonzero;stroke:none"
             id="path530"
             inkscape:connector-curvature="0" /></g><g
           id="g532"
           transform="translate(256.7803,271.2529)"><path
             d="m 0,0 h -21.5 c 0,1.54 0.63,2.94 1.63,3.94 1.02,1.02 2.41,1.64 3.95,1.64 H -5.58 C -2.5,5.58 0,3.08 0,0"
             style="fill:#3c4148;fill-opacity:1;fill-rule:nonzero;stroke:none"
             id="path534"
             inkscape:connector-curvature="0" /></g><g
           id="g536"><g
             id="g538" /><g
             id="g550"><g
               clip-path="url(#clipPath542)"
               id="g548"
               style="opacity:0.5"><g
                 transform="translate(256.7803,271.2529)"
                 id="g546"><path
                   d="m 0,0 h -10.75 v 48.26 c 2.43,0 4.63,-0.98 6.22,-2.57 1.59,-1.59 2.57,-3.79 2.57,-6.22 v -9.94 c 0,-4.08 -2.77,-7.5 -6.53,-8.49 V 5.58 h 2.91 C -2.5,5.58 0,3.08 0,0"
                   style="fill:#7d92bb;fill-opacity:1;fill-rule:nonzero;stroke:none"
                   id="path544"
                   inkscape:connector-curvature="0" /></g></g></g></g><g
           id="g552"
           transform="translate(213.9863,311.2729)"><path
             d="m 0,0 c 0,-2.12 -0.81,-4.23 -2.42,-5.84 l -6.37,-6.37 c -1.71,-1.71 -3.97,-2.51 -6.2,-2.4 -0.55,0.02 -1.09,0.1 -1.62,0.23 -1.08,0.26 -2.13,0.75 -3.05,1.46 -0.28,0.22 -0.55,0.46 -0.8,0.71 -0.16,0.16 -0.31,0.32 -0.44,0.49 -0.47,0.54 -0.85,1.13 -1.14,1.74 -0.53,1.07 -0.81,2.23 -0.83,3.39 -0.02,0.58 0.03,1.16 0.14,1.73 0.29,1.58 1.05,3.09 2.27,4.31 l 6.37,6.38 c 3.22,3.22 8.45,3.22 11.67,0 C -0.81,4.22 0,2.11 0,0"
             style="fill:#c6d3e4;fill-opacity:1;fill-rule:nonzero;stroke:none"
             id="path554"
             inkscape:connector-curvature="0" /></g><g
           id="g556"
           transform="translate(199.8364,299.9131)"><path
             d="m 0,0 c 0,-1.18 -0.3,-2.29 -0.84,-3.25 -0.55,0.02 -1.09,0.1 -1.62,0.23 -1.08,0.26 -2.13,0.75 -3.05,1.46 -0.28,0.22 -0.55,0.46 -0.8,0.71 -0.16,0.16 -0.31,0.32 -0.44,0.49 -0.47,0.54 -0.85,1.13 -1.14,1.74 -0.53,1.07 -0.81,2.23 -0.83,3.39 -0.02,0.58 0.03,1.16 0.14,1.73 0.58,0.16 1.2,0.25 1.83,0.25 2.01,0 3.8,-0.88 5.04,-2.27 C -0.65,3.29 0,1.73 0,0"
             style="fill:#7d92bb;fill-opacity:1;fill-rule:nonzero;stroke:none"
             id="path558"
             inkscape:connector-curvature="0" /></g><g
           id="g560"
           transform="translate(195.626,300.4229)"><path
             d="m 0,0 c 0,-0.49 -0.19,-0.97 -0.56,-1.33 l -0.74,-0.74 -9.76,-9.77 -0.93,-0.93 c -0.32,-0.31 -0.72,-0.49 -1.13,-0.53 -0.55,-0.06 -1.11,0.11 -1.53,0.53 -0.31,0.31 -0.48,0.69 -0.53,1.1 v 0.48 c 0.05,0.4 0.22,0.78 0.53,1.09 l 1.15,1.14 9.82,9.83 0.46,0.46 c 0.73,0.73 1.93,0.73 2.66,0 C -0.5,1.27 -0.45,1.21 -0.41,1.15 -0.14,0.81 0,0.41 0,0"
             style="fill:#41434d;fill-opacity:1;fill-rule:nonzero;stroke:none"
             id="path562"
             inkscape:connector-curvature="0" /></g><g
           id="g564"
           transform="translate(184.5664,289.5547)"><path
             d="m 0,0 v -15.437 c 0,-0.785 -0.49,-1.466 -1.2,-1.768 -0.26,-0.114 -0.55,-0.18 -0.86,-0.18 -0.31,0 -0.6,0.066 -0.86,0.18 -0.71,0.302 -1.2,0.983 -1.2,1.768 V 0 c 0,0.955 0.72,1.75 1.68,1.911 0.13,0.028 0.25,0.037 0.38,0.037 0.57,0 1.08,-0.217 1.46,-0.567 L -0.59,1.372 C -0.23,1.021 0,0.539 0,0"
             style="fill:#383a42;fill-opacity:1;fill-rule:nonzero;stroke:none"
             id="path566"
             inkscape:connector-curvature="0" /></g><g
           id="g568"
           transform="translate(193.2563,271.2529)"><path
             d="m 0,0 h -21.5 c 0,1.54 0.63,2.94 1.63,3.94 1.02,1.02 2.41,1.64 3.95,1.64 H -5.59 C -2.5,5.58 0,3.08 0,0"
             style="fill:#3c4148;fill-opacity:1;fill-rule:nonzero;stroke:none"
             id="path570"
             inkscape:connector-curvature="0" /></g><g
           id="g572"><g
             id="g574" /><g
             id="g586"><g
               clip-path="url(#clipPath578)"
               id="g584"
               style="opacity:0.5"><g
                 transform="translate(213.9863,311.2729)"
                 id="g582"><path
                   d="m 0,0 c 0,-2.12 -0.81,-4.23 -2.42,-5.84 l -6.37,-6.37 c -2.12,-2.12 -5.11,-2.85 -7.82,-2.17 -1.08,0.26 -2.13,0.75 -3.05,1.46 l -9.76,-9.77 v -11.75 h 3.1 c 3.09,0 5.59,-2.5 5.59,-5.58 h -10.75 v 18.25 l 1.47,1.39 9.11,8.66 2.13,2.02 2.1,2 14.25,13.53 C -0.81,4.22 0,2.11 0,0"
                   style="fill:#7d92bb;fill-opacity:1;fill-rule:nonzero;stroke:none"
                   id="path580"
                   inkscape:connector-curvature="0" /></g></g></g></g><g
           id="g588"
           transform="translate(288.6191,304.6831)"><path
             d="M 0,0 C -0.02,-1.16 -0.3,-2.32 -0.83,-3.39 -1.12,-4 -1.5,-4.59 -1.97,-5.13 -1.979,-5.15 -2,-5.16 -2.01,-5.18 c -0.12,-0.15 -0.26,-0.3 -0.4,-0.44 -0.25,-0.25 -0.52,-0.49 -0.8,-0.71 -0.92,-0.71 -1.97,-1.2 -3.05,-1.46 -0.53,-0.13 -1.07,-0.21 -1.62,-0.23 -2.229,-0.11 -4.49,0.69 -6.2,2.4 l -6.37,6.37 c -1.61,1.61 -2.42,3.72 -2.42,5.84 0,2.11 0.81,4.22 2.42,5.83 3.221,3.22 8.45,3.22 11.671,0 L -2.41,6.04 C -1.189,4.82 -0.43,3.31 -0.14,1.73 -0.029,1.16 0.021,0.58 0,0"
             style="fill:#c6d3e4;fill-opacity:1;fill-rule:nonzero;stroke:none"
             id="path590"
             inkscape:connector-curvature="0" /></g><g
           id="g592"
           transform="translate(288.6191,304.6831)"><path
             d="M 0,0 C -0.02,-1.16 -0.3,-2.32 -0.83,-3.39 -1.12,-4 -1.5,-4.59 -1.97,-5.13 -1.979,-5.15 -2,-5.16 -2.01,-5.18 c -0.12,-0.15 -0.26,-0.3 -0.4,-0.44 -0.25,-0.25 -0.52,-0.49 -0.8,-0.71 -0.92,-0.71 -1.97,-1.2 -3.05,-1.46 -0.53,-0.13 -1.07,-0.21 -1.62,-0.23 -0.54,0.96 -0.84,2.07 -0.84,3.25 0,1.7 0.63,3.23 1.651,4.41 0.019,0.02 0.04,0.05 0.059,0.07 1.24,1.39 3.031,2.27 5.04,2.27 0.63,0 1.25,-0.09 1.83,-0.25 C -0.029,1.16 0.021,0.58 0,0"
             style="fill:#7d92bb;fill-opacity:1;fill-rule:nonzero;stroke:none"
             id="path594"
             inkscape:connector-curvature="0" /></g><g
           id="g596"
           transform="translate(299.2891,289.2329)"><path
             d="m 0,0 v -0.48 c -0.05,-0.41 -0.22,-0.79 -0.529,-1.1 -0.391,-0.39 -0.901,-0.57 -1.42,-0.54 -0.04,0 -0.071,0 -0.111,0.01 -0.41,0.04 -0.81,0.22 -1.129,0.53 l -0.931,0.93 -9.76,9.77 -0.74,0.74 c -0.369,0.36 -0.56,0.84 -0.56,1.33 0,0.39 0.13,0.77 0.38,1.1 0.01,0.02 0.021,0.03 0.03,0.05 0.041,0.06 0.09,0.12 0.15,0.18 0.73,0.73 1.931,0.73 2.66,0 l 0.46,-0.46 9.82,-9.83 1.151,-1.14 C -0.22,0.78 -0.05,0.4 0,0"
             style="fill:#41434d;fill-opacity:1;fill-rule:nonzero;stroke:none"
             id="path598"
             inkscape:connector-curvature="0" /></g><g
           id="g600"
           transform="translate(299.2891,289.5332)"><path
             d="m 0,0 v -15.6 c 0,-0.8 -0.489,-1.48 -1.199,-1.79 -0.231,-0.1 -0.481,-0.16 -0.75,-0.18 H -2.06 c -0.31,0 -0.599,0.07 -0.86,0.18 -0.71,0.31 -1.2,0.99 -1.2,1.79 V 0 c 0,0.51 0.19,0.95 0.511,1.3 0.019,0.03 0.049,0.06 0.08,0.09 L -3.52,1.4 c 0.38,0.35 0.89,0.57 1.46,0.57 0.13,0 0.25,-0.01 0.38,-0.04 C -0.72,1.77 0,0.97 0,0"
             style="fill:#383a42;fill-opacity:1;fill-rule:nonzero;stroke:none"
             id="path602"
             inkscape:connector-curvature="0" /></g><g
           id="g604"
           transform="translate(307.9795,271.2529)"><path
             d="m 0,0 h -21.5 c 0,3.08 2.5,5.58 5.59,5.58 h 10.33 c 1.54,0 2.93,-0.62 3.95,-1.64 C -0.63,2.94 0,1.54 0,0"
             style="fill:#3c4148;fill-opacity:1;fill-rule:nonzero;stroke:none"
             id="path606"
             inkscape:connector-curvature="0" /></g><g
           id="g608"><g
             id="g610" /><g
             id="g622"><g
               clip-path="url(#clipPath614)"
               id="g620"
               style="opacity:0.5"><g
                 transform="translate(297.3398,289.2529)"
                 id="g618"><path
                   d="m 0,0 -1.66,1.58 -9.07,8.67 -2.121,2.02 -2.939,2.8 -13.381,12.78 c 3.221,3.22 8.45,3.22 11.671,0 l 6.369,-6.38 c 1.221,-1.22 1.981,-2.73 2.271,-4.31 0.11,-0.57 0.16,-1.15 0.139,-1.73 -0.019,-1.16 -0.3,-2.32 -0.83,-3.39 L 0.27,2.21 C 1.229,2.05 1.949,1.25 1.949,0.28 v -12.7 H 5.06 c 1.54,0 2.929,-0.62 3.95,-1.64 1,-1 1.63,-2.4 1.63,-3.94 H 0 Z"
                   style="fill:#7d92bb;fill-opacity:1;fill-rule:nonzero;stroke:none"
                   id="path616"
                   inkscape:connector-curvature="0" /></g></g></g></g><g
           id="g624"
           transform="translate(230.9102,76.75)"><path
             d="m 0,0 h -17.27 l -19.25,169.75 -0.06,0.54 -1.07,9.46 h 26.38 l 0.6,-9.46 0.03,-0.54 z"
             style="fill:#774544;fill-opacity:1;fill-rule:nonzero;stroke:none"
             id="path626"
             inkscape:connector-curvature="0" /></g><g
           id="g628"
           transform="translate(246.0303,256.5029)"><path
             d="M 0,0 0.117,-9.461 2.145,-179.75 H -15.117 L -25.795,-9.461 -26.39,0 Z"
             style="fill:#935b5a;fill-opacity:1;fill-rule:nonzero;stroke:none"
             id="path630"
             inkscape:connector-curvature="0" /></g><g
           id="g632"
           transform="translate(272.4102,256.5)"><path
             d="M 0,0 -0.37,-9.46 -0.391,-10 -6.96,-179.75 H -24.23 L -26.25,-10 -26.26,-9.46 -26.38,0 Z"
             style="fill:#774544;fill-opacity:1;fill-rule:nonzero;stroke:none"
             id="path634"
             inkscape:connector-curvature="0" /></g><g
           id="g636"><g
             id="g638" /><g
             id="g650"><g
               clip-path="url(#clipPath642)"
               id="g648"
               style="opacity:0.30000299"><g
                 transform="translate(272.4102,256.5)"
                 id="g646"><path
                   d="M 0,0 -0.37,-9.46 -0.391,-10 H -78.02 l -0.06,0.54 -1.07,9.46 z"
                   style="fill:#774544;fill-opacity:1;fill-rule:nonzero;stroke:none"
                   id="path644"
                   inkscape:connector-curvature="0" /></g></g></g></g><g
           id="g652"
           transform="translate(266.4199,191.0566)"><path
             d="m 0,0 c 0,-17.78 -14.32,-32.19 -32.05,-32.36 h -0.31 c -17.87,0 -32.36,14.48 -32.36,32.36 0,17.87 14.49,32.36 32.36,32.36 h 0.31 C -14.32,32.19 0,17.771 0,0"
             style="fill:#ae7e7e;fill-opacity:1;fill-rule:nonzero;stroke:none"
             id="path654"
             inkscape:connector-curvature="0" /></g><g
           id="g656"
           transform="translate(257.0654,191.0566)"><path
             d="m 0,0 c 0,-12.706 -10.3,-23.006 -23.005,-23.006 -12.706,0 -23.006,10.3 -23.006,23.006 0,12.706 10.3,23.006 23.006,23.006 C -10.3,23.006 0,12.706 0,0"
             style="fill:#935b5a;fill-opacity:1;fill-rule:nonzero;stroke:none"
             id="path658"
             inkscape:connector-curvature="0" /></g><path
           d="M 320.701,72.42 H 197.739 v 8.666 h 122.962 z"
           style="fill:#764646;fill-opacity:1;fill-rule:nonzero;stroke:none"
           id="path660"
           inkscape:connector-curvature="0" /><path
           d="M 293.75,72.42 H 179.538 v 8.666 H 293.75 Z"
           style="fill:#955a5a;fill-opacity:1;fill-rule:nonzero;stroke:none"
           id="path662"
           inkscape:connector-curvature="0" /><g
           id="g664"
           transform="translate(254.9932,288.6729)"><path
             d="m 0,0 c 0,-1.064 -0.862,-1.926 -1.927,-1.926 -1.063,0 -1.927,0.862 -1.927,1.926 0,1.064 0.864,1.927 1.927,1.927 C -0.862,1.927 0,1.064 0,0"
             style="fill:#383a42;fill-opacity:1;fill-rule:nonzero;stroke:none"
             id="path666"
             inkscape:connector-curvature="0" /></g><g
           id="g668"
           transform="translate(254.9932,280.8813)"><path
             d="m 0,0 c 0,-1.064 -0.862,-1.927 -1.927,-1.927 -1.063,0 -1.927,0.863 -1.927,1.927 0,1.064 0.864,1.927 1.927,1.927 C -0.862,1.927 0,1.064 0,0"
             style="fill:#383a42;fill-opacity:1;fill-rule:nonzero;stroke:none"
             id="path670"
             inkscape:connector-curvature="0" /></g><g
           id="g672"
           transform="translate(256.7988,391.8433)"><path
             d="M 0,0 C 0,0 -0.924,2.875 2.219,4.056 8.513,6.42 8.397,-4.095 5.75,-6.047 0.701,-9.771 0,0 0,0"
             style="fill:#ffe0a9;fill-opacity:1;fill-rule:nonzero;stroke:none"
             id="path674"
             inkscape:connector-curvature="0" /></g><g
           id="g676"><g
             id="g678" /><g
             id="g690"><g
               clip-path="url(#clipPath682)"
               id="g688"
               style="opacity:0.30000299"><g
                 transform="translate(256.7988,391.8433)"
                 id="g686"><path
                   d="M 0,0 C 0,0 -0.924,2.875 2.219,4.056 8.513,6.42 8.397,-4.095 5.75,-6.047 0.701,-9.771 0,0 0,0"
                   style="fill:#fcbf73;fill-opacity:1;fill-rule:nonzero;stroke:none"
                   id="path684"
                   inkscape:connector-curvature="0" /></g></g></g></g><g
           id="g692"
           transform="translate(243.2759,389.8867)"><path
             d="m 0,0 c 0,-1.062 -0.862,-1.924 -1.924,-1.924 -1.063,0 -1.924,0.862 -1.924,1.924 0,1.063 0.861,1.924 1.924,1.924 C -0.862,1.924 0,1.063 0,0"
             style="fill:#492727;fill-opacity:1;fill-rule:nonzero;stroke:none"
             id="path694"
             inkscape:connector-curvature="0" /></g><g
           id="g696"
           transform="translate(229.7852,389.8867)"><path
             d="m 0,0 c 0,-0.909 -0.59,-1.647 -1.318,-1.647 -0.728,0 -1.319,0.738 -1.319,1.647 0,0.91 0.591,1.647 1.319,1.647 C -0.59,1.647 0,0.91 0,0"
             style="fill:#492727;fill-opacity:1;fill-rule:nonzero;stroke:none"
             id="path698"
             inkscape:connector-curvature="0" /></g><g
           id="g700"
           transform="translate(230.0923,377.2744)"><path
             d="m 0,0 c 0,-2.753 2.232,-4.986 4.986,-4.986 2.754,0 4.987,2.233 4.987,4.986 z"
             style="fill:#ffffff;fill-opacity:1;fill-rule:nonzero;stroke:none"
             id="path702"
             inkscape:connector-curvature="0" /></g><g
           id="g704"
           transform="translate(179.7734,404.1602)"><path
             d="m 0,0 c -0.206,-2.507 -2.873,-8.356 -2.873,-8.356 l -10.954,-1.923 c -2.518,3.136 -4.441,7.234 -5.403,10.302 v 0.011 c -0.538,1.717 -0.767,3.114 -0.629,3.823 l 0.114,0.321 0.012,0.011 c 0.023,0.058 0.057,0.092 0.103,0.126 4.12,4.705 13.598,4.716 13.69,4.716 0,0 0.32,1.683 2.369,1.694 C -1.133,10.725 0.206,2.495 0,0"
             style="fill:#ffe0a9;fill-opacity:1;fill-rule:nonzero;stroke:none"
             id="path706"
             inkscape:connector-curvature="0" /></g><g
           id="g708"><g
             id="g710" /><g
             id="g722"><g
               clip-path="url(#clipPath714)"
               id="g720"
               style="opacity:0.30000299"><g
                 transform="translate(179.7734,404.1602)"
                 id="g718"><path
                   d="m 0,0 c -0.206,-2.507 -2.873,-8.356 -2.873,-8.356 l -10.954,-1.923 c -2.518,3.136 -4.441,7.234 -5.403,10.302 v 0.011 c -0.538,1.717 -0.767,3.114 -0.629,3.823 l 0.114,0.321 0.012,0.011 c 0.023,0.058 0.057,0.092 0.103,0.126 4.12,4.705 13.598,4.716 13.69,4.716 0,0 0.32,1.683 2.369,1.694 C -1.133,10.725 0.206,2.495 0,0"
                   style="fill:#fcbf73;fill-opacity:1;fill-rule:nonzero;stroke:none"
                   id="path716"
                   inkscape:connector-curvature="0" /></g></g></g></g><g
           id="g724"
           transform="translate(174.9585,406.5)"><path
             d="m 0,0 c -1.3,-1.78 -3.208,-2.117 -8.601,-3.458 -2.892,-0.72 -4.898,-0.885 -5.814,1.141 v 0.011 c -0.641,1.443 -0.824,2.931 -0.641,3.789 l 0.012,0.035 0.114,0.32 0.012,0.012 c 0.022,0.057 0.057,0.091 0.103,0.126 4.12,4.704 13.598,4.715 13.69,4.715 0,0 2.378,-4.975 1.125,-6.691"
             style="fill:#ffe0a9;fill-opacity:1;fill-rule:nonzero;stroke:none"
             id="path726"
             inkscape:connector-curvature="0" /></g><g
           id="g728"
           transform="translate(242.8198,422.7827)"><path
             d="m 0,0 c 0,-7.93 -6.43,-14.36 -14.35,-14.36 -5.39,0 -10.09,2.98 -12.54,7.38 0.05,4.18 1.9,8.38 6.37,11.6 C -9.39,12.65 -1.2,4.07 -0.34,3.1 -0.12,2.1 0,1.07 0,0"
             style="fill:#663a3a;fill-opacity:1;fill-rule:nonzero;stroke:none"
             id="path730"
             inkscape:connector-curvature="0" /></g></g></g><g
       id="g732"><g
         id="g734"
         clip-path="url(#clipPath738)"><g
           id="g740"
           transform="translate(260.1035,31.1074)"><path
             d="m 0,0 c -0.432,-0.443 -0.803,-0.932 -1.108,-1.453 l -0.465,0.241 c -0.067,0.297 -0.349,0.502 -0.658,0.466 -0.332,-0.039 -0.569,-0.339 -0.53,-0.67 0.039,-0.331 0.339,-0.567 0.67,-0.529 0.066,0.008 0.127,0.026 0.184,0.052 l 0.451,-0.234 c -0.251,-0.554 -0.433,-1.139 -0.539,-1.744 l 0.746,-0.131 c 0.23,1.306 0.85,2.507 1.792,3.473 z"
             style="fill:#f9fbfc;fill-opacity:1;fill-rule:nonzero;stroke:none"
             id="path742"
             inkscape:connector-curvature="0" /></g><g
           id="g744"
           transform="translate(265.5918,33.4092)"><path
             d="m 0,0 c -0.171,0 -0.341,-0.006 -0.51,-0.017 l -0.073,0.626 c 0.187,0.15 0.296,0.389 0.266,0.645 C -0.364,1.646 -0.72,1.928 -1.113,1.882 -1.506,1.835 -1.787,1.479 -1.741,1.086 -1.711,0.832 -1.552,0.625 -1.336,0.522 l 0.073,-0.624 c -0.714,-0.116 -1.403,-0.332 -2.059,-0.646 l 0.327,-0.684 c 0.933,0.448 1.941,0.674 2.995,0.674 0.496,0 0.993,-0.054 1.475,-0.158 l 0.161,0.741 C 1.101,-0.059 0.551,0 0,0"
             style="fill:#f9fbfc;fill-opacity:1;fill-rule:nonzero;stroke:none"
             id="path746"
             inkscape:connector-curvature="0" /></g><g
           id="g748"
           transform="translate(272.1943,30.8623)"><path
             d="M 0,0 C 0.331,0.04 0.566,0.341 0.525,0.672 0.484,1.003 0.184,1.238 -0.146,1.197 -0.456,1.159 -0.683,0.894 -0.677,0.589 L -1.093,0.226 c -0.418,0.429 -0.889,0.812 -1.408,1.138 l -0.403,-0.64 c 1.133,-0.715 2.02,-1.727 2.563,-2.926 L 0.35,-1.89 c -0.251,0.555 -0.568,1.073 -0.943,1.546 L -0.19,0.007 C -0.13,-0.006 -0.065,-0.009 0,0"
             style="fill:#f9fbfc;fill-opacity:1;fill-rule:nonzero;stroke:none"
             id="path750"
             inkscape:connector-curvature="0" /></g><g
           id="g752"
           transform="translate(265.0439,23.2002)"><path
             d="m 0,0 c -0.386,-0.022 -0.774,-0.034 -1.157,-0.034 -0.88,0 -1.733,0.06 -2.478,0.179 -0.39,0.062 -0.846,0.155 -1.27,0.292 1.046,-1.861 3.069,-3.125 5.387,-3.125 2.856,0 5.263,1.917 5.951,4.503 C 5.751,1.366 4.927,0.99 3.974,0.693 2.795,0.325 1.42,0.086 0,0"
             style="fill:#f9fbfc;fill-opacity:1;fill-rule:nonzero;stroke:none"
             id="path754"
             inkscape:connector-curvature="0" /></g><g
           id="g756"
           transform="translate(268.1699,26.2861)"><path
             d="M 0,0 C -0.75,0 -1.36,0.61 -1.36,1.36 -1.36,2.11 -0.75,2.721 0,2.721 0.75,2.721 1.36,2.11 1.36,1.36 1.36,0.61 0.75,0 0,0 m -4.737,-0.908 c -1.021,0 -1.85,0.83 -1.85,1.849 0,1.021 0.829,1.85 1.85,1.85 1.019,0 1.849,-0.829 1.849,-1.85 0,-1.019 -0.83,-1.849 -1.849,-1.849 m 2.159,6.514 c -3.353,0 -6.08,-2.666 -6.08,-5.943 0,-0.425 0.047,-0.849 0.137,-1.261 0.674,-0.483 2.707,-0.89 5.348,-0.731 2.879,0.174 5.297,0.957 6.672,2.158 C 3.493,0.024 3.479,0.22 3.454,0.411 3.073,3.373 0.48,5.606 -2.578,5.606"
             style="fill:#f9fbfc;fill-opacity:1;fill-rule:nonzero;stroke:none"
             id="path758"
             inkscape:connector-curvature="0" /></g><g
           id="g760"
           transform="translate(281.5947,30.0254)"><path
             d="m 0,0 c -0.294,0.116 -0.805,0.31 -1.382,0.237 -0.551,-0.068 -0.844,-0.34 -0.844,-1.006 v -0.866 h 2.228 v -1.718 h -2.228 v -5.454 h -1.931 v 5.454 h -1.34 v 1.718 h 1.34 v 0.888 c 0,1.681 0.895,2.783 2.568,2.783 0.643,0 1.157,-0.122 1.59,-0.307 z"
             style="fill:#f9fbfc;fill-opacity:1;fill-rule:nonzero;stroke:none"
             id="path762"
             inkscape:connector-curvature="0" /></g><g
           id="g764"
           transform="translate(286.2979,26.6934)"><path
             d="m 0,0 c -0.177,0.03 -0.357,0.047 -0.526,0.047 -0.896,0 -1.51,-0.548 -1.51,-1.614 v -3.908 h -1.932 v 7.172 h 1.872 V 0.912 c 0.452,0.674 1.141,0.978 2.022,0.978 0.414,0 0.847,-0.128 1.094,-0.337 z"
             style="fill:#f9fbfc;fill-opacity:1;fill-rule:nonzero;stroke:none"
             id="path766"
             inkscape:connector-curvature="0" /></g><g
           id="g768"
           transform="translate(288.8506,25.4814)"><path
             d="M 0,0 H 3.175 C 2.998,0.918 2.442,1.437 1.613,1.437 0.703,1.437 0.171,0.889 0,0 m 5.114,-0.666 c 0,-0.222 -0.014,-0.488 -0.037,-0.651 h -5.084 c 0.207,-1.037 0.933,-1.488 1.843,-1.488 0.621,0 1.295,0.252 1.812,0.689 L 4.781,-3.36 c -0.814,-0.747 -1.85,-1.088 -3.056,-1.088 -2.199,0 -3.723,1.495 -3.723,3.753 0,2.257 1.48,3.797 3.626,3.797 2.065,0 3.479,-1.533 3.486,-3.768"
             style="fill:#f9fbfc;fill-opacity:1;fill-rule:nonzero;stroke:none"
             id="path770"
             inkscape:connector-curvature="0" /></g><g
           id="g772"
           transform="translate(296.5039,25.4814)"><path
             d="M 0,0 H 3.175 C 2.998,0.918 2.442,1.437 1.613,1.437 0.703,1.437 0.17,0.889 0,0 m 5.114,-0.666 c 0,-0.222 -0.014,-0.488 -0.037,-0.651 h -5.084 c 0.207,-1.037 0.932,-1.488 1.843,-1.488 0.621,0 1.295,0.252 1.813,0.689 L 4.781,-3.36 c -0.814,-0.747 -1.85,-1.088 -3.056,-1.088 -2.199,0 -3.723,1.495 -3.723,3.753 0,2.257 1.48,3.797 3.626,3.797 2.065,0 3.479,-1.533 3.486,-3.768"
             style="fill:#f9fbfc;fill-opacity:1;fill-rule:nonzero;stroke:none"
             id="path774"
             inkscape:connector-curvature="0" /></g><g
           id="g776"
           transform="translate(304.2871,24.8086)"><path
             d="m 0,0 c 0,-1.133 0.747,-1.977 1.843,-1.977 1.139,0 1.85,0.881 1.85,1.977 0,1.095 -0.711,1.976 -1.85,1.976 C 0.747,1.976 0,1.132 0,0 m 5.677,0 c 0,-2.154 -1.495,-3.775 -3.471,-3.775 -0.963,0 -1.644,0.378 -2.109,0.932 V -6.551 H -1.828 V 3.582 H 0.06 V 2.79 C 0.525,3.375 1.214,3.774 2.198,3.774 4.182,3.774 5.677,2.153 5.677,0"
             style="fill:#f9fbfc;fill-opacity:1;fill-rule:nonzero;stroke:none"
             id="path778"
             inkscape:connector-curvature="0" /></g><path
           d="m 312.809,21.219 h -1.932 v 7.172 h 1.932 z m 0.258,9.517 c 0,-0.695 -0.54,-1.228 -1.236,-1.228 -0.695,0 -1.228,0.533 -1.228,1.228 0,0.697 0.533,1.244 1.228,1.244 0.696,0 1.236,-0.547 1.236,-1.244"
           style="fill:#f9fbfc;fill-opacity:1;fill-rule:nonzero;stroke:none"
           id="path780"
           inkscape:connector-curvature="0" /><g
           id="g782"
           transform="translate(316.0322,25.8369)"><path
             d="M 0,0 2.701,2.554 H 5.07 L 1.591,-0.821 5.092,-4.618 H 2.716 L 0,-1.717 V -4.618 H -1.932 V 6.04 L 0,6.04 Z"
             style="fill:#f9fbfc;fill-opacity:1;fill-rule:nonzero;stroke:none"
             id="path784"
             inkscape:connector-curvature="0" /></g><g
           id="g786"
           transform="translate(184.4126,23.2021)"><path
             d="m 0,0 v 3.208 c -0.396,0.615 -1.245,1.143 -2.124,1.143 -1.421,0 -2.271,-1.172 -2.271,-2.74 0,-1.567 0.85,-2.724 2.271,-2.724 0.879,0 1.728,0.498 2.124,1.113 m 0,-1.919 v 1.055 c -0.527,-0.718 -1.392,-1.231 -2.388,-1.231 -1.845,0 -3.149,1.407 -3.149,3.706 0,2.256 1.289,3.721 3.149,3.721 0.952,0 1.817,-0.469 2.388,-1.245 v 3.765 h 1.099 v -9.771 z"
             style="fill:#f9fbfc;fill-opacity:1;fill-rule:nonzero;stroke:none"
             id="path788"
             inkscape:connector-curvature="0" /></g><g
           id="g790"
           transform="translate(190.4033,27.626)"><path
             d="M 0,0 C -1.509,0 -2.256,-1.274 -2.314,-2.358 H 2.329 C 2.314,-1.304 1.611,0 0,0 m -3.471,-2.798 c 0,2.051 1.464,3.706 3.486,3.706 2.138,0 3.398,-1.67 3.398,-3.794 v -0.278 h -5.727 c 0.087,-1.333 1.025,-2.446 2.548,-2.446 0.806,0 1.626,0.322 2.183,0.893 L 2.944,-5.435 C 2.241,-6.138 1.289,-6.519 0.132,-6.519 c -2.095,0 -3.603,1.509 -3.603,3.721"
             style="fill:#f9fbfc;fill-opacity:1;fill-rule:nonzero;stroke:none"
             id="path792"
             inkscape:connector-curvature="0" /></g><g
           id="g794"
           transform="translate(194.6069,22.2207)"><path
             d="M 0,0 0.571,0.791 C 1.04,0.249 1.934,-0.22 2.9,-0.22 c 1.084,0 1.67,0.513 1.67,1.216 0,1.714 -4.38,0.659 -4.38,3.281 0,1.099 0.953,2.036 2.637,2.036 1.201,0 2.051,-0.454 2.622,-1.025 L 4.936,4.526 C 4.512,5.039 3.735,5.42 2.827,5.42 1.86,5.42 1.26,4.937 1.26,4.307 1.26,2.754 5.639,3.779 5.639,1.025 5.639,-0.161 4.687,-1.113 2.856,-1.113 1.699,-1.113 0.718,-0.762 0,0"
             style="fill:#f9fbfc;fill-opacity:1;fill-rule:nonzero;stroke:none"
             id="path796"
             inkscape:connector-curvature="0" /></g><path
           d="m 201.667,28.358 h 1.099 v -7.075 h -1.099 z m -0.19,1.744 c 0,0.41 0.337,0.747 0.732,0.747 0.411,0 0.747,-0.337 0.747,-0.747 0,-0.411 -0.336,-0.733 -0.747,-0.733 -0.395,0 -0.732,0.322 -0.732,0.733"
           style="fill:#f9fbfc;fill-opacity:1;fill-rule:nonzero;stroke:none"
           id="path798"
           inkscape:connector-curvature="0" /><g
           id="g800"
           transform="translate(209.7085,23.3193)"><path
             d="m 0,0 v 3.091 c -0.381,0.615 -1.23,1.142 -2.109,1.142 -1.421,0 -2.27,-1.128 -2.27,-2.695 0,-1.553 0.849,-2.695 2.27,-2.695 0.879,0 1.728,0.542 2.109,1.157 m -5.126,-3.853 0.556,0.821 c 0.586,-0.703 1.289,-0.967 2.3,-0.967 1.172,0 2.27,0.571 2.27,2.124 v 1.011 c -0.512,-0.718 -1.376,-1.26 -2.373,-1.26 -1.845,0 -3.149,1.377 -3.149,3.662 0,2.271 1.289,3.677 3.149,3.677 0.952,0 1.802,-0.469 2.373,-1.245 v 1.069 h 1.099 v -6.87 c 0,-2.344 -1.641,-3.076 -3.369,-3.076 -1.201,0 -2.022,0.234 -2.856,1.054"
             style="fill:#f9fbfc;fill-opacity:1;fill-rule:nonzero;stroke:none"
             id="path802"
             inkscape:connector-curvature="0" /></g><g
           id="g804"
           transform="translate(217.4131,21.2832)"><path
             d="M 0,0 V 4.629 C 0,5.874 -0.629,6.27 -1.582,6.27 -2.446,6.27 -3.267,5.742 -3.676,5.171 V 0 h -1.099 v 7.075 h 1.099 V 6.05 c 0.498,0.586 1.464,1.201 2.519,1.201 1.479,0 2.256,-0.747 2.256,-2.285 L 1.099,0 Z"
             style="fill:#f9fbfc;fill-opacity:1;fill-rule:nonzero;stroke:none"
             id="path806"
             inkscape:connector-curvature="0" /></g><g
           id="g808"
           transform="translate(223.4043,27.626)"><path
             d="M 0,0 C -1.509,0 -2.256,-1.274 -2.314,-2.358 H 2.329 C 2.314,-1.304 1.611,0 0,0 m -3.472,-2.798 c 0,2.051 1.465,3.706 3.487,3.706 2.138,0 3.398,-1.67 3.398,-3.794 v -0.278 h -5.727 c 0.087,-1.333 1.025,-2.446 2.548,-2.446 0.806,0 1.626,0.322 2.183,0.893 L 2.944,-5.435 C 2.241,-6.138 1.289,-6.519 0.132,-6.519 c -2.095,0 -3.604,1.509 -3.604,3.721"
             style="fill:#f9fbfc;fill-opacity:1;fill-rule:nonzero;stroke:none"
             id="path810"
             inkscape:connector-curvature="0" /></g><g
           id="g812"
           transform="translate(233.3501,23.2021)"><path
             d="m 0,0 v 3.208 c -0.396,0.615 -1.245,1.143 -2.124,1.143 -1.421,0 -2.271,-1.172 -2.271,-2.74 0,-1.567 0.85,-2.724 2.271,-2.724 0.879,0 1.728,0.498 2.124,1.113 m 0,-1.919 v 1.055 c -0.527,-0.718 -1.392,-1.231 -2.388,-1.231 -1.845,0 -3.149,1.407 -3.149,3.706 0,2.256 1.289,3.721 3.149,3.721 0.952,0 1.817,-0.469 2.388,-1.245 v 3.765 h 1.099 v -9.771 z"
             style="fill:#f9fbfc;fill-opacity:1;fill-rule:nonzero;stroke:none"
             id="path814"
             inkscape:connector-curvature="0" /></g><g
           id="g816"
           transform="translate(242.8999,22.0889)"><path
             d="M 0,0 C 1.436,0 2.285,1.157 2.285,2.725 2.285,4.292 1.436,5.464 0,5.464 -0.864,5.464 -1.729,4.937 -2.109,4.321 V 1.113 C -1.729,0.498 -0.864,0 0,0 m -3.208,-0.806 v 9.771 h 1.099 V 5.2 c 0.571,0.777 1.421,1.245 2.387,1.245 1.846,0 3.15,-1.465 3.15,-3.72 0,-2.3 -1.304,-3.706 -3.15,-3.706 -0.996,0 -1.86,0.512 -2.387,1.23 v -1.055 z"
             style="fill:#f9fbfc;fill-opacity:1;fill-rule:nonzero;stroke:none"
             id="path818"
             inkscape:connector-curvature="0" /></g><g
           id="g820"
           transform="translate(247.5283,19.5107)"><path
             d="m 0,0 c 0.161,-0.073 0.425,-0.117 0.601,-0.117 0.483,0 0.805,0.161 1.055,0.747 l 0.469,1.069 -2.96,7.149 H 0.352 L 2.71,3.047 5.054,8.848 H 6.255 L 2.71,0.337 C 2.285,-0.688 1.567,-1.084 0.63,-1.099 c -0.234,0 -0.601,0.044 -0.805,0.103 z"
             style="fill:#f9fbfc;fill-opacity:1;fill-rule:nonzero;stroke:none"
             id="path822"
             inkscape:connector-curvature="0" /></g></g></g></g></svg>