<?xml version="1.0" encoding="UTF-8" standalone="no"?>
<!-- Created with Inkscape (http://www.inkscape.org/) -->

<svg
   xmlns:dc="http://purl.org/dc/elements/1.1/"
   xmlns:cc="http://creativecommons.org/ns#"
   xmlns:rdf="http://www.w3.org/1999/02/22-rdf-syntax-ns#"
   xmlns:svg="http://www.w3.org/2000/svg"
   xmlns="http://www.w3.org/2000/svg"
   xmlns:sodipodi="http://sodipodi.sourceforge.net/DTD/sodipodi-0.dtd"
   xmlns:inkscape="http://www.inkscape.org/namespaces/inkscape"
   version="1.1"
   id="svg2"
   xml:space="preserve"
   width="666.66669"
   height="666.66669"
   viewBox="0 0 666.66669 666.66669"
   sodipodi:docname="5.svg"
   inkscape:version="0.92.3 (2405546, 2018-03-11)"
   inkscape:export-filename="D:\Job\KPU Prabumulih\Website\Jadi 2\5.png"
   inkscape:export-xdpi="200"
   inkscape:export-ydpi="200"><metadata
     id="metadata8"><rdf:RDF><cc:Work
         rdf:about=""><dc:format>image/svg+xml</dc:format><dc:type
           rdf:resource="http://purl.org/dc/dcmitype/StillImage" /><dc:title></dc:title></cc:Work></rdf:RDF></metadata><defs
     id="defs6"><clipPath
       clipPathUnits="userSpaceOnUse"
       id="clipPath20"><path
         d="M 0,500 H 500 V 0 H 0 Z"
         id="path18"
         inkscape:connector-curvature="0" /></clipPath><clipPath
       clipPathUnits="userSpaceOnUse"
       id="clipPath92"><path
         d="M 0,0 H 500 V 500 H 0 Z"
         id="path90"
         inkscape:connector-curvature="0" /></clipPath><clipPath
       clipPathUnits="userSpaceOnUse"
       id="clipPath140"><path
         d="M 0,500 H 500 V 0 H 0 Z"
         id="path138"
         inkscape:connector-curvature="0" /></clipPath><clipPath
       clipPathUnits="userSpaceOnUse"
       id="clipPath172"><path
         d="M 0,500 H 500 V 0 H 0 Z"
         id="path170"
         inkscape:connector-curvature="0" /></clipPath></defs><sodipodi:namedview
     pagecolor="#ffffff"
     bordercolor="#666666"
     borderopacity="1"
     objecttolerance="10"
     gridtolerance="10"
     guidetolerance="10"
     inkscape:pageopacity="0"
     inkscape:pageshadow="2"
     inkscape:window-width="1366"
     inkscape:window-height="705"
     id="namedview4"
     showgrid="false"
     inkscape:zoom="0.35399999"
     inkscape:cx="333.33334"
     inkscape:cy="333.33334"
     inkscape:window-x="-8"
     inkscape:window-y="-8"
     inkscape:window-maximized="1"
     inkscape:current-layer="g10" /><g
     id="g10"
     inkscape:groupmode="layer"
     inkscape:label="418553-PDW06U-339"
     transform="matrix(1.3333333,0,0,-1.3333333,0,666.66667)"><path
       d="M 0,0 H 500 V 500 H 0 Z"
       style="fill:#07acd9;fill-opacity:1;fill-rule:nonzero;stroke:none"
       id="path12"
       inkscape:connector-curvature="0" /><g
       id="g14"><g
         id="g16"
         clip-path="url(#clipPath20)"><g
           id="g22"
           transform="translate(440,285.8055)"><path
             d="m 0,0 c 0,-104.382 -84.618,-189 -189,-189 -104.382,0 -189,84.618 -189,189 0,104.382 84.618,189 189,189 C -84.618,189 0,104.382 0,0"
             style="fill:#00c0f2;fill-opacity:1;fill-rule:nonzero;stroke:none"
             id="path24"
             inkscape:connector-curvature="0" /></g><g
           id="g26"
           transform="translate(380,99.8055)"><path
             d="m 0,0 c 0,-34.242 -60.442,-62 -135,-62 -74.558,0 -135,27.758 -135,62 0,34.242 60.442,62 135,62 C -60.442,62 0,34.242 0,0"
             style="fill:#3090af;fill-opacity:1;fill-rule:nonzero;stroke:none"
             id="path28"
             inkscape:connector-curvature="0" /></g><g
           id="g30"
           transform="translate(270.4862,46.2525)"><path
             d="m 0,0 96.142,75.047 v 138.737 l -107.5,-53.177 z"
             style="fill:#eda64e;fill-opacity:1;fill-rule:nonzero;stroke:none"
             id="path32"
             inkscape:connector-curvature="0" /></g><g
           id="g34"
           transform="translate(124.8538,258.4134)"><path
             d="m 0,0 v -152.529 l 145.632,-59.632 v 162.265 z"
             style="fill:#fdc36f;fill-opacity:1;fill-rule:nonzero;stroke:none"
             id="path36"
             inkscape:connector-curvature="0" /></g><g
           id="g38"
           transform="translate(276.5712,192.2906)"><path
             d="M 0,0 95.33,61.661 V 91.274 L 25.962,64.5 -11.359,35.698 Z"
             style="fill:#eda64e;fill-opacity:1;fill-rule:nonzero;stroke:none"
             id="path40"
             inkscape:connector-curvature="0" /></g><g
           id="g42"
           transform="translate(276.5712,227.9888)"><path
             d="m 0,0 v -35.698 l -157.397,62.877 v 27.18 L -40.972,28.802 Z"
             style="fill:#fdc36f;fill-opacity:1;fill-rule:nonzero;stroke:none"
             id="path44"
             inkscape:connector-curvature="0" /></g><g
           id="g46"
           transform="translate(225.0522,319.2627)"><path
             d="m 0,0 -105.878,-36.915 157.397,-54.359 95.33,55.576 z"
             style="fill:#ffd28f;fill-opacity:1;fill-rule:nonzero;stroke:none"
             id="path48"
             inkscape:connector-curvature="0" /></g><g
           id="g50"
           transform="translate(204.3634,298.1683)"><path
             d="m 0,0 -6.491,-2.84 94.114,-28.396 7.707,3.651 z"
             style="fill:#9c642b;fill-opacity:1;fill-rule:nonzero;stroke:none"
             id="path52"
             inkscape:connector-curvature="0" /></g><g
           id="g54"
           transform="translate(124.8538,252.8994)"><path
             d="M 0,0 145.632,-58.178 V -77.594 Z"
             style="fill:#eda64e;fill-opacity:1;fill-rule:nonzero;stroke:none"
             id="path56"
             inkscape:connector-curvature="0" /></g><g
           id="g58"
           transform="translate(270.4862,175.3055)"><path
             d="M 0,0 96.142,62.014 V 75.235 L 6.085,16.985 0,19.416 Z"
             style="fill:#d1833e;fill-opacity:1;fill-rule:nonzero;stroke:none"
             id="path60"
             inkscape:connector-curvature="0" /></g><g
           id="g62"
           transform="translate(124.8538,252.8994)"><path
             d="M 0,0 6.512,-149.681 0,-147.015 Z"
             style="fill:#ffd28f;fill-opacity:1;fill-rule:nonzero;stroke:none"
             id="path64"
             inkscape:connector-curvature="0" /></g><g
           id="g66"
           transform="translate(119.1745,282.3475)"><path
             d="m 0,0 8.935,-3.086 96.943,40.001 z"
             style="fill:#ffe9a9;fill-opacity:1;fill-rule:nonzero;stroke:none"
             id="path68"
             inkscape:connector-curvature="0" /></g><g
           id="g70"
           transform="translate(163.7588,152.1944)"><path
             d="M 0,0 C 1.539,10.155 3.078,20.255 4.617,30.307 6.467,29.816 8.318,29.255 10.168,28.641 8.189,16.473 6.211,4.244 4.232,-8.065 c -3.005,0.783 -6.009,1.383 -9.014,1.736 -1.978,13.057 -3.957,26.007 -5.936,38.832 2.034,0 4.068,-0.133 6.101,-0.378 C -3.078,21.478 -1.539,10.767 0,0"
             style="fill:#ffffff;fill-opacity:1;fill-rule:nonzero;stroke:none"
             id="path72"
             inkscape:connector-curvature="0" /></g><g
           id="g74"
           transform="translate(182.2236,148.1507)"><path
             d="m 0,0 c 0,-2.75 1.209,-4.271 3.133,-5.072 1.924,-0.803 3.132,-0.28 3.133,2.469 0,6.926 0,13.851 0,20.776 0,2.748 -1.21,4.312 -3.133,5.116 C 1.21,24.089 0,23.522 0,20.776 Z m -6.046,22.68 c 0,6.145 3.243,8.578 9.179,6.105 5.936,-2.495 9.179,-7.471 9.179,-13.613 V -4.834 c -10e-4,-6.17 -3.243,-8.227 -9.179,-5.734 -5.936,2.474 -9.179,7.074 -9.179,13.241 z"
             style="fill:#ffffff;fill-opacity:1;fill-rule:nonzero;stroke:none"
             id="path76"
             inkscape:connector-curvature="0" /></g><g
           id="g78"
           transform="translate(196.6762,171.6275)"><path
             d="m 0,0 c 6.229,-2.695 12.458,-5.301 18.688,-7.248 0,-1.832 0,-3.664 0,-5.496 -2.107,0.659 -4.214,1.393 -6.321,2.18 v -32.978 c -2.016,0.753 -4.031,1.555 -6.046,2.386 0,10.993 0,21.985 0,32.978 C 4.214,-7.309 2.107,-6.407 0,-5.496 Z"
             style="fill:#ffffff;fill-opacity:1;fill-rule:nonzero;stroke:none"
             id="path80"
             inkscape:connector-curvature="0" /></g><g
           id="g82"
           transform="translate(224.0449,145.9368)"><path
             d="m 0,0 c 2.766,-0.538 5.533,-0.893 8.299,-1.017 0,-1.832 0,-3.664 0,-5.496 C 5.533,-6.39 2.766,-6.034 0,-5.496 v -11.268 c 3.481,-0.676 6.962,-1.065 10.443,-1.065 v -5.496 c -5.496,10e-4 -10.992,0.968 -16.488,2.512 V 17.66 C -0.549,16.117 4.947,15.149 10.443,15.149 V 9.653 C 6.962,9.653 3.481,10.041 0,10.718 Z"
             style="fill:#ffffff;fill-opacity:1;fill-rule:nonzero;stroke:none"
             id="path84"
             inkscape:connector-curvature="0" /></g></g></g><g
       id="g86"><g
         id="g88"
         clip-path="url(#clipPath92)"><g
           id="g94"
           transform="translate(266.866,383.8428)"><path
             d="m 0,0 c 0,0 30.574,20.746 42.039,25.66 11.465,4.914 53.504,-12.557 62.785,-10.919 9.281,1.638 25.66,9.827 25.66,9.827 L 151.23,-29.482 41.493,-32.758 4.914,-16.379 Z"
             style="fill:#fcc080;fill-opacity:1;fill-rule:nonzero;stroke:none"
             id="path96"
             inkscape:connector-curvature="0" /></g><g
           id="g98"
           transform="translate(310.5,394.8055)"><path
             d="m 0,0 c 0,0 -0.748,4.25 17.271,-1.25 18.019,-5.5 29.42,-10.5 29.42,-10.5 0,0 -22.451,-12.127 -34.802,-13.233 -12.35,-1.106 -22.695,14.483 -22.695,14.483"
             style="fill:#fab064;fill-opacity:1;fill-rule:nonzero;stroke:none"
             id="path100"
             inkscape:connector-curvature="0" /></g><g
           id="g102"
           transform="translate(287.1273,268.3983)"><path
             d="m 0,0 c 3.818,13.478 27.982,97.209 44.591,117.193 0,0 -35.879,36.337 -96.973,20.859 0,0 -25.451,-52.088 -25.285,-114.618 z"
             style="fill:#ffffff;fill-opacity:1;fill-rule:nonzero;stroke:none"
             id="path104"
             inkscape:connector-curvature="0" /></g><g
           id="g106"
           transform="translate(244.3931,290.3055)"><path
             d="m 0,0 c -4.28,-1.609 -8.487,-3.37 -12.666,-5.191 l 55.4,-16.716 c 3.818,13.478 27.982,97.209 44.591,117.193 0,0 -21.72,21.99 -60.132,24.467 7.283,-3.185 15.074,-10.04 16.884,-15.679 C 46.775,95.664 38.536,90.758 33.73,85.098 29.204,79.768 25.12,74.347 18.944,70.937 14.093,68.258 11.718,67.788 14.374,61.05 17.632,52.788 26.504,49.485 29.115,40.188 31.612,31.294 28.358,20.838 23.021,13.492 17.429,5.794 8.512,3.2 0,0"
             style="fill:#e4ecf1;fill-opacity:1;fill-rule:nonzero;stroke:none"
             id="path108"
             inkscape:connector-curvature="0" /></g><g
           id="g110"
           transform="translate(415.9127,356.5449)"><path
             d="m 0,0 c 0,0 -42.585,-27.844 -60.601,-29.482 -18.017,-1.638 -28.39,9.281 -48.591,12.011 -20.2,2.73 -46.952,0.546 -51.32,15.833 -4.368,15.287 21.293,19.109 35.487,15.287 14.195,-3.822 39.309,-0.546 48.045,6.552"
             style="fill:#fcc080;fill-opacity:1;fill-rule:nonzero;stroke:none"
             id="path112"
             inkscape:connector-curvature="0" /></g><g
           id="g114"
           transform="translate(415.9127,356.5449)"><path
             d="m 0,0 c 0,0 -42.585,-27.844 -60.601,-29.482 -18.017,-1.638 -28.39,9.281 -48.591,12.011 -20.2,2.73 -46.952,0.546 -51.32,15.833 -4.368,15.287 21.293,19.109 35.487,15.287 14.195,-3.822 72.279,11.014 81.014,18.112 l 22.098,-4"
             style="fill:#fcc080;fill-opacity:1;fill-rule:nonzero;stroke:none"
             id="path116"
             inkscape:connector-curvature="0" /></g><g
           id="g118"
           transform="translate(405.4318,369.8228)"><path
             d="m 0,0 c -13.437,-6.399 -26.025,-14.212 -40.011,-19.555 -21.975,-8.394 -41.07,-1.785 -63.255,0.175 -15.988,1.412 -34.468,-1.869 -47.241,7.326 0.039,-0.906 0.189,-1.858 0.476,-2.862 4.368,-15.287 31.12,-13.103 51.32,-15.833 20.201,-2.729 30.574,-13.648 48.59,-12.011 18.017,1.638 60.602,29.482 60.602,29.482 z"
             style="fill:#fab064;fill-opacity:1;fill-rule:nonzero;stroke:none"
             id="path120"
             inkscape:connector-curvature="0" /></g><g
           id="g122"
           transform="translate(399.5339,413.3246)"><path
             d="M 0,0 -18.563,-8.735 7.643,-67.153 28.39,-57.872 Z"
             style="fill:#ffffff;fill-opacity:1;fill-rule:nonzero;stroke:none"
             id="path124"
             inkscape:connector-curvature="0" /></g><g
           id="g126"
           transform="translate(386.4309,413.3246)"><path
             d="m 0,0 c 0,0 122.841,58.418 127.754,60.601 4.914,2.184 9.828,-82.439 8.736,-86.807 -1.092,-4.368 -104.824,-41.347 -104.824,-41.347 z"
             style="fill:#4e4e6c;fill-opacity:1;fill-rule:nonzero;stroke:none"
             id="path128"
             inkscape:connector-curvature="0" /></g><g
           id="g130"
           transform="translate(522.9205,387.1185)"><path
             d="M 0,0 C 0.711,2.844 -1.124,39.707 -3.848,64.484 -13.173,53.964 -24.787,45.553 -35.868,36.937 -56.678,20.758 -76.997,4.32 -99.696,-9.184 c -5.626,-3.347 -10.951,-5.909 -16.384,-8.149 l 11.256,-24.014 c 0,0 103.732,36.979 104.824,41.347"
             style="fill:#42415c;fill-opacity:1;fill-rule:nonzero;stroke:none"
             id="path132"
             inkscape:connector-curvature="0" /></g></g></g><g
       id="g134"><g
         id="g136"
         clip-path="url(#clipPath140)"><g
           id="g142"
           transform="translate(110.2392,294.7102)"><path
             d="m 0,0 c -1.773,2.046 -3.925,3.769 -5.515,5.975 -1.453,2.016 -4.616,2.097 -6.425,0.589 -2.047,-1.705 -2.378,-5.793 0.265,-7.219 C -9.995,-1.562 2.356,-10.694 3.18,-5.794 3.565,-3.508 1.346,-1.553 0,0"
             style="fill:#ffffff;fill-opacity:1;fill-rule:nonzero;stroke:none"
             id="path144"
             inkscape:connector-curvature="0" /></g><g
           id="g146"
           transform="translate(123.8922,307.4586)"><path
             d="M 0,0 C -0.131,0.089 -0.261,0.177 -0.392,0.266 -1.429,0.968 -2.748,0.927 -3.731,0.143 -3.854,0.046 -3.977,-0.052 -4.099,-0.15 c -0.9,-0.717 -1.385,-1.999 -1.165,-3.132 0.342,-1.757 0.684,-3.513 1.026,-5.27 0.303,-1.556 0.544,-3.085 1.579,-4.333 0.569,-0.685 1.679,-0.649 2.194,0.081 0.93,1.316 1.059,2.837 1.239,4.404 0.205,1.774 0.409,3.547 0.614,5.32 C 1.522,-1.917 0.976,-0.661 0,0"
             style="fill:#ffffff;fill-opacity:1;fill-rule:nonzero;stroke:none"
             id="path148"
             inkscape:connector-curvature="0" /></g><g
           id="g150"
           transform="translate(111.6758,279.3614)"><path
             d="m 0,0 c -1.872,1.872 -4.43,0.934 -6.781,0.558 -2.706,-0.432 -5.75,-0.681 -7.298,-3.239 -0.92,-1.522 -0.374,-3.127 1.18,-3.909 2.874,-1.447 6.038,0.386 8.728,1.523 1.299,0.549 3.178,1.021 4.041,2.229 C 0.384,-2.118 0.715,-0.715 0,0"
             style="fill:#ffffff;fill-opacity:1;fill-rule:nonzero;stroke:none"
             id="path152"
             inkscape:connector-curvature="0" /></g><g
           id="g154"
           transform="translate(390.4792,284.8314)"><path
             d="m 0,0 c 2.692,0.283 5.337,1.061 8.056,1.102 2.485,0.037 4.362,2.584 4.161,4.931 C 11.991,8.687 8.829,11.299 6.146,9.948 4.441,9.089 -10.117,4.19 -6.571,0.709 -4.917,-0.915 -2.044,-0.215 0,0"
             style="fill:#ffffff;fill-opacity:1;fill-rule:nonzero;stroke:none"
             id="path156"
             inkscape:connector-curvature="0" /></g><g
           id="g158"
           transform="translate(393.1167,266.3391)"><path
             d="M 0,0 C 0.147,0.056 0.295,0.113 0.442,0.169 1.612,0.617 2.333,1.723 2.253,2.977 2.243,3.133 2.233,3.29 2.223,3.447 2.151,4.595 1.377,5.727 0.322,6.195 -1.314,6.92 -2.95,7.645 -4.586,8.37 -6.036,9.013 -7.428,9.69 -9.043,9.556 -9.93,9.482 -10.536,8.551 -10.233,7.71 -9.686,6.195 -8.512,5.219 -7.331,4.173 -5.994,2.991 -4.657,1.808 -3.32,0.625 -2.443,-0.151 -1.101,-0.422 0,0"
             style="fill:#ffffff;fill-opacity:1;fill-rule:nonzero;stroke:none"
             id="path160"
             inkscape:connector-curvature="0" /></g><g
           id="g162"
           transform="translate(377.0716,292.4398)"><path
             d="m 0,0 c 2.606,0.464 3.302,3.098 4.34,5.241 1.194,2.465 2.733,5.105 1.521,7.838 -0.721,1.626 -2.35,2.096 -3.88,1.27 C -0.851,12.82 -1.159,9.177 -1.767,6.32 -2.06,4.941 -2.749,3.131 -2.252,1.731 -1.957,0.898 -0.995,-0.177 0,0"
             style="fill:#ffffff;fill-opacity:1;fill-rule:nonzero;stroke:none"
             id="path164"
             inkscape:connector-curvature="0" /></g></g></g><g
       id="g166"><g
         id="g168"
         clip-path="url(#clipPath172)"><g
           id="g174"
           transform="translate(260.1041,34.5346)"><path
             d="m 0,0 c -0.432,-0.443 -0.803,-0.931 -1.108,-1.453 l -0.466,0.241 c -0.067,0.298 -0.349,0.502 -0.658,0.466 -0.331,-0.039 -0.568,-0.339 -0.529,-0.67 0.039,-0.331 0.339,-0.567 0.67,-0.529 0.065,0.008 0.126,0.026 0.183,0.053 l 0.451,-0.235 C -1.708,-2.68 -1.889,-3.265 -1.996,-3.87 l 0.747,-0.132 c 0.23,1.306 0.849,2.507 1.792,3.473 z"
             style="fill:#1c1c1b;fill-opacity:1;fill-rule:nonzero;stroke:none"
             id="path176"
             inkscape:connector-curvature="0" /></g><g
           id="g178"
           transform="translate(265.5919,36.8366)"><path
             d="m 0,0 c -0.171,0 -0.341,-0.006 -0.51,-0.017 l -0.073,0.626 c 0.187,0.149 0.295,0.389 0.265,0.645 C -0.364,1.647 -0.72,1.928 -1.113,1.882 -1.506,1.835 -1.787,1.479 -1.741,1.086 -1.711,0.832 -1.552,0.625 -1.336,0.523 l 0.073,-0.625 c -0.714,-0.116 -1.403,-0.331 -2.06,-0.646 l 0.328,-0.683 c 0.934,0.446 1.941,0.673 2.995,0.673 0.496,0 0.993,-0.053 1.475,-0.158 l 0.161,0.741 C 1.101,-0.059 0.55,0 0,0"
             style="fill:#1c1c1b;fill-opacity:1;fill-rule:nonzero;stroke:none"
             id="path180"
             inkscape:connector-curvature="0" /></g><g
           id="g182"
           transform="translate(272.1943,34.2894)"><path
             d="M 0,0 C 0.331,0.04 0.566,0.342 0.526,0.672 0.485,1.003 0.184,1.238 -0.147,1.198 -0.456,1.16 -0.682,0.894 -0.677,0.589 L -1.093,0.226 C -1.511,0.656 -1.982,1.039 -2.5,1.365 L -2.904,0.724 c 1.134,-0.715 2.02,-1.726 2.563,-2.925 l 0.69,0.312 c -0.25,0.554 -0.567,1.072 -0.942,1.545 l 0.402,0.351 C -0.129,-0.005 -0.065,-0.008 0,0"
             style="fill:#1c1c1b;fill-opacity:1;fill-rule:nonzero;stroke:none"
             id="path184"
             inkscape:connector-curvature="0" /></g><g
           id="g186"
           transform="translate(265.0443,26.6282)"><path
             d="m 0,0 c -0.386,-0.023 -0.775,-0.035 -1.157,-0.035 -0.88,0 -1.733,0.061 -2.478,0.18 -0.391,0.061 -0.847,0.154 -1.271,0.291 1.047,-1.86 3.07,-3.125 5.389,-3.125 2.855,0 5.262,1.917 5.949,4.504 C 5.75,1.366 4.927,0.99 3.974,0.693 2.794,0.325 1.419,0.085 0,0"
             style="fill:#1c1c1b;fill-opacity:1;fill-rule:nonzero;stroke:none"
             id="path188"
             inkscape:connector-curvature="0" /></g><g
           id="g190"
           transform="translate(268.1699,29.7139)"><path
             d="M 0,0 C -0.75,0 -1.36,0.61 -1.36,1.36 -1.36,2.11 -0.75,2.721 0,2.721 0.75,2.721 1.361,2.11 1.361,1.36 1.361,0.61 0.75,0 0,0 m -4.737,-0.908 c -1.02,0 -1.85,0.83 -1.85,1.849 0,1.02 0.83,1.85 1.85,1.85 1.019,0 1.849,-0.83 1.849,-1.85 0,-1.019 -0.83,-1.849 -1.849,-1.849 m 2.159,6.515 c -3.352,0 -6.08,-2.667 -6.08,-5.944 0,-0.425 0.046,-0.849 0.137,-1.261 0.674,-0.483 2.706,-0.89 5.348,-0.731 2.879,0.173 5.297,0.957 6.672,2.158 C 3.494,0.024 3.478,0.219 3.454,0.411 3.074,3.373 0.481,5.607 -2.578,5.607"
             style="fill:#1c1c1b;fill-opacity:1;fill-rule:nonzero;stroke:none"
             id="path192"
             inkscape:connector-curvature="0" /></g><g
           id="g194"
           transform="translate(281.5953,33.4533)"><path
             d="m 0,0 c -0.295,0.116 -0.805,0.309 -1.382,0.237 -0.551,-0.068 -0.844,-0.34 -0.844,-1.006 v -0.866 h 2.228 v -1.717 h -2.228 v -5.455 h -1.932 v 5.455 h -1.339 v 1.717 h 1.339 v 0.888 c 0,1.68 0.896,2.783 2.568,2.783 0.643,0 1.158,-0.122 1.59,-0.308 z"
             style="fill:#1c1c1b;fill-opacity:1;fill-rule:nonzero;stroke:none"
             id="path196"
             inkscape:connector-curvature="0" /></g><g
           id="g198"
           transform="translate(286.2979,30.1213)"><path
             d="m 0,0 c -0.177,0.03 -0.358,0.046 -0.526,0.046 -0.896,0 -1.51,-0.548 -1.51,-1.613 v -3.908 h -1.932 v 7.172 h 1.873 V 0.912 c 0.451,0.674 1.14,0.977 2.02,0.977 0.415,0 0.848,-0.127 1.095,-0.337 z"
             style="fill:#1c1c1b;fill-opacity:1;fill-rule:nonzero;stroke:none"
             id="path200"
             inkscape:connector-curvature="0" /></g><g
           id="g202"
           transform="translate(288.8508,28.9093)"><path
             d="M 0,0 H 3.175 C 2.998,0.918 2.442,1.436 1.613,1.436 0.703,1.436 0.17,0.888 0,0 m 5.114,-0.666 c 0,-0.222 -0.015,-0.489 -0.037,-0.652 h -5.084 c 0.207,-1.036 0.932,-1.487 1.842,-1.487 0.622,0 1.296,0.252 1.814,0.688 L 4.781,-3.36 c -0.814,-0.748 -1.85,-1.088 -3.056,-1.088 -2.199,0 -3.723,1.495 -3.723,3.752 0,2.258 1.48,3.797 3.626,3.797 2.065,0 3.479,-1.532 3.486,-3.767"
             style="fill:#1c1c1b;fill-opacity:1;fill-rule:nonzero;stroke:none"
             id="path204"
             inkscape:connector-curvature="0" /></g><g
           id="g206"
           transform="translate(296.5041,28.9093)"><path
             d="M 0,0 H 3.175 C 2.997,0.918 2.442,1.436 1.613,1.436 0.703,1.436 0.17,0.888 0,0 m 5.114,-0.666 c 0,-0.222 -0.015,-0.489 -0.037,-0.652 h -5.084 c 0.207,-1.036 0.932,-1.487 1.843,-1.487 0.621,0 1.295,0.252 1.813,0.688 L 4.781,-3.36 c -0.814,-0.748 -1.85,-1.088 -3.057,-1.088 -2.198,0 -3.722,1.495 -3.722,3.752 0,2.258 1.48,3.797 3.626,3.797 2.065,0 3.479,-1.532 3.486,-3.767"
             style="fill:#1c1c1b;fill-opacity:1;fill-rule:nonzero;stroke:none"
             id="path208"
             inkscape:connector-curvature="0" /></g><g
           id="g210"
           transform="translate(304.2872,28.2357)"><path
             d="m 0,0 c 0,-1.132 0.747,-1.976 1.843,-1.976 1.14,0 1.85,0.881 1.85,1.976 0,1.095 -0.71,1.976 -1.85,1.976 C 0.747,1.976 0,1.132 0,0 m 5.677,0 c 0,-2.154 -1.495,-3.775 -3.471,-3.775 -0.963,0 -1.644,0.378 -2.11,0.933 V -6.55 H -1.828 V 3.582 H 0.059 V 2.79 C 0.525,3.375 1.214,3.775 2.198,3.775 4.182,3.775 5.677,2.154 5.677,0"
             style="fill:#1c1c1b;fill-opacity:1;fill-rule:nonzero;stroke:none"
             id="path212"
             inkscape:connector-curvature="0" /></g><path
           d="m 312.809,24.646 h -1.932 v 7.172 h 1.932 z m 0.259,9.518 c 0,-0.695 -0.541,-1.228 -1.236,-1.228 -0.696,0 -1.229,0.533 -1.229,1.228 0,0.696 0.533,1.244 1.229,1.244 0.695,0 1.236,-0.548 1.236,-1.244"
           style="fill:#1c1c1b;fill-opacity:1;fill-rule:nonzero;stroke:none"
           id="path214"
           inkscape:connector-curvature="0" /><g
           id="g216"
           transform="translate(316.0322,29.2645)"><path
             d="M 0,0 2.701,2.554 H 5.07 L 1.591,-0.821 5.092,-4.618 H 2.716 L 0,-1.717 V -4.618 H -1.932 V 6.04 L 0,6.04 Z"
             style="fill:#1c1c1b;fill-opacity:1;fill-rule:nonzero;stroke:none"
             id="path218"
             inkscape:connector-curvature="0" /></g><g
           id="g220"
           transform="translate(184.4124,26.6299)"><path
             d="m 0,0 v 3.208 c -0.395,0.615 -1.245,1.143 -2.124,1.143 -1.421,0 -2.27,-1.172 -2.27,-2.74 0,-1.567 0.849,-2.724 2.27,-2.724 0.879,0 1.729,0.498 2.124,1.113 m 0,-1.919 v 1.055 c -0.527,-0.718 -1.391,-1.231 -2.387,-1.231 -1.846,0 -3.15,1.407 -3.15,3.706 0,2.256 1.289,3.721 3.15,3.721 0.952,0 1.816,-0.469 2.387,-1.245 v 3.764 h 1.099 v -9.77 z"
             style="fill:#1c1c1b;fill-opacity:1;fill-rule:nonzero;stroke:none"
             id="path222"
             inkscape:connector-curvature="0" /></g><g
           id="g224"
           transform="translate(190.4035,31.0534)"><path
             d="M 0,0 C -1.509,0 -2.256,-1.274 -2.314,-2.358 H 2.329 C 2.314,-1.303 1.611,0 0,0 m -3.472,-2.798 c 0,2.051 1.465,3.706 3.486,3.706 2.139,0 3.399,-1.67 3.399,-3.793 v -0.279 h -5.727 c 0.088,-1.333 1.025,-2.446 2.548,-2.446 0.806,0 1.626,0.322 2.183,0.893 L 2.944,-5.434 C 2.241,-6.137 1.289,-6.518 0.132,-6.518 c -2.095,0 -3.604,1.508 -3.604,3.72"
             style="fill:#1c1c1b;fill-opacity:1;fill-rule:nonzero;stroke:none"
             id="path226"
             inkscape:connector-curvature="0" /></g><g
           id="g228"
           transform="translate(194.6071,25.6486)"><path
             d="M 0,0 0.571,0.791 C 1.04,0.249 1.934,-0.22 2.9,-0.22 c 1.084,0 1.67,0.513 1.67,1.216 0,1.714 -4.379,0.659 -4.379,3.281 0,1.099 0.951,2.036 2.636,2.036 1.201,0 2.051,-0.454 2.622,-1.025 L 4.936,4.526 C 4.512,5.039 3.735,5.419 2.827,5.419 1.86,5.419 1.26,4.936 1.26,4.306 1.26,2.754 5.639,3.779 5.639,1.025 5.639,-0.161 4.687,-1.113 2.856,-1.113 1.699,-1.113 0.717,-0.762 0,0"
             style="fill:#1c1c1b;fill-opacity:1;fill-rule:nonzero;stroke:none"
             id="path230"
             inkscape:connector-curvature="0" /></g><path
           d="m 201.667,31.786 h 1.099 v -7.075 h -1.099 z m -0.19,1.743 c 0,0.41 0.337,0.747 0.732,0.747 0.41,0 0.747,-0.337 0.747,-0.747 0,-0.41 -0.337,-0.732 -0.747,-0.732 -0.395,0 -0.732,0.322 -0.732,0.732"
           style="fill:#1c1c1b;fill-opacity:1;fill-rule:nonzero;stroke:none"
           id="path232"
           inkscape:connector-curvature="0" /><g
           id="g234"
           transform="translate(209.7087,26.747)"><path
             d="m 0,0 v 3.091 c -0.381,0.615 -1.23,1.142 -2.109,1.142 -1.421,0 -2.271,-1.128 -2.271,-2.695 0,-1.553 0.85,-2.695 2.271,-2.695 0.879,0 1.728,0.542 2.109,1.157 m -5.127,-3.852 0.557,0.82 c 0.586,-0.703 1.289,-0.967 2.3,-0.967 1.171,0 2.27,0.571 2.27,2.124 v 1.011 c -0.513,-0.718 -1.377,-1.26 -2.373,-1.26 -1.846,0 -3.149,1.377 -3.149,3.662 0,2.271 1.289,3.677 3.149,3.677 0.952,0 1.802,-0.469 2.373,-1.245 v 1.069 h 1.098 v -6.87 c 0,-2.344 -1.64,-3.076 -3.368,-3.076 -1.202,0 -2.022,0.234 -2.857,1.055"
             style="fill:#1c1c1b;fill-opacity:1;fill-rule:nonzero;stroke:none"
             id="path236"
             inkscape:connector-curvature="0" /></g><g
           id="g238"
           transform="translate(217.4133,24.7111)"><path
             d="m 0,0 v 4.629 c 0,1.245 -0.63,1.64 -1.582,1.64 -0.864,0 -1.685,-0.527 -2.094,-1.099 V 0 h -1.099 v 7.075 h 1.099 V 6.049 c 0.497,0.586 1.464,1.202 2.519,1.202 1.479,0 2.256,-0.747 2.256,-2.285 L 1.099,0 Z"
             style="fill:#1c1c1b;fill-opacity:1;fill-rule:nonzero;stroke:none"
             id="path240"
             inkscape:connector-curvature="0" /></g><g
           id="g242"
           transform="translate(223.4042,31.0534)"><path
             d="M 0,0 C -1.509,0 -2.256,-1.274 -2.314,-2.358 H 2.329 C 2.314,-1.303 1.611,0 0,0 m -3.472,-2.798 c 0,2.051 1.465,3.706 3.487,3.706 2.138,0 3.398,-1.67 3.398,-3.793 v -0.279 h -5.727 c 0.087,-1.333 1.025,-2.446 2.548,-2.446 0.806,0 1.626,0.322 2.183,0.893 L 2.944,-5.434 C 2.241,-6.137 1.289,-6.518 0.132,-6.518 c -2.095,0 -3.604,1.508 -3.604,3.72"
             style="fill:#1c1c1b;fill-opacity:1;fill-rule:nonzero;stroke:none"
             id="path244"
             inkscape:connector-curvature="0" /></g><g
           id="g246"
           transform="translate(233.35,26.6299)"><path
             d="m 0,0 v 3.208 c -0.396,0.615 -1.245,1.143 -2.124,1.143 -1.421,0 -2.27,-1.172 -2.27,-2.74 0,-1.567 0.849,-2.724 2.27,-2.724 0.879,0 1.728,0.498 2.124,1.113 m 0,-1.919 v 1.055 c -0.527,-0.718 -1.392,-1.231 -2.388,-1.231 -1.845,0 -3.149,1.407 -3.149,3.706 0,2.256 1.289,3.721 3.149,3.721 0.952,0 1.817,-0.469 2.388,-1.245 v 3.764 h 1.098 v -9.77 z"
             style="fill:#1c1c1b;fill-opacity:1;fill-rule:nonzero;stroke:none"
             id="path248"
             inkscape:connector-curvature="0" /></g><g
           id="g250"
           transform="translate(242.8998,25.5167)"><path
             d="m 0,0 c 1.436,0 2.285,1.157 2.285,2.724 0,1.568 -0.849,2.74 -2.285,2.74 -0.864,0 -1.728,-0.528 -2.109,-1.143 V 1.113 C -1.728,0.498 -0.864,0 0,0 m -3.208,-0.806 v 9.77 h 1.099 V 5.2 c 0.571,0.776 1.421,1.245 2.388,1.245 1.845,0 3.149,-1.465 3.149,-3.721 0,-2.299 -1.304,-3.705 -3.149,-3.705 -0.996,0 -1.861,0.512 -2.388,1.23 v -1.055 z"
             style="fill:#1c1c1b;fill-opacity:1;fill-rule:nonzero;stroke:none"
             id="path252"
             inkscape:connector-curvature="0" /></g><g
           id="g254"
           transform="translate(247.5285,22.9386)"><path
             d="m 0,0 c 0.161,-0.073 0.425,-0.117 0.601,-0.117 0.483,0 0.805,0.161 1.054,0.747 l 0.469,1.069 -2.959,7.148 h 1.187 l 2.358,-5.8 2.344,5.8 H 6.255 L 2.71,0.337 C 2.285,-0.688 1.567,-1.084 0.63,-1.099 c -0.234,0 -0.601,0.044 -0.806,0.103 z"
             style="fill:#1c1c1b;fill-opacity:1;fill-rule:nonzero;stroke:none"
             id="path256"
             inkscape:connector-curvature="0" /></g></g></g></g></svg>