<?xml version="1.0" encoding="utf-8"?>
<!-- Generator: Adobe Illustrator 16.0.0, SVG Export Plug-In . SVG Version: 6.00 Build 0)  -->
<!DOCTYPE svg PUBLIC "-//W3C//DTD SVG 1.1//EN" "http://www.w3.org/Graphics/SVG/1.1/DTD/svg11.dtd">
<svg version="1.1" xmlns="http://www.w3.org/2000/svg" xmlns:xlink="http://www.w3.org/1999/xlink" x="0px" y="0px"
	 width="301.953px" height="301.952px" viewBox="0 0 301.953 301.952" enable-background="new 0 0 301.953 301.952"
	 xml:space="preserve">
<g id="Layer_1">
	<rect y="0" fill="#FF8752" width="301.953" height="100.651"/>
	<rect y="100.652" fill="#71BCC5" width="301.953" height="100.651"/>
	<rect y="201.303" fill="#A2D080" width="301.953" height="100.65"/>
</g>
<g id="Layer_4">
	<g>
		<path fill="#FFFFFF" d="M22.516,246.045c3.892,0,4.647,1.543,4.647,3.456c0,1.309-1.04,2.23-2.432,2.432
			c1.157,0.168,2.197,1.175,2.197,2.383c0,0.722,0.101,1.141,0.403,1.141c0.251,0,0.386-0.201,0.386-0.537v-0.553h1.124v0.922
			c0,1.393-0.587,2.685-2.449,2.685c-2.198,0-3.255-1.158-3.255-3.12c0-1.527-0.184-1.896-1.677-1.896v2.601h1.023v2.215h-5.418
			v-2.215h0.939v-7.314h-0.939v-2.197H22.516z M21.459,251.077h0.755c0.973,0,1.61-0.47,1.61-1.358c0-0.989-0.554-1.493-1.526-1.493
			h-0.839V251.077z"/>
		<path fill="#FFFFFF" d="M29.612,250.088c0.671-0.403,2.114-1.191,3.657-1.191c2.013,0,4.546,0.755,4.546,3.456v3.271h1.007v2.147
			h-3.59l-0.403-0.755c-0.621,0.855-1.661,1.073-2.265,1.073c-1.594,0-3.305-0.855-3.305-2.802c0-1.896,1.594-3.086,3.489-3.086
			c0.99,0,1.577,0.485,1.661,0.587v-0.587c0-0.756-0.688-0.94-1.594-0.94c-0.99,0-1.862,0.42-2.5,0.772L29.612,250.088z
			 M34.41,254.718c-0.051-0.084-0.286-0.486-0.99-0.486c-0.671,0-0.973,0.369-0.973,0.889c0,0.471,0.386,0.789,0.889,0.789
			c0.503,0,0.922-0.302,1.074-0.554V254.718z"/>
		<path fill="#FFFFFF" d="M40.23,249.383v-1.543l3.087-0.99v2.533h1.594v2.182h-1.594v2.985c0,0.57-0.118,1.343,0.537,1.343
			c0.218,0,0.738-0.151,1.057-0.285v2.147c-0.503,0.201-1.644,0.318-2.03,0.318c-2.516,0-2.6-1.376-2.65-3.523v-2.985h-0.906v-2.182
			H40.23z"/>
		<path fill="#FFFFFF" d="M45.582,257.771v-2.198h0.705v-4.009h-0.705v-2.182h3.892v6.19h0.805v2.198H45.582z M47.863,245.223
			c1.158,0,1.846,0.939,1.846,1.711c0,0.923-0.654,1.694-1.846,1.694c-1.057,0-1.812-0.889-1.812-1.694
			C46.051,246.162,46.688,245.223,47.863,245.223z"/>
		<path fill="#FFFFFF" d="M51.117,257.771v-2.198h0.705v-4.009h-0.705v-2.182h3.573l0.386,1.04c0.57-0.788,1.342-1.342,2.399-1.342
			c2.601,0,3.037,1.93,3.037,3.69v2.802H61.3v2.198h-4.228v-4.58c0-0.57,0.05-1.561-0.939-1.561c-0.855,0-1.057,0.839-1.057,1.561
			v2.382h1.208v2.198H51.117z"/>
		<path fill="#FFFFFF" d="M62.843,257.872c0.386,0.335,1.644,1.073,2.919,1.073c1.51,0,1.946-0.872,1.946-1.577v-0.57
			c-0.235,0.303-0.889,0.923-1.963,0.923c-2.886,0-4.026-2.08-4.026-4.193c0-2.601,1.443-4.313,4.211-4.313
			c0.738,0,1.442,0.353,1.778,0.688l0.335-0.521h3.993v2.198H71.03v5.016c0,2.785-1.711,4.597-5.234,4.613
			c-1.845-0.017-3.205-0.889-3.842-1.476L62.843,257.872z M66.5,255.557c0.654,0,1.258-0.822,1.191-2.147
			c0-1.141-0.57-2.013-1.208-2.013c-0.705,0-1.191,0.822-1.191,2.097C65.292,254.5,65.762,255.557,66.5,255.557z"/>
	</g>
	<g>
		<path fill="#FFFFFF" d="M242.836,50.523c0.033-0.47,0.269-1.292,0.604-2.131l1.527-3.657h-0.89v-2.181h4.765v2.181h-0.822
			l-4.026,9.546h-3.087l-4.445-9.546h-0.922v-2.181h6.173v2.181h-0.906l1.427,3.758c0.269,0.822,0.486,1.561,0.52,2.03H242.836z"/>
		<path fill="#FFFFFF" d="M248.857,50.054c0.018-2.802,2.282-4.362,4.597-4.362c2.651,0.033,4.614,1.627,4.664,4.429
			c0.034,2.785-2.029,4.379-4.58,4.379C251.14,54.5,248.824,53.023,248.857,50.054z M254.68,50.121c0-1.258-0.437-2.231-1.226-2.248
			c-0.654,0-1.157,0.973-1.157,2.198c0,1.376,0.537,2.282,1.241,2.282C254.26,52.352,254.68,51.379,254.68,50.121z"/>
		<path fill="#FFFFFF" d="M259.46,45.893V44.35l3.087-0.99v2.533h1.594v2.181h-1.594v2.986c0,0.57-0.118,1.342,0.536,1.342
			c0.219,0,0.738-0.151,1.058-0.285v2.147c-0.504,0.201-1.645,0.318-2.03,0.318c-2.517,0-2.601-1.375-2.65-3.523v-2.986h-0.906
			v-2.181H259.46z"/>
		<path fill="#FFFFFF" d="M273.232,53.124c-1.241,1.074-2.583,1.459-4.328,1.459c-2.08,0-4.43-1.325-4.43-4.546
			c0-2.752,1.98-4.379,4.514-4.379c1.996,0,3.522,1.023,4.01,2.433c0.201,0.587,0.386,1.879,0.033,2.835h-5.285
			c0.101,0.453,0.319,1.376,1.729,1.376c0.57,0,1.442-0.051,2.349-0.806L273.232,53.124z M270.33,49.265
			c-0.017-0.637-0.168-1.342-1.241-1.342c-1.023,0-1.259,0.923-1.292,1.342H270.33z"/>
	</g>
	<g>
		<path fill="#FFFFFF" d="M119.887,188.089c0-3.623,2.416-6.123,5.889-6.123c4.11,0,6.023,2.467,6.023,6.241
			c0,3.791-2.114,6.106-5.905,6.106C122.387,194.313,119.887,192.283,119.887,188.089z M127.604,188.207
			c0-2.03-0.554-3.657-1.845-3.657c-1.023-0.017-1.728,1.459-1.728,3.539c0,2.198,0.789,3.591,1.862,3.591
			C126.95,191.68,127.604,190.287,127.604,188.207z"/>
		<path fill="#FFFFFF" d="M132.469,194.012v-2.198h0.738v-4.009h-0.722v-2.182h3.154l0.503,1.074
			c0.437-0.806,0.873-1.493,2.601-1.493v3.02c-1.51,0-2.366,0.386-2.366,1.862v1.728h0.839v2.198H132.469z"/>
		<path fill="#FFFFFF" d="M139.598,186.328c0.671-0.403,2.114-1.191,3.657-1.191c2.013,0,4.546,0.755,4.546,3.456v3.271h1.007v2.147
			h-3.59l-0.402-0.755c-0.621,0.855-1.661,1.073-2.265,1.073c-1.593,0-3.305-0.855-3.305-2.802c0-1.896,1.594-3.086,3.49-3.086
			c0.99,0,1.577,0.485,1.661,0.587v-0.587c0-0.756-0.688-0.94-1.594-0.94c-0.99,0-1.862,0.42-2.5,0.772L139.598,186.328z
			 M144.396,190.958c-0.05-0.084-0.285-0.486-0.99-0.486c-0.671,0-0.973,0.369-0.973,0.889c0,0.471,0.386,0.789,0.889,0.789
			s0.923-0.302,1.074-0.554V190.958z"/>
		<path fill="#FFFFFF" d="M150.216,185.623v-1.543l3.087-0.99v2.533h1.594v2.182h-1.594v2.985c0,0.57-0.118,1.343,0.536,1.343
			c0.219,0,0.738-0.151,1.058-0.285v2.147c-0.504,0.201-1.645,0.318-2.03,0.318c-2.517,0-2.601-1.376-2.651-3.523v-2.985h-0.906
			v-2.182H150.216z"/>
		<path fill="#FFFFFF" d="M155.333,189.784c0.017-2.802,2.281-4.362,4.597-4.362c2.65,0.033,4.613,1.628,4.664,4.429
			c0.033,2.785-2.03,4.379-4.58,4.379C157.614,194.229,155.3,192.753,155.333,189.784z M161.154,189.851
			c0-1.258-0.437-2.23-1.225-2.248c-0.654,0-1.158,0.974-1.158,2.198c0,1.376,0.537,2.281,1.242,2.281
			C160.734,192.082,161.154,191.109,161.154,189.851z"/>
		<path fill="#FFFFFF" d="M165.196,194.012v-2.198h0.738v-4.009h-0.722v-2.182h3.154l0.503,1.074
			c0.437-0.806,0.872-1.493,2.601-1.493v3.02c-1.51,0-2.365,0.386-2.365,1.862v1.728h0.839v2.198H165.196z"/>
		<path fill="#FFFFFF" d="M177.358,187.754v-2.131h4.261v2.081h-0.805l-3.188,7.75c-0.486,1.04-1.175,2.382-3.606,2.365
			c-0.873-0.05-1.527-0.402-2.03-0.839l1.258-1.979c0.285,0.252,0.621,0.504,0.974,0.57c0.52,0.101,0.905-0.386,1.073-0.889
			l0.235-0.705l-3.271-6.207h-0.688v-2.147h5.167v2.131h-0.788l1.091,2.617l1.09-2.617H177.358z"/>
	</g>
</g>
<g id="Layer_2">
	<circle fill="#FF723B" cx="84.199" cy="36.84" r="31.692"/>
	<circle fill="#FF723B" cx="167.207" cy="62.034" r="33.954"/>
	<circle fill="#FF723B" cx="133.002" cy="40.04" r="22.115"/>
	<circle fill="#FF723B" cx="155.826" cy="23.216" r="1.537"/>
	<circle fill="#FF723B" cx="72.268" cy="71.322" r="1.873"/>
	<circle fill="#D16A42" cx="200.427" cy="82.117" r="0.641"/>
	<circle fill="#FF723B" cx="110.887" cy="14.585" r="2.182"/>
	<circle fill="#FF723B" cx="100.548" cy="66.69" r="24.357"/>
	<g>
		<circle opacity="0.2" fill="#444444" cx="196.181" cy="250.568" r="37.649"/>
		<g>
			<path fill="#494949" d="M196.338,229.279c0,0.248-0.2,0.447-0.447,0.447l0,0c-0.247,0-0.446-0.199-0.446-0.447v-0.4
				c0-0.248,0.199-0.449,0.446-0.449l0,0c0.247,0,0.447,0.201,0.447,0.449V229.279z"/>
			<path fill="#FFFFFF" d="M197.531,227.495c0,0.906-0.733,1.642-1.641,1.642l0,0c-0.908,0-1.641-0.735-1.641-1.642v-3.468
				c0-0.906,0.732-1.642,1.641-1.642l0,0c0.907,0,1.641,0.735,1.641,1.642V227.495z"/>
			<circle fill="#FFEC00" cx="195.891" cy="220.302" r="4.145"/>
			<path fill="#A8A8A8" d="M198.303,224.055c0,0.342-0.277,0.618-0.62,0.618h-3.679c-0.344,0-0.621-0.276-0.621-0.618l0,0
				c0-0.343,0.277-0.62,0.621-0.62h3.679C198.025,223.435,198.303,223.712,198.303,224.055L198.303,224.055z"/>
		</g>
		<rect x="104.977" y="269.809" opacity="0.2" fill="#444444" width="4.226" height="12.911"/>
		<rect x="111.503" y="260.502" opacity="0.2" fill="#444444" width="4.226" height="22.218"/>
		<rect x="118.031" y="265.53" opacity="0.2" fill="#444444" width="4.225" height="17.189"/>
		<g>
			<path opacity="0.2" fill="#444444" d="M219.454,287.686c-0.11,1.428,0.14,2.894,0.8,4.272c0.663,1.382,1.651,2.497,2.832,3.303
				l4.741-6.933L219.454,287.686z"/>
			<path opacity="0.2" fill="#444444" d="M235.996,284.412c-0.385-0.803-0.897-1.502-1.5-2.088l-4.784,5.101l-2.104-6.945
				c-0.466,0.118-0.926,0.283-1.376,0.499c-2.401,1.15-3.879,3.438-4.116,5.907l7.516,0.576l-4.255,6.223
				c2.073,1.362,4.783,1.643,7.183,0.492C236.204,292.431,237.744,288.058,235.996,284.412z"/>
			<path opacity="0.2" fill="#444444" d="M235.822,279.881c-1.044-0.979-2.344-1.702-3.832-2.052
				c-1.491-0.348-2.98-0.275-4.349,0.14l2.437,8.039L235.822,279.881z"/>
		</g>
		<polygon opacity="0.2" fill="#5E5C57" points="277.223,263.597 280.069,262.224 281.157,262.956 283.738,260.132 283.424,259.84 
			281.092,262.392 280.104,261.725 277.381,263.039 274.692,258.719 271.373,260.863 267.963,254.752 266.116,258.221 
			265.067,257.1 264.75,257.392 266.214,258.952 267.969,255.649 271.221,261.472 274.56,259.315 		"/>
		<g>
			<rect x="135.757" y="243.284" opacity="0.2" fill="#444444" width="4.282" height="4.283"/>
			<rect x="144.363" y="243.284" opacity="0.2" fill="#444444" width="4.283" height="4.283"/>
			<rect x="140.069" y="247.567" opacity="0.2" fill="#444444" width="4.283" height="4.283"/>
		</g>
		<g opacity="0.2">
			<polygon fill="#444444" points="127.683,219.514 128.758,217.882 129.828,219.517 			"/>
			<rect x="128.671" y="219.35" fill="#444444" width="0.169" height="67.197"/>
		</g>
		<g opacity="0.2">
			<polygon fill="#444444" points="225.412,215.4 226.487,213.769 227.557,215.402 			"/>
			<rect x="226.4" y="215.236" fill="#444444" width="0.168" height="51.547"/>
		</g>
		<g opacity="0.2">
			<polygon fill="#444444" points="166.181,293.374 167.256,295.006 168.325,293.371 			"/>
			<rect x="167.169" y="244.935" fill="#444444" width="0.168" height="48.604"/>
		</g>
		<g opacity="0.2">
			<polygon fill="#444444" points="284.564,280.777 285.64,282.409 286.71,280.775 			"/>
			<rect x="285.553" y="232.338" fill="#444444" width="0.168" height="48.604"/>
		</g>
	</g>
	<path fill="#FFEDE1" d="M150.037,280.181c0.607,0.451,1.464,0.326,1.916-0.28l6.767-9.228c0.451-0.605,0.325-1.464-0.281-1.915l0,0
		c-0.605-0.452-1.464-0.326-1.914,0.28l-6.767,9.228C149.305,278.872,149.432,279.729,150.037,280.181L150.037,280.181z"/>
	<path fill="#FFEDE1" d="M131.536,282.775c0,2.976,2.412,5.388,5.388,5.388h14.306c2.975,0,5.387-2.412,5.387-5.388v-1.316
		c0-2.976-2.412-5.387-5.387-5.387h-14.306c-2.976,0-5.388,2.411-5.388,5.387V282.775z"/>
	<path fill="#FFEDE1" d="M145.349,283.092c0.078,3.147,2.422,5.444,5.569,5.366h9.903c-0.041-5.158-0.4-8.462-0.317-12.79
		l-9.608,0.129c-3.147,0.078-5.661,2.755-5.582,5.902L145.349,283.092z"/>
	<rect x="141.457" y="273.908" fill="#FFFFFF" width="5.717" height="16.419"/>
	<rect x="143.746" y="273.908" fill="#CCCCCC" width="0.874" height="16.419"/>
	<rect x="130.988" y="273.434" fill="#363651" width="12.875" height="17.367"/>
	<path fill="#FFEDE1" d="M149.999,277.298c0.004,0.834,0.683,1.506,1.517,1.501l12.076-0.175c0.833-0.005,1.505-0.685,1.5-1.518l0,0
		c-0.004-0.833-0.684-1.505-1.517-1.501l-12.075,0.176C150.666,275.786,149.994,276.465,149.999,277.298L149.999,277.298z"/>
	<path fill="#FFEDE1" d="M150.532,280.378c-0.012,0.833,0.653,1.519,1.487,1.53l12.076,0.104c0.832,0.011,1.518-0.655,1.529-1.488
		l0,0c0.012-0.833-0.653-1.519-1.487-1.529l-12.075-0.104C151.229,278.879,150.544,279.545,150.532,280.378L150.532,280.378z"/>
	<path fill="#FFEDE1" d="M150.085,283.627c-0.012,0.835,0.653,1.519,1.488,1.53l12.076,0.104c0.831,0.012,1.518-0.654,1.528-1.486
		l0,0c0.014-0.833-0.653-1.518-1.486-1.531l-12.075-0.104C150.782,282.129,150.098,282.794,150.085,283.627L150.085,283.627z"/>
	<path fill="#FFEDE1" d="M147.671,286.947c-0.004,0.833,0.728,1.514,1.635,1.518l13.339-0.013c0.907,0.005,1.646-0.666,1.65-1.501
		l0,0c0.006-0.832-0.727-1.511-1.635-1.517l-13.339,0.013C148.416,285.443,147.677,286.112,147.671,286.947L147.671,286.947z"/>
	<path fill="#FFEDE1" d="M154.928,277.203c0,1.825,0.379,2.95-1.447,2.95c-1.826,0-4.235-0.507-4.283-2.331
		c-0.094-3.567,2.566-2.356,4.253-4.548C154.564,271.828,154.928,275.376,154.928,277.203z"/>
	<circle fill="#363651" cx="145.949" cy="289.055" r="0.536"/>
	<rect x="147.18" y="273.908" fill="#CCCCCC" width="0.581" height="16.419"/>
	<g>
		<g>
			<g>
				<rect x="231.586" y="220.269" fill="#FFFFFF" width="12.562" height="29.687"/>
				<polygon fill="#FFFFFF" points="229.976,221.183 237.867,213.356 245.757,221.183 				"/>
			</g>
			<g>
				<rect x="236.564" y="239.79" fill="#FFD8B8" width="2.604" height="3.85"/>
				<ellipse fill="#603A1E" cx="237.878" cy="235.156" rx="3.79" ry="3.636"/>
				<ellipse fill="#FFD8B8" cx="237.879" cy="237.153" rx="3.53" ry="4.563"/>
				<circle fill="#FFD8B8" cx="241.336" cy="236.975" r="0.713"/>
				<circle fill="#FFD8B8" cx="234.349" cy="236.975" r="0.713"/>
				<ellipse fill="#603A1E" cx="237.867" cy="233.63" rx="2.756" ry="1.24"/>
				<path fill="#363651" d="M243.267,249.132v-4.139c0-1.08-0.878-1.958-1.961-1.958h-6.879c-1.084,0-1.96,0.878-1.96,1.958v4.139
					H243.267z"/>
				<polygon fill="#D3D3D3" points="236.522,243.035 237.868,249.132 239.21,243.035 				"/>
				<polygon fill="#212123" points="238.679,243.035 237.878,244.423 237.076,243.035 				"/>
				<polygon fill="#212123" points="238.666,245.522 237.864,243.665 237.063,245.522 237.868,249.132 				"/>
				<polygon fill="#FFFFFF" points="237.877,243.035 238.77,245.027 239.21,243.035 				"/>
				<polygon fill="#FFFFFF" points="237.864,243.035 236.963,245.027 236.522,243.035 				"/>
			</g>
		</g>
		<g>
			<g>
				<rect x="250.245" y="228.658" fill="#FFFFFF" width="12.562" height="21.163"/>
				<polygon fill="#FFFFFF" points="248.635,229.572 256.526,221.745 264.416,229.572 				"/>
			</g>
			<g>
				<rect x="255.225" y="239.79" fill="#FFD8B8" width="2.603" height="3.85"/>
				<ellipse fill="#603A1E" cx="256.538" cy="235.156" rx="3.79" ry="3.636"/>
				<ellipse fill="#FFD8B8" cx="256.538" cy="237.153" rx="3.53" ry="4.563"/>
				<circle fill="#FFD8B8" cx="259.995" cy="236.975" r="0.714"/>
				<circle fill="#FFD8B8" cx="253.008" cy="236.975" r="0.713"/>
				<ellipse fill="#603A1E" cx="256.525" cy="233.63" rx="2.756" ry="1.24"/>
				<path fill="#363651" d="M261.926,249.132v-4.139c0-1.08-0.878-1.958-1.96-1.958h-6.88c-1.083,0-1.96,0.878-1.96,1.958v4.139
					H261.926z"/>
				<polygon fill="#D3D3D3" points="255.182,243.035 256.526,249.132 257.869,243.035 				"/>
				<polygon fill="#212123" points="257.339,243.035 256.537,244.423 255.736,243.035 				"/>
				<polygon fill="#212123" points="257.325,245.522 256.523,243.665 255.722,245.522 256.526,249.132 				"/>
				<polygon fill="#FFFFFF" points="256.536,243.035 257.431,245.027 257.869,243.035 				"/>
				<polygon fill="#FFFFFF" points="256.523,243.035 255.621,245.027 255.182,243.035 				"/>
			</g>
		</g>
		<g>
			<g>
				<rect x="268.904" y="223.024" fill="#FFFFFF" width="12.562" height="26.847"/>
				<polygon fill="#FFFFFF" points="267.295,223.939 275.186,216.111 283.076,223.939 				"/>
			</g>
			<g>
				<rect x="273.883" y="239.79" fill="#FFD8B8" width="2.604" height="3.85"/>
				<ellipse fill="#603A1E" cx="275.197" cy="235.156" rx="3.79" ry="3.636"/>
				<ellipse fill="#FFD8B8" cx="275.197" cy="237.153" rx="3.53" ry="4.563"/>
				<circle fill="#FFD8B8" cx="278.655" cy="236.975" r="0.713"/>
				<circle fill="#FFD8B8" cx="271.667" cy="236.975" r="0.712"/>
				<ellipse fill="#603A1E" cx="275.185" cy="233.63" rx="2.756" ry="1.24"/>
				<path fill="#363651" d="M280.586,249.132v-4.139c0-1.08-0.879-1.958-1.962-1.958h-6.879c-1.083,0-1.961,0.878-1.961,1.958v4.139
					H280.586z"/>
				<polygon fill="#D3D3D3" points="273.842,243.035 275.186,249.132 276.528,243.035 				"/>
				<polygon fill="#212123" points="275.997,243.035 275.196,244.423 274.395,243.035 				"/>
				<polygon fill="#212123" points="275.984,245.522 275.183,243.665 274.381,245.522 275.186,249.132 				"/>
				<polygon fill="#FFFFFF" points="275.194,243.035 276.09,245.027 276.528,243.035 				"/>
				<polygon fill="#FFFFFF" points="275.183,243.035 274.28,245.027 273.842,243.035 				"/>
			</g>
		</g>
	</g>
	<g>
		<path fill="#FFFFFF" d="M271.089,263.919h-27.825c-1.438,0-2.603,1.166-2.603,2.603v16.983c0,1.437,1.165,2.603,2.603,2.603
			h27.825c1.437,0,2.603-1.166,2.603-2.603v-16.983C273.691,265.085,272.525,263.919,271.089,263.919z M259.995,265.886h-5.638
			c-0.327,0-0.593-0.265-0.593-0.592c0-0.328,0.266-0.593,0.593-0.593h5.638c0.327,0,0.592,0.265,0.592,0.593
			C260.587,265.621,260.322,265.886,259.995,265.886z"/>
		<path fill="#C40000" d="M271.252,286.367h-27.827c-1.578,0-2.861-1.283-2.861-2.862v-16.983c0-1.578,1.283-2.862,2.861-2.862
			h27.827c1.578,0,2.862,1.284,2.862,2.862v16.983C274.114,285.084,272.83,286.367,271.252,286.367z M243.425,264.18
			c-1.29,0-2.341,1.051-2.341,2.342v16.983c0,1.292,1.051,2.342,2.341,2.342h27.827c1.291,0,2.342-1.05,2.342-2.342v-16.983
			c0-1.291-1.051-2.342-2.342-2.342H243.425z"/>
		<path fill="#8597A8" d="M255.106,281.466c0,1.438-1.165,2.604-2.603,2.604h-6.649c-1.438,0-2.603-1.166-2.603-2.604v-11.474
			c0-1.438,1.165-2.603,2.603-2.603h6.649c1.438,0,2.603,1.164,2.603,2.603V281.466z"/>
		<g>
			<rect x="248.283" y="275.284" fill="#FFD8B8" width="1.804" height="2.667"/>
			<ellipse fill="#603A1E" cx="249.193" cy="272.075" rx="2.625" ry="2.518"/>
			<ellipse fill="#FFD8B8" cx="249.193" cy="273.457" rx="2.445" ry="3.161"/>
			<circle fill="#FFD8B8" cx="251.588" cy="273.333" r="0.495"/>
			<circle fill="#FFD8B8" cx="246.748" cy="273.333" r="0.493"/>
			<ellipse fill="#603A1E" cx="249.185" cy="271.018" rx="1.909" ry="0.859"/>
			<path fill="#363651" d="M252.926,281.755v-2.866c0-0.748-0.608-1.356-1.358-1.356h-4.766c-0.749,0-1.357,0.608-1.357,1.356v2.866
				H252.926z"/>
			<polygon fill="#D3D3D3" points="248.255,277.532 249.186,281.755 250.115,277.532 			"/>
			<polygon fill="#212123" points="249.748,277.532 249.192,278.493 248.638,277.532 			"/>
			<polygon fill="#212123" points="249.738,279.255 249.184,277.969 248.628,279.255 249.186,281.755 			"/>
			<polygon fill="#FFFFFF" points="249.192,277.532 249.812,278.912 250.115,277.532 			"/>
			<polygon fill="#FFFFFF" points="249.184,277.532 248.559,278.912 248.255,277.532 			"/>
		</g>
		<path fill="#E2E2E2" d="M270.777,268.349c0,0.229-0.187,0.414-0.415,0.414h-12.61c-0.229,0-0.413-0.186-0.413-0.414l0,0
			c0-0.228,0.185-0.413,0.413-0.413h12.61C270.591,267.936,270.777,268.121,270.777,268.349L270.777,268.349z"/>
		<path fill="#E2E2E2" d="M265.571,270.541c0,0.229-0.186,0.413-0.413,0.413h-7.406c-0.229,0-0.413-0.185-0.413-0.413l0,0
			c0-0.229,0.185-0.414,0.413-0.414h7.406C265.386,270.127,265.571,270.313,265.571,270.541L265.571,270.541z"/>
		<path fill="#E2E2E2" d="M267.307,272.731c0,0.229-0.186,0.415-0.413,0.415h-9.142c-0.229,0-0.413-0.187-0.413-0.415l0,0
			c0-0.228,0.185-0.412,0.413-0.412h9.142C267.121,272.319,267.307,272.504,267.307,272.731L267.307,272.731z"/>
		<path fill="#E2E2E2" d="M270.777,274.925c0,0.228-0.187,0.412-0.415,0.412h-12.61c-0.229,0-0.413-0.185-0.413-0.412l0,0
			c0-0.229,0.185-0.415,0.413-0.415h12.61C270.591,274.51,270.777,274.696,270.777,274.925L270.777,274.925z"/>
		<path fill="#E2E2E2" d="M269.041,277.115c0,0.229-0.186,0.414-0.412,0.414h-10.877c-0.229,0-0.413-0.186-0.413-0.414l0,0
			c0-0.229,0.185-0.413,0.413-0.413h10.877C268.855,276.702,269.041,276.887,269.041,277.115L269.041,277.115z"/>
		<path fill="#E2E2E2" d="M270.777,279.307c0,0.229-0.187,0.414-0.415,0.414h-12.61c-0.229,0-0.413-0.186-0.413-0.414l0,0
			c0-0.228,0.185-0.413,0.413-0.413h12.61C270.591,278.894,270.777,279.079,270.777,279.307L270.777,279.307z"/>
		<rect x="254.354" y="255.709" fill="#FFFFFF" width="5.667" height="9.488"/>
		<rect x="253.646" y="259.269" fill="#777777" width="7.083" height="3.3"/>
	</g>
	<rect x="188.647" y="269.089" fill="#4E4E68" width="13.96" height="9.377"/>
	<rect x="188.647" y="269.31" opacity="0.4" fill="#1B1B33" width="13.96" height="1.729"/>
	<path fill="#FFFFFF" d="M222.55,265.816c0,1.567-1.271,2.839-2.839,2.839h-48.332c-1.567,0-2.838-1.271-2.838-2.839v-28.312
		c0-1.567,1.271-2.839,2.838-2.839h48.332c1.568,0,2.839,1.271,2.839,2.839V265.816z"/>
	<path fill="#1B1B33" d="M219.711,269.31h-48.332c-1.926,0-3.493-1.567-3.493-3.493v-28.312c0-1.926,1.567-3.494,3.493-3.494h48.332
		c1.927,0,3.494,1.568,3.494,3.494v28.312C223.205,267.742,221.638,269.31,219.711,269.31z M171.379,235.32
		c-1.203,0-2.184,0.981-2.184,2.185v28.312c0,1.204,0.98,2.185,2.184,2.185h48.332c1.205,0,2.186-0.98,2.186-2.185v-28.312
		c0-1.203-0.98-2.185-2.186-2.185H171.379z"/>
	<polygon fill="#302E2D" points="177.404,260.886 176.223,259.483 186.208,251.063 197.184,255.109 214.195,241.952 
		215.317,243.403 197.502,257.183 186.576,253.153 	"/>
	<circle fill="#FF0000" cx="197.324" cy="255.89" r="1.801"/>
	<circle fill="#FF0000" cx="186.351" cy="252.338" r="1.406"/>
	<circle fill="#FF0000" cx="176.813" cy="260.185" r="1.899"/>
	<g>
		<path fill="#302E2D" d="M210.604,243.103c-0.299,0.015-0.555-0.214-0.57-0.514l0,0c-0.016-0.297,0.214-0.551,0.513-0.569
			l4.471-0.237c0.299-0.018,0.555,0.212,0.57,0.512l0,0c0.016,0.297-0.214,0.553-0.512,0.569L210.604,243.103z"/>
		<path fill="#302E2D" d="M215.598,242.471c0.066-0.291-0.114-0.581-0.406-0.647l0,0c-0.29-0.068-0.582,0.115-0.648,0.406
			l-1.003,4.363c-0.067,0.291,0.116,0.582,0.406,0.649l0,0c0.291,0.066,0.582-0.115,0.649-0.406L215.598,242.471z"/>
	</g>
	<path fill="#1B1B33" d="M210.034,279.255c0,0.635-0.514,1.147-1.147,1.147h-26.234c-0.633,0-1.146-0.513-1.146-1.147l0,0
		c0-0.632,0.514-1.146,1.146-1.146h26.234C209.521,278.108,210.034,278.623,210.034,279.255L210.034,279.255z"/>
	<polygon opacity="0.3" fill="#FFFFFF" points="107.081,18.391 108.713,20.861 107.081,23.331 107.081,22.502 102.25,22.502 
		102.25,19.219 107.081,19.219 	"/>
	<polygon opacity="0.3" fill="#FFFFFF" points="62.075,55.241 65.472,57.791 68.867,55.241 67.728,55.241 67.728,48.599 
		63.214,48.599 63.214,55.241 	"/>
	<path opacity="0.2" fill="#FFFFFF" d="M130.929,65.846h-1.169v-1.17c0-0.28-0.226-0.505-0.505-0.505
		c-0.279,0-0.505,0.226-0.505,0.505v1.17h-1.169c-0.279,0-0.507,0.227-0.507,0.505s0.228,0.505,0.507,0.505h1.169v1.17
		c0,0.279,0.226,0.505,0.505,0.505c0.279,0,0.505-0.226,0.505-0.505v-1.17h1.169c0.279,0,0.506-0.227,0.506-0.505
		S131.208,65.846,130.929,65.846z"/>
	<path opacity="0.2" fill="#FFFFFF" d="M66.711,65.457l-1.24,1.24l-1.241-1.241c-0.296-0.296-0.776-0.295-1.072,0
		c-0.296,0.296-0.296,0.775,0,1.072l1.241,1.241l-1.24,1.24c-0.296,0.296-0.297,0.777-0.001,1.073
		c0.296,0.296,0.778,0.294,1.073-0.001l1.24-1.24l1.241,1.241c0.295,0.296,0.776,0.296,1.071,0c0.296-0.296,0.296-0.776,0-1.072
		l-1.241-1.241l1.24-1.24c0.296-0.295,0.297-0.777,0.001-1.073S67.007,65.162,66.711,65.457z"/>
	<path opacity="0.2" fill="#FFFFFF" d="M183.866,81.149l-1.24,1.24l-1.24-1.241c-0.297-0.296-0.776-0.295-1.072,0
		c-0.295,0.296-0.296,0.775,0,1.072l1.241,1.241l-1.24,1.24c-0.296,0.296-0.297,0.777-0.001,1.073
		c0.295,0.295,0.777,0.294,1.072-0.001l1.24-1.24l1.241,1.241c0.295,0.296,0.775,0.296,1.071,0s0.296-0.776,0.001-1.072
		l-1.241-1.241l1.239-1.24c0.297-0.295,0.298-0.777,0.002-1.073S184.162,80.854,183.866,81.149z"/>
	<g>
		<rect x="22.234" y="55.752" fill="#773011" width="28.532" height="23.683"/>
		<rect x="22.234" y="44.615" fill="#A33F1C" width="28.532" height="11.842"/>
		<path fill="#4C1400" d="M45.089,50.404c0,0.59-0.479,1.07-1.069,1.07H28.981c-0.59,0-1.07-0.479-1.07-1.07l0,0
			c0-0.591,0.479-1.07,1.07-1.07H44.02C44.609,49.334,45.089,49.813,45.089,50.404L45.089,50.404z"/>
		<rect x="29.488" y="38.728" fill="#FFFFFF" width="13.664" height="12.746"/>
		<rect x="29.488" y="50.404" fill="#CCCCCC" width="13.664" height="1.07"/>
		<g>
			<path fill="#FFD8B8" d="M49.485,28.537c-0.044,0.705-0.652,1.24-1.355,1.195l-10.66-0.746c-0.705-0.044-1.24-0.65-1.196-1.356
				l0,0c0.044-0.704,0.652-1.239,1.355-1.195l10.661,0.746C48.995,27.226,49.529,27.833,49.485,28.537L49.485,28.537z"/>
			<path fill="#FFD8B8" d="M75.712,33.617c0,3.467-2.813,6.278-6.279,6.278H52.762c-3.467,0-6.277-2.811-6.277-6.278v-1.534
				c0-3.467,2.81-6.278,6.277-6.278h16.671c3.466,0,6.279,2.811,6.279,6.278V33.617z"/>
			<path fill="#FFD8B8" d="M56.786,30.675c1.249,2.661,0.103,5.831-2.559,7.08l-8.125,3.862c-2.12-4.326-3.198-7.236-5.074-10.817
				l8.125-3.861c2.662-1.249,5.832-0.103,7.08,2.559L56.786,30.675z"/>
			<rect x="57.488" y="23.283" fill="#FFFFFF" width="6.664" height="19.134"/>
			<rect x="56.806" y="23.283" fill="#CCCCCC" width="0.676" height="19.134"/>
			<rect x="60.465" y="23.283" fill="#CCCCCC" width="1.019" height="19.134"/>
			<circle fill="#363651" cx="59.543" cy="40.818" r="0.592"/>
			<rect x="61.346" y="22.731" fill="#363651" width="15.005" height="20.236"/>
			<path fill="#FFD8B8" d="M45.759,29.927c0.364,0.685,0.104,1.536-0.582,1.899l-11.722,6.12c-0.686,0.364-1.535,0.103-1.899-0.582
				l0,0c-0.363-0.685-0.103-1.535,0.583-1.899l11.723-6.12C44.544,28.982,45.395,29.243,45.759,29.927L45.759,29.927z"/>
			<path fill="#FFD8B8" d="M45.211,34.2c0.364,0.686,0.104,1.535-0.582,1.898L32.908,42.22c-0.686,0.363-1.536,0.102-1.899-0.583
				l0,0c-0.365-0.685-0.104-1.534,0.582-1.898l11.722-6.12C43.998,33.256,44.848,33.516,45.211,34.2L45.211,34.2z"/>
			<path fill="#FFD8B8" d="M48.436,36.438c0.365,0.686,0.103,1.535-0.581,1.898l-11.724,6.121c-0.685,0.362-1.534,0.102-1.899-0.583
				l0,0c-0.363-0.684-0.102-1.534,0.582-1.898l11.724-6.12C47.223,35.493,48.071,35.752,48.436,36.438L48.436,36.438z"/>
			<path fill="#FFD8B8" d="M53.047,37.793c0.362,0.685,0.054,1.562-0.692,1.957l-12.761,6.671c-0.745,0.397-1.644,0.162-2.008-0.523
				l0,0c-0.363-0.684-0.054-1.56,0.691-1.956l12.761-6.67C51.784,36.874,52.683,37.108,53.047,37.793L53.047,37.793z"/>
		</g>
	</g>
	<g>
		<rect x="78.122" y="12.114" fill="#FFFFFF" width="21.438" height="28.233"/>
		<path fill="#6D6D6D" d="M99.77,40.557H77.912V11.904H99.77V40.557z M78.332,40.136h21.018V12.324H78.332V40.136z"/>
		<g>
			<rect x="80.293" y="14.691" fill="#D3D3D3" width="3.574" height="3.573"/>
			<rect x="80.293" y="21.099" fill="#D3D3D3" width="3.574" height="3.573"/>
			<rect x="80.293" y="27.507" fill="#D3D3D3" width="3.574" height="3.573"/>
			<rect x="80.293" y="33.915" fill="#D3D3D3" width="3.574" height="3.573"/>
		</g>
		<g>
			<path fill="#D3D3D3" d="M97.283,18.37H93.5v-3.784h3.784V18.37z M93.709,18.159h3.364v-3.363h-3.364V18.159z"/>
			<path fill="#D3D3D3" d="M97.283,24.777H93.5v-3.783h3.784V24.777z M93.709,24.567h3.364v-3.363h-3.364V24.567z"/>
			<path fill="#D3D3D3" d="M97.283,31.185H93.5v-3.783h3.784V31.185z M93.709,30.975h3.364v-3.363h-3.364V30.975z"/>
			<path fill="#D3D3D3" d="M97.283,37.593H93.5V33.81h3.784V37.593z M93.709,37.383h3.364V34.02h-3.364V37.383z"/>
		</g>
		<g>
			<path fill="#FF0000" d="M94.946,23.871c-0.183,0.158-0.459,0.138-0.618-0.044l-2.984-3.44c-0.158-0.183-0.139-0.459,0.044-0.618
				l0,0c0.183-0.159,0.459-0.139,0.618,0.044l2.984,3.44C95.147,23.436,95.128,23.712,94.946,23.871L94.946,23.871z"/>
			<path fill="#FF0000" d="M97.92,19.769c-0.183-0.159-0.459-0.139-0.617,0.044l-2.984,3.44c-0.158,0.183-0.138,0.459,0.044,0.618
				l0,0c0.183,0.158,0.459,0.138,0.618-0.044l2.983-3.44C98.123,20.203,98.103,19.927,97.92,19.769L97.92,19.769z"/>
		</g>
		<g>
			<rect x="84.838" y="14.691" fill="#D3D3D3" width="6.846" height="0.498"/>
			<rect x="84.838" y="15.687" fill="#D3D3D3" width="4.522" height="0.498"/>
			<rect x="84.838" y="16.807" fill="#D3D3D3" width="7.426" height="0.498"/>
			<rect x="84.838" y="17.761" fill="#D3D3D3" width="6.099" height="0.498"/>
		</g>
		<g>
			<rect x="84.838" y="21.101" fill="#D3D3D3" width="6.846" height="0.497"/>
			<rect x="84.838" y="22.096" fill="#D3D3D3" width="4.522" height="0.498"/>
			<rect x="84.838" y="23.216" fill="#D3D3D3" width="7.426" height="0.497"/>
			<rect x="84.838" y="24.17" fill="#D3D3D3" width="6.099" height="0.498"/>
		</g>
		<g>
			<rect x="84.838" y="27.508" fill="#D3D3D3" width="6.846" height="0.498"/>
			<rect x="84.838" y="28.504" fill="#D3D3D3" width="4.522" height="0.498"/>
			<rect x="84.838" y="29.625" fill="#D3D3D3" width="7.426" height="0.498"/>
			<rect x="84.838" y="30.579" fill="#D3D3D3" width="6.099" height="0.498"/>
		</g>
		<g>
			<rect x="84.838" y="33.917" fill="#D3D3D3" width="6.846" height="0.498"/>
			<rect x="84.838" y="34.913" fill="#D3D3D3" width="4.522" height="0.498"/>
			<rect x="84.838" y="36.033" fill="#D3D3D3" width="7.426" height="0.499"/>
			<rect x="84.838" y="36.988" fill="#D3D3D3" width="6.099" height="0.498"/>
		</g>
	</g>
	<path fill="#2F2B42" d="M143.915,27.552c0.1,0.328-0.085,0.676-0.413,0.776l-20.371,6.217c-0.329,0.1-0.676-0.085-0.776-0.414l0,0
		c-0.101-0.329,0.084-0.676,0.414-0.776l20.37-6.216C143.467,27.038,143.814,27.223,143.915,27.552L143.915,27.552z"/>
	<path fill="#2F2B42" d="M126.804,40.625h-7.872l3.936-6.817L126.804,40.625z M119.314,40.404h7.107l-3.554-6.156L119.314,40.404z"
		/>
	<path fill="#2F2B42" d="M133.924,48.321c0,0.509-0.413,0.922-0.922,0.922l0,0c-0.509,0-0.922-0.413-0.922-0.922V24.292
		c0-0.509,0.413-0.922,0.922-0.922l0,0c0.509,0,0.922,0.413,0.922,0.922V48.321z"/>
	<path fill="#A6A6B2" d="M135.759,48.216h-5.469c-0.869,0-1.573,0.705-1.573,1.575h8.617
		C137.333,48.921,136.628,48.216,135.759,48.216z"/>
	<path fill="#2F2B42" d="M140.117,50.475c0-0.504-0.409-0.913-0.914-0.913h-12.365c-0.503,0-0.913,0.409-0.913,0.913l0,0
		c0,0.504,0.41,0.913,0.913,0.913h12.365C139.708,51.388,140.117,50.979,140.117,50.475L140.117,50.475z"/>
	<path fill="#2F2B42" d="M118.17,40.293c0.036,2.565,2.125,4.633,4.698,4.633s4.663-2.068,4.698-4.633H118.17z"/>
	<path fill="#2F2B42" d="M147.246,34.282h-7.871l3.936-6.817L147.246,34.282z M139.757,34.062h7.107l-3.554-6.156L139.757,34.062z"
		/>
	<path fill="#2F2B42" d="M138.613,33.95c0.036,2.565,2.124,4.633,4.698,4.633c2.573,0,4.663-2.068,4.698-4.633H138.613z"/>
	<circle fill="#4A475E" cx="133.112" cy="30.858" r="1.939"/>
	<circle fill="#A6A6B2" cx="133.112" cy="30.858" r="1.134"/>
	<circle fill="#A6A6B2" cx="123.073" cy="34.024" r="1.134"/>
	<circle fill="#A6A6B2" cx="143.311" cy="27.784" r="1.134"/>
	<g>
		<rect x="164.882" y="66.751" fill="#FFD8B8" width="3.968" height="5.87"/>
		<ellipse fill="#603A1E" cx="166.884" cy="59.687" rx="5.777" ry="5.543"/>
		<ellipse fill="#FFD8B8" cx="166.884" cy="62.73" rx="5.38" ry="6.955"/>
		<circle fill="#FFD8B8" cx="172.155" cy="62.459" r="1.087"/>
		<circle fill="#FFD8B8" cx="161.504" cy="62.459" r="1.087"/>
		<ellipse fill="#603A1E" cx="166.866" cy="57.36" rx="4.203" ry="1.891"/>
		<path fill="#363651" d="M175.098,80.991v-6.307c0-1.65-1.338-2.987-2.988-2.987h-10.487c-1.649,0-2.987,1.337-2.987,2.987v6.307
			H175.098z"/>
		<polygon fill="#D3D3D3" points="164.819,71.697 166.865,80.991 168.912,71.697 		"/>
		<polygon fill="#212123" points="168.104,71.697 166.885,73.812 165.663,71.697 		"/>
		<polygon fill="#212123" points="168.084,75.488 166.862,72.658 165.642,75.488 166.865,80.991 		"/>
		<polygon fill="#FFFFFF" points="166.88,71.697 168.243,74.733 168.912,71.697 		"/>
		<polygon fill="#FFFFFF" points="166.862,71.697 165.488,74.733 164.819,71.697 		"/>
		<g>
			<rect x="149.94" y="65.702" fill="#FFD8B8" width="2.794" height="4.133"/>
			<ellipse fill="#603A1E" cx="151.35" cy="60.729" rx="4.067" ry="3.903"/>
			<ellipse fill="#FFD8B8" cx="151.351" cy="62.872" rx="3.788" ry="4.896"/>
			<circle fill="#FFD8B8" cx="155.062" cy="62.679" r="0.765"/>
			<circle fill="#FFD8B8" cx="147.563" cy="62.679" r="0.766"/>
			<ellipse fill="#603A1E" cx="151.338" cy="59.091" rx="2.959" ry="1.331"/>
			<path fill="#363651" d="M157.133,75.727v-4.44c0-1.16-0.941-2.103-2.104-2.103h-7.384c-1.162,0-2.103,0.942-2.103,2.103v4.44
				H157.133z"/>
			<polygon fill="#D3D3D3" points="149.896,69.184 151.338,75.727 152.778,69.184 			"/>
			<polygon fill="#212123" points="152.21,69.184 151.351,70.673 150.492,69.184 			"/>
			<polygon fill="#212123" points="152.195,71.853 151.335,69.86 150.476,71.853 151.338,75.727 			"/>
			<polygon fill="#FFFFFF" points="151.348,69.184 152.308,71.322 152.778,69.184 			"/>
			<polygon fill="#FFFFFF" points="151.335,69.184 150.367,71.322 149.896,69.184 			"/>
		</g>
		<g>
			<rect x="181.068" y="65.702" fill="#FFD8B8" width="2.793" height="4.133"/>
			<ellipse fill="#603A1E" cx="182.478" cy="60.729" rx="4.067" ry="3.903"/>
			<ellipse fill="#FFD8B8" cx="182.478" cy="62.872" rx="3.788" ry="4.896"/>
			<circle fill="#FFD8B8" cx="186.189" cy="62.679" r="0.765"/>
			<circle fill="#FFD8B8" cx="178.69" cy="62.679" r="0.765"/>
			<ellipse fill="#603A1E" cx="182.465" cy="59.091" rx="2.959" ry="1.331"/>
			<path fill="#363651" d="M188.26,75.727v-4.44c0-1.16-0.941-2.103-2.104-2.103h-7.383c-1.162,0-2.104,0.942-2.104,2.103v4.44
				H188.26z"/>
			<polygon fill="#D3D3D3" points="181.024,69.184 182.465,75.727 183.905,69.184 			"/>
			<polygon fill="#212123" points="183.337,69.184 182.479,70.673 181.618,69.184 			"/>
			<polygon fill="#212123" points="183.322,71.853 182.462,69.86 181.604,71.853 182.465,75.727 			"/>
			<polygon fill="#FFFFFF" points="182.476,69.184 183.435,71.322 183.905,69.184 			"/>
			<polygon fill="#FFFFFF" points="182.462,69.184 181.495,71.322 181.024,69.184 			"/>
		</g>
		<circle fill="#FFFFFF" cx="177.881" cy="47.14" r="6.885"/>
		<polygon fill="#FFFFFF" points="172.066,54.861 172.692,50.922 175.79,53.434 		"/>
		<circle fill="#FFFFFF" cx="158.694" cy="50.636" r="5.169"/>
		<polygon fill="#FFFFFF" points="154.329,56.434 154.799,53.477 157.125,55.362 		"/>
		<circle fill="#FFFFFF" cx="191.716" cy="53.163" r="5.169"/>
		<polygon fill="#FFFFFF" points="187.35,58.96 187.819,56.003 190.146,57.889 		"/>
	</g>
	<path fill="#363651" d="M97.611,76.672H87.318c-2.078,0-3.769-1.69-3.769-3.769V62.61c0-2.078,1.69-3.768,3.769-3.768h10.293
		c2.078,0,3.768,1.69,3.768,3.768v10.293C101.379,74.981,99.689,76.672,97.611,76.672z M87.318,59.809
		c-1.545,0-2.802,1.256-2.802,2.801v10.293c0,1.545,1.256,2.801,2.802,2.801h10.293c1.544,0,2.801-1.255,2.801-2.801V62.61
		c0-1.544-1.256-2.801-2.801-2.801H87.318z"/>
	<g>
		<path fill="#FF0000" d="M95.976,69.211c-0.61,0.53-1.535,0.464-2.065-0.146l-9.974-11.503c-0.528-0.611-0.463-1.536,0.148-2.064
			l0,0c0.61-0.53,1.534-0.464,2.065,0.146l9.973,11.503C96.652,67.757,96.586,68.681,95.976,69.211L95.976,69.211z"/>
		<path fill="#FF0000" d="M105.945,55.507c-0.61-0.53-1.535-0.464-2.065,0.147l-9.973,11.503c-0.529,0.61-0.463,1.534,0.148,2.064
			l0,0c0.61,0.53,1.535,0.463,2.064-0.147l9.974-11.502C106.622,56.96,106.556,56.036,105.945,55.507L105.945,55.507z"/>
	</g>
	<path fill="#FF723B" d="M211.522,71.661c-0.192-0.167-0.482-0.146-0.648,0.046l-2.782,3.209l-2.784-3.211
		c-0.167-0.192-0.456-0.213-0.648-0.046c-0.191,0.166-0.212,0.457-0.046,0.648l3.105,3.583c0.021,0.028,0.043,0.054,0.07,0.078
		c0.175,0.152,0.43,0.146,0.6,0c0.001,0,0.003-0.001,0.004-0.002c0.002-0.002,0.004-0.005,0.007-0.007
		c0.013-0.012,0.026-0.022,0.038-0.036l3.131-3.611C211.734,72.117,211.714,71.827,211.522,71.661z"/>
	<path fill="#FF723B" d="M55.804,13.989c-0.273-0.237-0.688-0.208-0.924,0.066l-3.967,4.575l-3.97-4.58
		c-0.238-0.273-0.651-0.303-0.925-0.065c-0.273,0.237-0.303,0.651-0.066,0.924l4.43,5.108c0.029,0.04,0.061,0.078,0.1,0.111
		c0.249,0.216,0.613,0.208,0.855,0c0.001-0.001,0.003-0.002,0.005-0.003c0.003-0.003,0.006-0.007,0.01-0.011
		c0.019-0.017,0.037-0.032,0.054-0.051l4.465-5.149C56.106,14.64,56.077,14.226,55.804,13.989z"/>
	<g>
		<circle fill="#1B1B33" cx="112.001" cy="80.522" r="1.595"/>
		<rect x="110.406" y="52.999" fill="#FFFFFF" width="3.231" height="27.383"/>
		<polygon fill="#1B1B33" points="110.406,52.999 112.062,46.813 113.718,52.999 		"/>
		<polygon fill="#FFFFFF" points="111.542,48.751 112.062,46.813 112.581,48.751 		"/>
		<rect x="110.406" y="56.593" opacity="0.3" fill="#1B1B33" width="3.231" height="0.483"/>
		<rect x="110.406" y="57.774" opacity="0.3" fill="#1B1B33" width="3.231" height="0.484"/>
		<rect x="110.406" y="58.956" opacity="0.3" fill="#1B1B33" width="3.231" height="0.484"/>
		<rect x="110.406" y="60.137" opacity="0.3" fill="#1B1B33" width="3.231" height="0.485"/>
		<rect x="110.406" y="61.317" opacity="0.3" fill="#1B1B33" width="3.231" height="0.485"/>
		<rect x="110.406" y="62.499" opacity="0.3" fill="#1B1B33" width="3.231" height="0.485"/>
	</g>
	<g>
		<rect x="91.584" y="231.109" fill="#141419" width="0.773" height="33.768"/>
		<rect x="91.584" y="232.309" fill="#FFFFFF" width="0.773" height="19.7"/>
		<path fill="#FFFFFF" d="M92.357,232.309c0,3.237,0,16.413,0,19.733c9.265-6.843,22.872,3.806,31.992,0c0-2.492,0-12.706,0-19.733
			C115.229,236.112,101.622,225.464,92.357,232.309z"/>
		<circle fill="#363651" cx="91.971" cy="230.489" r="0.856"/>
		<rect x="92.357" y="232.309" fill="#DDDDDD" width="0.145" height="19.7"/>
	</g>
	<g>
		<circle fill="#4CA1BF" cx="150.993" cy="146.965" r="31.924"/>
		<circle fill="#4CA1BF" cx="242.598" cy="146.965" r="27.236"/>
		<circle fill="#4CA1BF" cx="59.388" cy="146.965" r="27.235"/>
		<circle fill="#4CA1BF" cx="196.795" cy="146.965" r="21.605"/>
		<circle fill="#4CA1BF" cx="105.19" cy="146.965" r="21.605"/>
		<g>
			<path fill="#FFFFFF" d="M167.046,121.88c-1.31-1.308-2.076-2.886-2.076-4.584c0-4.516,5.42-8.178,12.099-8.178
				c6.68,0,12.093,3.663,12.093,8.178c0,4.517-5.413,8.179-12.093,8.179c-2.57,0-4.95-0.544-6.912-1.467l-3.605,1.467
				L167.046,121.88z"/>
			<path opacity="0.5" fill="#636363" d="M170.188,114.011c0,0.319,0.262,0.58,0.583,0.58h12.693c0.318,0,0.581-0.26,0.581-0.58l0,0
				c0-0.32-0.263-0.579-0.581-0.579h-12.693C170.45,113.432,170.188,113.691,170.188,114.011L170.188,114.011z"/>
			<path opacity="0.5" fill="#636363" d="M170.188,117.366c0,0.319,0.262,0.58,0.583,0.58h12.693c0.318,0,0.581-0.261,0.581-0.58
				l0,0c0-0.32-0.263-0.58-0.581-0.58h-12.693C170.45,116.787,170.188,117.046,170.188,117.366L170.188,117.366z"/>
			<path opacity="0.5" fill="#636363" d="M170.188,120.723c0,0.32,0.262,0.579,0.583,0.579h12.693c0.318,0,0.581-0.258,0.581-0.579
				l0,0c0-0.32-0.263-0.581-0.581-0.581h-12.693C170.45,120.143,170.188,120.403,170.188,120.723L170.188,120.723z"/>
		</g>
		<circle opacity="0.4" fill="#FFFFFF" cx="177.547" cy="173.716" r="1.39"/>
		<circle opacity="0.4" fill="#FFFFFF" cx="118.304" cy="126.094" r="0.28"/>
		<circle opacity="0.4" fill="#FFFFFF" cx="132.226" cy="137.113" r="0.949"/>
		<circle opacity="0.4" fill="#FFFFFF" cx="113.224" cy="155.548" r="0.515"/>
		<circle opacity="0.4" fill="#FFFFFF" cx="194.751" cy="119.169" r="0.689"/>
		<circle opacity="0.4" fill="#FFFFFF" cx="82.698" cy="167.558" r="0.964"/>
		<g>
			<path opacity="0.4" fill="#FFFFFF" d="M217.007,126.232c0,0.31-0.251,0.561-0.561,0.561l0,0c-0.31,0-0.561-0.251-0.561-0.561
				v-6.699c0-0.31,0.251-0.561,0.561-0.561l0,0c0.31,0,0.561,0.251,0.561,0.561V126.232z"/>
			<path opacity="0.4" fill="#FFFFFF" d="M217.047,128.322c0,0.331-0.27,0.6-0.601,0.6l0,0c-0.331,0-0.6-0.269-0.6-0.6l0,0
				c0-0.332,0.269-0.6,0.6-0.6l0,0C216.777,127.722,217.047,127.991,217.047,128.322L217.047,128.322z"/>
		</g>
		<g>
			<path opacity="0.4" fill="#FFFFFF" d="M121.957,174.61c0,0.31-0.251,0.561-0.561,0.561l0,0c-0.31,0-0.561-0.251-0.561-0.561
				v-6.699c0-0.31,0.251-0.561,0.561-0.561l0,0c0.31,0,0.561,0.251,0.561,0.561V174.61z"/>
			<path opacity="0.4" fill="#FFFFFF" d="M121.996,176.7c0,0.332-0.269,0.6-0.6,0.6l0,0c-0.331,0-0.6-0.268-0.6-0.6l0,0
				c0-0.331,0.269-0.6,0.6-0.6l0,0C121.727,176.101,121.996,176.369,121.996,176.7L121.996,176.7z"/>
		</g>
		<path opacity="0.4" fill="#FFFFFF" d="M213.348,170.523l-0.723-0.007c0-0.019-0.001-0.037-0.001-0.055l0.818,0.007
			c0.197,0.002,0.359-0.155,0.362-0.352c0.002-0.197-0.155-0.359-0.352-0.361l-0.855-0.007c0-0.023-0.001-0.047-0.002-0.07
			l0.728-0.011c0.197-0.001,0.355-0.161,0.354-0.358s-0.161-0.355-0.358-0.354l-2.022,0.029l0.876-1.194
			c0.106-0.143,0.077-0.346-0.066-0.452c-0.143-0.106-0.346-0.077-0.452,0.065l-0.782,1.067c-0.276,0.296-0.635,0.28-0.822,0.51
			h-1.233v3.012h2.119v-0.001h0.59h1.144c0-0.001,0-0.001,0-0.001l0.432-0.001c0.214,0.002,0.389-0.157,0.39-0.354
			c0.001-0.196-0.172-0.356-0.387-0.358l-0.448,0.001c-0.001-0.016-0.001-0.031-0.001-0.048l0.683,0.006
			c0.196,0.003,0.359-0.154,0.361-0.351C213.701,170.688,213.544,170.526,213.348,170.523z"/>
		<path opacity="0.4" fill="#FFFFFF" d="M82.375,122.77l1.014-0.009c0.001-0.026,0.002-0.052,0.003-0.078l-1.151,0.01
			c-0.276,0.003-0.504-0.217-0.508-0.494c-0.004-0.277,0.217-0.504,0.494-0.508l1.201-0.01c0.001-0.033,0.002-0.065,0.002-0.098
			l-1.022-0.015c-0.277-0.001-0.5-0.227-0.498-0.504c0.001-0.276,0.227-0.5,0.503-0.498l2.842,0.042l-1.23-1.678
			c-0.149-0.201-0.108-0.486,0.094-0.636c0.2-0.15,0.485-0.108,0.635,0.093l1.099,1.499c0.388,0.417,0.892,0.395,1.155,0.717h1.734
			v4.231h-2.978v-0.001l-0.828-0.001h-1.608v-0.001l-0.605,0c-0.301,0.001-0.547-0.221-0.548-0.498
			c-0.001-0.276,0.241-0.502,0.542-0.503l0.631,0c0.001-0.022,0.001-0.044,0.002-0.066l-0.961,0.008
			c-0.276,0.004-0.504-0.217-0.507-0.494C81.878,123.001,82.099,122.774,82.375,122.77z"/>
		<path opacity="0.4" fill="#FFFFFF" d="M110.536,172.918l0.646,0.006c0.001,0.017,0.001,0.033,0.002,0.05l-0.734-0.007
			c-0.176-0.002-0.321,0.139-0.324,0.314c-0.002,0.177,0.138,0.322,0.314,0.324l0.766,0.007c0,0.021,0.001,0.041,0.001,0.062
			l-0.651,0.01c-0.176,0.001-0.318,0.145-0.317,0.321c0,0.176,0.145,0.318,0.321,0.317l1.811-0.026l-0.784,1.069
			c-0.096,0.129-0.069,0.31,0.059,0.405s0.31,0.068,0.405-0.059l0.7-0.956c0.248-0.265,0.569-0.251,0.736-0.457h1.105v-2.696h-1.897
			v0.001h-0.528h-1.025v0.001l-0.386,0.001c-0.192-0.002-0.348,0.141-0.349,0.317c-0.001,0.176,0.154,0.319,0.346,0.32h0.402
			c0,0.014,0.001,0.027,0.001,0.042l-0.612-0.006c-0.176-0.002-0.321,0.139-0.323,0.315
			C110.219,172.771,110.36,172.916,110.536,172.918z"/>
		<polygon opacity="0.2" fill="#414444" points="133.532,167.955 130.659,165.192 133.532,162.427 		"/>
		<polygon opacity="0.2" fill="#414444" points="198.866,158.512 201.74,155.748 198.866,152.983 		"/>
		<g>
			<polygon opacity="0.2" fill="#414444" points="25.987,148.041 23.792,145.93 25.987,143.818 			"/>
			<polygon opacity="0.2" fill="#414444" points="26.754,148.041 28.949,145.93 26.754,143.818 			"/>
		</g>
		<g>
			<polygon opacity="0.2" fill="#414444" points="275.254,148.041 273.06,145.93 275.254,143.818 			"/>
			<polygon opacity="0.2" fill="#414444" points="276.022,148.041 278.217,145.93 276.022,143.818 			"/>
		</g>
		<path fill="#FFFFFF" d="M138.771,122.674c0.012-0.125,0.019-0.251,0.019-0.379c0-2.193-1.777-3.972-3.971-3.972
			c-0.114,0-0.226,0.005-0.336,0.015c-0.768-2.339-2.96-4.035-5.557-4.053c-2.521-0.017-4.679,1.55-5.536,3.77
			c-0.331-0.087-0.677-0.134-1.033-0.134c-2.239,0-4.053,1.814-4.053,4.052c0,0.24,0.025,0.473,0.064,0.701H138.771z"/>
		<g>
			<rect x="148.566" y="136" fill="#FFD8B8" width="5.091" height="7.532"/>
			<ellipse fill="#603A1E" cx="151.135" cy="126.933" rx="7.413" ry="7.114"/>
			<ellipse fill="#FFD8B8" cx="151.135" cy="130.838" rx="6.904" ry="8.927"/>
			<circle fill="#FFD8B8" cx="157.9" cy="130.49" r="1.395"/>
			<circle fill="#FFD8B8" cx="144.231" cy="130.49" r="1.395"/>
			<ellipse fill="#603A1E" cx="151.112" cy="123.947" rx="5.394" ry="2.427"/>
			<path fill="#363651" d="M161.676,154.271v-8.093c0-2.117-1.717-3.833-3.834-3.833h-13.459c-2.117,0-3.833,1.716-3.833,3.833
				v8.093H161.676z"/>
			<polygon fill="#D3D3D3" points="148.486,142.346 151.112,154.271 153.737,142.346 			"/>
			<polygon fill="#212123" points="152.702,142.346 151.136,145.06 149.568,142.346 			"/>
			<polygon fill="#212123" points="152.675,147.209 151.108,143.578 149.542,147.209 151.112,154.271 			"/>
			<polygon fill="#FFFFFF" points="151.131,142.346 152.88,146.243 153.737,142.346 			"/>
			<polygon fill="#FFFFFF" points="151.108,142.346 149.343,146.243 148.486,142.346 			"/>
			<rect x="137.641" y="156.573" fill="#773011" width="26.467" height="21.969"/>
			<rect x="132.096" y="153.226" fill="#A33F1C" width="37.766" height="4.185"/>
			<rect x="137.641" y="157.41" fill="#4C1400" width="26.467" height="1.534"/>
		</g>
		<g>
			<path fill="#FFFFFF" d="M208.003,140.417c0.355,1.281-0.396,2.606-1.675,2.961l0,0c-1.281,0.355-2.607-0.394-2.963-1.674l0,0
				c-0.354-1.28,0.396-2.606,1.676-2.962l0,0C206.321,138.388,207.647,139.138,208.003,140.417L208.003,140.417z"/>
			<path fill="#FF4E00" d="M194.376,153.981c0.081,0.292-0.09,0.595-0.382,0.676l0,0c-0.293,0.082-0.597-0.09-0.678-0.382l0,0
				c-0.081-0.292,0.09-0.596,0.384-0.677l0,0C193.992,153.517,194.295,153.688,194.376,153.981L194.376,153.981z"/>
			<polygon fill="#FFFFFF" points="192.602,161.786 188.775,162.848 190.903,149.308 194.729,148.246 			"/>
			<path fill="#FFFFFF" d="M197.528,137.701l-10.534,3.599c-2.537,0.704-4.023,3.333-3.319,5.87s3.332,4.023,5.87,3.319
				l10.882-2.344L197.528,137.701z"/>
			<path fill="#FFFFFF" d="M197.533,137.717l2.889,10.411c0,0,3.961-1.667,6.89,1.693c-0.142-0.513-4.529-16.32-4.747-17.105
				C201.786,137.105,197.533,137.717,197.533,137.717z"/>
			<path fill="#FF4E00" d="M208.788,149.35c0.113,0.412-0.128,0.838-0.539,0.952l0,0c-0.412,0.115-0.839-0.126-0.953-0.538
				l-4.716-16.992c-0.114-0.412,0.128-0.838,0.54-0.952l0,0c0.411-0.114,0.838,0.127,0.952,0.538L208.788,149.35z"/>
			<polygon fill="#FF4E00" points="200.427,148.145 199.517,148.34 196.647,138.001 197.528,137.701 			"/>
			<polygon fill="#FF4E00" points="190.631,150.255 189.172,150.592 186.622,141.403 188.046,140.94 			"/>
			<polygon fill="#CCCCCC" points="194.283,151.134 190.449,152.198 190.758,150.227 194.554,149.41 			"/>
		</g>
		<g>
			<path fill="#FFEDE1" d="M73.606,140.334c1.54,1.573,1.513,4.098-0.061,5.638l-7.567,7.404c-1.573,1.54-4.098,1.513-5.638-0.062
				l-0.681-0.695c-1.539-1.574-1.514-4.097,0.061-5.638l7.566-7.405c1.575-1.54,4.098-1.512,5.638,0.062L73.606,140.334z"/>
			<path fill="#FFEDE1" d="M66.465,147.649c1.588,1.706,1.538,4.134-0.168,5.722l-5.237,5.125c-2.65-2.749-4.168-4.684-6.454-6.93
				l5.148-4.903c1.706-1.588,4.42-1.473,6.008,0.233L66.465,147.649z"/>
			
				<rect x="64.391" y="140.524" transform="matrix(0.7147 -0.6994 0.6994 0.7147 -83.5586 88.3333)" fill="#FFFFFF" width="4.231" height="12.15"/>
			
				<rect x="66.253" y="140.456" transform="matrix(0.7146 -0.6995 0.6995 0.7146 -83.5013 88.3898)" fill="#CCCCCC" width="0.647" height="12.151"/>
			
				<rect x="65.386" y="136.607" transform="matrix(0.7147 -0.6994 0.6994 0.7147 -80.0281 89.8726)" fill="#363651" width="9.529" height="12.852"/>
			<path fill="#E5BC9C" d="M61.006,146.993c0.429,0.443,0.418,1.149-0.025,1.579l-7.606,7.261c-0.443,0.429-1.15,0.417-1.58-0.026
				l0,0c-0.428-0.442-0.417-1.15,0.026-1.577l7.606-7.263C59.871,146.538,60.577,146.549,61.006,146.993L61.006,146.993z"/>
			<path fill="#FFEDE1" d="M62.319,148.897c0.438,0.435,0.44,1.141,0.005,1.579l-7.461,7.409c-0.435,0.438-1.143,0.44-1.58,0.007
				l0,0c-0.437-0.435-0.44-1.142-0.005-1.579l7.462-7.41C61.173,148.466,61.88,148.463,62.319,148.897L62.319,148.897z"/>
			<path fill="#FFEDE1" d="M64.236,150.385c0.438,0.435,0.44,1.141,0.007,1.579l-7.463,7.41c-0.435,0.436-1.141,0.44-1.578,0.003
				l0,0c-0.437-0.433-0.44-1.14-0.006-1.577l7.462-7.409C63.092,149.954,63.799,149.95,64.236,150.385L64.236,150.385z"/>
			<path fill="#FFEDE1" d="M67.231,150.892c0.434,0.438,0.398,1.177-0.079,1.649l-8.189,8c-0.478,0.473-1.217,0.5-1.651,0.061l0,0
				c-0.433-0.436-0.397-1.175,0.08-1.647l8.191-8.001C66.059,150.48,66.796,150.453,67.231,150.892L67.231,150.892z"/>
			<path fill="#FFEDE1" d="M58.351,149.492c0.946,0.967,1.327,1.757,2.291,0.813c0.966-0.945,1.979-2.459,1.059-3.45
				c-1.796-1.935-2.575,0.083-4.602-0.203C55.761,146.463,57.405,148.526,58.351,149.492z"/>
			<circle fill="#363651" cx="69.234" cy="151.114" r="0.396"/>
			
				<rect x="64.623" y="142.157" transform="matrix(0.715 -0.6991 0.6991 0.715 -85.1517 87.5691)" fill="#CCCCCC" width="0.429" height="12.151"/>
			<path fill="#FFD8B8" d="M44.122,141.183c-1.405,1.696-1.17,4.208,0.526,5.613l8.148,6.757c1.695,1.405,4.208,1.171,5.613-0.523
				l0.623-0.751c1.405-1.695,1.17-4.208-0.524-5.613l-8.15-6.758c-1.694-1.405-4.206-1.17-5.613,0.524L44.122,141.183z"/>
			<path fill="#FFD8B8" d="M51.841,147.888c-1.441,1.829-1.192,4.244,0.638,5.688l5.642,4.678c2.414-2.958,3.767-5.011,5.86-7.437
				l-5.534-4.465c-1.831-1.442-4.525-1.103-5.968,0.725L51.841,147.888z"/>
			
				<rect x="49.597" y="140.769" transform="matrix(-0.7699 -0.6381 0.6381 -0.7699 -2.1781 292.9037)" fill="#FFFFFF" width="4.231" height="12.15"/>
			
				<rect x="51.315" y="140.706" transform="matrix(-0.7698 -0.6383 0.6383 -0.7698 -2.3072 292.7308)" fill="#CCCCCC" width="0.646" height="12.151"/>
			
				<rect x="43.024" y="137.164" transform="matrix(-0.7698 -0.6382 0.6382 -0.7698 -7.0666 284.6299)" fill="#363651" width="9.528" height="12.851"/>
			<path fill="#FFD8B8" d="M57.227,146.783c-0.39,0.477-0.322,1.18,0.155,1.571l8.177,6.612c0.476,0.392,1.18,0.321,1.571-0.156l0,0
				c0.392-0.476,0.322-1.18-0.156-1.57l-8.176-6.611C58.321,146.238,57.618,146.307,57.227,146.783L57.227,146.783z"/>
			<path fill="#FFD8B8" d="M56.076,148.789c-0.402,0.471-0.345,1.173,0.124,1.574l8.045,6.77c0.469,0.402,1.174,0.346,1.574-0.123
				l0,0c0.399-0.469,0.344-1.174-0.124-1.573l-8.045-6.772C57.181,148.266,56.476,148.321,56.076,148.789L56.076,148.789z"/>
			<path fill="#FFD8B8" d="M54.287,150.429c-0.401,0.47-0.345,1.174,0.124,1.575l8.046,6.771c0.468,0.4,1.173,0.345,1.574-0.125l0,0
				c0.399-0.468,0.343-1.173-0.126-1.573l-8.045-6.771C55.393,149.905,54.687,149.96,54.287,150.429L54.287,150.429z"/>
			<path fill="#FFD8B8" d="M51.344,151.18c-0.396,0.472-0.301,1.206,0.214,1.637l8.82,7.301c0.514,0.431,1.253,0.398,1.648-0.074
				l0,0c0.397-0.473,0.301-1.205-0.214-1.637l-8.82-7.301C52.478,150.674,51.74,150.708,51.344,151.18L51.344,151.18z"/>
			<circle fill="#363651" cx="49.366" cy="151.567" r="0.397"/>
			
				<rect x="53.295" y="142.258" transform="matrix(-0.7688 -0.6395 0.6395 -0.7688 -0.2141 296.5896)" fill="#CCCCCC" width="0.431" height="12.152"/>
			<path fill="#FFEDE1" d="M62.034,147.342c-0.087,0.552-0.605,0.931-1.158,0.843l-4.214-0.682
				c-0.552-0.087-0.929-0.607-0.843-1.158l0,0c0.087-0.552,0.606-0.931,1.158-0.843l4.214,0.683
				C61.744,146.272,62.121,146.791,62.034,147.342L62.034,147.342z"/>
			<path fill="#FFEDE1" d="M57.081,145.542c0.54,0.149,0.855,0.707,0.707,1.246l-1.154,4.11c-0.149,0.54-0.708,0.855-1.247,0.707
				l0,0c-0.54-0.15-0.856-0.707-0.707-1.246l1.155-4.109C55.984,145.709,56.542,145.394,57.081,145.542L57.081,145.542z"/>
			<path fill="#FFEDE1" d="M60.164,157.772c0.434,0.438,0.399,1.176-0.079,1.648l-1.123,1.12c-0.478,0.473-1.217,0.5-1.651,0.061
				l0,0c-0.433-0.436-0.397-1.175,0.08-1.647l1.123-1.121C58.992,157.361,59.729,157.333,60.164,157.772L60.164,157.772z"/>
			<path fill="#FFEDE1" d="M58.026,156.562c0.434,0.438,0.398,1.176-0.079,1.648l-1.122,1.12c-0.477,0.473-1.216,0.5-1.65,0.062l0,0
				c-0.434-0.438-0.398-1.177,0.08-1.649l1.124-1.12C56.854,156.15,57.591,156.122,58.026,156.562L58.026,156.562z"/>
			<path fill="#FFEDE1" d="M56.108,155.072c0.434,0.439,0.398,1.177-0.079,1.649l-1.122,1.121c-0.477,0.473-1.216,0.5-1.649,0.061
				l0,0c-0.435-0.438-0.399-1.176,0.079-1.648l1.124-1.12C54.936,154.663,55.674,154.635,56.108,155.072L56.108,155.072z"/>
			<path fill="#FFEDE1" d="M54.637,153.036c0.434,0.438,0.398,1.176-0.08,1.649l-1.123,1.121c-0.476,0.472-1.215,0.499-1.648,0.061
				l0,0c-0.435-0.438-0.398-1.177,0.079-1.648l1.123-1.12C53.464,152.626,54.202,152.598,54.637,153.036L54.637,153.036z"/>
		</g>
		<g>
			<path fill="#141419" d="M105.918,161.327c0,0.607-0.493,1.1-1.101,1.1l0,0c-0.608,0-1.102-0.492-1.102-1.1v-15.37
				c0-0.608,0.494-1.101,1.102-1.101l0,0c0.607,0,1.101,0.493,1.101,1.101V161.327z"/>
			<path fill="#141419" d="M89.316,150.684c-0.052-0.104-0.008-0.229,0.096-0.28l6.214-3.051c0.104-0.051,0.229-0.007,0.281,0.096
				l0,0c0.051,0.104,0.008,0.229-0.096,0.281l-6.213,3.05C89.493,150.831,89.367,150.788,89.316,150.684L89.316,150.684z"/>
			<path fill="#363651" d="M114.359,138.389c0.556,1.13,0.089,2.497-1.042,3.051l-15.189,7.458c-1.13,0.554-2.497,0.088-3.051-1.042
				l0,0c-0.554-1.13-0.089-2.497,1.042-3.052l15.19-7.457C112.439,136.792,113.805,137.259,114.359,138.389L114.359,138.389z"/>
			<circle fill="#F7F7F7" cx="113.513" cy="138.805" r="4.79"/>
			<path fill="#F2F2F2" d="M106.346,143.284l-4.425,2.173c-0.744,0.365-1.051,1.264-0.686,2.008l7.12-3.496
				C107.989,143.225,107.089,142.919,106.346,143.284z"/>
			<circle fill="#F2F2F2" cx="104.794" cy="145.717" r="1.285"/>
			<circle fill="#363651" cx="104.794" cy="145.716" r="0.618"/>
			<circle fill="#BFBFBF" cx="104.795" cy="145.717" r="0.339"/>
			<path fill="#4A4A77" d="M110.73,142.712c0.243,0.496,0.039,1.096-0.458,1.34l0,0c-0.496,0.243-1.096,0.038-1.339-0.458
				l-2.019-4.112c-0.244-0.498-0.04-1.097,0.458-1.34l0,0c0.496-0.244,1.096-0.04,1.339,0.458L110.73,142.712z"/>
			<path fill="#4A4A77" d="M95.717,148.399c0.081,0.166,0.013,0.365-0.153,0.447l0,0c-0.166,0.081-0.366,0.013-0.446-0.151
				l-0.679-1.383c-0.081-0.166-0.013-0.365,0.153-0.446l0,0c0.165-0.082,0.365-0.013,0.446,0.153L95.717,148.399z"/>
		</g>
		<g>
			<circle fill="#332B25" cx="247.034" cy="135.19" r="0.994"/>
			<circle fill="#332B25" cx="237.821" cy="135.19" r="0.993"/>
			<path fill="#332B25" d="M242.397,140.752c-2.77,0-5.023-2.254-5.023-5.023s2.254-5.023,5.023-5.023s5.022,2.253,5.022,5.023
				S245.167,140.752,242.397,140.752z M242.397,131.418c-2.378,0-4.312,1.934-4.312,4.311c0,2.377,1.934,4.311,4.312,4.311
				c2.377,0,4.311-1.934,4.311-4.311C246.708,133.352,244.774,131.418,242.397,131.418z"/>
			<g>
				<path fill="#843500" d="M260.843,159.468c0,0.977-0.792,1.769-1.769,1.769H225.72c-0.978,0-1.769-0.792-1.769-1.769v-21.969
					c0-0.977,0.791-1.768,1.769-1.768h33.354c0.977,0,1.769,0.792,1.769,1.768V159.468z"/>
				<path fill="#ED6000" d="M259.074,161.778H225.72c-1.274,0-2.311-1.036-2.311-2.311v-21.969c0-1.274,1.036-2.311,2.311-2.311
					h33.354c1.273,0,2.311,1.037,2.311,2.311v21.969C261.385,160.742,260.348,161.778,259.074,161.778z M225.72,136.272
					c-0.677,0-1.227,0.55-1.227,1.227v21.969c0,0.677,0.55,1.227,1.227,1.227h33.354c0.676,0,1.227-0.55,1.227-1.227v-21.969
					c0-0.677-0.551-1.227-1.227-1.227H225.72z"/>
			</g>
			<g>
				<path fill="#AA5217" d="M260.843,152.965c0,0.977-0.792,1.769-1.769,1.769H225.72c-0.978,0-1.769-0.792-1.769-1.769v-15.466
					c0-0.977,0.791-1.768,1.769-1.768h33.354c0.977,0,1.769,0.792,1.769,1.768V152.965z"/>
				<path fill="#EF8800" d="M259.074,155.274H225.72c-1.274,0-2.311-1.035-2.311-2.31v-15.466c0-1.274,1.036-2.311,2.311-2.311
					h33.354c1.273,0,2.311,1.037,2.311,2.311v15.466C261.385,154.239,260.348,155.274,259.074,155.274z M225.72,136.272
					c-0.677,0-1.227,0.55-1.227,1.227v15.466c0,0.676,0.55,1.227,1.227,1.227h33.354c0.676,0,1.227-0.551,1.227-1.227v-15.466
					c0-0.677-0.551-1.227-1.227-1.227H225.72z"/>
			</g>
			<path fill="#FFFFFF" d="M243.895,156.603c0,0.897-0.728,1.626-1.626,1.626l0,0c-0.898,0-1.626-0.729-1.626-1.626v-2.846
				c0-0.897,0.728-1.625,1.626-1.625l0,0c0.898,0,1.626,0.728,1.626,1.625V156.603z"/>
			<path fill="#DBDBDB" d="M243.255,156.043c0,0.545-0.441,0.987-0.986,0.987l0,0c-0.546,0-0.986-0.442-0.986-0.987v-1.726
				c0-0.546,0.44-0.988,0.986-0.988l0,0c0.545,0,0.986,0.442,0.986,0.988V156.043z"/>
		</g>
	</g>
	<g>
		<path fill="#FFFFFF" d="M150.047,240.154c0,0.909-0.737,1.646-1.646,1.646h-12.908c-0.909,0-1.647-0.737-1.647-1.646l0,0
			c0-0.91,0.738-1.647,1.647-1.647h12.908C149.31,238.507,150.047,239.244,150.047,240.154L150.047,240.154z"/>
		<path fill="#FFFFFF" d="M144.717,227.45h-5.542c-0.044,4.896-1.458,9.169-2.783,11.602h11.109
			C146.177,236.619,144.763,232.347,144.717,227.45z"/>
		<path fill="#FFFFFF" d="M146.346,227.775c0,0.622-0.506,1.127-1.128,1.127h-6.542c-0.622,0-1.126-0.505-1.126-1.127l0,0
			c0-0.623,0.505-1.128,1.126-1.128h6.542C145.839,226.647,146.346,227.152,146.346,227.775L146.346,227.775z"/>
		<circle fill="#FFFFFF" cx="141.947" cy="223.933" r="4.167"/>
		<rect x="139.122" y="228.902" fill="#D6D6D6" width="5.674" height="0.352"/>
		<polygon fill="#D6D6D6" points="145.124,226.645 138.762,226.645 138.512,226.293 145.381,226.293 		"/>
		<polygon fill="#D6D6D6" points="147.193,238.507 136.683,238.507 136.844,238.156 147.049,238.156 		"/>
	</g>
	<path fill="#3E4260" d="M175.043,225.49c-4.479-4.093-11.459-3.779-15.554,0.702c-3.893,4.262-3.796,10.777,0.073,14.927
		c-0.464,0.093-0.903,0.326-1.247,0.701l-14.423,15.597c-0.859,0.939-0.792,2.396,0.146,3.254c0.94,0.859,2.399,0.794,3.257-0.146
		l14.422-15.595c0.431-0.471,0.628-1.072,0.6-1.663c4.351,2.39,9.938,1.602,13.43-2.222
		C179.842,236.563,179.524,229.585,175.043,225.49z M174.45,239.861c-3.442,3.768-9.307,4.034-13.075,0.59
		c-3.768-3.442-4.031-9.307-0.589-13.074c3.44-3.767,9.306-4.032,13.073-0.591C177.629,230.229,177.893,236.093,174.45,239.861z"/>
</g>
</svg>
