<?xml version="1.0" encoding="utf-8"?>
<!-- Generator: Adobe Illustrator 16.0.0, SVG Export Plug-In . SVG Version: 6.00 Build 0)  -->
<!DOCTYPE svg PUBLIC "-//W3C//DTD SVG 1.1//EN" "http://www.w3.org/Graphics/SVG/1.1/DTD/svg11.dtd">
<svg version="1.1" id="Layer_1" xmlns="http://www.w3.org/2000/svg" xmlns:xlink="http://www.w3.org/1999/xlink" x="0px" y="0px"
	 width="450px" height="450px" viewBox="0 0 450 450" enable-background="new 0 0 450 450" xml:space="preserve">
<g>
	<g>
		<path fill="#FFCF9F" d="M55.131,43.317h0.046c1.272,0,2.304-1.031,2.304-2.304V22.284c0-1.272-1.032-2.304-2.304-2.304h-0.046
			c-1.272,0-2.304,1.032-2.304,2.304v18.729C52.827,42.286,53.858,43.317,55.131,43.317z"/>
		<path fill="#FFCF9F" d="M59.659,44.212l0.047,0.001c1.272,0.036,2.332-0.967,2.367-2.239l0.523-18.722
			c0.036-1.272-0.966-2.332-2.238-2.368l-0.046-0.001c-1.272-0.035-2.332,0.967-2.368,2.239l-0.523,18.722
			C57.385,43.116,58.387,44.176,59.659,44.212z"/>
		<path fill="#FFCF9F" d="M50.666,43.33l0.046-0.001c1.271-0.045,2.266-1.113,2.221-2.384L52.33,23.987
			c-0.045-1.271-1.113-2.266-2.385-2.22l-0.046,0.001c-1.271,0.045-2.266,1.113-2.22,2.384l0.603,16.957
			C48.327,42.381,49.394,43.375,50.666,43.33z"/>
		<path fill="#FFCF9F" d="M46.578,43.301l0.041-0.005c1.122-0.137,1.92-1.157,1.783-2.279l-1.49-12.195
			c-0.137-1.122-1.157-1.92-2.279-1.783l-0.041,0.005c-1.122,0.137-1.92,1.158-1.783,2.279l1.49,12.196
			C44.436,42.64,45.456,43.438,46.578,43.301z"/>
		<path fill="#F5C08C" d="M59.563,80.8V54.284c2.283-0.825,4.038-2.622,4.608-4.852c0.127-0.507,0.201-1.036,0.201-1.575v-3.186
			l-2.114-0.613l-0.062-6.493c-4.776-1.218-13.468-0.244-18.045,2.487v5.984c0,4.303,1.479,7.524,3.118,8.792V80.8H59.563z"/>
		<path fill="#FFCF9F" d="M64.011,37.049c-0.903,1.379-2.065,3.917-2.065,7.165c-3.826-2.252-8.714-0.07-8.63,6.116
			C53.305,50.585,53.072,80.8,53.072,80.8h6.491l0.001-26.155c5.991-0.794,6.641-6.027,7.001-9.094
			c0.315-2.679,0.507-5.213,1.777-6.786C71.248,35.169,66.42,33.371,64.011,37.049z"/>
		<rect x="46.157" y="56.377" fill="#EDEDED" width="14.695" height="7.687"/>
		<rect x="45.348" y="63.303" fill="#3C3C3B" width="16.499" height="29.218"/>
		<g>
			<circle fill="#EDEDED" cx="47.821" cy="72.361" r="0.929"/>
			<circle fill="#EDEDED" cx="47.821" cy="69.348" r="0.93"/>
			<circle fill="#EDEDED" cx="47.821" cy="66.36" r="0.929"/>
		</g>
	</g>
	<g>
		<path fill="#FFD6AE" d="M81.255,52.23h0.038c1.042,0,1.886-0.845,1.886-1.887V35.006c0-1.042-0.844-1.887-1.886-1.887h-0.038
			c-1.042,0-1.887,0.845-1.887,1.887v15.337C79.368,51.385,80.213,52.23,81.255,52.23z"/>
		<path fill="#FFD6AE" d="M84.963,52.962l0.038,0.001c1.042,0.029,1.909-0.792,1.938-1.833L87.368,35.8
			c0.029-1.042-0.792-1.91-1.833-1.938l-0.038-0.001c-1.042-0.029-1.909,0.792-1.938,1.833L83.13,51.024
			C83.101,52.065,83.921,52.934,84.963,52.962z"/>
		<path fill="#FFD6AE" d="M77.599,52.241l0.038-0.001c1.041-0.037,1.855-0.911,1.818-1.953l-0.494-13.885
			c-0.037-1.042-0.912-1.855-1.953-1.818l-0.038,0.001c-1.042,0.037-1.855,0.911-1.818,1.952l0.494,13.886
			C75.683,51.463,76.557,52.278,77.599,52.241z"/>
		<path fill="#FFD6AE" d="M74.251,52.217l0.034-0.004c0.918-0.112,1.572-0.948,1.46-1.867l-1.22-9.986
			c-0.112-0.919-0.948-1.572-1.867-1.46l-0.034,0.004c-0.918,0.112-1.572,0.948-1.46,1.866l1.22,9.987
			C72.497,51.675,73.333,52.329,74.251,52.217z"/>
		<path fill="#F7C99C" d="M84.884,82.923V61.21c1.869-0.675,3.306-2.147,3.773-3.973c0.104-0.415,0.165-0.848,0.165-1.29v-2.608
			l-1.731-0.502l-0.05-5.317c-3.912-0.997-11.028-0.199-14.776,2.037v4.901c0,3.523,1.211,6.161,2.553,7.199v21.266H84.884z"/>
		<path fill="#FFD6AE" d="M88.526,47.097c-0.739,1.129-1.691,3.208-1.691,5.868c-3.132-1.845-7.136-0.058-7.066,5.008
			c-0.009,0.209-0.2,24.951-0.2,24.951h5.315l0.001-21.417c4.906-0.65,5.438-4.935,5.733-7.447c0.258-2.193,0.416-4.269,1.456-5.556
			C94.452,45.558,90.499,44.085,88.526,47.097z"/>
		<rect x="73.907" y="62.924" fill="#EDEDED" width="12.033" height="6.294"/>
		<rect x="73.244" y="68.595" fill="#634E42" width="13.51" height="23.925"/>
		<g>
			<circle fill="#EDEDED" cx="75.269" cy="76.013" r="0.761"/>
			<circle fill="#EDEDED" cx="75.269" cy="73.546" r="0.761"/>
			<circle fill="#EDEDED" cx="75.269" cy="71.099" r="0.761"/>
		</g>
	</g>
	<g>
		<path fill="#D1A06F" d="M29.038,55.229h0.036c0.964,0,1.746-0.782,1.746-1.746V39.289c0-0.964-0.782-1.746-1.746-1.746h-0.036
			c-0.964,0-1.746,0.782-1.746,1.746v14.195C27.292,54.448,28.073,55.229,29.038,55.229z"/>
		<path fill="#D1A06F" d="M32.47,55.908l0.035,0.001c0.964,0.027,1.768-0.732,1.794-1.697l0.396-14.189
			c0.027-0.964-0.732-1.768-1.697-1.794l-0.035-0.001C32,38.201,31.197,38.96,31.17,39.924l-0.396,14.189
			C30.746,55.078,31.506,55.881,32.47,55.908z"/>
		<path fill="#D1A06F" d="M25.654,55.24l0.035-0.001c0.964-0.034,1.717-0.843,1.683-1.807L26.915,40.58
			c-0.034-0.964-0.843-1.717-1.807-1.683l-0.035,0.001c-0.964,0.034-1.717,0.843-1.683,1.807l0.457,12.852
			C23.881,54.521,24.69,55.274,25.654,55.24z"/>
		<path fill="#D1A06F" d="M22.556,55.218l0.031-0.004c0.85-0.104,1.455-0.877,1.351-1.728l-1.129-9.243
			c-0.104-0.85-0.877-1.455-1.728-1.351l-0.031,0.004c-0.85,0.104-1.455,0.877-1.351,1.727l1.129,9.243
			C20.932,54.716,21.706,55.321,22.556,55.218z"/>
		<path fill="#C7935F" d="M32.396,83.638V63.542c1.73-0.625,3.06-1.987,3.493-3.677c0.096-0.384,0.152-0.785,0.152-1.193v-2.414
			l-1.603-0.465l-0.046-4.921c-3.62-0.923-10.207-0.184-13.676,1.885v4.536c0,3.262,1.121,5.702,2.363,6.664v19.683H32.396z"/>
		<path fill="#D1A06F" d="M35.768,50.479c-0.685,1.045-1.565,2.969-1.565,5.431c-2.899-1.708-6.604-0.054-6.54,4.635
			c-0.009,0.194-0.186,23.093-0.186,23.093h4.919l0.001-19.823c4.541-0.602,5.033-4.568,5.306-6.893
			c0.239-2.03,0.385-3.951,1.348-5.143C41.252,49.055,37.594,47.691,35.768,50.479z"/>
		<rect x="22.237" y="65.128" fill="#EDEDED" width="11.138" height="5.826"/>
		<rect x="21.624" y="70.376" fill="#11436E" width="12.505" height="22.144"/>
		<g>
			<circle fill="#EDEDED" cx="23.498" cy="77.242" r="0.705"/>
			<circle fill="#EDEDED" cx="23.498" cy="74.958" r="0.704"/>
			<circle fill="#EDEDED" cx="23.498" cy="72.694" r="0.705"/>
		</g>
	</g>
</g>
<g>
	<g>
		<path fill="#F2C28D" d="M168.75,35.247c-0.111,0-0.749,0.006-4.504,0.056l-0.146,24.992h9.302l-0.146-24.992
			C169.499,35.253,168.861,35.247,168.75,35.247z"/>
		<polygon fill="#FFFFFF" points="164.202,60.294 162.042,40.884 164.208,39.282 168.75,42.542 173.292,39.282 175.458,40.884 
			173.298,60.294 		"/>
		<path fill="#61554E" d="M168.75,60.284l-5.446-20.378l-1.261,0.978l-7.165,3.236c-2.302,0.755-3.836,2.883-3.836,5.296v10.878
			h35.417V49.417c0-2.413-1.534-4.542-3.836-5.296l-7.165-3.236l-1.261-0.978L168.75,60.284z"/>
		<polygon fill="#B82922" points="167.667,45.594 167.318,42.438 168.641,42.505 168.75,42.5 168.859,42.505 170.182,42.438 
			169.833,45.594 		"/>
		<polygon fill="#F6F6F6" points="165.906,45.594 162.336,40.434 163.304,39.906 164.208,39.282 168.75,42.542 		"/>
		<polygon fill="#F6F6F6" points="171.593,45.594 175.164,40.434 174.196,39.906 173.292,39.282 168.75,42.542 		"/>
		<polygon fill="#C92D25" points="168.75,57.132 166.858,56.427 167.667,45.594 169.833,45.594 170.642,56.427 		"/>
		<polygon fill="#A18D81" points="168.75,56.833 163.304,39.906 163.304,39.906 158.938,42.286 159.966,46.191 162.376,45.962 
			160.388,47.407 168.748,60.294 168.75,60.276 168.752,60.294 177.112,47.407 175.124,45.962 177.534,46.191 178.562,42.286 
			174.196,39.906 174.196,39.906 		"/>
		<path fill="#FFD2A1" d="M177.708,24.784c-0.16-0.026-0.322-0.004-0.48,0.055v-3.846c0-3.169-2.569-5.739-5.739-5.739h-5.481
			c-3.169,0-5.739,2.569-5.739,5.739v3.846c-0.159-0.059-0.32-0.082-0.48-0.055c-0.845,0.138-0.987,1.497-0.74,3.021
			c0.199,1.236,0.479,2.191,1.152,2.446c0.158,0.062,0.323,0.082,0.48,0.055c0.049-0.009,0.095-0.027,0.142-0.043
			c0.373,1.755,0.868,3.144,1.5,4.072c0.749,1.099,1.326,1.925,1.862,2.547c1.216,1.409,2.22,1.754,4.524,1.754
			c0.011,0,0.022,0,0.033,0c0.002,0,0.005,0,0.008,0c0.002,0,0.005,0,0.007,0c0.011,0,0.022,0,0.033,0
			c2.583,0,3.03-0.022,4.524-1.754c0.536-0.622,1.113-1.448,1.861-2.547c0.632-0.928,1.127-2.317,1.5-4.072
			c0.047,0.016,0.093,0.034,0.142,0.043c0.158,0.027,0.323,0.007,0.481-0.055c0.673-0.254,0.952-1.209,1.151-2.446
			C178.695,26.28,178.552,24.921,177.708,24.784z"/>
		<path fill="#3C3C3B" d="M168.748,13.689c-0.003,0-0.005,0-0.008,0c-3.663,0-5.494,0.629-7.325,2.572
			c-1.266,1.343-1.964,3.132-1.896,4.979l0.268,3.543c0.46-0.075,0.934,0.227,1.312,0.769v-4.106c0-1.799,1.456-3.255,3.255-3.255
			h8.787c1.799,0,3.255,1.456,3.255,3.255v4.106c0.378-0.542,0.852-0.844,1.312-0.769l0.268-3.543
			c0.068-1.847-0.629-3.636-1.896-4.979c-1.831-1.942-3.663-2.572-7.325-2.572C168.752,13.689,168.75,13.689,168.748,13.689z"/>
		<path fill="#3C3C3B" d="M177.619,21.928c-5.062-0.118-10.809,1.058-15.375-2.228c-1.749-0.979-0.491-2.73-0.491-2.73h13.734
			L177.619,21.928z"/>
	</g>
	<rect x="146.595" y="63.328" fill="#E8B97F" width="44.31" height="35.482"/>
	<rect x="152.23" y="68.964" fill="#D4A974" width="33.038" height="29.847"/>
	<rect x="146.595" y="63.328" opacity="0.1" fill="#1D1D1B" width="44.31" height="3.847"/>
	<rect x="143.589" y="59.938" fill="#F5C386" width="50.321" height="5.134"/>
	<g>
		<path fill="#3C3C3B" d="M177.979,59.938h-1V54.28c0-1.813-0.516-3.579-1.491-5.107l-4.895-7.672l0.843-0.538l4.895,7.672
			c1.078,1.689,1.648,3.642,1.648,5.646V59.938z"/>
		<path fill="#3C3C3B" d="M173.149,42.146c0.37,0.591,0.191,1.37-0.399,1.74l0,0c-0.591,0.37-1.37,0.191-1.739-0.399l-1.424-2.272
			c-0.37-0.591-0.191-1.37,0.399-1.74l0,0c0.591-0.37,1.37-0.191,1.739,0.399L173.149,42.146z"/>
	</g>
</g>
<g>
	<path fill="#DADADA" d="M282.99,138.514c7.022,0,12.714,3.864,12.714,8.631c0,2.095-1.101,4.014-2.929,5.509l2.985,6.729
		l-6.685-4.66c-1.808,0.67-3.881,1.052-6.086,1.052c-7.021,0-12.714-3.864-12.714-8.63S275.969,138.514,282.99,138.514z"/>
	<g>
		<path fill="#EDEDED" d="M280.101,137.325c-7.021,0-12.714,3.864-12.714,8.63c0,2.095,1.101,4.015,2.929,5.51l-3.582,7.639
			l7.281-5.57c1.808,0.67,3.881,1.053,6.086,1.053c7.021,0,12.714-3.864,12.714-8.631
			C292.814,141.189,287.122,137.325,280.101,137.325z"/>
		<g>
			<circle fill="#3C3C3B" cx="276.014" cy="147.123" r="0.906"/>
			<circle fill="#3C3C3B" cx="279.774" cy="147.123" r="0.906"/>
			<circle fill="#3C3C3B" cx="283.534" cy="147.123" r="0.906"/>
		</g>
	</g>
	<g>
		<path fill="#F2C28D" d="M261.613,199.081l-0.14-23.697c-3.726-0.049-4.357-0.055-4.468-0.055s-0.743,0.006-4.469,0.055
			l-0.139,23.697H261.613z"/>
		<polygon fill="#FFFFFF" points="252.494,200.175 250.352,180.92 252.5,179.332 257.006,182.565 261.511,179.332 263.659,180.92 
			261.517,200.175 		"/>
		<path fill="#61554E" d="M257.006,200.165l-5.403-20.215l-1.251,0.97l-7.107,3.21c-2.283,0.749-3.806,2.86-3.806,5.254v10.791
			h35.134v-10.791c0-2.394-1.522-4.505-3.806-5.254l-7.107-3.21l-1.251-0.97L257.006,200.165z"/>
		<polygon fill="#B82922" points="255.931,185.592 255.585,182.462 256.896,182.528 257.006,182.522 257.114,182.528 
			258.426,182.462 258.08,185.592 		"/>
		<polygon fill="#F6F6F6" points="254.185,185.592 250.643,180.474 251.603,179.95 252.5,179.332 257.006,182.565 		"/>
		<polygon fill="#F6F6F6" points="259.826,185.592 263.368,180.474 262.408,179.95 261.511,179.332 257.006,182.565 		"/>
		<polygon fill="#C92D25" points="257.006,197.038 255.128,196.339 255.931,185.592 258.08,185.592 258.883,196.339 		"/>
		<polygon fill="#A18D81" points="257.006,196.741 251.603,179.95 251.603,179.95 247.272,182.311 248.292,186.185 250.683,185.957 
			248.71,187.391 257.003,200.175 257.006,200.157 257.008,200.175 265.301,187.391 263.328,185.957 265.72,186.185 
			266.739,182.311 262.408,179.95 262.408,179.95 		"/>
		<path fill="#FFD2A1" d="M265.892,164.949c-0.159-0.026-0.319-0.004-0.477,0.055v-3.815c0-3.144-2.55-5.693-5.693-5.693h-5.438
			c-3.145,0-5.693,2.549-5.693,5.693v3.815c-0.157-0.059-0.317-0.081-0.477-0.055c-0.838,0.136-0.979,1.484-0.733,2.997
			c0.197,1.226,0.475,2.174,1.143,2.426c0.156,0.062,0.32,0.082,0.477,0.055c0.048-0.009,0.094-0.027,0.141-0.043
			c0.369,1.741,0.86,3.119,1.488,4.04c0.742,1.09,1.314,1.91,1.846,2.526c1.206,1.398,2.202,1.74,4.488,1.74
			c0.011,0,0.021,0,0.032,0c0.003,0,0.005,0,0.008,0s0.005,0,0.008,0c0.011,0,0.021,0,0.032,0c2.563,0,3.005-0.022,4.487-1.74
			c0.532-0.617,1.104-1.437,1.847-2.526c0.628-0.921,1.119-2.299,1.488-4.04c0.047,0.016,0.093,0.034,0.141,0.043
			c0.156,0.027,0.32,0.007,0.477-0.055c0.668-0.252,0.945-1.2,1.143-2.426C266.87,166.434,266.729,165.085,265.892,164.949z"/>
		<path fill="#3C3C3B" d="M257.003,153.943c-0.003,0-0.005,0-0.008,0c-3.633,0-5.449,0.625-7.267,2.551
			c-1.256,1.332-1.948,3.106-1.88,4.939l0.266,3.516c0.456-0.075,0.927,0.225,1.301,0.763v-4.074c0-1.785,1.444-3.229,3.229-3.229
			h8.717c1.785,0,3.229,1.444,3.229,3.229v4.074c0.375-0.538,0.846-0.838,1.302-0.763l0.266-3.516
			c0.068-1.833-0.624-3.607-1.88-4.939c-1.817-1.927-3.634-2.551-7.267-2.551C257.008,153.943,257.006,153.943,257.003,153.943z"/>
		<path fill="#3C3C3B" d="M265.804,162.116c-5.021-0.117-10.722,1.049-15.252-2.209c-1.735-0.972-0.486-2.708-0.486-2.708h13.623
			L265.804,162.116z"/>
	</g>
	<g>
		<path fill="#E5AE71" d="M310.102,199.081l-0.139-23.697c-3.726-0.049-4.357-0.055-4.469-0.055c-0.11,0-0.742,0.006-4.468,0.055
			l-0.14,23.697H310.102z"/>
		<polygon fill="#FFFFFF" points="300.983,200.175 298.841,180.92 300.989,179.332 305.494,182.565 310,179.332 312.148,180.92 
			310.006,200.175 		"/>
		<path fill="#3C3C3B" d="M305.494,200.165l-5.402-20.215l-1.251,0.97l-7.107,3.21c-2.283,0.749-3.806,2.86-3.806,5.254v10.791
			h35.134v-10.791c0-2.394-1.522-4.505-3.806-5.254l-7.107-3.21l-1.251-0.97L305.494,200.165z"/>
		<polygon fill="#00918B" points="304.42,185.592 304.074,182.462 305.386,182.528 305.494,182.522 305.604,182.528 
			306.915,182.462 306.569,185.592 		"/>
		<polygon fill="#F6F6F6" points="302.674,185.592 299.132,180.474 300.092,179.95 300.989,179.332 305.494,182.565 		"/>
		<polygon fill="#F6F6F6" points="308.315,185.592 311.857,180.474 310.897,179.95 310,179.332 305.494,182.565 		"/>
		<polygon fill="#00A19A" points="305.494,197.038 303.617,196.339 304.42,185.592 306.569,185.592 307.372,196.339 		"/>
		<polygon fill="#575756" points="305.494,196.741 300.092,179.95 300.092,179.95 295.761,182.311 296.78,186.185 299.172,185.957 
			297.199,187.391 305.492,200.175 305.494,200.157 305.497,200.175 313.79,187.391 311.816,185.957 314.208,186.185 
			315.228,182.311 310.897,179.95 310.897,179.95 		"/>
		<path fill="#F2BD83" d="M314.381,164.949c-0.159-0.026-0.319-0.004-0.478,0.055v-3.815c0-3.144-2.549-5.693-5.692-5.693h-5.438
			c-3.145,0-5.693,2.549-5.693,5.693v3.815c-0.157-0.059-0.318-0.081-0.477-0.055c-0.838,0.136-0.979,1.484-0.734,2.997
			c0.198,1.226,0.476,2.174,1.143,2.426c0.157,0.062,0.32,0.082,0.478,0.055c0.048-0.009,0.094-0.027,0.14-0.043
			c0.37,1.741,0.861,3.119,1.488,4.04c0.743,1.09,1.315,1.91,1.847,2.526c1.206,1.398,2.202,1.74,4.488,1.74
			c0.011,0,0.021,0,0.032,0c0.003,0,0.005,0,0.008,0c0.002,0,0.005,0,0.007,0c0.011,0,0.022,0,0.033,0
			c2.562,0,3.005-0.022,4.487-1.74c0.532-0.617,1.104-1.437,1.847-2.526c0.628-0.921,1.118-2.299,1.488-4.04
			c0.046,0.016,0.092,0.034,0.141,0.043c0.156,0.027,0.32,0.007,0.477-0.055c0.668-0.252,0.945-1.2,1.143-2.426
			C315.359,166.434,315.219,165.085,314.381,164.949z"/>
		<path fill="#706F6F" d="M305.492,153.943c-0.003,0-0.005,0-0.008,0c-3.633,0-5.45,0.625-7.267,2.551
			c-1.256,1.332-1.948,3.106-1.88,4.939l0.266,3.516c0.456-0.075,0.926,0.225,1.301,0.763v-4.074c0-1.785,1.444-3.229,3.229-3.229
			h8.717c1.784,0,3.229,1.444,3.229,3.229v4.074c0.375-0.538,0.845-0.838,1.302-0.763l0.266-3.516
			c0.067-1.833-0.625-3.607-1.881-4.939c-1.816-1.927-3.633-2.551-7.267-2.551C305.497,153.943,305.494,153.943,305.492,153.943z"/>
	</g>
</g>
<g>
	<rect x="247.899" y="60.772" fill="#E8B97F" width="51.438" height="38.038"/>
	<rect x="255.476" y="65.437" fill="#3C3C3B" width="36.287" height="3.432"/>
	<g>
		<polygon fill="#F5C08C" points="270.128,42.207 267.664,51.534 273.452,46.971 		"/>
		<path fill="#DEAA78" d="M283.799,48.447l-2.956-1.315c-1.271-0.565-2.792-0.059-3.396,1.131l-0.021,0.044
			c-0.604,1.19-0.063,2.613,1.209,3.179l2.957,1.314C284.182,53.839,286.467,50.117,283.799,48.447z"/>
		<path fill="#DEAA78" d="M286.231,45.369l-2.427-0.944c-1.044-0.406-2.288,0.14-2.78,1.22l-0.018,0.04
			c-0.492,1.08-0.044,2.284,0.999,2.69l2.427,0.944C286.809,50.305,288.727,46.627,286.231,45.369z"/>
		<path fill="#E6B07C" d="M280.919,52.042l-4.52-1.815c-1.271-0.565-1.944-0.262-2.547,0.928l-0.87,0.247
			c-0.604,1.19-0.062,2.613,1.21,3.179l4.52,1.815C281.302,57.433,283.586,53.712,280.919,52.042z"/>
		<path fill="#F5C08C" d="M276.318,56.172c-0.245-0.399-2.848-3.643-2.848-3.643c-0.83-1.102-2.374-1.36-3.449-0.577l-0.04,0.029
			c-1.074,0.783-3.165-0.263-2.335,0.839l4.739,6.218C274.84,61.928,278.531,58.898,276.318,56.172z"/>
		<polygon fill="#EDEDED" points="292.449,56.133 290.189,66.356 289.725,68.468 257.429,68.468 257.894,66.356 261.653,49.321 
			267.885,50.694 268.18,50.768 268.539,50.842 271.518,51.507 272.404,51.697 272.838,51.792 274.242,52.109 282.1,53.841 		"/>
		<circle fill="#FFFFFF" cx="291.121" cy="36.267" r="0.642"/>
		<circle fill="#FFFFFF" cx="292.491" cy="34.817" r="0.642"/>
		<circle fill="#FFFFFF" cx="293.883" cy="33.345" r="0.642"/>
		<path fill="#FFCF9F" d="M282.978,34.258l0.003,0.002c0,0-11.641,2.161-12.853,7.947l0.75,2.38
			c0.571,1.815-0.062,3.889-1.594,5.219c-0.202,0.175-0.378,0.329-0.512,0.446l-0.979,0.854c-1.563,1.361-2.661,2.298-2.998,2.544
			c-1.125,0.824-1.499,2.348-0.808,3.442l0.029,0.042c0.691,1.095,2.257,1.303,3.467,0.417c2.597-1.893,5.096-3.926,7.481-6.087
			c0.003-0.002,0.006-0.005,0.009-0.008c0.386-0.345,0.883-0.332,1.381-0.355c3.018-0.142,5.407-1.31,8.411-3.456
			c4.605-3.289,4.097-5.714,4.097-5.714l12.162-4.539l-6.211-8.918L282.978,34.258z"/>
		<g>
			
				<rect x="284.92" y="32.609" transform="matrix(0.4443 0.8959 -0.8959 0.4443 194.1852 -240.692)" fill="#EDEDED" width="12.358" height="7.13"/>
			
				<rect x="295.258" y="20.187" transform="matrix(0.4498 0.8931 -0.8931 0.4498 193.568 -253.0911)" fill="#3C3C3B" width="13.897" height="20.755"/>
			<g>
				<circle fill="#EDEDED" cx="301.788" cy="36.28" r="0.763"/>
				<circle fill="#EDEDED" cx="299.58" cy="37.392" r="0.763"/>
				<circle fill="#EDEDED" cx="297.39" cy="38.495" r="0.763"/>
			</g>
		</g>
	</g>
	<rect x="247.899" y="73.798" fill="#D1A772" width="51.438" height="25.013"/>
</g>
<g>
	<polygon fill="#E6332A" points="356.978,82.429 355.448,81.658 366.71,59.318 384.361,50.72 398.01,35.833 421.968,30.737 
		422.324,32.412 398.901,37.394 385.405,52.117 367.979,60.604 	"/>
	<polygon fill="#00A19A" points="356.824,82.643 355.602,81.444 372.471,64.238 388.752,60.314 403.961,45.66 422.146,45.66 
		422.146,47.373 404.652,47.373 389.606,61.871 373.35,65.788 	"/>
	<g>
		<polygon fill="#575756" points="427.209,82.9 355.356,82.9 355.356,34.535 357.069,34.535 357.069,81.187 427.209,81.187 		"/>
		<g>
			<polygon fill="#575756" points="425.852,80.054 433.277,82.044 425.852,84.034 			"/>
		</g>
		<g>
			<polygon fill="#575756" points="358.203,35.892 356.213,28.466 354.223,35.892 			"/>
		</g>
	</g>
	<path fill="#E6332A" d="M405.757,78.428v-2.785c0-0.82-0.521-1.542-1.303-1.799l-1.38-0.623l-1.154-0.629l-0.328-0.179
		l-0.308-0.212l-0.005,0.003l-0.004-0.801c0.006-0.007,0.01-0.011,0.016-0.018c0.183-0.211,0.378-0.492,0.633-0.865
		c0.215-0.315,0.383-0.787,0.509-1.383c0.017,0.005,0.032,0.012,0.049,0.015c0.054,0.009,0.109,0.002,0.163-0.019
		c0.229-0.086,0.323-0.411,0.391-0.831c0.084-0.518,0.036-0.979-0.251-1.026l0.091-1.204c0.023-0.627-0.214-1.235-0.644-1.691
		c-0.622-0.66-1.244-0.874-2.488-0.874h-0.005c-1.244,0-1.866,0.214-2.488,0.874c-0.43,0.457-0.667,1.064-0.644,1.691l0.091,1.204
		c-0.287,0.046-0.335,0.508-0.251,1.026c0.067,0.42,0.162,0.745,0.391,0.831c0.054,0.021,0.11,0.028,0.164,0.019
		c0.017-0.003,0.032-0.009,0.048-0.015c0.127,0.596,0.295,1.068,0.51,1.383c0.254,0.373,0.45,0.654,0.632,0.865
		c0.006,0.007,0.012,0.012,0.019,0.02l-0.005,0.799l-0.005-0.003l-0.308,0.212l-0.328,0.179l-1.154,0.629l-1.38,0.623
		c-0.781,0.256-1.303,0.979-1.303,1.799v2.785H405.757z"/>
	<path fill="#00A19A" d="M421.17,78.428v-2.785c0-0.82-0.521-1.542-1.304-1.799l-1.379-0.623l-1.154-0.629l-0.328-0.179
		l-0.308-0.212l-0.005,0.003l-0.005-0.801c0.006-0.007,0.011-0.011,0.017-0.018c0.183-0.211,0.378-0.492,0.632-0.865
		c0.216-0.315,0.384-0.787,0.51-1.383c0.017,0.005,0.032,0.012,0.049,0.015c0.053,0.009,0.109,0.002,0.163-0.019
		c0.229-0.086,0.323-0.411,0.391-0.831c0.084-0.518,0.036-0.979-0.251-1.026l0.091-1.204c0.023-0.627-0.214-1.235-0.644-1.691
		c-0.622-0.66-1.244-0.874-2.488-0.874h-0.005c-1.244,0-1.866,0.214-2.488,0.874c-0.43,0.457-0.667,1.064-0.644,1.691l0.091,1.204
		c-0.287,0.046-0.335,0.508-0.251,1.026c0.067,0.42,0.162,0.745,0.391,0.831c0.054,0.021,0.11,0.028,0.163,0.019
		c0.017-0.003,0.032-0.009,0.049-0.015c0.126,0.596,0.294,1.068,0.509,1.383c0.255,0.373,0.45,0.654,0.633,0.865
		c0.006,0.007,0.012,0.012,0.018,0.02l-0.004,0.799l-0.005-0.003l-0.308,0.212l-0.328,0.179l-1.154,0.629l-1.38,0.623
		c-0.781,0.256-1.303,0.979-1.303,1.799v2.785H421.17z"/>
	<circle fill="#E6332A" cx="367.345" cy="59.961" r="2.069"/>
	<circle fill="#E6332A" cx="384.884" cy="51.418" r="2.069"/>
	<circle fill="#E6332A" cx="398.465" cy="36.6" r="2.069"/>
	<circle fill="#E6332A" cx="422.146" cy="31.574" r="2.069"/>
	<circle fill="#00A19A" cx="422.146" cy="46.517" r="2.069"/>
	<circle fill="#00A19A" cx="404.307" cy="46.517" r="2.069"/>
	<circle fill="#00A19A" cx="389.18" cy="61.093" r="2.069"/>
	<circle fill="#00A19A" cx="372.958" cy="65.231" r="2.069"/>
</g>
<g>
	<g>
		<path fill="#3C3C3B" d="M299.128,316.057h-35.756c-1.867,0-3.382-1.514-3.382-3.382v-62.85c0-1.868,1.515-3.382,3.382-3.382
			h35.756c1.867,0,3.382,1.514,3.382,3.382v62.85C302.51,314.543,300.995,316.057,299.128,316.057z"/>
		<path fill="#DADADA" d="M297.734,308.729h-32.969c-0.899,0-1.628-0.729-1.628-1.628v-56.15c0-0.898,0.729-1.628,1.628-1.628
			h32.969c0.899,0,1.628,0.729,1.628,1.628v56.15C299.362,308,298.634,308.729,297.734,308.729z"/>
		<path fill="#9D9D9C" d="M287.04,312.36c0,0.921-0.747,1.668-1.668,1.668h-8.244c-0.921,0-1.668-0.747-1.668-1.668l0,0
			c0-0.922,0.747-1.669,1.668-1.669h8.244C286.293,310.691,287.04,311.438,287.04,312.36L287.04,312.36z"/>
	</g>
	<rect x="266.292" y="253.51" fill="#FFFFFF" width="13.203" height="13.203"/>
	<rect x="266.292" y="272.162" fill="#FFFFFF" width="13.203" height="13.203"/>
	<rect x="266.292" y="290.815" fill="#FFFFFF" width="13.203" height="13.203"/>
	<rect x="282.097" y="253.51" fill="#9D9D9C" width="14.786" height="2.485"/>
	<rect x="282.097" y="258.868" fill="#9D9D9C" width="14.786" height="2.486"/>
	<rect x="282.097" y="264.227" fill="#9D9D9C" width="14.786" height="2.486"/>
	<rect x="282.097" y="272.162" fill="#9D9D9C" width="14.786" height="2.486"/>
	<rect x="282.097" y="277.521" fill="#9D9D9C" width="14.786" height="2.486"/>
	<rect x="282.097" y="282.879" fill="#9D9D9C" width="14.786" height="2.486"/>
	<rect x="282.097" y="290.815" fill="#9D9D9C" width="14.786" height="2.486"/>
	<rect x="282.097" y="296.174" fill="#9D9D9C" width="14.786" height="2.486"/>
	<rect x="282.097" y="301.532" fill="#9D9D9C" width="14.786" height="2.486"/>
	<polygon fill="#00A19A" points="276.678,269.691 272.946,278.543 270.341,273.523 267.416,273.523 273.19,284.646 279.495,269.691 
			"/>
</g>
<g>
	<g>
		<path fill="#E5AE71" d="M281.443,384.401c-0.133,0-0.898,0.008-5.407,0.067l-0.176,32.422h11.167l-0.176-32.422
			C282.343,384.409,281.577,384.401,281.443,384.401z"/>
		<polygon fill="#FFFFFF" points="275.984,416.891 273.392,391.169 275.992,389.246 281.443,393.159 286.896,389.246 
			289.496,391.169 286.903,416.891 		"/>
		<path fill="#B17F4A" d="M281.443,416.879l-6.538-26.884l-1.514,1.174l-8.602,3.885c-2.763,0.906-4.605,3.461-4.605,6.358v15.479
			h42.519v-15.479c0-2.897-1.843-5.452-4.605-6.358l-8.602-3.885l-1.514-1.174L281.443,416.879z"/>
		<path fill="#C92D25" d="M280.143,396.823l-0.417-3.789l1.587,0.08l0.131-0.006l0.132,0.006l1.587-0.08l-0.417,3.789
			C282.745,397.247,280.143,397.247,280.143,396.823z"/>
		<polygon fill="#EDEDED" points="278.03,396.823 273.744,390.628 274.905,389.995 275.992,389.246 281.443,393.159 		"/>
		<polygon fill="#EDEDED" points="284.857,396.823 289.144,390.628 287.982,389.995 286.896,389.246 281.443,393.159 		"/>
		<path fill="#D13C34" d="M281.443,414.305l-2.271-4.477l0.971-13.005c0,0.247,2.603,0.247,2.603,0l0.971,13.005L281.443,414.305z"
			/>
		<polygon fill="#996C3D" points="281.443,412.735 274.905,389.995 274.905,389.995 269.665,392.852 270.898,397.54 
			273.793,397.265 271.404,398.999 281.44,416.891 281.443,416.87 281.447,416.891 291.482,398.999 289.095,397.265 291.989,397.54 
			293.223,392.852 287.982,389.995 287.982,389.995 		"/>
		<path fill="#F2BD83" d="M292.197,371.841c-0.192-0.032-0.386-0.005-0.577,0.066v-4.617c0-3.805-3.084-6.89-6.89-6.89h-6.58
			c-3.805,0-6.89,3.085-6.89,6.89v4.617c-0.19-0.071-0.385-0.099-0.577-0.066c-1.014,0.165-1.185,1.796-0.888,3.626
			c0.239,1.484,0.575,2.631,1.383,2.937c0.189,0.074,0.388,0.099,0.577,0.065c0.059-0.011,0.113-0.032,0.17-0.052
			c0.447,2.107,1.041,3.774,1.801,4.89c0.898,1.318,1.591,2.311,2.234,3.058c1.46,1.691,2.665,2.105,5.432,2.105
			c0.013,0,0.026,0,0.039,0c0.003,0,0.006,0,0.009,0s0.006,0,0.009,0c0.014,0,0.026,0,0.04,0c3.101,0,3.637-0.026,5.431-2.105
			c0.644-0.747,1.336-1.739,2.235-3.058c0.759-1.115,1.353-2.782,1.801-4.89c0.056,0.02,0.111,0.041,0.17,0.052
			c0.189,0.033,0.388,0.009,0.577-0.065c0.808-0.306,1.144-1.452,1.383-2.937C293.382,373.637,293.212,372.006,292.197,371.841z"/>
		<path fill="#3C3C3B" d="M281.44,358.521c-0.003,0-0.006,0-0.009,0c-4.397,0-6.596,0.756-8.794,3.088
			c-1.52,1.612-2.357,3.76-2.275,5.978l0.321,4.254c0.553-0.091,1.121,0.271,1.575,0.923v-4.93c0-2.16,1.747-3.908,3.907-3.908
			h10.549c2.16,0,3.908,1.748,3.908,3.908v4.93c0.453-0.651,1.022-1.014,1.574-0.923l0.322-4.254
			c0.082-2.218-0.756-4.365-2.275-5.978c-2.199-2.332-4.397-3.088-8.795-3.088C281.446,358.521,281.443,358.521,281.44,358.521z"/>
	</g>
	<g>
		<path fill="#E6B07C" d="M258.854,414.175c-0.007-0.01-0.014-0.021-0.021-0.03c-0.554-0.853-0.207-1.955,0.714-2.483
			c3.518-2.067,5.25-2.109,8.048-4.699c0.737-0.665,1.863-0.641,2.574,0.06c0.009,0.009,0.017,0.018,0.025,0.026
			c0.71,0.699,0.704,1.848-0.074,2.558c-2.927,2.734-4.799,2.911-8.464,5.104C260.689,415.275,259.407,415.027,258.854,414.175z"/>
		<g>
			
				<ellipse transform="matrix(-0.9876 -0.1567 0.1567 -0.9876 463.5934 884.1267)" fill="#B2B2B2" cx="266.647" cy="423.79" rx="2.253" ry="1.517"/>
			<g>
				<circle fill="#3C3C3B" cx="270.53" cy="399.582" r="5.11"/>
				
					<rect x="266.407" y="404.147" transform="matrix(-0.9876 -0.1568 0.1568 -0.9876 472.3532 847.5036)" fill="#B2B2B2" width="6.413" height="1.937"/>
				
					<rect x="265.979" y="402.873" transform="matrix(-0.9876 -0.1569 0.1569 -0.9876 473.0166 844.599)" fill="#DADADA" width="7.741" height="1.508"/>
				<polygon fill="#706F6F" points="264.422,423.437 268.872,424.143 272.015,406.478 266.909,405.666 				"/>
			</g>
		</g>
		<polygon fill="#FFCF9F" points="263.092,421.815 254.409,424.904 252.948,416.34 261.631,413.251 		"/>
		<path fill="#FAC48E" d="M265.532,418.608l-0.007-0.033c-0.19-0.902,0.388-1.788,1.29-1.979l4.159-0.914
			c0.902-0.19,1.788,0.387,1.979,1.29l0.007,0.032c0.19,0.903-0.387,1.789-1.29,1.979l-4.159,0.914
			C266.608,420.088,265.723,419.511,265.532,418.608z"/>
		<path fill="#FAC48E" d="M265.488,421.843l-0.006-0.029c-0.169-0.802,0.344-1.589,1.146-1.758l3.57-0.744
			c0.802-0.169,1.589,0.345,1.758,1.146l0.006,0.029c0.169,0.802-0.344,1.589-1.146,1.758l-3.57,0.744
			C266.444,423.157,265.657,422.645,265.488,421.843z"/>
		<path fill="#FAC48E" d="M265.416,412.201l-0.013-0.031c-0.365-0.848,0.026-1.83,0.873-2.194l5.565-2.028
			c0.848-0.364,1.83,0.026,2.195,0.874l0.013,0.031c0.365,0.847-0.026,1.829-0.874,2.194l-5.565,2.027
			C266.764,413.439,265.781,413.048,265.416,412.201z"/>
		<path fill="#FAC48E" d="M265.17,415.425l-0.008-0.033c-0.203-0.899,0.361-1.794,1.261-1.997l4.92-1.575
			c0.899-0.204,1.794,0.36,1.997,1.261l0.008,0.032c0.203,0.9-0.361,1.794-1.262,1.998l-4.919,1.575
			C266.268,416.889,265.373,416.324,265.17,415.425z"/>
		<path fill="#FFCF9F" d="M261.324,410.853l6.333-1.372c0.902-0.19,1.788,0.387,1.979,1.29l0.007,0.033
			c0.19,0.902-0.387,1.788-1.29,1.979c0.903-0.19,1.789,0.387,1.979,1.289l0.007,0.033c0.19,0.902-0.387,1.789-1.289,1.979
			l-0.493,0.104c0.903-0.19,1.789,0.387,1.979,1.289l0.007,0.033c0.189,0.902-0.388,1.788-1.29,1.979l-0.532,0.112
			c0.802-0.169,1.589,0.344,1.758,1.146l0.006,0.029c0.169,0.802-0.344,1.589-1.146,1.758l-5.31,1.156
			c-2.656,0.56-5.263-1.14-5.821-3.796l-0.679-3.219C256.969,414.019,258.668,411.412,261.324,410.853z"/>
		<g>
			
				<rect x="250.768" y="417.181" transform="matrix(0.2983 0.9545 -0.9545 0.2983 580.0551 50.7979)" fill="#EDEDED" width="9.422" height="5.437"/>
			<polygon fill="#634E42" points="240.594,418.846 252.421,415.281 255.518,425.414 243.69,428.979 			"/>
			<g>
				<circle fill="#EDEDED" cx="249.646" cy="425.591" r="0.582"/>
				<circle fill="#EDEDED" cx="251.448" cy="425.04" r="0.582"/>
				<circle fill="#EDEDED" cx="253.236" cy="424.494" r="0.582"/>
			</g>
		</g>
	</g>
	<g>
		<path fill="#E6B07C" d="M303.135,414.517c0.005-0.011,0.01-0.022,0.016-0.034c0.411-0.93-0.106-1.962-1.1-2.337
			c-3.801-1.482-5.519-1.248-8.692-3.36c-0.834-0.539-1.94-0.337-2.531,0.468c-0.008,0.01-0.015,0.021-0.021,0.029
			c-0.59,0.805-0.401,1.937,0.479,2.515c3.325,2.233,5.201,2.11,9.168,3.692C301.499,415.895,302.725,415.445,303.135,414.517z"/>
		<g>
			<polygon fill="#575756" points="298.697,427.384 295.065,427.968 290.387,403.825 295.562,402.992 			"/>
			<path fill="#3C3C3B" d="M296.253,401.424l-7.073,1.139l-1.026-6.372c-0.202-1.257,0.652-2.44,1.909-2.643l2.521-0.406
				c1.257-0.202,2.439,0.652,2.643,1.91L296.253,401.424z"/>
			
				<rect x="288.734" y="401.982" transform="matrix(0.9873 -0.159 0.159 0.9873 -60.33 51.6857)" fill="#B2B2B2" width="8.255" height="1.827"/>
			
				<rect x="288.438" y="403.377" transform="matrix(0.9873 -0.159 0.159 0.9873 -60.8631 51.8236)" fill="#EDEDED" width="9.918" height="5.696"/>
		</g>
		<polygon fill="#FFCF9F" points="300.166,422.733 309.229,424.402 309.311,415.715 300.247,414.046 		"/>
		<path fill="#FAC48E" d="M297.247,419.955l0.001-0.034c0.045-0.921-0.666-1.704-1.588-1.748l-4.251-0.241
			c-0.922-0.044-1.704,0.667-1.749,1.588l-0.001,0.034c-0.045,0.921,0.666,1.704,1.588,1.748l4.251,0.241
			C296.42,421.587,297.202,420.876,297.247,419.955z"/>
		<path fill="#FAC48E" d="M297.805,423.142l0.002-0.03c0.039-0.818-0.593-1.514-1.411-1.553l-3.644-0.167
			c-0.818-0.04-1.514,0.592-1.553,1.41l-0.002,0.03c-0.039,0.818,0.593,1.513,1.411,1.553l3.644,0.167
			C297.07,424.591,297.766,423.96,297.805,423.142z"/>
		<path fill="#FAC48E" d="M296.343,413.61l0.009-0.032c0.225-0.895-0.317-1.803-1.212-2.027l-5.817-1.118
			c-0.895-0.225-1.802,0.317-2.027,1.212l-0.008,0.033c-0.226,0.894,0.316,1.802,1.211,2.027l5.817,1.117
			C295.21,415.048,296.117,414.505,296.343,413.61z"/>
		<path fill="#FAC48E" d="M297.099,416.754l0.003-0.033c0.058-0.921-0.642-1.714-1.563-1.771l-5.107-0.773
			c-0.921-0.058-1.714,0.642-1.771,1.563l-0.002,0.033c-0.058,0.921,0.642,1.714,1.563,1.771l5.107,0.773
			C296.248,418.374,297.041,417.675,297.099,416.754z"/>
		<path fill="#FFCF9F" d="M300.169,411.629l-6.471-0.348c-0.922-0.045-1.704,0.667-1.749,1.588l-0.001,0.033
			c-0.045,0.922,0.667,1.704,1.588,1.749c-0.921-0.045-1.704,0.666-1.748,1.588l-0.002,0.033c-0.044,0.922,0.667,1.704,1.588,1.749
			l0.503,0.023c-0.922-0.044-1.704,0.667-1.748,1.589l-0.002,0.033c-0.044,0.921,0.667,1.704,1.588,1.748l0.543,0.026
			c-0.818-0.039-1.514,0.592-1.553,1.41l-0.002,0.03c-0.039,0.818,0.593,1.514,1.411,1.553l5.426,0.298
			c2.711,0.131,5.014-1.962,5.144-4.673l0.158-3.286C304.973,414.063,302.88,411.76,300.169,411.629z"/>
		<g>
			
				<rect x="302.666" y="416.914" transform="matrix(-0.1427 0.9898 -0.9898 -0.1427 766.5806 175.2874)" fill="#EDEDED" width="9.423" height="5.436"/>
			<polygon fill="#3C3C3B" points="321.906,416.225 309.663,414.586 308.216,425.082 320.46,426.721 			"/>
			<g>
				<circle fill="#EDEDED" cx="314.042" cy="424.323" r="0.581"/>
				<circle fill="#EDEDED" cx="312.175" cy="424.066" r="0.582"/>
				<circle fill="#EDEDED" cx="310.323" cy="423.811" r="0.581"/>
			</g>
		</g>
		<g>
			<path fill="#30608A" d="M290.225,404.72l2.479-0.398l0.091,0.562l-0.839,0.135l0.543,3.369l-0.802,0.129l-0.543-3.369
				l-0.838,0.135L290.225,404.72z"/>
			<path fill="#30608A" d="M294.781,407.275l0.096-3.305l0.736-0.118l-0.154,4.058l-1.195,0.192l-1.42-3.804l0.809-0.131
				L294.781,407.275z"/>
		</g>
	</g>
</g>
<g>
	<path fill="#E6B07C" d="M186.748,181.615l-4.209,11.034l-8.149-3.109c-0.848,1.986-3.821,2.08-6.772,0.954l-9.52-3.709
		c0.074-6.112,1.904-11.314,4.439-17.229l6.373,2.431l1.005-2.857l0.007,0.003c0.251,0.15,5.723,3.281,6.131,3.569
		c1.554,1.095,2.531,2.853,2.779,4.795l0.06,1.121L186.748,181.615z"/>
	<path fill="#EDEDED" d="M161.906,190.367l-4.477-1.802c-0.992-0.399-1.44-1.553-0.978-2.517l8.997-18.772l6.668,2.685
		l-7.803,19.381C163.932,190.29,162.854,190.749,161.906,190.367z"/>
	
		<ellipse transform="matrix(0.9802 0.198 -0.198 0.9802 33.4035 -24.5536)" fill="#DADADA" cx="139.49" cy="154.768" rx="4.915" ry="6.565"/>
	<path fill="#9D9D9C" d="M178.084,168.763l-0.885-0.179l2.406-11.911l0.885,0.179c1.393,0.282,2.294,1.639,2.013,3.032l-1.387,6.866
		C180.834,168.143,179.477,169.044,178.084,168.763z"/>
	<polygon fill="#DADADA" points="162.143,164.735 135.845,170.71 142.319,138.661 164.236,154.375 	"/>
	<path fill="#205887" d="M176.375,169.223l-15.437-3.118c-0.637-0.129-1.049-0.75-0.921-1.387l2.253-11.152
		c0.128-0.637,0.75-1.049,1.387-0.92l15.437,3.118c0.637,0.129,1.049,0.75,0.921,1.387l-2.253,11.152
		C177.634,168.939,177.013,169.352,176.375,169.223z"/>
	<path fill="#3C3C3B" d="M136.569,170.958c-0.128,0.636-0.748,1.047-1.383,0.918l0,0c-0.636-0.128-1.047-0.748-0.918-1.384
		l6.513-32.244c0.128-0.636,0.748-1.047,1.383-0.918l0,0c0.636,0.128,1.047,0.748,0.918,1.384L136.569,170.958z"/>
	<path fill="#DADADA" d="M170.87,171.942l-6.486-2.527c-1.093-0.426-1.722-1.576-1.489-2.726l0.037-0.182l11.453,2.313l-0.273,1.351
		C173.814,171.64,172.266,172.486,170.87,171.942z"/>
	
		<rect x="175.112" y="155.247" transform="matrix(0.9802 0.198 -0.198 0.9802 35.5739 -31.6038)" fill="#3C3C3B" width="1.468" height="13.731"/>
	<g>
		<path fill="#3C3C3B" d="M167.755,162.594c-0.051,0.252-0.296,0.415-0.549,0.364l0,0c-0.252-0.051-0.415-0.297-0.364-0.549
			l0.822-4.067c0.051-0.252,0.296-0.415,0.548-0.364l0,0c0.252,0.051,0.416,0.296,0.364,0.548L167.755,162.594z"/>
		<path fill="#3C3C3B" d="M169.414,162.929c-0.051,0.252-0.296,0.415-0.548,0.364l0,0c-0.252-0.051-0.416-0.297-0.365-0.549
			l0.822-4.066c0.051-0.252,0.296-0.416,0.549-0.365l0,0c0.252,0.051,0.415,0.297,0.364,0.549L169.414,162.929z"/>
		<path fill="#3C3C3B" d="M171.072,163.264c-0.051,0.252-0.296,0.415-0.548,0.364l0,0c-0.252-0.051-0.416-0.296-0.364-0.549
			l0.821-4.066c0.051-0.252,0.297-0.416,0.549-0.364l0,0c0.252,0.051,0.415,0.296,0.364,0.548L171.072,163.264z"/>
		<path fill="#3C3C3B" d="M172.73,163.599c-0.051,0.252-0.296,0.415-0.548,0.364l0,0c-0.252-0.051-0.415-0.296-0.364-0.549
			l0.821-4.067c0.051-0.252,0.297-0.415,0.549-0.364l0,0c0.252,0.051,0.415,0.296,0.364,0.548L172.73,163.599z"/>
	</g>
	<path fill="#F5C08C" d="M163.978,173.585c1.224,0.492,2.616-0.101,3.108-1.325l0.164-0.408c0.236-0.588,0.229-1.246-0.019-1.829
		s-0.718-1.043-1.307-1.28l-4.484-1.804c-1.143-0.459-2.442,0.094-2.902,1.238l-0.337,0.839c-0.429,1.067,0.088,2.28,1.155,2.709
		L163.978,173.585z"/>
	<path fill="#F5C08C" d="M162.641,178.664c0.59,0.248,1.255,0.249,1.846,0.002s1.058-0.72,1.296-1.313l0.164-0.407
		c0.487-1.211-0.088-2.589-1.292-3.094l-5.622-2.361c-0.551-0.231-1.172-0.232-1.724-0.002c-0.551,0.23-0.987,0.672-1.21,1.226
		l-0.336,0.836c-0.424,1.056,0.077,2.257,1.126,2.698L162.641,178.664z"/>
	<path fill="#F5C08C" d="M161.262,183.545c1.224,0.492,2.616-0.101,3.108-1.325l0.164-0.408c0.236-0.588,0.229-1.246-0.019-1.829
		s-0.718-1.043-1.306-1.28l-4.485-1.803c-1.143-0.46-2.442,0.094-2.902,1.237l-0.337,0.839c-0.206,0.513-0.2,1.086,0.017,1.594
		c0.216,0.508,0.626,0.909,1.139,1.116L161.262,183.545z"/>
	<path fill="#F5C08C" d="M159.522,187.361c0.94,0.378,2.032-0.135,2.439-1.147l0.135-0.337c0.407-1.012-0.025-2.139-0.965-2.517
		l-3.444-1.385c-0.878-0.353-1.898,0.126-2.278,1.071l-0.279,0.693c-0.355,0.882,0.022,1.865,0.842,2.194L159.522,187.361z"/>
	<path fill="#FFCF9F" d="M180.666,186.045l-4.592-1.806c-7.252-1.909-6.019-8.769-6.019-8.769l-0.718-0.429
		c-0.355-0.205-0.781-0.244-1.16-0.102l-2.325,0.845c-0.809,0.295-1.696,0.25-2.476-0.117c-0.773-0.364-1.372-1.026-1.657-1.838
		l-0.167-0.474c-0.279-0.787,0.13-1.659,0.92-1.946l2.502-0.924l3.724-1.371c0.398-0.15,0.834-0.138,1.216,0.015l0.007,0.003
		c0.251,0.15,5.723,3.281,6.131,3.569c1.554,1.095,2.531,2.853,2.779,4.795l0.06,1.121l2.349,0.857l-0.006,0.037L180.666,186.045z"
		/>
	<g>
		
			<rect x="174.294" y="181.946" transform="matrix(-0.3623 0.9321 -0.9321 -0.3623 419.4321 84.4491)" fill="#EDEDED" width="13.064" height="7.538"/>
		<polygon fill="#3C3C3B" points="198.02,200.193 203.256,186.468 185.49,179.615 180.254,193.34 		"/>
		<g>
			<circle fill="#EDEDED" cx="188.361" cy="194.137" r="0.806"/>
			<circle fill="#EDEDED" cx="185.919" cy="193.205" r="0.806"/>
			<circle fill="#EDEDED" cx="183.497" cy="192.281" r="0.806"/>
		</g>
	</g>
</g>
<g>
	<g>
		<path fill="#E6332A" d="M81.295,308.704c-1.818,4.128-4.349,7.666-7.949,9.03c-1.167,0.454-2.383,0.663-3.587,0.663
			c-2.961,0-5.823-1.29-7.568-3.526c-0.282-0.344-0.528-0.712-0.737-1.105c1.683,0.258,2.273,0.099,2.715-1.879
			c0.983,1.781,5.123,3.046,7.15,1.842c2.347-1.4,3.648-3.501,4.226-5.945c0,0,0,0,0-0.013c1.02-4.324-0.184-9.692-1.708-14.128
			c0-0.012-0.012-0.036-0.012-0.049c-1.659-4.767-3.686-8.428-3.686-8.428c-6.523,3.305-14.545,1.229-20.873-1.522
			c-0.049-0.025-0.11-0.05-0.16-0.074c-4.545-3.378-6.363-18.968-8.525-32.998l17.985-0.11c2.764-0.024,5.43,1.02,7.445,2.924
			l8.059,7.567c2.396,2.249,4.017,5.209,4.631,8.452c0,0,1.978,7.261,2.678,14.104c0.196,1.88,0.455,4.005,0.688,6.216
			c0.221,2.089,0.417,4.251,0.541,6.389C82.855,300.916,82.684,305.56,81.295,308.704z"/>
		<path fill="#CC2D25" d="M81.295,308.704c-1.818,4.128-4.349,7.666-7.949,9.03c-1.167,0.454-2.383,0.663-3.587,0.663
			c-2.961,0-5.823-1.29-7.568-3.526c1.585,1.008,3.354,1.684,5.197,1.941c3.145,0.43,6.671-0.209,8.895-2.469
			c4.533-4.607,3.82-11.462,3.784-12.875c-0.111-3.342-1.954-6.585-4.767-8.391c1.327,0.233,2.727,0.024,3.931-0.565
			c0.332-0.159,0.651-0.344,0.946-0.565c0.799-0.577,1.438-1.351,1.892-2.224c0.221,2.089,0.417,4.251,0.541,6.389
			C82.855,300.916,82.684,305.56,81.295,308.704z"/>
		<path fill="#CC2D25" d="M50.744,284.258l-4.068,4.598c-1.683,1.272-4.056,0.983-5.406-0.637
			c-9.761-11.716-23.029-22.485-20.521-39.502c0.323-2.187,2.028-3.962,4.22-4.247c10.855-1.411,23.507,1.273,32.78,7.527v3.91
			C44.901,256.575,44.192,276.968,50.744,284.258z"/>
		<path fill="#E6332A" d="M57.749,251.997c-9.273-6.254-21.925-8.938-32.78-7.527c-2.09,0.272-3.722,1.902-4.151,3.948
			c2.379-6.301,26.635-0.674,31.893,9.034c1.394-0.888,3.064-1.442,5.038-1.545V251.997z"/>
		<path fill="#CC2D25" d="M81.295,308.704c-1.818,4.128-4.349,7.666-7.949,9.03c-1.167,0.454-2.383,0.663-3.587,0.663
			c-2.961,0-5.823-1.29-7.568-3.526c-0.282-0.344-0.528-0.712-0.737-1.105c1.683,0.258,2.273,0.099,2.715-1.879
			c0.983,1.781,5.123,3.046,7.15,1.842c2.347-1.4,3.648-3.501,4.226-5.945c0,0,0,0,0-0.013c1.02-4.324-0.184-9.692-1.708-14.128
			c0-0.012-0.012-0.036-0.012-0.049c-1.659-4.767-3.686-8.428-3.686-8.428c-6.523,3.305-14.545,1.229-20.873-1.522
			c-2.125-3.502-3.391-7.604-3.784-11.696c1.99,5.504,4.238,9.35,9.533,11.843c0.516,0.233,5.147,0.836,4.189-5.7
			c0.896,2.175,2.506,4.066,4.521,5.295c0.626,0.381,1.388,0.726,2.101,0.517c1.143-0.345,1.486-1.77,1.523-2.961
			c0.086-2.444-0.282-4.901-1.068-7.224c0.663,1.597,1.351,3.219,2.457,4.558c1.105,1.327,2.715,2.358,4.447,2.347
			c-0.074,2.567,2.604,7.653,6.044,11.892c1.069,1.314,2.211,2.556,3.378,3.6C82.855,300.916,82.684,305.56,81.295,308.704z"/>
		<path fill="#E8DBC8" d="M69.037,280.111c1.715,5.175,6.779,8.974,11.649,10.894c5.202,2.052,10.631,2.075,16.119,1.768
			c-6.086,1.802-12.439,3.157-18.777,1.743c-6.54-1.46-12.659-4.97-16.416-10.642C64.087,282.62,66.562,281.365,69.037,280.111z"/>
		<path fill="#E6332A" d="M69.278,281.945c-2.076,0.804-4.052,2.009-5.94,3.564c-0.384,0.316-0.958,0.23-1.212-0.198l-4.341-7.3
			l7.585-4.511l4.328,7.278C69.958,281.215,69.751,281.763,69.278,281.945z"/>
		<path fill="#CC2D25" d="M60.882,267.066c-0.274-0.473-0.541-1.098-0.198-1.522c0.335-0.417,0.985-0.306,1.498-0.156
			c2.089,0.608,4.177,1.217,6.266,1.826c0.875,0.255,1.809,0.511,2.683,0.252c0.874-0.258,1.592-1.253,1.214-2.082
			c0.07,0.786,0.138,1.592-0.063,2.355c-0.202,0.764-0.729,1.49-1.489,1.705c-0.972,0.274-1.998-0.337-2.998-0.195
			c-0.893,0.126-1.61,0.828-2.49,1.029c-0.955,0.218-1.965-0.198-2.697-0.851C61.876,268.776,61.373,267.913,60.882,267.066z"/>
	</g>
	<g>
		<polygon fill="#E8DBC8" points="32.521,292.218 34.666,296.562 39.459,297.259 35.991,300.64 36.81,305.414 32.521,303.16 
			28.234,305.414 29.053,300.64 25.584,297.259 30.378,296.562 		"/>
		<polygon fill="#E8DBC8" points="48.192,292.218 50.336,296.562 55.13,297.259 51.662,300.64 52.48,305.414 48.192,303.16 
			43.905,305.414 44.724,300.64 41.254,297.259 46.049,296.562 		"/>
		<polygon fill="#E8DBC8" points="63.863,292.218 66.007,296.562 70.801,297.259 67.333,300.64 68.151,305.414 63.863,303.16 
			59.576,305.414 60.395,300.64 56.925,297.259 61.719,296.562 		"/>
	</g>
</g>
<g>
	<g>
		<polygon fill="#E8DBC8" points="143.244,304.64 145.388,308.983 150.182,309.68 146.713,313.062 147.532,317.836 143.244,315.582 
			138.956,317.836 139.775,313.062 136.306,309.68 141.1,308.983 		"/>
		<polygon fill="#E8DBC8" points="158.915,304.64 161.059,308.983 165.853,309.68 162.384,313.062 163.203,317.836 158.915,315.582 
			154.627,317.836 155.446,313.062 151.977,309.68 156.771,308.983 		"/>
		<polygon fill="#E8DBC8" points="174.585,304.64 176.729,308.983 181.523,309.68 178.055,313.062 178.874,317.836 174.585,315.582 
			170.298,317.836 171.117,313.062 167.647,309.68 172.441,308.983 		"/>
	</g>
	<g>
		<polygon fill="#E8DBC8" points="190.109,304.64 192.253,308.983 197.046,309.68 193.578,313.062 194.396,317.836 190.109,315.582 
			185.821,317.836 186.64,313.062 183.171,309.68 187.965,308.983 		"/>
	</g>
	<g>
		<path fill="#00918B" d="M157.774,263.115l-2.06,1.257l-0.034-0.043l-8.92-13.741l-0.188-0.293
			C144.181,246.973,153.343,243.793,157.774,263.115z"/>
		<path fill="#00918B" d="M154.648,262.985c1.514,0.414,3.372-0.376,4.94-0.326c5.797,0.184,10.993,3.99,14.32,8.74
			c3.328,4.749,5.101,10.387,6.825,15.924c1.293,4.153,2.587,8.308,3.881,12.462c0.355,1.14,0.738,2.324,1.49,3.235h9.328
			c-0.576-8.433-2.027-13.752-4.352-19.822c-2.678-6.996-5.743-13.311-11.185-18.459c-3.09-2.924-6.91-5.07-11.014-6.188
			c0.322-0.192,0.643-0.385,0.965-0.577c-2.467-1.598-5.373-2.51-8.311-2.607c0.214-0.079,0.429-0.158,0.643-0.238
			c-2.596-0.619-5.417-0.237-7.755,1.051c-1.152,0.634-3.604,2.647-3.698,3.958C150.615,261.702,153.134,262.571,154.648,262.985z"
			/>
		<path fill="#00A19A" d="M162.663,303.021h29.124c-4.375-29.453-17.586-42.101-32.921-44.273l-5.454,4.117
			c1.574,4.836,2.584,7.943,3.853,12.434C159.773,284.191,162.761,292.85,162.663,303.021z"/>
		<path fill="#00918B" d="M187.652,303.021h4.134c-3.532-23.594-14.845-36.403-27.09-41.682
			C175.284,267.903,184.525,281.002,187.652,303.021z"/>
		<path fill="#00918B" d="M177.37,303.021h5.792c0.198-11.994-3.113-19.199-7.564-23.792
			C178.508,283.503,181.909,295.013,177.37,303.021z"/>
		<path fill="#00A19A" d="M169.186,276.594c0.008,0.008,0.016,0.023,0.023,0.04l-0.031,0.023c-0.158,1.753-0.9,3.325-2.03,4.542
			c-1.398,1.516-3.412,2.464-5.64,2.464c-0.758,0-1.485-0.11-2.172-0.308l-0.996,0.679l-7.883,5.363l-0.719,4.929
			c-0.363,1.904-2.132,3.215-4.06,2.994l-1.951-0.214l2.385-5.75l-4.392,5.031c-3.642-1.39-5.537-3.42-5.529-6.161
			c6.706-17.452,16.265-28.888,20.6-30.544l2.069-0.932c1.817,4.194,3.317,7.148,4.929,9.85c3.136,0.972,5.418,3.901,5.418,7.361
			C169.209,276.175,169.201,276.381,169.186,276.594z"/>
		<path fill="#00918B" d="M147.103,287.99c6.88-6.735,5.581-10.711,5.174-13.754c1.239,3.933,4.976,4.516,8.3-0.46
			C159.571,277.811,155.732,282.097,147.103,287.99z"/>
		<path fill="#00918B" d="M167.597,268.918c0.772,1.246,1.225,2.755,1.225,4.383c0,3.235-1.788,6.005-4.324,7.156
			c3.16-0.441,5.594-3.146,5.594-6.428C170.092,271.952,169.113,270.107,167.597,268.918z"/>
		<path fill="#00918B" d="M160.759,303.021h15.637c-12.892-2.932-11.07-15.998-9.249-21.821c-1.049,1.138-6.971,2.29-8.021,0.604
			l-9.271,6.587l-0.559,3.691c-0.28,2.853-3.132,3.804-3.132,3.804l0.703-6.125l-4.44,4.427c-2.811-0.119-5.364-1.785-6.236-3.867
			c0.035,2.693,1.93,4.697,5.524,6.07l4.396-5.035l-2.391,5.751l1.952,0.217c1.929,0.215,3.699-1.091,4.063-2.998l0.718-4.926
			l7.885-5.365C158.31,290.033,160.866,296.188,160.759,303.021z"/>
		<g>
			<path fill="#00A19A" d="M161.711,261.092l-3.616,1.091l-0.026-0.049l-6.55-15.016l-0.137-0.32
				C149.565,243.129,158.387,242.152,161.711,261.092z"/>
			<path fill="#00918B" d="M158.915,261.96l-0.653,0.156l-0.167,0.066l-0.026-0.049l-6.55-15.016
				C151.269,242.482,157.621,249.295,158.915,261.96z"/>
		</g>
		<path fill="#00918B" d="M158.311,270.341c-0.444-0.278-1.007-0.307-1.521-0.204c-0.514,0.104-0.995,0.324-1.481,0.519
			c-1.889,0.755-3.932,1.12-5.965,1.067c0.615,0.737,1.755,0.611,2.681,0.864c0.876,0.239,1.614,0.856,2.492,1.091
			c0.961,0.257,2.042,0.004,2.79-0.653C158.053,272.368,158.442,271.327,158.311,270.341z"/>
	</g>
</g>
<g>
	<g>
		<path fill="#E6B07C" d="M408.932,301.866l-0.117,10.059l-7.429-0.087c-0.094,1.837-2.442,2.787-5.133,2.756l-8.7-0.162
			c-1.74-4.907-1.809-9.604-1.523-15.078l5.809,0.067l-0.037-2.579h0.006c0.246,0.046,5.541,0.938,5.951,1.048
			c1.565,0.419,2.863,1.535,3.634,3.015l0.377,0.879L408.932,301.866z"/>
		<rect x="387.627" y="241.748" fill="#996C3D" width="4.51" height="79.004"/>
		<rect x="363.945" y="244.422" fill="#EDEDED" width="51.874" height="33.275"/>
		<path fill="#F5C08C" d="M388.368,302.15c1.123,0.033,2.062-0.851,2.095-1.975l0.011-0.374c0.016-0.539-0.184-1.063-0.554-1.456
			s-0.881-0.622-1.421-0.639l-4.115-0.121c-1.049-0.031-1.925,0.794-1.955,1.844l-0.023,0.77c-0.028,0.979,0.742,1.797,1.722,1.826
			L388.368,302.15z"/>
		<path fill="#F5C08C" d="M388.794,306.603c0.545,0.024,1.076-0.171,1.477-0.541c0.399-0.371,0.633-0.887,0.649-1.432l0.011-0.374
			c0.033-1.111-0.832-2.043-1.942-2.093l-5.188-0.233c-0.509-0.022-1.005,0.16-1.378,0.506c-0.373,0.347-0.592,0.828-0.607,1.337
			l-0.022,0.768c-0.028,0.969,0.726,1.781,1.694,1.824L388.794,306.603z"/>
		<path fill="#F5C08C" d="M389.129,310.91c1.123,0.033,2.062-0.851,2.095-1.974l0.011-0.375c0.016-0.539-0.184-1.063-0.554-1.456
			c-0.37-0.393-0.881-0.622-1.421-0.638l-4.115-0.122c-1.049-0.031-1.924,0.795-1.955,1.844l-0.023,0.77
			c-0.014,0.471,0.16,0.927,0.482,1.27c0.323,0.343,0.769,0.543,1.239,0.557L389.129,310.91z"/>
		<path fill="#F5C08C" d="M388.861,314.473c0.862,0.025,1.584-0.706,1.612-1.635l0.009-0.31c0.027-0.929-0.649-1.702-1.513-1.728
			l-3.16-0.094c-0.806-0.023-1.479,0.66-1.505,1.527l-0.019,0.637c-0.024,0.809,0.565,1.483,1.318,1.506L388.861,314.473z"/>
		<path fill="#FFCF9F" d="M405.374,307.197l-4.202-0.092c-6.358,0.609-7.393-5.237-7.393-5.237l-0.7-0.131
			c-0.344-0.06-0.695,0.035-0.957,0.26l-1.609,1.359c-0.56,0.474-1.282,0.699-2.014,0.636c-0.726-0.064-1.398-0.416-1.866-0.982
			l-0.272-0.329c-0.456-0.547-0.385-1.364,0.162-1.826l1.729-1.476l2.573-2.191c0.273-0.236,0.626-0.355,0.977-0.346h0.006
			c0.246,0.046,5.541,0.938,5.951,1.048c1.565,0.419,2.863,1.535,3.634,3.015l0.377,0.879l2.13-0.006l0.006,0.03L405.374,307.197z"
			/>
		<g>
			
				<rect x="399.84" y="303.677" transform="matrix(-0.0178 0.9998 -0.9998 -0.0178 719.4647 -92.986)" fill="#EDEDED" width="11.128" height="6.42"/>
			<polygon fill="#3C3C3B" points="423.409,313.397 423.555,300.886 407.337,300.638 407.191,313.149 			"/>
			<g>
				<circle fill="#EDEDED" cx="413.906" cy="311.4" r="0.686"/>
				<circle fill="#EDEDED" cx="411.68" cy="311.374" r="0.687"/>
				<circle fill="#EDEDED" cx="409.472" cy="311.348" r="0.687"/>
			</g>
		</g>
	</g>
	<g>
		<path d="M368.6,251.175v7.278h-1.421v-10.049h1.981l1.621,6.016v-6.016h1.407v10.049h-1.622L368.6,251.175z"/>
		<path d="M374.904,252.64h2.168v1.435h-2.168v2.943h2.729v1.436h-4.308v-10.049h4.308v1.436h-2.729V252.64z"/>
		<path d="M380.19,252.64h2.168v1.435h-2.168v2.943h2.728v1.436h-4.307v-10.049h4.307v1.436h-2.728V252.64z"/>
		<path d="M383.897,248.404h2.497c1.579,0,2.354,0.876,2.354,2.484v5.081c0,1.608-0.775,2.483-2.354,2.483h-2.497V248.404z
			 M385.476,249.84v7.178h0.891c0.502,0,0.804-0.258,0.804-0.976v-5.227c0-0.718-0.302-0.976-0.804-0.976H385.476z"/>
		<path d="M393.462,255.123l-1.995-6.719h1.65l1.206,4.58l1.206-4.58h1.508l-1.996,6.719v3.33h-1.579V255.123z"/>
		<path d="M397.327,250.815c0-1.606,0.847-2.525,2.397-2.525c1.55,0,2.396,0.919,2.396,2.525v5.227c0,1.607-0.847,2.526-2.396,2.526
			c-1.551,0-2.397-0.919-2.397-2.526V250.815z M398.906,256.143c0,0.718,0.315,0.99,0.818,0.99c0.502,0,0.817-0.272,0.817-0.99
			v-5.428c0-0.718-0.315-0.989-0.817-0.989c-0.503,0-0.818,0.271-0.818,0.989V256.143z"/>
		<path d="M404.651,248.404v7.752c0,0.718,0.315,0.977,0.818,0.977c0.502,0,0.818-0.259,0.818-0.977v-7.752h1.493v7.651
			c0,1.608-0.804,2.527-2.354,2.527s-2.354-0.919-2.354-2.527v-7.651H404.651z"/>
		<path d="M412.162,258.453c-0.086-0.258-0.144-0.416-0.144-1.234v-1.579c0-0.933-0.315-1.277-1.033-1.277h-0.546v4.091h-1.579
			v-10.049h2.384c1.636,0,2.34,0.761,2.34,2.311v0.791c0,1.033-0.33,1.707-1.034,2.038c0.79,0.33,1.048,1.091,1.048,2.139v1.551
			c0,0.488,0.015,0.847,0.173,1.22H412.162z M410.439,249.84v3.087h0.618c0.588,0,0.947-0.258,0.947-1.063v-0.99
			c0-0.719-0.244-1.034-0.805-1.034H410.439z"/>
	</g>
	<g>
		<path fill="#BE1622" d="M381.055,271.468l1.448-9.847h1.741l-1.862,12.07h-2.827l-1.862-12.07h1.914L381.055,271.468z"/>
		<path fill="#BE1622" d="M384.956,264.518c0-1.93,1.018-3.033,2.879-3.033c1.862,0,2.88,1.104,2.88,3.033v6.277
			c0,1.931-1.018,3.034-2.88,3.034c-1.861,0-2.879-1.104-2.879-3.034V264.518z M386.853,270.916c0,0.862,0.38,1.189,0.982,1.189
			c0.604,0,0.983-0.327,0.983-1.189v-6.519c0-0.862-0.38-1.189-0.983-1.189c-0.603,0-0.982,0.327-0.982,1.189V270.916z"/>
		<path fill="#BE1622" d="M391.391,261.621h5.863v1.725h-1.983v10.346h-1.896v-10.346h-1.983V261.621z"/>
		<path fill="#BE1622" d="M399.98,266.708h2.604v1.725h-2.604v3.535h3.276v1.724h-5.173v-12.07h5.173v1.725h-3.276V266.708z"/>
	</g>
</g>
<g>
	<g>
		<g>
			<path fill="#2BC2BB" d="M46.353,420.613v-3.246c0-0.955-0.607-1.798-1.519-2.097l-1.608-0.726l-1.345-0.733l-0.383-0.209
				l-0.358-0.247l-0.005,0.004l-0.006-0.933c0.007-0.008,0.012-0.014,0.019-0.021c0.212-0.246,0.44-0.573,0.737-1.008
				c0.25-0.368,0.446-0.918,0.594-1.612c0.018,0.006,0.037,0.014,0.056,0.017c0.063,0.011,0.128,0.003,0.19-0.021
				c0.267-0.101,0.377-0.479,0.456-0.968c0.098-0.604,0.042-1.142-0.293-1.196l0.106-1.402c0.027-0.731-0.249-1.439-0.75-1.972
				c-0.725-0.769-1.45-1.018-2.9-1.018h-0.006c-1.45,0-2.175,0.249-2.9,1.018c-0.501,0.532-0.777,1.24-0.75,1.972l0.106,1.402
				c-0.334,0.055-0.391,0.593-0.293,1.196c0.079,0.489,0.189,0.867,0.456,0.968c0.063,0.024,0.128,0.032,0.19,0.021
				c0.019-0.003,0.037-0.011,0.056-0.017c0.147,0.694,0.343,1.244,0.594,1.612c0.296,0.435,0.524,0.762,0.737,1.008
				c0.007,0.009,0.014,0.015,0.021,0.022l-0.005,0.932l-0.005-0.004l-0.358,0.247l-0.383,0.209l-1.345,0.733l-1.607,0.726
				c-0.912,0.299-1.519,1.142-1.519,2.097v3.246H46.353z"/>
			<path fill="#2BC2BB" d="M63.26,420.613v-3.246c0-0.955-0.607-1.798-1.519-2.097l-1.607-0.726l-1.345-0.733l-0.383-0.209
				l-0.358-0.247l-0.005,0.004l-0.005-0.933c0.006-0.008,0.012-0.014,0.019-0.021c0.212-0.246,0.441-0.573,0.737-1.008
				c0.25-0.368,0.446-0.918,0.594-1.612c0.019,0.006,0.037,0.014,0.056,0.017c0.063,0.011,0.127,0.003,0.19-0.021
				c0.267-0.101,0.377-0.479,0.456-0.968c0.098-0.604,0.042-1.142-0.293-1.196l0.106-1.402c0.027-0.731-0.25-1.439-0.75-1.972
				c-0.725-0.769-1.45-1.018-2.9-1.018h-0.006c-1.45,0-2.175,0.249-2.9,1.018c-0.501,0.532-0.778,1.24-0.75,1.972l0.106,1.402
				c-0.334,0.055-0.391,0.593-0.292,1.196c0.079,0.489,0.189,0.867,0.456,0.968c0.063,0.024,0.128,0.032,0.19,0.021
				c0.02-0.003,0.038-0.011,0.056-0.017c0.147,0.694,0.343,1.244,0.594,1.612c0.296,0.435,0.525,0.762,0.737,1.008
				c0.007,0.009,0.014,0.015,0.021,0.022l-0.005,0.932l-0.005-0.004l-0.358,0.247l-0.383,0.209l-1.345,0.733l-1.607,0.726
				c-0.911,0.299-1.519,1.142-1.519,2.097v3.246H63.26z"/>
			<path fill="#2BC2BB" d="M80.168,420.613v-3.246c0-0.955-0.607-1.798-1.519-2.097l-1.607-0.726l-1.345-0.733l-0.383-0.209
				l-0.358-0.247l-0.005,0.004l-0.005-0.933c0.007-0.008,0.012-0.014,0.019-0.021c0.212-0.246,0.44-0.573,0.737-1.008
				c0.25-0.368,0.446-0.918,0.594-1.612c0.019,0.006,0.037,0.014,0.056,0.017c0.063,0.011,0.128,0.003,0.19-0.021
				c0.266-0.101,0.377-0.479,0.456-0.968c0.098-0.604,0.042-1.142-0.292-1.196l0.106-1.402c0.027-0.731-0.249-1.439-0.75-1.972
				c-0.725-0.769-1.45-1.018-2.9-1.018h-0.006c-1.45,0-2.175,0.249-2.9,1.018c-0.501,0.532-0.777,1.24-0.75,1.972l0.106,1.402
				c-0.334,0.055-0.391,0.593-0.293,1.196c0.079,0.489,0.189,0.867,0.456,0.968c0.063,0.024,0.127,0.032,0.19,0.021
				c0.019-0.003,0.037-0.011,0.056-0.017c0.148,0.694,0.344,1.244,0.594,1.612c0.296,0.435,0.525,0.762,0.737,1.008
				c0.007,0.009,0.014,0.015,0.021,0.022l-0.006,0.932l-0.005-0.004l-0.358,0.247l-0.383,0.209l-1.345,0.733l-1.608,0.726
				c-0.911,0.299-1.519,1.142-1.519,2.097v3.246H80.168z"/>
		</g>
		<g>
			<path fill="#00ABA3" d="M37.898,424.187v-3.246c0-0.955-0.607-1.798-1.519-2.097l-1.607-0.726l-1.345-0.733l-0.383-0.209
				l-0.358-0.247l-0.005,0.004l-0.005-0.934c0.006-0.007,0.012-0.013,0.019-0.021c0.212-0.246,0.441-0.573,0.737-1.009
				c0.25-0.367,0.446-0.917,0.594-1.611c0.019,0.006,0.037,0.013,0.056,0.017c0.063,0.011,0.128,0.003,0.19-0.021
				c0.267-0.101,0.377-0.479,0.456-0.969c0.098-0.604,0.042-1.141-0.293-1.195l0.106-1.403c0.027-0.731-0.25-1.438-0.75-1.971
				c-0.725-0.769-1.45-1.018-2.9-1.018h-0.006c-1.45,0-2.175,0.249-2.9,1.018c-0.501,0.532-0.777,1.239-0.75,1.971l0.106,1.403
				c-0.334,0.055-0.391,0.592-0.292,1.195c0.079,0.49,0.189,0.868,0.456,0.969c0.063,0.024,0.128,0.032,0.19,0.021
				c0.019-0.004,0.038-0.011,0.056-0.017c0.147,0.694,0.343,1.244,0.594,1.611c0.296,0.436,0.524,0.763,0.737,1.009
				c0.007,0.008,0.014,0.015,0.021,0.022l-0.005,0.932l-0.005-0.004l-0.358,0.247l-0.383,0.209l-1.345,0.733l-1.607,0.726
				c-0.911,0.299-1.519,1.142-1.519,2.097v3.246H37.898z"/>
			<path fill="#00ABA3" d="M54.807,424.187v-3.246c0-0.955-0.608-1.798-1.519-2.097l-1.607-0.726l-1.345-0.733l-0.383-0.209
				l-0.358-0.247l-0.005,0.004l-0.005-0.934c0.007-0.007,0.012-0.013,0.019-0.021c0.212-0.246,0.44-0.573,0.737-1.009
				c0.25-0.367,0.446-0.917,0.594-1.611c0.019,0.006,0.037,0.013,0.056,0.017c0.063,0.011,0.128,0.003,0.19-0.021
				c0.266-0.101,0.377-0.479,0.456-0.969c0.098-0.604,0.042-1.141-0.292-1.195l0.106-1.403c0.027-0.731-0.249-1.438-0.75-1.971
				c-0.725-0.769-1.45-1.018-2.9-1.018h-0.006c-1.45,0-2.175,0.249-2.9,1.018c-0.501,0.532-0.777,1.239-0.75,1.971l0.106,1.403
				c-0.334,0.055-0.391,0.592-0.293,1.195c0.079,0.49,0.189,0.868,0.456,0.969c0.063,0.024,0.127,0.032,0.19,0.021
				c0.02-0.004,0.038-0.011,0.056-0.017c0.147,0.694,0.344,1.244,0.594,1.611c0.296,0.436,0.525,0.763,0.737,1.009
				c0.007,0.008,0.014,0.015,0.021,0.022l-0.006,0.932l-0.005-0.004l-0.358,0.247l-0.383,0.209l-1.345,0.733l-1.607,0.726
				c-0.911,0.299-1.519,1.142-1.519,2.097v3.246H54.807z"/>
			<path fill="#00ABA3" d="M71.714,424.187v-3.246c0-0.955-0.607-1.798-1.519-2.097l-1.607-0.726l-1.345-0.733l-0.383-0.209
				l-0.358-0.247l-0.005,0.004l-0.006-0.934c0.007-0.007,0.012-0.013,0.019-0.021c0.212-0.246,0.44-0.573,0.737-1.009
				c0.25-0.367,0.446-0.917,0.594-1.611c0.018,0.006,0.037,0.013,0.056,0.017c0.063,0.011,0.128,0.003,0.19-0.021
				c0.267-0.101,0.377-0.479,0.456-0.969c0.098-0.604,0.042-1.141-0.293-1.195l0.106-1.403c0.027-0.731-0.249-1.438-0.75-1.971
				c-0.725-0.769-1.45-1.018-2.9-1.018H64.7c-1.45,0-2.175,0.249-2.9,1.018c-0.501,0.532-0.778,1.239-0.75,1.971l0.106,1.403
				c-0.334,0.055-0.391,0.592-0.293,1.195c0.079,0.49,0.19,0.868,0.456,0.969c0.063,0.024,0.128,0.032,0.19,0.021
				c0.019-0.004,0.038-0.011,0.056-0.017c0.147,0.694,0.343,1.244,0.594,1.611c0.296,0.436,0.524,0.763,0.737,1.009
				c0.007,0.008,0.014,0.015,0.021,0.022l-0.005,0.932l-0.005-0.004l-0.358,0.247l-0.383,0.209l-1.345,0.733l-1.607,0.726
				c-0.911,0.299-1.519,1.142-1.519,2.097v3.246H71.714z"/>
			<path fill="#00ABA3" d="M88.622,424.187v-3.246c0-0.955-0.607-1.798-1.519-2.097l-1.607-0.726l-1.345-0.733l-0.383-0.209
				l-0.358-0.247l-0.005,0.004l-0.005-0.934c0.007-0.007,0.012-0.013,0.019-0.021c0.212-0.246,0.441-0.573,0.737-1.009
				c0.25-0.367,0.446-0.917,0.594-1.611c0.019,0.006,0.037,0.013,0.056,0.017c0.063,0.011,0.127,0.003,0.19-0.021
				c0.267-0.101,0.377-0.479,0.456-0.969c0.098-0.604,0.042-1.141-0.293-1.195l0.106-1.403c0.027-0.731-0.249-1.438-0.75-1.971
				c-0.725-0.769-1.45-1.018-2.9-1.018h-0.006c-1.45,0-2.175,0.249-2.9,1.018c-0.501,0.532-0.777,1.239-0.75,1.971l0.106,1.403
				c-0.334,0.055-0.391,0.592-0.292,1.195c0.079,0.49,0.189,0.868,0.456,0.969c0.063,0.024,0.128,0.032,0.19,0.021
				c0.02-0.004,0.038-0.011,0.056-0.017c0.147,0.694,0.343,1.244,0.594,1.611c0.296,0.436,0.525,0.763,0.737,1.009
				c0.007,0.008,0.014,0.015,0.021,0.022l-0.005,0.932l-0.005-0.004l-0.358,0.247l-0.383,0.209l-1.345,0.733l-1.607,0.726
				c-0.911,0.299-1.519,1.142-1.519,2.097v3.246H88.622z"/>
		</g>
		<g>
			<path fill="#00A19A" d="M46.353,427.921v-3.245c0-0.955-0.607-1.798-1.519-2.097l-1.608-0.727l-1.345-0.733l-0.383-0.208
				l-0.358-0.247l-0.005,0.004l-0.006-0.934c0.007-0.008,0.012-0.013,0.019-0.021c0.212-0.246,0.44-0.573,0.737-1.008
				c0.25-0.367,0.446-0.917,0.594-1.612c0.018,0.007,0.037,0.014,0.056,0.018c0.063,0.011,0.128,0.002,0.19-0.022
				c0.267-0.101,0.377-0.479,0.456-0.968c0.098-0.604,0.042-1.142-0.293-1.196l0.106-1.402c0.027-0.731-0.249-1.439-0.75-1.971
				c-0.725-0.77-1.45-1.019-2.9-1.019h-0.006c-1.45,0-2.175,0.249-2.9,1.019c-0.501,0.531-0.777,1.239-0.75,1.971l0.106,1.402
				c-0.334,0.055-0.391,0.593-0.293,1.196c0.079,0.489,0.189,0.867,0.456,0.968c0.063,0.024,0.128,0.033,0.19,0.022
				c0.019-0.004,0.037-0.011,0.056-0.018c0.147,0.695,0.343,1.245,0.594,1.612c0.296,0.435,0.524,0.762,0.737,1.008
				c0.007,0.009,0.014,0.015,0.021,0.022l-0.005,0.933l-0.005-0.004l-0.358,0.247l-0.383,0.208l-1.345,0.733l-1.607,0.727
				c-0.912,0.299-1.519,1.142-1.519,2.097v3.245H46.353z"/>
			<path fill="#00A19A" d="M63.26,427.921v-3.245c0-0.955-0.607-1.798-1.519-2.097l-1.607-0.727l-1.345-0.733l-0.383-0.208
				l-0.358-0.247l-0.005,0.004l-0.005-0.934c0.006-0.008,0.012-0.013,0.019-0.021c0.212-0.246,0.441-0.573,0.737-1.008
				c0.25-0.367,0.446-0.917,0.594-1.612c0.019,0.007,0.037,0.014,0.056,0.018c0.063,0.011,0.127,0.002,0.19-0.022
				c0.267-0.101,0.377-0.479,0.456-0.968c0.098-0.604,0.042-1.142-0.293-1.196l0.106-1.402c0.027-0.731-0.25-1.439-0.75-1.971
				c-0.725-0.77-1.45-1.019-2.9-1.019h-0.006c-1.45,0-2.175,0.249-2.9,1.019c-0.501,0.531-0.778,1.239-0.75,1.971l0.106,1.402
				c-0.334,0.055-0.391,0.593-0.292,1.196c0.079,0.489,0.189,0.867,0.456,0.968c0.063,0.024,0.128,0.033,0.19,0.022
				c0.02-0.004,0.038-0.011,0.056-0.018c0.147,0.695,0.343,1.245,0.594,1.612c0.296,0.435,0.525,0.762,0.737,1.008
				c0.007,0.009,0.014,0.015,0.021,0.022l-0.005,0.933l-0.005-0.004l-0.358,0.247l-0.383,0.208l-1.345,0.733l-1.607,0.727
				c-0.911,0.299-1.519,1.142-1.519,2.097v3.245H63.26z"/>
			<path fill="#00A19A" d="M80.168,427.921v-3.245c0-0.955-0.607-1.798-1.519-2.097l-1.607-0.727l-1.345-0.733l-0.383-0.208
				l-0.358-0.247l-0.005,0.004l-0.005-0.934c0.007-0.008,0.012-0.013,0.019-0.021c0.212-0.246,0.44-0.573,0.737-1.008
				c0.25-0.367,0.446-0.917,0.594-1.612c0.019,0.007,0.037,0.014,0.056,0.018c0.063,0.011,0.128,0.002,0.19-0.022
				c0.266-0.101,0.377-0.479,0.456-0.968c0.098-0.604,0.042-1.142-0.292-1.196l0.106-1.402c0.027-0.731-0.249-1.439-0.75-1.971
				c-0.725-0.77-1.45-1.019-2.9-1.019h-0.006c-1.45,0-2.175,0.249-2.9,1.019c-0.501,0.531-0.777,1.239-0.75,1.971l0.106,1.402
				c-0.334,0.055-0.391,0.593-0.293,1.196c0.079,0.489,0.189,0.867,0.456,0.968c0.063,0.024,0.127,0.033,0.19,0.022
				c0.019-0.004,0.037-0.011,0.056-0.018c0.148,0.695,0.344,1.245,0.594,1.612c0.296,0.435,0.525,0.762,0.737,1.008
				c0.007,0.009,0.014,0.015,0.021,0.022l-0.006,0.933l-0.005-0.004l-0.358,0.247l-0.383,0.208l-1.345,0.733l-1.608,0.727
				c-0.911,0.299-1.519,1.142-1.519,2.097v3.245H80.168z"/>
		</g>
		<g>
			<path fill="#00918B" d="M37.898,430.953v-3.245c0-0.955-0.607-1.798-1.519-2.097l-1.607-0.726l-1.345-0.733l-0.383-0.209
				l-0.358-0.247l-0.005,0.004l-0.005-0.934c0.006-0.008,0.012-0.013,0.019-0.021c0.212-0.246,0.441-0.573,0.737-1.009
				c0.25-0.367,0.446-0.917,0.594-1.612c0.019,0.007,0.037,0.014,0.056,0.018c0.063,0.011,0.128,0.003,0.19-0.021
				c0.267-0.102,0.377-0.479,0.456-0.969c0.098-0.604,0.042-1.142-0.293-1.195l0.106-1.403c0.027-0.731-0.25-1.439-0.75-1.971
				c-0.725-0.77-1.45-1.019-2.9-1.019h-0.006c-1.45,0-2.175,0.249-2.9,1.019c-0.501,0.531-0.777,1.239-0.75,1.971l0.106,1.403
				c-0.334,0.054-0.391,0.592-0.292,1.195c0.079,0.489,0.189,0.867,0.456,0.969c0.063,0.024,0.128,0.032,0.19,0.021
				c0.019-0.004,0.038-0.011,0.056-0.018c0.147,0.695,0.343,1.245,0.594,1.612c0.296,0.436,0.524,0.763,0.737,1.009
				c0.007,0.008,0.014,0.014,0.021,0.022l-0.005,0.932l-0.005-0.004l-0.358,0.247l-0.383,0.209l-1.345,0.733l-1.607,0.726
				c-0.911,0.299-1.519,1.142-1.519,2.097v3.245H37.898z"/>
			<path fill="#00918B" d="M54.807,430.953v-3.245c0-0.955-0.608-1.798-1.519-2.097l-1.607-0.726l-1.345-0.733l-0.383-0.209
				l-0.358-0.247l-0.005,0.004l-0.005-0.934c0.007-0.008,0.012-0.013,0.019-0.021c0.212-0.246,0.44-0.573,0.737-1.009
				c0.25-0.367,0.446-0.917,0.594-1.612c0.019,0.007,0.037,0.014,0.056,0.018c0.063,0.011,0.128,0.003,0.19-0.021
				c0.266-0.102,0.377-0.479,0.456-0.969c0.098-0.604,0.042-1.142-0.292-1.195l0.106-1.403c0.027-0.731-0.249-1.439-0.75-1.971
				c-0.725-0.77-1.45-1.019-2.9-1.019h-0.006c-1.45,0-2.175,0.249-2.9,1.019c-0.501,0.531-0.777,1.239-0.75,1.971l0.106,1.403
				c-0.334,0.054-0.391,0.592-0.293,1.195c0.079,0.489,0.189,0.867,0.456,0.969c0.063,0.024,0.127,0.032,0.19,0.021
				c0.02-0.004,0.038-0.011,0.056-0.018c0.147,0.695,0.344,1.245,0.594,1.612c0.296,0.436,0.525,0.763,0.737,1.009
				c0.007,0.008,0.014,0.014,0.021,0.022l-0.006,0.932l-0.005-0.004l-0.358,0.247l-0.383,0.209l-1.345,0.733l-1.607,0.726
				c-0.911,0.299-1.519,1.142-1.519,2.097v3.245H54.807z"/>
			<path fill="#00918B" d="M71.714,430.953v-3.245c0-0.955-0.607-1.798-1.519-2.097l-1.607-0.726l-1.345-0.733l-0.383-0.209
				l-0.358-0.247l-0.005,0.004l-0.006-0.934c0.007-0.008,0.012-0.013,0.019-0.021c0.212-0.246,0.44-0.573,0.737-1.009
				c0.25-0.367,0.446-0.917,0.594-1.612c0.018,0.007,0.037,0.014,0.056,0.018c0.063,0.011,0.128,0.003,0.19-0.021
				c0.267-0.102,0.377-0.479,0.456-0.969c0.098-0.604,0.042-1.142-0.293-1.195l0.106-1.403c0.027-0.731-0.249-1.439-0.75-1.971
				c-0.725-0.77-1.45-1.019-2.9-1.019H64.7c-1.45,0-2.175,0.249-2.9,1.019c-0.501,0.531-0.778,1.239-0.75,1.971l0.106,1.403
				c-0.334,0.054-0.391,0.592-0.293,1.195c0.079,0.489,0.19,0.867,0.456,0.969c0.063,0.024,0.128,0.032,0.19,0.021
				c0.019-0.004,0.038-0.011,0.056-0.018c0.147,0.695,0.343,1.245,0.594,1.612c0.296,0.436,0.524,0.763,0.737,1.009
				c0.007,0.008,0.014,0.014,0.021,0.022l-0.005,0.932l-0.005-0.004l-0.358,0.247l-0.383,0.209l-1.345,0.733l-1.607,0.726
				c-0.911,0.299-1.519,1.142-1.519,2.097v3.245H71.714z"/>
			<path fill="#00918B" d="M88.622,430.953v-3.245c0-0.955-0.607-1.798-1.519-2.097l-1.607-0.726l-1.345-0.733l-0.383-0.209
				l-0.358-0.247l-0.005,0.004l-0.005-0.934c0.007-0.008,0.012-0.013,0.019-0.021c0.212-0.246,0.441-0.573,0.737-1.009
				c0.25-0.367,0.446-0.917,0.594-1.612c0.019,0.007,0.037,0.014,0.056,0.018c0.063,0.011,0.127,0.003,0.19-0.021
				c0.267-0.102,0.377-0.479,0.456-0.969c0.098-0.604,0.042-1.142-0.293-1.195l0.106-1.403c0.027-0.731-0.249-1.439-0.75-1.971
				c-0.725-0.77-1.45-1.019-2.9-1.019h-0.006c-1.45,0-2.175,0.249-2.9,1.019c-0.501,0.531-0.777,1.239-0.75,1.971l0.106,1.403
				c-0.334,0.054-0.391,0.592-0.292,1.195c0.079,0.489,0.189,0.867,0.456,0.969c0.063,0.024,0.128,0.032,0.19,0.021
				c0.02-0.004,0.038-0.011,0.056-0.018c0.147,0.695,0.343,1.245,0.594,1.612c0.296,0.436,0.525,0.763,0.737,1.009
				c0.007,0.008,0.014,0.014,0.021,0.022l-0.005,0.932l-0.005-0.004l-0.358,0.247l-0.383,0.209l-1.345,0.733l-1.607,0.726
				c-0.911,0.299-1.519,1.142-1.519,2.097v3.245H88.622z"/>
		</g>
	</g>
	<g>
		<g>
			<path fill="#FFD6AE" d="M34.396,366.254h0.02c0.529,0,0.958-0.43,0.958-0.959v-7.79c0-0.529-0.429-0.958-0.958-0.958h-0.02
				c-0.529,0-0.958,0.429-0.958,0.958v7.79C33.438,365.824,33.867,366.254,34.396,366.254z"/>
			<path fill="#FFD6AE" d="M36.28,366.626h0.02c0.529,0.015,0.97-0.401,0.984-0.931l0.218-7.787
				c0.015-0.529-0.402-0.971-0.931-0.985h-0.02c-0.529-0.016-0.97,0.401-0.984,0.931l-0.218,7.787
				C35.334,366.17,35.75,366.611,36.28,366.626z"/>
			<path fill="#FFD6AE" d="M32.539,366.259h0.019c0.529-0.02,0.943-0.463,0.924-0.992l-0.251-7.054
				c-0.019-0.528-0.463-0.942-0.992-0.923H32.22c-0.529,0.02-0.942,0.463-0.924,0.992l0.251,7.053
				C31.566,365.864,32.01,366.278,32.539,366.259z"/>
			<path fill="#FFD6AE" d="M30.838,366.247l0.017-0.002c0.467-0.058,0.799-0.481,0.742-0.948l-0.62-5.073
				c-0.057-0.466-0.481-0.798-0.948-0.741l-0.017,0.002c-0.467,0.057-0.799,0.481-0.742,0.948l0.62,5.072
				C29.948,365.972,30.372,366.304,30.838,366.247z"/>
			<path fill="#F7C99C" d="M31.126,380.208h5.113v-9.393c0.95-0.343,1.68-1.091,1.917-2.019c0.053-0.211,0.083-0.431,0.083-0.654
				v-1.325l-0.879-0.255l-0.026-2.701c-1.987-0.507-5.602-0.102-7.505,1.034v2.49c0,1.789,0.615,3.129,1.296,3.656V380.208z"/>
			<path fill="#FFD6AE" d="M36.24,380.208l0-9.242c2.492-0.331,2.762-2.507,2.912-3.783c0.131-1.114,0.211-2.168,0.739-2.822
				c1.208-1.496-0.8-2.244-1.802-0.714c-0.375,0.573-0.859,1.629-0.859,2.98c-1.591-0.938-3.625-0.029-3.59,2.544
				c-0.003,0.082-0.063,7.639-0.089,11.037H36.24z"/>
		</g>
		<rect x="30.664" y="371.553" fill="#EDEDED" width="6.112" height="3.198"/>
		<g>
			<path fill="#F2C28D" d="M61.221,400.563l-0.132-22.55c-3.545-0.047-4.147-0.053-4.252-0.053c-0.105,0-0.707,0.006-4.252,0.053
				l-0.132,22.55H61.221z"/>
			<polygon fill="#FFFFFF" points="52.543,401.604 50.505,383.282 52.549,381.77 56.836,384.847 61.124,381.77 63.167,383.282 
				61.129,401.604 			"/>
			<polygon fill="#B82922" points="55.813,387.729 55.485,384.749 56.733,384.812 56.836,384.807 56.939,384.812 58.188,384.749 
				57.859,387.729 			"/>
			<polygon fill="#F6F6F6" points="54.152,387.729 50.781,382.856 51.695,382.359 52.549,381.77 56.836,384.847 			"/>
			<polygon fill="#F6F6F6" points="59.521,387.729 62.891,382.856 61.978,382.359 61.124,381.77 56.836,384.847 			"/>
			<polygon fill="#C92D25" points="56.836,398.619 55.05,397.954 55.813,387.729 57.859,387.729 58.623,397.954 			"/>
			<path fill="#FFD2A1" d="M65.292,368.084c-0.151-0.025-0.304-0.004-0.454,0.052v-3.631c0-2.991-2.426-5.417-5.417-5.417h-5.174
				c-2.992,0-5.417,2.426-5.417,5.417v3.631c-0.15-0.056-0.303-0.077-0.454-0.052c-0.797,0.129-0.932,1.412-0.698,2.852
				c0.188,1.167,0.452,2.068,1.087,2.309c0.149,0.058,0.305,0.077,0.454,0.052c0.046-0.009,0.09-0.026,0.134-0.041
				c0.352,1.657,0.819,2.968,1.416,3.845c0.707,1.037,1.251,1.817,1.757,2.404c1.148,1.33,2.096,1.655,4.271,1.655
				c0.011,0,0.021,0,0.031,0c0.002,0,0.004,0,0.007,0s0.005,0,0.007,0c0.01,0,0.021,0,0.031,0c2.438,0,2.86-0.021,4.271-1.655
				c0.506-0.587,1.05-1.367,1.757-2.404c0.597-0.877,1.064-2.188,1.416-3.845c0.044,0.015,0.087,0.032,0.133,0.041
				c0.149,0.025,0.305,0.006,0.454-0.052c0.635-0.24,0.899-1.142,1.087-2.309C66.224,369.496,66.089,368.213,65.292,368.084z"/>
			<path fill="#3C3C3B" d="M56.833,357.61c-0.002,0-0.004,0-0.007,0c-3.458,0-5.186,0.595-6.915,2.428
				c-1.195,1.268-1.854,2.956-1.789,4.7l0.253,3.346c0.434-0.072,0.881,0.214,1.238,0.726v-3.877c0-1.698,1.375-3.072,3.073-3.072
				h8.294c1.699,0,3.073,1.374,3.073,3.072v3.877c0.357-0.512,0.804-0.798,1.238-0.726l0.253-3.346
				c0.065-1.744-0.594-3.433-1.789-4.7c-1.729-1.833-3.458-2.428-6.915-2.428C56.838,357.61,56.836,357.61,56.833,357.61z"/>
			<path fill="#3C3C3B" d="M65.208,365.388c-4.778-0.11-10.203,0.999-14.514-2.103c-1.651-0.925-0.463-2.577-0.463-2.577h12.964
				L65.208,365.388z"/>
		</g>
		<path fill="#61554E" d="M73.553,401.604v-10.269c0-2.277-1.448-4.287-3.621-4.999l-6.764-3.055l-1.19-0.923l-5.141,19.236
			l-5.142-19.236l-1.19,0.648l-6.544,0.898c-2.173,0.713-3.841,3.229-3.841,5.507v0.692l4.411,0.276l0.092,11.223H73.553z"/>
		<polygon fill="#A18D81" points="56.836,398.337 51.695,382.359 51.695,382.359 47.574,383.41 48.544,388.292 50.82,388.075 
			48.942,389.439 56.833,401.604 56.836,401.588 56.839,401.604 64.73,389.439 62.853,388.075 65.128,388.292 66.099,384.605 
			61.978,382.359 61.978,382.359 		"/>
		<path fill="#61554E" d="M37.224,382.535v-7.845h-6.892v9.179v1.345c0,3.064,2.483,5.952,5.547,5.952h8.697v-7.297h-6.018
			C37.821,383.869,37.224,383.272,37.224,382.535z"/>
		<g>
			<circle fill="#EDEDED" cx="31.51" cy="378.202" r="0.387"/>
			<circle fill="#EDEDED" cx="31.51" cy="376.949" r="0.387"/>
			<circle fill="#EDEDED" cx="31.51" cy="375.706" r="0.387"/>
		</g>
		<rect x="67.036" y="393.174" fill="#574C46" width="0.713" height="8.431"/>
	</g>
</g>
<g>
	<rect x="45.513" y="185.393" fill="#575756" width="21.475" height="10.882"/>
	<g>
		<rect x="19.176" y="136.709" fill="#3C3C3B" width="74.148" height="50.528"/>
		<rect x="21.786" y="139.152" fill="#DADADA" width="68.928" height="45.309"/>
		<g>
			<rect x="26.099" y="142.959" fill="#FFFFFF" width="19.564" height="23.109"/>
			<g>
				<path fill="#E5AE71" d="M34.55,154.116c-0.053,0-0.357,0.003-2.15,0.026l-0.07,11.926h4.439l-0.07-11.926
					C34.907,154.119,34.603,154.116,34.55,154.116z"/>
				<polygon fill="#FFFFFF" points="32.38,166.068 31.349,156.806 32.383,156.042 34.55,157.597 36.717,156.042 37.751,156.806 
					36.72,166.068 				"/>
				<path fill="#3C3C3B" d="M34.55,166.064l-2.6-9.725l-0.602,0.467l-3.419,1.544c-1.098,0.36-1.831,1.376-1.831,2.527v5.191h16.902
					v-5.191c0-1.151-0.732-2.167-1.831-2.527l-3.419-1.544l-0.602-0.467L34.55,166.064z"/>
				<polygon fill="#B82922" points="34.033,159.053 33.867,157.547 34.498,157.579 34.55,157.577 34.603,157.579 35.233,157.547 
					35.067,159.053 				"/>
				<polygon fill="#F6F6F6" points="33.193,159.053 31.489,156.591 31.951,156.339 32.383,156.042 34.55,157.597 				"/>
				<polygon fill="#F6F6F6" points="35.907,159.053 37.611,156.591 37.149,156.339 36.717,156.042 34.55,157.597 				"/>
				<polygon fill="#C92D25" points="34.55,164.56 33.647,164.223 34.033,159.053 35.067,159.053 35.453,164.223 				"/>
				<polygon fill="#575756" points="34.55,164.417 31.951,156.339 31.951,156.339 29.868,157.475 30.358,159.338 31.508,159.229 
					30.559,159.918 34.549,166.068 34.55,166.06 34.551,166.068 38.541,159.918 37.592,159.229 38.742,159.338 39.232,157.475 
					37.149,156.339 37.149,156.339 				"/>
				<path fill="#F2BD83" d="M38.825,149.122c-0.076-0.012-0.153-0.002-0.229,0.026v-1.835c0-1.512-1.227-2.738-2.739-2.738h-2.616
					c-1.512,0-2.738,1.226-2.738,2.738v1.835c-0.076-0.028-0.153-0.039-0.23-0.026c-0.403,0.066-0.471,0.714-0.353,1.442
					c0.095,0.59,0.229,1.046,0.549,1.167c0.076,0.029,0.154,0.04,0.229,0.026c0.023-0.004,0.045-0.013,0.067-0.021
					c0.178,0.837,0.414,1.5,0.716,1.943c0.357,0.524,0.632,0.919,0.888,1.215c0.58,0.672,1.059,0.837,2.159,0.837
					c0.005,0,0.011,0,0.016,0c0.001,0,0.002,0,0.003,0c0.001,0,0.002,0,0.002,0c0.006,0,0.012,0,0.017,0
					c1.233,0,1.446-0.011,2.159-0.837c0.256-0.296,0.531-0.691,0.888-1.215c0.302-0.443,0.538-1.106,0.716-1.943
					c0.022,0.007,0.044,0.016,0.068,0.021c0.075,0.013,0.154,0.003,0.229-0.026c0.321-0.121,0.455-0.577,0.549-1.167
					C39.296,149.836,39.228,149.188,38.825,149.122z"/>
				<path fill="#706F6F" d="M34.549,143.828c-0.001,0-0.002,0-0.003,0c-1.748,0-2.622,0.301-3.496,1.228
					c-0.604,0.641-0.937,1.495-0.904,2.376l0.127,1.691c0.22-0.036,0.446,0.108,0.626,0.367v-1.96c0-0.858,0.694-1.553,1.553-1.553
					h4.193c0.858,0,1.553,0.695,1.553,1.553v1.96c0.181-0.259,0.407-0.403,0.626-0.367l0.128-1.691
					c0.033-0.881-0.3-1.735-0.904-2.376c-0.874-0.927-1.748-1.228-3.496-1.228C34.552,143.828,34.55,143.828,34.549,143.828z"/>
			</g>
		</g>
		<g>
			<path fill="#BE1622" d="M27.908,172.292v9.262h-1.809v-12.788h2.521l2.064,7.654v-7.654h1.791v12.788h-2.064L27.908,172.292z"/>
			<path fill="#BE1622" d="M35.927,174.155h2.759v1.827h-2.759v3.745h3.471v1.826h-5.48v-12.788h5.48v1.827h-3.471V174.155z"/>
			<path fill="#BE1622" d="M45.099,174.74l-0.731,6.813h-2.758l-1.425-12.788h1.955l1.078,10.084l0.968-10.084h1.936l1.005,10.157
				l1.042-10.157h1.754l-1.425,12.788h-2.667L45.099,174.74z"/>
			<path fill="#BE1622" d="M53.63,168.62c1.955,0,2.959,1.169,2.959,3.215v0.402H54.69v-0.529c0-0.914-0.366-1.261-1.005-1.261
				c-0.639,0-1.005,0.347-1.005,1.261c0,2.63,3.928,3.124,3.928,6.778c0,2.046-1.023,3.215-2.996,3.215s-2.997-1.169-2.997-3.215
				V177.7h1.9v0.913c0,0.914,0.402,1.242,1.041,1.242s1.041-0.329,1.041-1.242c0-2.63-3.927-3.124-3.927-6.777
				C50.671,169.789,51.676,168.62,53.63,168.62z"/>
		</g>
		<g>
			<path fill="#936037" d="M73.765,145.636c-0.862,0.013-9.398,0.155-10.313,10.606c-1.259,8.579-2.313,13.331,3.472,14.48
				c1.269,0.381,3.471,0.496,3.535,0.575h6.613c0.063-0.079,2.266-0.194,3.535-0.575c5.786-1.149,4.731-5.901,3.472-14.48
				C83.164,145.792,74.627,145.649,73.765,145.636z"/>
			<path fill="#F2C28D" d="M73.765,166.277c-0.939,0-1.915,0-3.489,0c0,0-0.013,5.474-0.019,5.475
				c-0.063,0.019-4.741,2.139-6.623,3.125c-4.358,2.283-3.884,3.894-3.884,6.951v2.63h28.028v-2.63c0-3.058,0.475-4.668-3.883-6.951
				c-1.882-0.986-6.56-3.106-6.623-3.125c-0.006-0.001-0.019-5.475-0.019-5.475C75.68,166.277,74.704,166.277,73.765,166.277z"/>
			<path fill="#FFD2A1" d="M73.765,150.917c-2.904-0.313-5.661,0.991-6.763,3.589c-0.423,0.957-0.645,2.156-0.726,3.64
				c-0.234-0.194-0.486-0.297-0.736-0.256c-0.705,0.115-1.106,1.238-0.9,2.511c0.166,1.032,0.682,1.84,1.244,2.052
				c0.132,0.052,0.27,0.069,0.401,0.046c0.045-0.008,0.088-0.024,0.131-0.04c0.478,1.993,1.103,3.559,1.788,4.301
				c0.878,0.95,1.491,1.675,2.071,2.222c0.93,0.877,1.774,1.298,3.489,1.448c1.714-0.149,2.559-0.57,3.488-1.448
				c0.581-0.547,1.193-1.272,2.072-2.222c0.686-0.742,1.31-2.308,1.788-4.301c0.043,0.016,0.086,0.032,0.132,0.04
				c0.132,0.023,0.27,0.006,0.401-0.046c0.562-0.212,1.078-1.021,1.244-2.052c0.206-1.273-0.195-2.396-0.9-2.511
				c-0.25-0.041-0.501,0.062-0.736,0.256c-0.081-1.484-0.303-2.683-0.726-3.64C79.426,151.908,76.669,150.604,73.765,150.917z"/>
			<path fill="#936037" d="M65.618,151.388v3.549c5.431-6.323,10.862,6.323,16.293,0v-3.549
				C76.167,145.877,70.785,146.737,65.618,151.388z"/>
			<path fill="#FFFFFF" d="M87.779,181.831v2.63H59.753v-2.63c0-3.018-0.461-4.62,3.692-6.851c0.062-0.034,0.124-0.067,0.191-0.101
				c1.405-0.736,4.4-2.152,5.828-2.793c0.489-0.219,0.792-0.349,0.792-0.332c0,2.888,7.014,2.888,7.014,0
				c0-0.017,0.304,0.112,0.792,0.332c1.427,0.641,4.428,2.057,5.833,2.793c0.062,0.034,0.124,0.067,0.185,0.096
				C88.24,177.206,87.779,178.813,87.779,181.831z"/>
			<g>
				<path fill="#00A19A" d="M73.134,184.461h-8.947l-0.742-9.481c0.062-0.034,0.124-0.067,0.191-0.101
					c1.405-0.736,4.4-2.152,5.828-2.793L73.134,184.461z"/>
				<path fill="#00A19A" d="M84.081,174.975l-0.742,9.486h-8.941l3.664-12.375c1.427,0.641,4.428,2.057,5.833,2.793
					C83.958,174.913,84.02,174.946,84.081,174.975z"/>
			</g>
		</g>
		<circle fill="#95C11F" cx="87.141" cy="185.94" r="0.599"/>
		<path fill="#E6332A" d="M58.048,150.992l-4.696-8.619l-5.117,8.376l2.433,0.06c-1.059,6.418-4.579,11.369-10.024,15.255H51.01
			c4.467-4.296,5.104-10.676,4.594-15.133L58.048,150.992z"/>
		<path fill="#FFFFFF" d="M61.316,144.089h29.397v-2.854H61.316c-0.659,0-1.193,0.534-1.193,1.193v0.467
			C60.123,143.555,60.658,144.089,61.316,144.089z"/>
	</g>
	<path fill="#3C3C3B" d="M75.418,200.791H37.082v-0.045c0-2.469,2.001-4.471,4.471-4.471h29.396c2.469,0,4.471,2.002,4.471,4.471
		V200.791z"/>
</g>
<g>
	<g>
		<rect x="158.236" y="382.935" fill="#EDEDED" width="2.725" height="10.826"/>
		<rect x="162.797" y="382.935" fill="#EDEDED" width="2.725" height="10.826"/>
		<rect x="167.358" y="382.935" fill="#EDEDED" width="2.725" height="10.826"/>
		<rect x="171.919" y="382.935" fill="#EDEDED" width="2.725" height="10.826"/>
		<rect x="176.48" y="382.935" fill="#EDEDED" width="2.725" height="10.826"/>
	</g>
	<g>
		<rect x="155.836" y="393.292" fill="#EDEDED" width="2.725" height="10.826"/>
		<rect x="160.44" y="393.292" fill="#EDEDED" width="2.725" height="10.826"/>
		<rect x="165.044" y="393.292" fill="#EDEDED" width="2.725" height="10.826"/>
		<rect x="169.647" y="393.292" fill="#EDEDED" width="2.725" height="10.826"/>
		<rect x="174.251" y="393.292" fill="#EDEDED" width="2.725" height="10.826"/>
		<rect x="178.854" y="393.292" fill="#EDEDED" width="2.726" height="10.826"/>
	</g>
	<polygon opacity="0.2" fill="#1D1D1B" points="169.426,369.763 168.004,369.763 168.715,360.501 	"/>
	<path fill="#DADADA" d="M170.619,374.928h-3.808v-4.175c0-1.041,0.844-1.886,1.885-1.886h0.038c1.041,0,1.885,0.845,1.885,1.886
		V374.928z"/>
	<rect x="155.048" y="392.072" fill="#DADADA" width="27.321" height="2.439"/>
	<rect x="153.699" y="401.575" fill="#DADADA" width="30.018" height="3.547"/>
	<path fill="#EDEDED" d="M179.175,384.104c0.018-0.256,0.031-0.514,0.03-0.773c-0.009-5.794-4.712-10.483-10.505-10.475
		s-10.482,4.712-10.474,10.506c0,0.26,0.014,0.518,0.033,0.773L179.175,384.104z"/>
	<rect x="157.199" y="382.935" fill="#DADADA" width="23.018" height="2.439"/>
	<rect x="129.274" y="403.993" fill="#EDEDED" width="78.89" height="23.006"/>
	<rect x="129.274" y="403.993" fill="#DADADA" width="18.054" height="23.006"/>
	<rect x="190.172" y="403.993" fill="#DADADA" width="18.054" height="23.006"/>
	<rect x="129.274" y="403.993" opacity="0.2" fill="#1D1D1B" width="78.89" height="2.964"/>
	<rect x="129.274" y="424.035" opacity="0.2" fill="#1D1D1B" width="78.89" height="2.964"/>
	<g>
		<rect x="131.352" y="408.808" fill="#FFFFFF" width="2.279" height="5.509"/>
		<rect x="135.225" y="408.808" fill="#FFFFFF" width="2.279" height="5.509"/>
		<rect x="139.099" y="408.808" fill="#FFFFFF" width="2.278" height="5.509"/>
		<rect x="142.972" y="408.808" fill="#FFFFFF" width="2.278" height="5.509"/>
		<rect x="131.352" y="416.676" fill="#FFFFFF" width="2.279" height="5.509"/>
		<rect x="135.225" y="416.676" fill="#FFFFFF" width="2.279" height="5.509"/>
		<rect x="139.099" y="416.676" fill="#FFFFFF" width="2.278" height="5.509"/>
		<rect x="142.972" y="416.676" fill="#FFFFFF" width="2.278" height="5.509"/>
	</g>
	<g>
		<rect x="149.052" y="408.808" fill="#FFFFFF" width="2.278" height="5.509"/>
		<rect x="152.926" y="408.808" fill="#FFFFFF" width="2.278" height="5.509"/>
		<rect x="156.799" y="408.808" fill="#FFFFFF" width="2.278" height="5.509"/>
		<rect x="149.052" y="416.676" fill="#FFFFFF" width="2.278" height="5.509"/>
		<rect x="152.926" y="416.676" fill="#FFFFFF" width="2.278" height="5.509"/>
		<rect x="156.799" y="416.676" fill="#FFFFFF" width="2.278" height="5.509"/>
	</g>
	<g>
		<rect x="178.952" y="408.808" fill="#FFFFFF" width="2.278" height="5.509"/>
		<rect x="182.825" y="408.808" fill="#FFFFFF" width="2.279" height="5.509"/>
		<rect x="186.699" y="408.808" fill="#FFFFFF" width="2.279" height="5.509"/>
		<rect x="178.952" y="416.676" fill="#FFFFFF" width="2.278" height="5.509"/>
		<rect x="182.825" y="416.676" fill="#FFFFFF" width="2.279" height="5.509"/>
		<rect x="186.699" y="416.676" fill="#FFFFFF" width="2.279" height="5.509"/>
	</g>
	<g>
		<rect x="192.25" y="408.808" fill="#FFFFFF" width="2.278" height="5.509"/>
		<rect x="196.123" y="408.808" fill="#FFFFFF" width="2.279" height="5.509"/>
		<rect x="199.996" y="408.808" fill="#FFFFFF" width="2.279" height="5.509"/>
		<rect x="203.87" y="408.808" fill="#FFFFFF" width="2.279" height="5.509"/>
		<rect x="192.25" y="416.676" fill="#FFFFFF" width="2.278" height="5.509"/>
		<rect x="196.123" y="416.676" fill="#FFFFFF" width="2.279" height="5.509"/>
		<rect x="199.996" y="416.676" fill="#FFFFFF" width="2.279" height="5.509"/>
		<rect x="203.87" y="416.676" fill="#FFFFFF" width="2.279" height="5.509"/>
	</g>
	<g>
		<path fill="#FFFFFF" d="M163.893,422.185h-2.743v-11.852c0-0.843,0.608-1.525,1.358-1.525h0.027c0.75,0,1.358,0.683,1.358,1.525
			V422.185z"/>
		<path fill="#FFFFFF" d="M168.025,422.185h-2.743v-11.852c0-0.843,0.608-1.525,1.358-1.525h0.027c0.75,0,1.358,0.683,1.358,1.525
			V422.185z"/>
		<path fill="#FFFFFF" d="M172.156,422.185h-2.743v-11.852c0-0.843,0.608-1.525,1.358-1.525h0.027c0.75,0,1.357,0.683,1.357,1.525
			V422.185z"/>
		<path fill="#FFFFFF" d="M176.289,422.185h-2.743v-11.852c0-0.843,0.608-1.525,1.358-1.525h0.027c0.75,0,1.358,0.683,1.358,1.525
			V422.185z"/>
	</g>
</g>
<g>
	<g>
		<rect x="389.421" y="144.396" fill="#CBCBCB" width="34.872" height="39.127"/>
		<g>
			<rect x="389.421" y="179.744" fill="#C42C24" width="34.872" height="3.779"/>
			<rect x="389.421" y="172.674" fill="#C42C24" width="34.872" height="3.779"/>
			<rect x="389.421" y="165.604" fill="#C42C24" width="34.872" height="3.779"/>
			<rect x="389.421" y="158.535" fill="#C42C24" width="34.872" height="3.78"/>
			<rect x="389.421" y="151.465" fill="#C42C24" width="34.872" height="3.779"/>
			<rect x="389.421" y="144.396" fill="#C42C24" width="34.872" height="3.779"/>
		</g>
	</g>
	<rect x="365.311" y="139.127" fill="#EDEDED" width="41.546" height="39.127"/>
	<g>
		<rect x="365.311" y="174.475" fill="#E6332A" width="41.546" height="3.779"/>
		<rect x="365.311" y="167.406" fill="#E6332A" width="41.546" height="3.779"/>
		<rect x="365.311" y="160.336" fill="#E6332A" width="41.546" height="3.779"/>
		<rect x="367.178" y="153.267" fill="#E6332A" width="39.679" height="3.779"/>
		<rect x="367.178" y="146.197" fill="#E6332A" width="39.679" height="3.779"/>
		<rect x="367.178" y="139.127" fill="#E6332A" width="39.679" height="3.779"/>
	</g>
	<rect x="365.311" y="139.127" fill="#205887" width="29.244" height="21.209"/>
	<polygon fill="#821D18" points="406.856,178.254 389.421,178.254 389.421,183.523 	"/>
	<g>
		<g>
			<polygon fill="#FFFFFF" points="372.973,144.979 373.744,146.543 375.471,146.794 374.222,148.012 374.517,149.731 
				372.973,148.92 371.428,149.731 371.723,148.012 370.474,146.794 372.2,146.543 			"/>
			<polygon fill="#FFFFFF" points="379.933,144.979 380.705,146.543 382.431,146.794 381.182,148.012 381.477,149.731 
				379.933,148.92 378.389,149.731 378.684,148.012 377.435,146.794 379.16,146.543 			"/>
			<polygon fill="#FFFFFF" points="386.893,144.979 387.665,146.543 389.392,146.794 388.143,148.012 388.438,149.731 
				386.893,148.92 385.349,149.731 385.644,148.012 384.395,146.794 386.121,146.543 			"/>
		</g>
		<g>
			<polygon fill="#FFFFFF" points="369.492,140.227 370.265,141.792 371.99,142.042 370.741,143.26 371.036,144.979 
				369.492,144.167 367.948,144.979 368.243,143.26 366.994,142.042 368.72,141.792 			"/>
			<polygon fill="#FFFFFF" points="376.452,140.227 377.225,141.792 378.951,142.042 377.702,143.26 377.996,144.979 
				376.452,144.167 374.908,144.979 375.203,143.26 373.954,142.042 375.681,141.792 			"/>
			<polygon fill="#FFFFFF" points="383.413,140.227 384.185,141.792 385.911,142.042 384.662,143.26 384.957,144.979 
				383.413,144.167 381.868,144.979 382.163,143.26 380.914,142.042 382.641,141.792 			"/>
			<polygon fill="#FFFFFF" points="390.373,140.227 391.146,141.792 392.871,142.042 391.622,143.26 391.917,144.979 
				390.373,144.167 388.829,144.979 389.124,143.26 387.875,142.042 389.601,141.792 			"/>
		</g>
		<g>
			<polygon fill="#FFFFFF" points="372.973,154.484 373.744,156.048 375.471,156.299 374.222,157.517 374.517,159.236 
				372.973,158.424 371.428,159.236 371.723,157.517 370.474,156.299 372.2,156.048 			"/>
			<polygon fill="#FFFFFF" points="379.933,154.484 380.705,156.048 382.431,156.299 381.182,157.517 381.477,159.236 
				379.933,158.424 378.389,159.236 378.684,157.517 377.435,156.299 379.16,156.048 			"/>
			<polygon fill="#FFFFFF" points="386.893,154.484 387.665,156.048 389.392,156.299 388.143,157.517 388.438,159.236 
				386.893,158.424 385.349,159.236 385.644,157.517 384.395,156.299 386.121,156.048 			"/>
		</g>
		<g>
			<polygon fill="#FFFFFF" points="369.492,149.731 370.265,151.296 371.99,151.547 370.741,152.765 371.036,154.484 
				369.492,153.672 367.948,154.484 368.243,152.765 366.994,151.547 368.72,151.296 			"/>
			<polygon fill="#FFFFFF" points="376.452,149.731 377.225,151.296 378.951,151.547 377.702,152.765 377.996,154.484 
				376.452,153.672 374.908,154.484 375.203,152.765 373.954,151.547 375.681,151.296 			"/>
			<polygon fill="#FFFFFF" points="383.413,149.731 384.185,151.296 385.911,151.547 384.662,152.765 384.957,154.484 
				383.413,153.672 381.868,154.484 382.163,152.765 380.914,151.547 382.641,151.296 			"/>
			<polygon fill="#FFFFFF" points="390.373,149.731 391.146,151.296 392.871,151.547 391.622,152.765 391.917,154.484 
				390.373,153.672 388.829,154.484 389.124,152.765 387.875,151.547 389.601,151.296 			"/>
		</g>
	</g>
	<rect x="363.664" y="139.127" fill="#3C3C3B" width="1.646" height="60.762"/>
	<rect x="363.207" y="137.611" fill="#3C3C3B" width="2.561" height="1.516"/>
</g>
<g>
	<rect x="354.574" y="353.049" fill="#EDEDED" width="39.7" height="54.89"/>
	<rect x="382.164" y="358.396" fill="#FFFFFF" width="8.753" height="8.753"/>
	<rect x="382.164" y="370.762" fill="#FFFFFF" width="8.753" height="8.753"/>
	<rect x="382.164" y="383.128" fill="#FFFFFF" width="8.753" height="8.753"/>
	<rect x="382.164" y="395.311" fill="#FFFFFF" width="8.753" height="8.753"/>
	<polygon fill="#00A19A" points="389.049,369.123 386.575,374.992 384.848,371.664 382.909,371.664 386.737,379.038 
		390.917,369.123 	"/>
	<g>
		<g>
			<polygon fill="#F5C08C" points="420.684,385.143 411.938,377.226 413.643,386.076 			"/>
			<path fill="#DEAA78" d="M406.226,396.485l3.089-2.473c1.329-1.063,1.633-2.999,0.679-4.323l-0.035-0.048
				c-0.953-1.324-2.804-1.536-4.132-0.473l-3.089,2.474C400.154,393.872,402.912,398.444,406.226,396.485z"/>
			<path fill="#DEAA78" d="M408.202,400.856l2.389-2.105c1.028-0.905,1.134-2.563,0.237-3.705l-0.033-0.041
				c-0.896-1.141-2.456-1.332-3.483-0.427l-2.389,2.105C402.517,398.71,405.434,402.86,408.202,400.856z"/>
			<path fill="#E6B07C" d="M403.939,391.338l4.511-3.889c1.329-1.063,1.377-1.965,0.424-3.289l0.22-1.083
				c-0.953-1.324-2.804-1.535-4.132-0.472l-4.511,3.89C397.868,388.725,400.627,393.297,403.939,391.338z"/>
			<path fill="#F5C08C" d="M402.037,384.02c0.571-0.042,5.557-1.046,5.557-1.046c1.663-0.282,2.812-1.815,2.564-3.423l-0.009-0.059
				c-0.247-1.608,2.064-3.291,0.401-3.009l-9.416,1.654C396.617,379.18,397.834,384.892,402.037,384.02z"/>
			<circle fill="#FFFFFF" cx="415.342" cy="411.281" r="0.786"/>
			<circle fill="#FFFFFF" cx="416.146" cy="413.584" r="0.785"/>
			<circle fill="#FFFFFF" cx="416.964" cy="415.923" r="0.785"/>
			<g>
				<path fill="#3C3C3B" d="M389.863,378.223l0.001-0.017c0.03-0.457,0.493-0.798,1.033-0.762l0.982,0.065
					c0.54,0.035,0.953,0.435,0.923,0.892l-0.001,0.018c-0.03,0.457-0.493,0.798-1.033,0.762l-0.982-0.065
					C390.246,379.08,389.833,378.68,389.863,378.223z"/>
				<path opacity="0.2" fill="#1D1D1B" d="M432.866,381.165l0.02-0.302c0.048-0.721-0.355-1.335-0.9-1.371l-2.434-0.162
					l-0.194,2.913l2.434,0.161C432.337,382.441,432.817,381.886,432.866,381.165z"/>
				<path fill="#E6332A" d="M391.853,378.307l0.003-0.046c0.083-1.254,1.167-2.202,2.421-2.119l18.161,1.209l-0.306,4.585
					l-18.161-1.208C392.717,380.644,391.769,379.56,391.853,378.307z"/>
				<path fill="#E6332A" d="M413.98,382.415l0.353-5.294l14.235,0.948c0.587,0.039,1.031,0.546,0.992,1.133l-0.211,3.168
					c-0.039,0.587-0.547,1.031-1.134,0.992L413.98,382.415z"/>
				<polygon fill="#F9B233" points="411.983,381.926 412.289,377.341 414.333,377.121 413.98,382.415 				"/>
				<path fill="#F9B233" d="M430.82,378.259c0.032-0.48-0.133-0.953-0.458-1.308c-0.324-0.355-0.78-0.563-1.261-0.574l-12.739-0.299
					l0.001-0.011c0.028-0.423-0.292-0.789-0.716-0.817l-0.582-0.039c-0.333-0.021-0.62,0.229-0.643,0.563l-0.018,0.259l-0.045,0.684
					l1.951,0.13l12.892,0.858c0.251,0.017,0.441,0.234,0.425,0.485l-0.309,4.636l1.191,0.079L430.82,378.259z"/>
			</g>
			<path fill="#FFCF9F" d="M422.099,403.564l-0.004,0.002c0,0,4.193-13.857-1.411-18.424l-3.006-0.523
				c-2.293-0.398-4.19-2.251-4.773-4.663c-0.077-0.317-0.145-0.595-0.197-0.807l-0.378-1.542c-0.6-2.463-1.001-4.182-1.078-4.687
				c-0.263-1.685-1.708-2.947-3.286-2.811l-0.062,0.008c-1.577,0.136-2.684,1.72-2.4,3.531c0.597,3.885,1.4,7.741,2.408,11.546
				c0.002,0.005,0.003,0.01,0.004,0.015c0.158,0.613-0.136,1.146-0.39,1.7c-1.541,3.356-1.615,6.608-0.973,11.077
				c0.986,6.851,4.656,9.042,4.656,9.042l3.466,10.894l10.89-3.465L422.099,403.564z"/>
		</g>
		<g>
			
				<rect x="410.91" y="406.062" transform="matrix(-0.9548 0.2973 -0.2973 -0.9548 939.4464 677.6592)" fill="#EDEDED" width="14.569" height="8.406"/>
			
				<rect x="413.843" y="412.101" transform="matrix(-0.9529 0.3032 -0.3032 -0.9529 952.2418 696.6992)" fill="#3C3C3B" width="16.384" height="20.345"/>
			<g>
				<circle fill="#EDEDED" cx="416.083" cy="422.689" r="0.899"/>
				<circle fill="#EDEDED" cx="415.199" cy="419.911" r="0.9"/>
				<circle fill="#EDEDED" cx="414.322" cy="417.156" r="0.9"/>
			</g>
		</g>
	</g>
	<path fill="#E6332A" d="M366.733,367.149v-2.081c0-0.612-0.39-1.152-0.974-1.344l-1.03-0.465l-0.861-0.47l-0.246-0.135
		l-0.229-0.158l-0.003,0.003l-0.004-0.599c0.004-0.005,0.008-0.008,0.012-0.013c0.137-0.158,0.282-0.368,0.473-0.646
		c0.16-0.235,0.286-0.588,0.381-1.033c0.012,0.004,0.023,0.009,0.035,0.011c0.041,0.007,0.082,0.002,0.122-0.014
		c0.171-0.064,0.242-0.308,0.293-0.621c0.063-0.387,0.026-0.731-0.188-0.767l0.067-0.898c0.018-0.469-0.159-0.923-0.48-1.264
		c-0.465-0.493-0.93-0.652-1.859-0.652h-0.004c-0.929,0-1.394,0.159-1.858,0.652c-0.321,0.341-0.498,0.795-0.48,1.264l0.067,0.898
		c-0.214,0.035-0.25,0.38-0.188,0.767c0.051,0.313,0.122,0.557,0.292,0.621c0.04,0.016,0.082,0.021,0.122,0.014
		c0.013-0.002,0.024-0.007,0.036-0.011c0.095,0.445,0.22,0.798,0.381,1.033c0.189,0.278,0.336,0.488,0.472,0.646
		c0.005,0.005,0.01,0.009,0.014,0.014l-0.003,0.598l-0.004-0.003l-0.229,0.158l-0.245,0.135l-0.862,0.47l-1.03,0.465
		c-0.584,0.191-0.974,0.731-0.974,1.344v2.081H366.733z"/>
	<path fill="#00ABA3" d="M366.733,379.515v-2.08c0-0.612-0.39-1.152-0.974-1.344l-1.03-0.466l-0.861-0.47l-0.246-0.134l-0.229-0.158
		l-0.003,0.002l-0.004-0.598c0.004-0.005,0.008-0.009,0.012-0.014c0.137-0.157,0.282-0.367,0.473-0.646
		c0.16-0.235,0.286-0.588,0.381-1.033c0.012,0.004,0.023,0.009,0.035,0.011c0.041,0.008,0.082,0.002,0.122-0.014
		c0.171-0.064,0.242-0.307,0.293-0.62c0.063-0.387,0.026-0.731-0.188-0.767l0.067-0.899c0.018-0.469-0.159-0.922-0.48-1.263
		c-0.465-0.493-0.93-0.653-1.859-0.653h-0.004c-0.929,0-1.394,0.16-1.858,0.653c-0.321,0.341-0.498,0.794-0.48,1.263l0.067,0.899
		c-0.214,0.035-0.25,0.38-0.188,0.767c0.051,0.313,0.122,0.556,0.292,0.62c0.04,0.016,0.082,0.021,0.122,0.014
		c0.013-0.002,0.024-0.007,0.036-0.011c0.095,0.445,0.22,0.798,0.381,1.033c0.189,0.279,0.336,0.489,0.472,0.646
		c0.005,0.006,0.01,0.01,0.014,0.015l-0.003,0.597l-0.004-0.002l-0.229,0.158l-0.245,0.134l-0.862,0.47l-1.03,0.466
		c-0.584,0.191-0.974,0.731-0.974,1.344v2.08H366.733z"/>
	<path fill="#D1A772" d="M366.733,391.881v-2.08c0-0.612-0.39-1.152-0.974-1.345l-1.03-0.465l-0.861-0.47l-0.246-0.134l-0.229-0.159
		l-0.003,0.003l-0.004-0.599c0.004-0.005,0.008-0.008,0.012-0.013c0.137-0.158,0.282-0.368,0.473-0.646
		c0.16-0.235,0.286-0.588,0.381-1.033c0.012,0.004,0.023,0.009,0.035,0.011c0.041,0.007,0.082,0.002,0.122-0.014
		c0.171-0.064,0.242-0.307,0.293-0.621c0.063-0.387,0.026-0.731-0.188-0.766l0.067-0.899c0.018-0.469-0.159-0.923-0.48-1.264
		c-0.465-0.493-0.93-0.652-1.859-0.652h-0.004c-0.929,0-1.394,0.159-1.858,0.652c-0.321,0.341-0.498,0.795-0.48,1.264l0.067,0.899
		c-0.214,0.034-0.25,0.379-0.188,0.766c0.051,0.314,0.122,0.557,0.292,0.621c0.04,0.016,0.082,0.021,0.122,0.014
		c0.013-0.002,0.024-0.007,0.036-0.011c0.095,0.445,0.22,0.798,0.381,1.033c0.189,0.278,0.336,0.488,0.472,0.646
		c0.005,0.005,0.01,0.009,0.014,0.014l-0.003,0.598l-0.004-0.003l-0.229,0.159l-0.245,0.134l-0.862,0.47l-1.03,0.465
		c-0.584,0.192-0.974,0.732-0.974,1.345v2.08H366.733z"/>
	<path fill="#205887" d="M366.733,404.063v-2.08c0-0.612-0.39-1.152-0.974-1.344l-1.03-0.466l-0.861-0.47l-0.246-0.134l-0.229-0.158
		l-0.003,0.002l-0.004-0.598c0.004-0.005,0.008-0.009,0.012-0.014c0.137-0.157,0.282-0.367,0.473-0.646
		c0.16-0.235,0.286-0.588,0.381-1.033c0.012,0.004,0.023,0.009,0.035,0.011c0.041,0.007,0.082,0.002,0.122-0.014
		c0.171-0.064,0.242-0.307,0.293-0.62c0.063-0.387,0.026-0.731-0.188-0.767l0.067-0.899c0.018-0.469-0.159-0.923-0.48-1.264
		c-0.465-0.492-0.93-0.652-1.859-0.652h-0.004c-0.929,0-1.394,0.16-1.858,0.652c-0.321,0.341-0.498,0.795-0.48,1.264l0.067,0.899
		c-0.214,0.035-0.25,0.38-0.188,0.767c0.051,0.313,0.122,0.556,0.292,0.62c0.04,0.016,0.082,0.021,0.122,0.014
		c0.013-0.002,0.024-0.007,0.036-0.011c0.095,0.445,0.22,0.798,0.381,1.033c0.189,0.279,0.336,0.489,0.472,0.646
		c0.005,0.005,0.01,0.01,0.014,0.015l-0.003,0.597l-0.004-0.002l-0.229,0.158l-0.245,0.134l-0.862,0.47l-1.03,0.466
		c-0.584,0.191-0.974,0.731-0.974,1.344v2.08H366.733z"/>
	<g>
		<rect x="368.476" y="358.396" fill="#B2B2B2" width="12.5" height="1.459"/>
		<rect x="368.476" y="360.827" fill="#B2B2B2" width="12.5" height="1.46"/>
		<rect x="368.476" y="363.258" fill="#B2B2B2" width="12.5" height="1.46"/>
		<rect x="368.476" y="365.689" fill="#B2B2B2" width="12.5" height="1.46"/>
	</g>
	<g>
		<rect x="368.476" y="370.762" fill="#B2B2B2" width="12.5" height="1.46"/>
		<rect x="368.476" y="373.193" fill="#B2B2B2" width="12.5" height="1.459"/>
		<rect x="368.476" y="375.624" fill="#B2B2B2" width="12.5" height="1.46"/>
		<rect x="368.476" y="378.055" fill="#B2B2B2" width="12.5" height="1.46"/>
	</g>
	<g>
		<rect x="368.476" y="383.128" fill="#B2B2B2" width="12.5" height="1.459"/>
		<rect x="368.476" y="385.559" fill="#B2B2B2" width="12.5" height="1.46"/>
		<rect x="368.476" y="387.99" fill="#B2B2B2" width="12.5" height="1.459"/>
		<rect x="368.476" y="390.421" fill="#B2B2B2" width="12.5" height="1.46"/>
	</g>
	<g>
		<rect x="368.476" y="395.493" fill="#B2B2B2" width="12.5" height="1.46"/>
		<rect x="368.476" y="397.925" fill="#B2B2B2" width="12.5" height="1.459"/>
		<rect x="368.476" y="400.355" fill="#B2B2B2" width="12.5" height="1.46"/>
		<rect x="368.476" y="402.787" fill="#B2B2B2" width="12.5" height="1.459"/>
	</g>
</g>
</svg>
