<?xml version="1.0" encoding="utf-8"?>
<!-- Generator: Adobe Illustrator 16.0.0, SVG Export Plug-In . SVG Version: 6.00 Build 0)  -->
<!DOCTYPE svg PUBLIC "-//W3C//DTD SVG 1.1//EN" "http://www.w3.org/Graphics/SVG/1.1/DTD/svg11.dtd">
<svg version="1.1" id="Слой_1" xmlns="http://www.w3.org/2000/svg" xmlns:xlink="http://www.w3.org/1999/xlink" x="0px" y="0px"
	 width="6500px" height="5200px" viewBox="0 0 6500 5200" enable-background="new 0 0 6500 5200" xml:space="preserve">
<g>
	<path fill="#F39C56" d="M5846.969,4293.522l10.477,17.46l-25.318,13.096c0,0-27.051,43.99-67.363,56.742l-18.189,53.253
		l-51.506-27.937l-3.492-65.473L5846.969,4293.522z"/>
	<path fill="#F39C56" d="M5660.148,4303.998c-67.571,98.146-69.119,70.783,6.983,153.645l15.714-60.234L5660.148,4303.998z"/>
	<rect x="5627.309" y="4391.58" fill="#EE4126" width="186.667" height="149.073"/>
	<g>
		<rect x="5627.309" y="4540.653" fill="#DF3826" width="186.667" height="113.368"/>
		<polygon fill="#5AC8E7" points="5899.498,4540.653 5899.498,4826.736 5541.783,4826.736 5541.783,4540.653 5627.309,4540.653 
			5627.309,4654.021 5813.976,4654.021 5813.976,4540.653 		"/>
		<polygon fill="#A7DCE5" points="5813.609,4540.654 5629.834,4826.726 5562.268,4826.726 5746.058,4540.654 		"/>
		<polygon fill="#A7DCE5" points="5904.822,4659.032 5904.822,4764.188 5864.646,4826.726 5797.094,4826.726 		"/>
		<polygon fill="#A7DCE5" points="5868.354,4540.654 5684.58,4826.726 5650.807,4826.726 5834.596,4540.654 		"/>
		<path fill="#87D2DC" d="M5850.104,4511.382v29.272h49.394v286.071h-357.723v-286.071h49.406v-29.272h-78.68V4856h416.268v-344.618
			H5850.104z"/>
	</g>
	<path fill="#FAB67A" d="M5846.963,4293.519l-24.44,13.104c-41.9,66.341-111.987,54.119-111.987,54.119l-5.87,27.061l13.104,20.088
		c13.088,20.941,5.236,28.795,5.236,28.795c-7.643,8.865-17.483,9.159-23.576,5.25c-5.374-6.689-10.191-12.004-14.48-16.34
		c-36.369-36.711-35.486-2.186-24.799-121.604c0,0,102.135-58.487,103.018-61.104l46.266-23.573L5846.963,4293.519z"/>
	
		<rect x="5748.546" y="4243.506" transform="matrix(-0.4617 -0.8871 0.8871 -0.4617 4703.209 11422.1357)" fill="#5AC8E7" width="138.06" height="80.808"/>
	
		<rect x="5792.288" y="4187.641" transform="matrix(-0.8871 0.4616 -0.4616 -0.8871 13015.3926 5346.1338)" fill="#2D2D2D" width="122.976" height="154.85"/>
	<path fill="#ADCAC6" d="M5888.413,4294.98c-3.387-6.504-0.854-14.524,5.646-17.908c6.505-3.385,14.522-0.858,17.907,5.648
		c3.387,6.507,0.859,14.521-5.648,17.91C5899.813,4304.014,5891.796,4301.486,5888.413,4294.98z"/>
	<path fill="#F37B3E" d="M5716.034,4442.338c-8.875,4.556-16.604-0.402-16.604-0.402c-5.374-6.689-10.191-12.004-14.48-16.34
		c2.32-1.424,4.956-2.122,7.588-2.122c3.949,0,7.898,1.595,10.781,4.739C5714.084,4439.936,5715.055,4440.797,5716.034,4442.338z"/>
</g>
<g>
	<path fill="#CCEBF8" d="M4688.931,4557.891v55.287c0,18.936-15.325,34.315-34.337,34.315h-335.484v-55.189h338.26
		C4673.605,4592.304,4688.931,4576.903,4688.931,4557.891z"/>
	<path fill="#82381B" d="M4688.931,4161v396.891c0,19.013-15.325,34.413-31.562,34.413h-338.26V4161H4688.931z"/>
	<path fill="#CA5827" d="M4654.594,4639.613H4319.12v26.435h338.249c16.246,0,31.554-15.39,31.554-34.405v-26.365
		C4688.923,4624.225,4673.615,4639.613,4654.594,4639.613z"/>
	<rect x="4289.726" y="4161.002" fill="#642D10" width="69.073" height="431.302"/>
	<rect x="4289.726" y="4592.304" fill="#82381B" width="29.395" height="73.744"/>
	<g>
		<g>
			<rect x="4493.857" y="4600.215" fill="#F0AE6C" width="110.614" height="130.76"/>
		</g>
		<g>
			<g>
				<path fill="#F0AE6C" d="M4571.581,4643.787c-74.601,2.658-119.231-3.99-112.92-98.778l0.028-0.122
					c1.997-29.891,10.953-59.924,14.928-81.084h153.574C4638.557,4534.646,4643.345,4641.199,4571.581,4643.787z"/>
			</g>
		</g>
		<g>
			<path fill="#F0AE6C" d="M4510.5,4541.125c-17.285-4.727-36.482-0.841-36.482-0.841s-32.314-82.019-45.463-115.506
				c-11.096-28.263-35.306-19.306-33.494-9.222l42.079,162.986l0.019,0.111C4489.21,4718.846,4616.213,4569.984,4510.5,4541.125z"/>
		</g>
		<g>
			<path fill="#FCCD9F" d="M4403.734,4449.145l-8.674-33.588C4408.416,4415.182,4419.912,4444.707,4403.734,4449.145z"/>
		</g>
		<g>
			<path fill="#F0AE6C" d="M4507.875,4472.304c0,22.733-34.258,22.584-34.258,0v-151.569c0-22.662,34.259-22.684,34.259,0
				L4507.875,4472.304z"/>
		</g>
		<g>
			<path fill="#F0AE6C" d="M4549.162,4472.367c0,22.521-34.258,22.855-34.258,0v-164.443c0-22.656,34.258-22.682,34.258,0V4472.367z
				"/>
		</g>
		<g>
			<path fill="#F0AE6C" d="M4590.446,4472.304c0,22.733-34.257,22.584-34.257,0v-151.569c0-22.662,34.257-22.684,34.257,0V4472.304z
				"/>
		</g>
		<g>
			<path fill="#F0AE6C" d="M4627.191,4476.739c0,20.704-31.193,20.57-31.193,0v-130.276c0-20.633,31.193-20.654,31.193,0V4476.739z"
				/>
		</g>
		<g>
			<path fill="#FCCD9F" d="M4477.619,4323.842c0,4.207,1.118,8.067,2.977,11.083h20.302c1.857-3.016,2.975-6.876,2.975-11.083
				C4503.872,4300.634,4477.619,4300.642,4477.619,4323.842z"/>
		</g>
		<g>
			<path fill="#FCCD9F" d="M4560.193,4323.842c0,4.207,1.115,8.067,2.973,11.083h20.305c1.857-3.016,2.974-6.876,2.974-11.083
				C4586.444,4300.634,4560.193,4300.642,4560.193,4323.842z"/>
		</g>
		<g>
			<path fill="#FCCD9F" d="M4600.758,4348.674c0,3.473,0.922,6.66,2.457,9.149h16.758c1.535-2.489,2.457-5.677,2.457-9.149
				C4622.43,4329.518,4600.758,4329.52,4600.758,4348.674z"/>
		</g>
		<g>
			<path fill="#FCCD9F" d="M4518.904,4312.02c0,4.207,1.119,8.064,2.979,11.084h20.299c1.859-3.02,2.977-6.877,2.977-11.084
				C4545.158,4288.813,4518.904,4288.814,4518.904,4312.02z"/>
		</g>
		<g>
			<g>
				<rect x="4481.125" y="4702.371" fill="#515252" width="136.079" height="164.629"/>
			</g>
			<rect x="4472.378" y="4702.371" fill="#686867" width="153.573" height="105.51"/>
			<circle fill="#F7B717" cx="4500.923" cy="4775.252" r="13.984"/>
			<rect x="4492.99" y="4771.649" fill="#F47E20" width="15.863" height="7.204"/>
		</g>
	</g>
</g>
<g>
	<path fill="#262D3F" d="M2925,4497.662v389.426h389.421v-389.426H2925z M3263.26,4835.926h-287.099v-287.102h287.099V4835.926z"/>
	<polygon fill="#E33326" points="3282.777,4678.729 3180.673,4612.838 3435.338,4218.206 3537.441,4284.102 	"/>
	<path fill="#262D3F" d="M3547.453,4157.659l-1.017-0.663c-27.915-18.011-65.153-9.989-83.158,17.926l-27.94,43.284l102.104,65.896
		l27.941-43.283C3583.397,4212.902,3575.368,4175.669,3547.453,4157.659z"/>
	<polygon fill="#8B8A8A" points="3525.869,4302.035 3423.766,4236.148 3435.338,4218.206 3537.441,4284.102 	"/>
	<path fill="#D0CC29" d="M3353.062,4458.279l-0.462-0.303c-12.824-8.271-16.52-25.379-8.247-38.207l133.874-207.447
		c8.272-12.828,25.379-16.506,38.203-8.233l0.479,0.298c12.824,8.285,16.511,25.393,8.23,38.221l-133.866,207.437
		C3383,4462.869,3365.894,4466.56,3353.062,4458.279z"/>
	<polygon fill="#B5BEBF" points="3175.735,4769.916 3141.688,4747.947 3180.673,4612.838 3282.777,4678.729 	"/>
	<polygon fill="#8B8A8A" points="3292.88,4663.093 3190.759,4597.201 3180.673,4612.838 3282.777,4678.729 	"/>
	<path fill="#262D3F" d="M3132.215,4799.158l-0.167-0.1c-4.762-3.074-6.719-9.087-4.661-14.379l14.302-36.732l33.122,21.364
		l-27.57,28.167C3143.268,4801.545,3136.985,4802.24,3132.215,4799.158z"/>
</g>
<g>
	<polygon fill="#5DB1E2" points="2081.551,4483.15 2072.707,4486.445 2004.954,4353.637 2015.476,4353.637 2015.488,4353.648 	"/>
	<polygon fill="#5DB1E2" points="2194.833,4483.15 2203.677,4486.445 2271.43,4353.637 2260.906,4353.637 2260.894,4353.648 	"/>
	<g>
		<g>
			
				<rect x="1805.708" y="4457.938" transform="matrix(0.4951 -0.8688 0.8688 0.4951 -2974.0486 3863.978)" fill="#B54F26" width="64.039" height="66.13"/>
			<g>
				<path fill="#472B12" d="M1898.905,4476.584c-7.363-4.193-16.729-1.621-20.922,5.736l-27.202,47.734
					c-4.197,7.369-1.632,16.735,5.728,20.93l0,0c7.361,4.195,16.729,1.626,20.926-5.742l27.199-47.734
					C1908.828,4490.148,1906.265,4480.781,1898.905,4476.584L1898.905,4476.584z"/>
				<path fill="#472B12" d="M1818.949,4431.025c-7.359-4.195-16.729-1.625-20.92,5.734l-27.202,47.734
					c-4.199,7.367-1.63,16.736,5.728,20.928l0,0c7.356,4.193,16.725,1.627,20.924-5.741l27.199-47.734
					C1828.871,4444.588,1826.305,4435.217,1818.949,4431.025L1818.949,4431.025z"/>
			</g>
		</g>
		<g>
			<polygon fill="#623613" points="1814.938,4549.299 1807.055,4544.806 1710.2,4716.412 1718.083,4720.906 			"/>
			<polygon fill="#472B12" points="1807.055,4544.806 1799.179,4540.318 1702.324,4711.925 1710.2,4716.412 			"/>
			<path fill="#623613" d="M1717.018,4720.299l-6.818-3.887l-10.542,18.499l6.818,3.888c5.107,2.907,11.603,1.094,14.512-4.011
				c1.467-2.573,1.747-5.442,1.026-8.069C1721.299,4724.09,1719.59,4721.766,1717.018,4720.299z"/>
			<path fill="#472B12" d="M1710.2,4716.412l-6.774-3.857c-5.102-2.911-11.618-1.16-14.531,3.943
				c-1.461,2.572-1.747,5.444-0.984,8.094c0.717,2.631,2.442,5.016,4.976,6.458l6.772,3.861L1710.2,4716.412z"/>
			<polygon fill="#623613" points="1833.817,4525.656 1821.853,4518.838 1807.055,4544.806 1814.938,4549.299 			"/>
			<polygon fill="#472B12" points="1821.853,4518.838 1809.889,4512.021 1799.179,4540.318 1807.055,4544.806 			"/>
		</g>
		
			<rect x="1829.347" y="4465.197" transform="matrix(0.4952 -0.8688 0.8688 0.4952 -2979.6426 3863.7336)" fill="#F5841F" width="11.211" height="61.353"/>
	</g>
	<path fill="#472B12" d="M1956.614,4576.895v-13.138c0-5.883-4.768-10.651-10.65-10.651h-88.057c-5.882,0-10.65,4.769-10.65,10.651
		v13.138H1956.614z"/>
	<path fill="#B54F26" d="M1965.836,4584.598c0,4.256-3.451,7.705-7.706,7.705h-112.39c-4.255,0-7.706-3.449-7.706-7.705l0,0
		c0-4.254,3.451-7.703,7.706-7.703h112.39C1962.385,4576.895,1965.836,4580.344,1965.836,4584.598L1965.836,4584.598z"/>
	<path fill="#FFC514" d="M2021.463,4347.283c-1.678,4.379-6.275,7.606-11.245,7.588c-4.971-0.018-9.173-3.166-10.815-7.559
		l-8.169-0.029c1.854,8.771,9.625,15.378,18.955,15.413c7.121,0.027,13.334-3.793,16.743-9.486l33.911,0.126l77.351,9.828
		l0.036-15.881H2021.463z"/>
	<polygon fill="#90D4DB" points="2015.488,4353.648 2010.225,4363.969 1947.733,4486.445 1938.889,4483.15 2004.954,4353.637 
		2015.476,4353.637 	"/>
	<path fill="#EDA120" d="M1942.986,4493.305c12.458,22.898,37.851,38.617,67.231,38.617c29.381,0,54.77-15.719,67.231-38.617
		H1942.986z"/>
	<rect x="1938.884" y="4483.154" fill="#A84724" width="142.667" height="18.432"/>
	<path fill="#F6901E" d="M2254.919,4347.283c1.68,4.379,6.273,7.606,11.244,7.588c4.974-0.018,9.174-3.166,10.818-7.559l8.168-0.029
		c-1.854,8.771-9.624,15.378-18.955,15.413c-7.12,0.027-13.332-3.793-16.743-9.486l-33.911,0.126l-77.349,9.828l-0.037-15.881
		H2254.919z"/>
	<polygon fill="#90D4DB" points="2260.894,4353.648 2266.157,4363.969 2328.649,4486.445 2337.493,4483.15 2271.43,4353.637 
		2260.906,4353.637 	"/>
	<path fill="#EDA120" d="M2333.396,4493.305c-12.456,22.898-37.85,38.617-67.233,38.617c-29.38,0-54.767-15.719-67.229-38.617
		H2333.396z"/>
	<rect x="2194.831" y="4483.154" fill="#A84724" width="142.669" height="18.432"/>
	<rect x="2107.437" y="4555.664" fill="#D47828" width="61.434" height="15.381"/>
	<rect x="2064.655" y="4571.045" fill="#F6901E" width="146.996" height="21.258"/>
	<path fill="#A84724" d="M2138.153,4294.28v261.384h-18.273l12.66-225.722c-7.345-2.369-12.66-9.258-12.66-17.39
		C2119.88,4302.465,2128.065,4294.28,2138.153,4294.28z"/>
	<path fill="#80381B" d="M2143.765,4329.942l12.66,225.722h-18.271V4294.28c10.086,0,18.271,8.185,18.271,18.272
		C2156.425,4320.685,2151.108,4327.573,2143.765,4329.942z"/>
	<polygon fill="#A84724" points="2138.153,4555.664 2168.87,4571.045 2168.87,4555.664 	"/>
	<polygon fill="#D47828" points="2211.651,4571.045 2211.651,4592.303 2168.87,4571.045 	"/>
	<path fill="#2565A5" d="M2212.946,4734.599h-93.461l20.537-142.296h72.924c39.137,0,70.864,32.304,70.864,71.437l0,0
		C2283.811,4702.871,2252.083,4734.599,2212.946,4734.599z"/>
	<path fill="#F9F07E" d="M2203.823,4663.452v0.61h-351.448v-58.698h293.361C2177.818,4605.364,2203.823,4631.37,2203.823,4663.452z"
		/>
	<path fill="#3986C6" d="M2203.824,4663.451c0,32.07-26.006,58.072-58.078,58.072h-306.421v13.075h306.421
		c39.259,0,71.153-31.896,71.153-71.147c0-39.259-31.895-71.148-71.153-71.148h-306.421v13.069h306.421
		C2177.818,4605.372,2203.824,4631.381,2203.824,4663.451z"/>
	<path fill="#FCC10F" d="M2203.823,4664.063c-0.329,31.801-26.208,57.478-58.086,57.478h-293.361v-57.478H2203.823z"/>
</g>
<g>
	<polygon fill="#284968" points="1010.281,4258.854 996.997,4263.793 1067.349,4453.922 1080.634,4448.98 	"/>
	<polygon fill="#284968" points="560.379,4487.721 547.095,4492.66 617.122,4681.135 630.406,4676.193 	"/>
	<polygon fill="#353F4B" points="790.458,4381.824 780.051,4381.824 769.645,4381.824 744.667,4718.358 780.051,4742.506 
		815.441,4718.358 	"/>
	<path fill="#494F57" d="M800.005,4755.105c0,11.5-9.327,20.813-20.819,20.813c-11.492,0-20.813-9.313-20.813-20.813
		c0-11.492,9.32-20.813,20.813-20.813C790.679,4734.293,800.005,4743.613,800.005,4755.105z"/>
	<g>
		<path fill="#FBBB1F" d="M568.703,4459.965c0.955,9.036-3.587,18.127-12.177,22.466c-8.593,4.339-18.609,2.599-25.313-3.536
			l-14.118,7.131c10.915,13.51,30.125,18.079,46.26,9.932c12.306-6.213,19.675-18.266,20.55-31.087l58.625-29.599l142.117-51.049
			l-13.395-26.528L568.703,4459.965z"/>
		<path fill="#F79728" d="M981.733,4251.418c6.705,6.135,16.716,7.879,25.31,3.537c8.594-4.339,13.14-13.431,12.177-22.467
			l14.122-7.13c4.394,16.803-3.335,34.976-19.47,43.122c-12.309,6.214-26.375,4.986-37.211-1.92l-58.625,29.6l-125.449,84.053
			l-13.395-26.527L981.733,4251.418z"/>
	</g>
	<path fill="#353D4A" d="M800.87,4378.082c0,11.492-9.319,20.813-20.819,20.813l0,0c-11.493,0-20.812-9.32-20.812-20.813v-19.131
		c0-11.493,9.319-20.813,20.812-20.813l0,0c11.5,0,20.819,9.319,20.819,20.813V4378.082z"/>
	<path fill="#FBBB1F" d="M918.279,4788.296c-3.079-9.651-12.123-16.654-22.798-16.654h-232.58c-10.679,0-19.716,7.003-22.801,16.654
		H918.279z"/>
	<path fill="#246396" d="M971.943,4809.108c-5.341-12.247-17.554-20.813-31.765-20.813H618.205
		c-14.218,0-26.424,8.565-31.771,20.813H971.943z"/>
	
		<rect x="406.944" y="4572.226" transform="matrix(0.3485 -0.9373 0.9373 0.3485 -3958.0232 3464.105)" fill="#284968" width="211.995" height="14.174"/>
	<g>
		<path fill="#F4AA1C" d="M455.747,4673.426c17.443,27.538,53,46.441,94.14,46.441c41.133,0,76.69-18.903,94.14-46.441H455.747z"/>
		<rect x="450" y="4673.426" fill="#FBBB1F" width="199.769" height="11.625"/>
	</g>
	
		<rect x="857.174" y="4345.014" transform="matrix(0.3485 -0.9373 0.9373 0.3485 -3451.7483 3738.1174)" fill="#284968" width="211.991" height="14.174"/>
	<g>
		<path fill="#F4AA1C" d="M905.977,4446.221c17.443,27.537,53,46.439,94.141,46.439c41.133,0,76.69-18.902,94.14-46.439H905.977z"/>
		<rect x="900.227" y="4446.221" fill="#FBBB1F" width="199.773" height="11.623"/>
	</g>
</g>
<g>
	<path fill="#F8AE75" d="M5832.432,3209.067l-26.506,6.13l-58.424-22.287c-2.63-1.01-5.488-0.979-8.072,0.061l-32.529,12.994
		l11.863,0.474l38.811,38.094c0.184,0.274,0.367,0.565,0.551,0.871l52.57,83.219l0.014-0.015l51.349-26.217L5832.432,3209.067z"/>
	<polygon fill="#4E4E4F" points="5997.781,3121.046 6050,3250.242 5885.105,3316.452 5832.885,3187.258 	"/>
	<polygon fill="#D8E9E5" points="5838.342,3200.762 5879.658,3302.947 5860.617,3310.629 5819.307,3208.455 	"/>
	<circle fill="#DADCDC" cx="5902.507" cy="3279.213" r="10.019"/>
	<g>
		
			<rect x="5705.337" y="3218.833" transform="matrix(0.6663 0.7457 -0.7457 0.6663 4374.6216 -3187.6816)" fill="#5C7B37" width="87.092" height="150.116"/>
		<path fill="#DEF0ED" d="M5734.453,3306.781c-9.279-10.388-10.679-24.733-2.602-31.951c8.246-7.369,22.373-3.999,31.457,6.169
			c9.41,10.528,10.574,24.835,2.607,31.954C5757.949,3320.071,5743.863,3317.312,5734.453,3306.781z"/>
		<path fill="#DEF0ED" d="M5734.489,3355.917l77.643-69.377c-5.776-6.465-5.236-16.452,1.255-22.251l-27.857-31.176
			c-6.49,5.799-16.475,5.218-22.252-1.248l-77.643,69.377c5.778,6.466,5.236,16.451-1.254,22.251l27.855,31.177
			C5718.729,3348.871,5728.713,3349.451,5734.489,3355.917z M5689.846,3323.503c4.652-6.31,5.137-14.866,1.221-21.657l72.201-64.515
			c6.311,4.651,14.869,5.129,21.658,1.213l22.995,25.734c-4.653,6.311-5.136,14.867-1.222,21.658l-72.199,64.515
			c-6.311-4.652-14.867-5.129-21.658-1.214L5689.846,3323.503z"/>
		<path fill="#5C9340" d="M5760.375,3303.764c2.182-3.439,2.109-7.795-0.479-10.69c-2.862-3.205-7.854-3.539-11.724-0.997
			c-0.19,0.124-0.38,0.25-0.563,0.389c-2.273,1.546-5.133,1.468-6.699-0.285c-1.694-1.896-1.252-5.07,0.945-7.176
			c0.057-0.056,0.104-0.118,0.162-0.172c1.601-1.43,3.65-1.945,5.337-1.513l0.224-3.976c-2.451-0.392-5.117,0.232-7.354,1.866
			l-0.962-1.077l-0.979,0.874l-1.992,1.783l1.193,1.333c-2.182,3.439-2.107,7.795,0.478,10.69c3.003,3.361,8.354,3.571,12.288,0.606
			c0.196-0.133,0.4-0.235,0.604-0.346c2.158-1.157,4.666-0.971,6.097,0.632c1.431,1.602,1.325,4.114-0.058,6.126
			c-0.299,0.434-0.637,0.852-1.052,1.223c-1.599,1.429-3.649,1.944-5.337,1.512l-0.222,3.975c2.45,0.393,5.116-0.233,7.353-1.865
			l0.963,1.076l1.992-1.78l0.979-0.874L5760.375,3303.764z"/>
	</g>
	<g>
		
			<rect x="5722.222" y="3230.594" transform="matrix(0.5583 0.8296 -0.8296 0.5583 5288.8926 -3323.377)" fill="#71AC43" width="87.095" height="150.114"/>
		<path fill="#DEF0ED" d="M5749.717,3316.453c-7.776-11.558-7.207-25.961,1.781-32.009c9.174-6.174,22.708-0.908,30.32,10.405
			c7.886,11.713,7.087,26.045-1.777,32.01C5771.177,3332.825,5757.598,3328.168,5749.717,3316.453z"/>
		<path fill="#DEF0ED" d="M5743.047,3365.134l86.383-58.133c-4.844-7.194-2.943-17.013,4.279-21.872l-23.344-34.686
			c-7.22,4.857-17.031,2.921-21.875-4.273l-86.381,58.133c4.841,7.193,2.941,17.014-4.28,21.873l23.345,34.686
			C5728.393,3356.002,5738.203,3357.94,5743.047,3365.134z M5703.242,3326.932c5.471-5.617,7.117-14.027,4.165-21.29l80.327-54.059
			c5.617,5.47,14.03,7.11,21.291,4.157l19.271,28.632c-5.472,5.616-7.118,14.028-4.167,21.288l-80.329,54.061
			c-5.615-5.47-14.027-7.11-21.289-4.158L5703.242,3326.932z"/>
		<path fill="#5C9340" d="M5775.808,3317c2.628-3.11,3.151-7.434,0.983-10.656c-2.398-3.565-7.298-4.576-11.479-2.587
			c-0.203,0.098-0.412,0.196-0.611,0.308c-2.463,1.222-5.285,0.754-6.598-1.197c-1.419-2.108-0.549-5.192,1.914-6.979
			c0.066-0.047,0.12-0.104,0.186-0.148c1.779-1.197,3.881-1.429,5.494-0.77l0.764-3.908c-2.377-0.723-5.101-0.469-7.541,0.844
			l-0.805-1.196l-1.088,0.732l-2.218,1.493l0.999,1.484c-2.629,3.109-3.151,7.434-0.984,10.655
			c2.518,3.739,7.787,4.677,12.091,2.278c0.21-0.104,0.427-0.18,0.644-0.26c2.296-0.853,4.755-0.326,5.955,1.457
			c1.197,1.781,0.752,4.256-0.896,6.061c-0.354,0.387-0.743,0.757-1.206,1.067c-1.779,1.198-3.882,1.429-5.493,0.77l-0.763,3.907
			c2.376,0.724,5.101,0.468,7.538-0.844l0.809,1.197l2.215-1.492l1.09-0.733L5775.808,3317z"/>
	</g>
	<path fill="#F8AE75" d="M5757.574,3244.532l-36.9-15.485c0,0-10.732,49.068-33.295,49.068c-10.426,0-16.615-5.06-18.191-9.492
		l25.713-57.859l12-4.799l11.863,0.474L5757.574,3244.532z"/>
	<path fill="#F3995D" d="M5806.934,3346.354c-6.832,4.51-17.258,5.243-22.194-2.675c3.913,6.771,7.627,12.106-2.538,19.612
		c-8.469,6.282-16.066,2.507-20.438-1.56c1.773,5.855-0.49,12.367-5.946,15.684c-5.886,3.578-13.331,2.155-17.579-2.966
		c1.926,5.901-0.322,12.597-5.887,15.975c-6.465,3.914-14.047,1.773-22.807-5.411l-15.333-14.078
		c-0.075-0.138-0.105-0.275-0.184-0.413l-21.567-3.164l-84.244-81.034l36.474-83.586l82.21,3.227l-12,4.799l-25.713,57.859
		c1.576,4.433,7.766,9.492,18.191,9.492c22.563,0,33.295-49.068,33.295-49.068l36.9,15.485c0.184,0.274,0.367,0.565,0.551,0.871
		c11.984,18.771,49.909,77.838,51.913,81.813c0.228,0.459,0.458,0.933,0.671,1.392
		C5813.492,3334.554,5814.869,3341.096,5806.934,3346.354z"/>
	<g>
		<polygon fill="#696A6B" points="5452.223,3111.797 5400,3240.982 5564.896,3307.197 5617.114,3178.004 		"/>
		<polygon fill="#D8E9E5" points="5611.656,3191.509 5570.345,3293.692 5589.387,3301.375 5630.694,3199.201 		"/>
	</g>
	<circle fill="#DADCDC" cx="5547.222" cy="3273.475" r="10.018"/>
	<g>
		<path fill="#F8AE75" d="M5713.006,3332.757c-4.076-4.063-10.066-5.003-15.05-2.855c2.153-5.003,1.196-11.036-2.908-15.11
			c-4.31-4.283-10.731-5.048-15.862-2.413c3.242-5.292,2.592-12.287-2-16.847c-5.361-5.337-14.03-5.314-19.356,0.054h-0.011
			c5.337-5.357,5.303-14.035-0.058-19.371c-5.368-5.323-14.035-5.29-19.369,0.078c0,0-29.374,29.654-29.595,29.92l0.004-0.088
			l-9.586-9.221c0,5.756,2.848,22.492,10.279,27.896c6.113,4.438,14.025,5.291,19.362-0.067c-5.323,5.368-5.292,14.037,0.069,19.36
			c4.697,4.672,11.99,5.004,15.979,2.203c-3.391,5.313-2.768,12.442,1.885,17.069c4.109,4.084,10.122,4.937,15.118,2.734
			c-2.218,5.025-1.29,11.114,2.845,15.22c4.447,4.428,11.152,5.104,16.354,2.159c5.911-3.819,28.015-27.231,31.966-31.359
			C5718.407,3346.761,5718.377,3338.081,5713.006,3332.757z"/>
		<g>
			<g>
				<g>
					<g>
						<path fill="#FCD9C1" d="M5673.094,3299.76c4.163,4.604,0.375,11.467-9.471,18.353l-10.59-10.461
							C5660.821,3296.471,5668.184,3294.324,5673.094,3299.76z"/>
					</g>
				</g>
			</g>
		</g>
		<g>
			<g>
				<g>
					<g>
						<path fill="#FCD9C1" d="M5692.629,3319.12c4.164,4.616,0.375,11.479-9.471,18.353l-10.592-10.45
							C5680.352,3315.842,5687.719,3313.696,5692.629,3319.12z"/>
					</g>
				</g>
			</g>
		</g>
		<g>
			<g>
				<g>
					<g>
						<path fill="#FCD9C1" d="M5710.215,3337.328c4.164,4.616,0.378,11.48-9.469,18.354l-10.592-10.449
							C5697.941,3334.052,5705.308,3331.905,5710.215,3337.328z"/>
					</g>
				</g>
			</g>
		</g>
		<g>
			<g>
				<g>
					<g>
						<path fill="#FCD9C1" d="M5654.314,3280.974c4.168,4.616,0.383,11.479-9.465,18.354l-10.59-10.449
							C5642.043,3277.697,5649.408,3275.551,5654.314,3280.974z"/>
					</g>
				</g>
			</g>
		</g>
	</g>
	<path fill="#FCD9C1" d="M5675.197,3275.171c-4.676-2.79-6.01-6.546-6.01-6.546l7.498-16.881
		C5684.274,3252.155,5683.623,3267.393,5675.197,3275.171z"/>
</g>
<g>
	<path fill="#A7DCE5" d="M4812.5,3058.261v293.05h-263.793v-97.374c47.826-30.564,66.848-92.544,42.263-145.477
		c-9.562-20.547-24.428-36.996-42.263-48.379v-1.82H4812.5z"/>
	<rect x="4548.711" y="3351.319" fill="#75CCD5" width="263.787" height="22.891"/>
	<rect x="4548.711" y="3374.21" fill="#A7DCE5" width="263.787" height="22.89"/>
	<rect x="4548.711" y="3397.1" fill="#75CCD5" width="263.787" height="22.891"/>
	<rect x="4548.711" y="3419.99" fill="#A7DCE5" width="263.787" height="22.891"/>
	<rect x="4548.711" y="3442.881" fill="#75CCD5" width="263.787" height="22.89"/>
	<rect x="4548.711" y="3465.771" fill="#A7DCE5" width="263.787" height="22.891"/>
	<polygon fill="#2A2B2A" points="4434.278,3322.314 4404.255,3309.613 4422.246,3267.124 4452.262,3279.821 	"/>
	<path fill="#9FBA3B" d="M4397.496,3306.754l-50.992,116.002c-12.138,28.661,31.246,47.427,43.527,18.41l51.002-115.992
		L4397.496,3306.754z"/>
	<path fill="#4B4D4D" d="M4515.064,3295.606c-63.561,13.071-125.93-18.675-154.264-73.632
		c-42.879-82.977,5.321-184.641,97.206-203.545c76.557-15.759,151.369,33.509,167.132,110.056
		C4640.881,3205.037,4591.611,3279.85,4515.064,3295.606z"/>
	<polygon fill="#FCC27D" points="4271.451,3390.416 4303.713,3324.774 4357.812,3351.367 4325.558,3417.002 	"/>
	<path fill="#FCC27D" d="M4377.572,3375.415c-13.049-7.354-1.518-27.638,11.891-20.081l41.881,23.361
		c13.439,7.584,1.988,27.914-11.893,20.077L4377.572,3375.415z"/>
	<path fill="#FCC27D" d="M4373.201,3399.73c-13.475-7.597-1.951-27.884,11.467-20.32l41.756,23.022
		c13.449,7.575,1.994,27.913-11.454,20.318L4373.201,3399.73z"/>
	<path fill="#FCC27D" d="M4357.482,3416.228c-13.477-7.597-1.949-27.882,11.461-20.32l41.166,23.21
		c13.438,7.58,1.973,27.913-11.471,20.318L4357.482,3416.228z"/>
	<path fill="#FCC27D" d="M4357.521,3438.203c-12.111-6.83-2.656-23.457,9.389-16.663l23.082,13.022
		c12.084,6.814,2.707,23.488-9.391,16.655L4357.521,3438.203z"/>
	<path fill="#FCC27D" d="M4297.781,3386.364c0,0-4.496,18.181,22.258,36.192c18.414,12.402,51.273,23.42,51.273,23.42l36.33-73.831
		l-39.625-23.786L4297.781,3386.364z"/>
	<path fill="#FCC27D" d="M4399.813,3361.105c-10.858,40.976-56.521,44.632-69.969,35.111c-19.186-13.72-15.783-35.273-5.412-56.648
		c23.801-13.882,43.727-15.637,43.727-15.637c5.629-0.725,8.995-2.842,11.203-5.412c4.887-5.702,4.035-13.682,9.23-13.792
		c17.572-0.343,16.529,19.467-2.787,35.8C4373.479,3350.952,4399.813,3361.105,4399.813,3361.105z"/>
	<path fill="#EE3E23" d="M4393.424,3305.235c-0.181,0.542-0.38,1.085-0.598,1.647c-3.365,8.814-8.597,11.184-13.465,11.637
		c4.887-5.702,4.035-13.682,9.23-13.792C4390.401,3304.692,4392.013,3304.873,4393.424,3305.235z"/>
	<g>
		
			<rect x="4233.266" y="3292.105" transform="matrix(-0.9078 -0.4193 0.4193 -0.9078 6733.8652 8161.0313)" fill="#ED2A28" width="60.964" height="96.852"/>
		
			<rect x="4175.104" y="3284.281" transform="matrix(-0.9079 -0.4193 0.4193 -0.9079 6686.5205 8124.9795)" fill="#ED2A28" width="121.937" height="86.921"/>
		<polygon fill="#87D2DC" points="4309.646,3313.85 4324.428,3320.683 4287.977,3399.587 4273.201,3392.761 		"/>
		
			<rect x="4222.969" y="3281.402" transform="matrix(-0.9077 -0.4195 0.4195 -0.9077 6674.626 8117.4941)" fill="#DF1F26" width="13.743" height="86.925"/>
		<path fill="#DADCDC" d="M4277.969,3319.36c1.279-2.772,4.563-3.979,7.33-2.698c2.771,1.273,3.982,4.556,2.703,7.329
			c-1.279,2.77-4.564,3.979-7.337,2.699C4277.896,3325.418,4276.689,3322.131,4277.969,3319.36z"/>
	</g>
	<path fill="#5AC8E7" d="M4548.707,3253.937v-193.855c17.835,11.383,32.701,27.832,42.263,48.379
		C4615.555,3161.393,4596.533,3223.372,4548.707,3253.937z"/>
	<path fill="#87D2DC" d="M4548.707,3060.081v193.855c-4.316,2.773-8.869,5.286-13.641,7.503
		c-57.821,26.823-126.215,1.683-152.957-55.922c-26.804-57.663-1.782-126.157,55.902-152.96
		C4475.166,3035.316,4516.677,3039.572,4548.707,3060.081z"/>
	<path fill="#A7DCE5" d="M4471.939,3127.713c-7.93,3.68-17.342,0.238-21.025-7.688c-3.686-7.927-0.244-17.343,7.683-21.025
		c7.931-3.682,17.345-0.242,21.028,7.685C4483.308,3114.61,4479.867,3124.027,4471.939,3127.713z"/>
	<g>
		<path fill="#2A2B2A" d="M4730.135,3192.085h-99.061v-99.065h99.061V3192.085z M4643.308,3179.846h74.594v-74.587h-74.594V3179.846
			z"/>
	</g>
	<polygon fill="#ED2A28" points="4702.234,3123.039 4675.076,3150.194 4658.975,3134.092 4653.039,3140.028 4675.076,3162.066 
		4708.168,3128.975 	"/>
	<g>
		<path fill="#2A2B2A" d="M4730.135,3315.668h-99.061v-99.063h99.061V3315.668z M4643.308,3303.429h74.594v-74.586h-74.594V3303.429
			z"/>
	</g>
	<polygon fill="#ED2A28" points="4702.234,3246.625 4675.076,3273.778 4658.975,3257.675 4653.039,3263.611 4675.076,3285.65 
		4708.168,3252.559 	"/>
</g>
<g>
	<g>
		<g>
			<path fill="#5B4A42" d="M3091.092,3068.787c-23.614,6.876-37.262,31.565-30.422,55.055l108.924,374.037
				c6.838,23.478,31.61,36.99,55.225,30.113l158.997-46.303l-133.727-459.204L3091.092,3068.787z"/>
		</g>
		<path fill="#2A2B2A" d="M3464.313,3006.297l108.923,374.035c6.838,23.478-6.806,48.179-30.429,55.057l-158.991,46.301
			l-133.727-459.204l158.992-46.301C3432.704,2969.305,3457.472,2982.807,3464.313,3006.297z"/>
	</g>
	<path fill="#F3F3F3" d="M3414.014,3001.853l-314.887,91.698c-3.854,1.123-6.072,5.158-4.949,9.017l115.191,395.556
		c1.121,3.846,5.158,6.059,9.012,4.936l321.871-93.732l-117.219-402.525C3421.906,3002.941,3417.871,3000.729,3414.014,3001.853z"/>
	<g>
		<path fill="#5A58A5" d="M3236.425,2975.604l-5.84-20.057l-5.036,1.467c-20.835,6.066-32.811,27.886-26.739,48.739l7.594,26.078
			c-30.081,11.479-52.839,44.23-40.156,87.776l103.35-30.097l-25.062-86.06c-7.696,2.241-15.741-2.181-17.981-9.874
			C3224.313,2985.882,3228.728,2977.845,3236.425,2975.604z"/>
		<path fill="#2E3491" d="M3372.97,3059.395l-103.364,30.102l-25.057-86.035c0.341-0.1,0.666-0.221,0.968-0.334
			c7.101-2.607,11.05-10.301,8.906-17.665c-2.141-7.352-9.597-11.698-16.99-10.099c-0.317,0.067-0.653,0.149-0.995,0.249
			l-5.839-20.056l5.01-1.459c20.878-6.08,42.679,5.889,48.753,26.742l7.597,26.09c13.965-2.882,28.936-1.456,42.38,4.805
			c0.013-0.004,0.036-0.011,0.043,0.014C3351.365,3019.633,3365.922,3035.193,3372.97,3059.395z"/>
	</g>
	<g>
		<g>
			<path fill="#7B7B7B" d="M3242.788,3132.191l-70.61,20.563c-9.792,2.852-15.437,13.135-12.586,22.926l20.563,70.611
				c2.852,9.792,13.134,15.435,22.925,12.583l70.612-20.563c9.792-2.852,15.438-13.133,12.589-22.926l-20.564-70.612
				C3262.867,3134.984,3252.579,3129.34,3242.788,3132.191L3242.788,3132.191z M3260.673,3222.426l-55.136,16.058
				c-4.063,1.182-8.315-1.151-9.498-5.215l-16.057-55.134c-1.184-4.063,1.15-8.316,5.214-9.498l55.135-16.057
				c4.063-1.184,8.314,1.151,9.497,5.214l16.058,55.136C3267.068,3216.992,3264.734,3221.243,3260.673,3222.426L3260.673,3222.426z"
				/>
		</g>
		<polygon fill="#B5D33D" points="3232.813,3164.49 3221.219,3201.129 3221.202,3201.116 3200.599,3183.814 3192.683,3193.245 
			3227.399,3222.401 3244.56,3168.193 		"/>
	</g>
	<g>
		
			<rect x="3287.333" y="3138.682" transform="matrix(0.9601 -0.2796 0.2796 0.9601 -745.3193 1062.9644)" fill="#DCDCDC" width="131.733" height="10.525"/>
		
			<rect x="3295.203" y="3167.622" transform="matrix(0.9601 -0.2796 0.2796 0.9601 -753.6284 1062.5371)" fill="#DCDCDC" width="104.763" height="10.524"/>
	</g>
	<g>
		
			<rect x="3327.605" y="3276.968" transform="matrix(0.9601 -0.2796 0.2796 0.9601 -782.3628 1079.71)" fill="#DCDCDC" width="131.732" height="10.525"/>
		
			<rect x="3335.472" y="3305.908" transform="matrix(0.9601 -0.2796 0.2796 0.9601 -790.6816 1079.3008)" fill="#DCDCDC" width="104.764" height="10.524"/>
	</g>
	<g>
		
			<rect x="3355.212" y="3371.768" transform="matrix(0.9601 -0.2796 0.2796 0.9601 -807.7559 1091.1885)" fill="#DCDCDC" width="131.731" height="10.524"/>
		
			<rect x="3363.078" y="3400.708" transform="matrix(0.9601 -0.2796 0.2796 0.9601 -816.0747 1090.7786)" fill="#DCDCDC" width="104.766" height="10.524"/>
	</g>
	<g>
		<g>
			<path fill="#7B7B7B" d="M3268.012,3282.395l-56.972,16.591c-7.899,2.3-12.454,10.598-10.153,18.497l16.59,56.969
				c2.302,7.902,10.597,12.454,18.496,10.154l56.972-16.591c7.9-2.301,12.457-10.595,10.157-18.497l-16.591-56.97
				C3284.21,3284.647,3275.911,3280.094,3268.012,3282.395L3268.012,3282.395z M3282.44,3355.199l-44.485,12.953
				c-3.278,0.955-6.709-0.928-7.664-4.206l-12.955-44.484c-0.955-3.276,0.93-6.708,4.208-7.663l44.483-12.953
				c3.279-0.955,6.709,0.929,7.663,4.206l12.954,44.483C3287.602,3350.813,3285.719,3354.243,3282.44,3355.199L3282.44,3355.199z"/>
		</g>
		<polygon fill="#B5D33D" points="3259.962,3308.454 3250.608,3338.016 3250.594,3338.005 3233.973,3324.045 3227.587,3331.654 
			3255.596,3355.177 3269.438,3311.442 		"/>
	</g>
	<g>
		<g>
			<path fill="#7B7B7B" d="M3296.579,3380.497l-56.971,16.591c-7.899,2.301-12.454,10.598-10.152,18.497l16.59,56.97
				c2.301,7.902,10.598,12.453,18.497,10.154l56.971-16.592c7.901-2.3,12.456-10.596,10.156-18.498l-16.591-56.969
				C3312.777,3382.751,3304.479,3378.197,3296.579,3380.497L3296.579,3380.497z M3311.008,3453.302l-44.483,12.953
				c-3.276,0.956-6.708-0.928-7.663-4.205l-12.955-44.484c-0.956-3.278,0.928-6.709,4.207-7.663l44.484-12.955
				c3.278-0.954,6.709,0.929,7.664,4.207l12.954,44.483C3316.17,3448.916,3314.288,3452.347,3311.008,3453.302L3311.008,3453.302z"
				/>
		</g>
		<polygon fill="#B5D33D" points="3288.531,3406.558 3279.177,3436.119 3279.163,3436.108 3262.542,3422.147 3256.154,3429.757 
			3284.164,3453.279 3298.008,3409.545 		"/>
	</g>
	
		<rect x="3204.061" y="3315.853" transform="matrix(-0.9987 -0.05 0.05 -0.9987 6251.6519 6844.4409)" fill="#262D3F" width="14.872" height="56.234"/>
	<path fill="#686868" d="M3197.958,3067.172c-70.726,11.6-118.632,78.348-107.03,149.035
		c11.604,70.678,78.319,118.604,149.005,107.071c70.711-11.608,118.644-78.388,107.04-149.069
		C3335.378,3103.559,3268.672,3055.555,3197.958,3067.172z M3290.846,3268.219c-53.283,52.84-145.834,32.272-170.041-42.831
		c-27.073-83.642,64.474-164.711,146.629-120.444C3328.222,3137.636,3339.945,3219.827,3290.846,3268.219z"/>
	<path fill="#EE3E23" d="M3211.578,3342.353c-0.535-0.027-6.739,209.241-6.739,209.241c16.163,0.816,24.026-9.004,24.551-19.45
		l4.671-167.984C3234.567,3354.046,3228.116,3343.178,3211.578,3342.353z"/>
	<path fill="#D32A27" d="M3187.029,3361.803l-4.672,167.982c-0.522,10.436,6.256,20.996,22.481,21.809l6.739-209.241
		C3195.449,3341.547,3187.554,3351.305,3187.029,3361.803z"/>
	<path fill="#FCC27D" d="M3159.972,3409.898c-17.229,4.013-23.377-22.842-5.68-26.969l73.719-17.165
		c17.749-4.134,24.014,22.702,5.676,26.964L3159.972,3409.898z"/>
	<path fill="#FCC27D" d="M3175.574,3434.547c-17.79,4.143-23.953-22.71-6.238-26.836l71.571-16.66
		c17.75-4.14,24.016,22.698,6.249,26.826L3175.574,3434.547z"/>
	<path fill="#FCC27D" d="M3176.414,3462.64c-17.79,4.146-23.95-22.712-6.247-26.831l67.972-15.834
		c17.744-4.129,23.997,22.717,6.237,26.842L3176.414,3462.64z"/>
	<path fill="#FCC27D" d="M3193.992,3481.733c-15.995,3.722-21.033-18.295-5.129-21.997l41.895-9.749
		c15.954-3.718,21.103,18.276,5.122,21.99L3193.992,3481.733z"/>
	<polygon fill="#FCC27D" points="3046.685,3502.62 3030.342,3432.425 3096.982,3416.911 3113.328,3487.1 	"/>
	<path fill="#FCC27D" d="M3099.271,3483.116c0,0,10.6,19.411,48.263,13.733c25.926-3.91,56.506-17.028,56.506-17.028l-20.507-96.768
		l-53.472,10.928L3099.271,3483.116z"/>
	<path fill="#FCC27D" d="M3123.323,3464.368c-41.802,5.138-54.716-56.985-3.525-93.809c16.786-12.046,41.363-17.9,51.607-27.469
		c12.118-11.289,18.987-19.042,18.987-19.042c7.447,4.189,16.644,15.525,8.001,29.651c-9.93,16.271-37.931,37.338-37.931,37.338
		C3183.723,3435.359,3142.624,3461.935,3123.323,3464.368z"/>
	<path fill="#EE3E23" d="M3171.069,3343.195c12.118-11.291,18.987-19.043,18.987-19.043s2.597,1.469,5.34,4.333
		c-0.827,3.095-2.563,6.229-5.16,8.956C3184.562,3343.61,3176.518,3345.743,3171.069,3343.195z"/>
	<path fill="#FFFFFF" d="M3260.873,3138.506c-6.692,2.093-13.816-1.638-15.91-8.332c-2.095-6.693,1.636-13.819,8.328-15.91
		c6.697-2.096,13.821,1.635,15.916,8.33C3271.298,3129.288,3267.567,3136.412,3260.873,3138.506z"/>
	<path fill="#FFFFFF" d="M3288.022,3152.487c-3.471,1.084-7.169-0.849-8.255-4.323c-1.082-3.474,0.853-7.168,4.325-8.254
		c3.471-1.087,7.165,0.849,8.253,4.322C3293.434,3147.703,3291.495,3151.4,3288.022,3152.487z"/>
	<g>
		
			<rect x="3007.506" y="3411.674" transform="matrix(-0.9525 0.3046 -0.3046 -0.9525 6999.1069 5845.6387)" fill="#ED2A28" width="71.994" height="114.369"/>
		
			<rect x="2937.215" y="3428.497" transform="matrix(-0.9525 0.3046 -0.3046 -0.9525 6935.46 5877.5425)" fill="#ED2A28" width="143.994" height="102.646"/>
		<polygon fill="#87D2DC" points="3062.15,3409.004 3080.465,3403.147 3111.73,3500.914 3093.424,3506.77 		"/>
		
			<rect x="2993.374" y="3430.966" transform="matrix(-0.9525 0.3046 -0.3046 -0.9525 6921.0879 5884.7915)" fill="#DF1F26" width="16.228" height="102.648"/>
		<path fill="#DADCDC" d="M3038.979,3439.079c-1.097-3.431,0.795-7.101,4.227-8.196c3.431-1.098,7.108,0.789,8.201,4.222
			c1.101,3.431-0.793,7.107-4.229,8.206C3043.751,3444.409,3040.082,3442.514,3038.979,3439.079z"/>
	</g>
</g>
<g>
	<path fill="#DAECEE" d="M2123.979,3529.74h-427.014c-5.228,0-9.464-4.236-9.464-9.465v-536.395c0-5.223,4.236-9.466,9.464-9.466
		h292.211l144.268,144.269v401.592C2133.443,3525.504,2129.2,3529.74,2123.979,3529.74z"/>
	<polygon fill="#4E9F46" points="2139.82,3333.86 2070.751,3289.289 2243.025,3022.33 2312.095,3066.907 	"/>
	<path fill="#EF4F32" d="M2318.866,2981.371l-0.689-0.446c-18.883-12.184-44.072-6.759-56.256,12.124l-18.896,29.281l69.069,44.577
		l18.896-29.28C2343.182,3018.744,2337.749,2993.555,2318.866,2981.371z"/>
	<polygon fill="#25783C" points="2304.266,3079.039 2235.195,3034.468 2243.025,3022.33 2312.095,3066.907 	"/>
	<path fill="#FFC633" d="M2187.367,3184.731l-0.315-0.202c-8.677-5.598-11.172-17.17-5.576-25.846l90.56-140.334
		c5.597-8.677,17.169-11.166,25.845-5.57l0.323,0.204c8.676,5.603,11.165,17.175,5.57,25.853l-90.562,140.326
		C2207.616,3187.839,2196.043,3190.335,2187.367,3184.731z"/>
	<polygon fill="#B5BEBF" points="2067.407,3395.548 2044.38,3380.684 2070.751,3289.289 2139.82,3333.86 	"/>
	<polygon fill="#8B8A8A" points="2146.651,3323.285 2077.575,3278.708 2070.751,3289.289 2139.82,3333.86 	"/>
	<path fill="#5C5B5B" d="M2037.97,3415.331l-0.112-0.073c-3.225-2.081-4.545-6.146-3.153-9.727l9.675-24.848l22.404,14.457
		l-18.654,19.054C2045.444,3416.939,2041.194,3417.413,2037.97,3415.331z"/>
	<path fill="#C5CCCC" d="M2001.97,3118.684h131.474l-144.268-144.269v131.474C1989.175,3112.956,1994.903,3118.684,2001.97,3118.684
		z"/>
	<rect x="1784.615" y="3165.408" fill="#8EA5A9" width="251.706" height="14.877"/>
	<rect x="1784.615" y="3217.297" fill="#8EA5A9" width="193.165" height="14.877"/>
	<rect x="1784.615" y="3334.977" fill="#8EA5A9" width="193.165" height="14.877"/>
	<rect x="1784.615" y="3399.252" fill="#8EA5A9" width="220.514" height="14.87"/>
</g>
<g>
	<rect x="1029.04" y="3058.534" fill="#33A8DF" width="16.089" height="554.393"/>
	<rect x="1013.05" y="3058.697" fill="#3A82C4" width="15.95" height="554.389"/>
	<polygon fill="#FBD94B" points="1012.997,3058.953 1045.182,3058.953 1029.086,2988.227 	"/>
	<polygon fill="#515252" points="1034.526,3012.146 1029.086,2988.227 1023.646,3012.146 	"/>
	<rect x="483.237" y="2984.018" fill="#9AD2AB" width="490.134" height="630.982"/>
	<polygon fill="#62B690" points="880.983,3567.057 543.606,3567.057 543.606,3031.962 940.044,3031.962 940.044,3504.139 	"/>
	<polygon fill="#D2D2D2" points="867.462,3546.774 530.085,3546.774 530.085,3011.681 926.523,3011.681 926.523,3483.857 	"/>
	<polygon fill="#FFFFFF" points="867.462,3546.774 530.085,3546.774 530.085,3011.681 926.523,3011.681 926.523,3483.857 
		867.673,3483.646 	"/>
	<path fill="#686867" d="M806.961,2961.049c0.139-1.359,0.211-2.736,0.211-4.129c0-22.563-18.354-40.92-40.919-40.92h-75.896
		c-22.566,0-40.92,18.357-40.92,40.92c0,1.393,0.073,2.77,0.211,4.129h-33.459v76.056H840.42v-76.056H806.961z M662.958,2956.92
		c0-15.109,12.293-27.398,27.399-27.398h75.896c15.105,0,27.398,12.289,27.398,27.398c0,1.413-0.211,2.772-0.416,4.129H663.373
		C663.169,2959.692,662.958,2958.333,662.958,2956.92z"/>
	<path fill="#515252" d="M869.166,3328.412l-3.103-51.872l-51.516,6.859l1.135,8.59l32.449-4.331l-100.298,121.709l-69.242-48.783
		c-2.905-2.047-6.879-1.498-9.117,1.234l-83.285,101.408c-2.37,2.884-1.954,7.143,0.931,9.513c1.262,1.036,2.78,1.538,4.285,1.538
		c1.954,0,3.895-0.845,5.229-2.469l79.303-96.555l69.229,48.775c2.898,2.04,6.866,1.499,9.11-1.228l104.293-126.558l1.947,32.689
		L869.166,3328.412z"/>
	<polygon fill="#EE3C3B" points="845.246,3330.234 751.51,3444.06 677.125,3391.646 595.663,3491.014 614.531,3502.27 
		681.516,3420.563 755.861,3472.938 864.101,3341.504 	"/>
	<g>
		<path fill="#515252" d="M600.667,3118.857h0.007l255.274-0.627c1.869-0.004,3.38-1.521,3.373-3.391
			c-0.006-1.861-1.518-3.37-3.38-3.37h-0.007l-255.273,0.628c-1.869,0.003-3.38,1.521-3.374,3.389
			C597.294,3117.349,598.806,3118.857,600.667,3118.857z"/>
		<path fill="#515252" d="M855.941,3186.918h-0.007l-255.273,0.627c-1.869,0.003-3.38,1.521-3.374,3.391
			c0.007,1.861,1.519,3.369,3.38,3.369h0.007l255.274-0.626c1.869-0.004,3.38-1.522,3.373-3.391
			C859.315,3188.426,857.803,3186.918,855.941,3186.918z"/>
		<path fill="#515252" d="M795.579,3224.642c-0.007,0-0.013,0-0.013,0l-134.55,0.627c-1.869,0.011-3.374,1.528-3.367,3.397
			c0.006,1.861,1.518,3.363,3.38,3.363c0.006,0,0.013,0,0.013,0l134.55-0.627c1.868-0.01,3.373-1.528,3.367-3.396
			C798.953,3226.144,797.441,3224.642,795.579,3224.642z"/>
		<path fill="#515252" d="M855.941,3149.193h-0.007l-255.273,0.628c-1.869,0.003-3.38,1.522-3.374,3.39
			c0.007,1.861,1.519,3.371,3.38,3.371h0.007l255.274-0.628c1.869-0.003,3.38-1.521,3.373-3.39
			C859.315,3150.702,857.803,3149.193,855.941,3149.193z"/>
	</g>
	<path fill="#515252" d="M806.961,2961.049c0.139-1.359,0.211-2.736,0.211-4.129c0-11.68-4.944-22.203-12.814-29.666l-9.592,9.596
		c5.426,5.007,8.886,12.118,8.886,20.07c0,1.413-0.211,2.772-0.416,4.129h-32.674l-76.055,76.056H840.42v-76.056H806.961z"/>
	<rect x="1013.05" y="3575.341" fill="#FBD94B" width="31.915" height="39.54"/>
	<rect x="1013.05" y="3584.775" fill="#515252" width="31.915" height="30.105"/>
</g>
<g>
	<path fill="#EB7523" d="M5483.809,2109.486v-2.087c0-8.866-7.189-16.054-16.053-16.054h-51.699
		c-8.867,0-16.057,7.188-16.057,16.054v2.087v15.325v131.974h180.135v-147.299H5483.809z"/>
	<g>
		<rect x="5410.34" y="2122.364" fill="#FFFFFF" width="158.361" height="113.743"/>
		<path fill="#545554" d="M5571.35,2238.754h-163.656v-119.038h163.656V2238.754z M5412.99,2233.457h153.061v-108.443H5412.99
			V2233.457z"/>
	</g>
	<path fill="#FBB116" d="M5616.863,2143.047h-5.193c-1.231,59.331-82.729,107.207-183.1,107.207c-7.112,0-14.13-0.246-21.033-0.717
		c2.873,4.364,7.803,7.248,13.418,7.248h166.525c8.867,0,14.97-4.35,17.692-16.057l27.747-81.627
		C5632.92,2150.235,5625.734,2143.047,5616.863,2143.047z"/>
	<g>
		<path fill="#515252" d="M5425.119,2137.704L5425.119,2137.704l125.271-0.15c0.916-0.003,1.658-0.37,1.656-0.821
			c-0.003-0.454-0.746-0.815-1.662-0.815h-0.002l-125.268,0.153c-0.916,0-1.658,0.367-1.654,0.818
			C5423.467,2137.337,5424.203,2137.704,5425.119,2137.704z"/>
		<path fill="#515252" d="M5550.385,2154.139h-0.002l-125.268,0.15c-0.916,0-1.658,0.367-1.654,0.821
			c0.006,0.451,0.742,0.812,1.658,0.812l0,0l125.271-0.15c0.916-0.003,1.658-0.367,1.656-0.821
			C5552.044,2154.503,5551.301,2154.139,5550.385,2154.139z"/>
		<path fill="#515252" d="M5520.766,2163.251h-0.006l-66.025,0.15c-0.918,0.003-1.658,0.37-1.652,0.817
			c0,0.451,0.744,0.815,1.656,0.815h0.006l66.027-0.153c0.919-0.003,1.656-0.37,1.652-0.821
			C5522.418,2163.612,5521.68,2163.251,5520.766,2163.251z"/>
		<path fill="#515252" d="M5550.385,2145.027h-0.002l-125.268,0.152c-0.916,0.003-1.658,0.368-1.654,0.818
			c0.006,0.451,0.742,0.818,1.658,0.818l0,0l125.271-0.156c0.916,0,1.658-0.367,1.656-0.817
			C5552.044,2145.394,5551.301,2145.027,5550.385,2145.027z"/>
	</g>
	<path fill="#FADE39" d="M5611.67,2143.047h-161.33c-8.863,0-13.617,6.138-17.684,16.054l-27.758,81.627
		c0,3.254,0.977,6.276,2.639,8.809c6.903,0.471,13.921,0.717,21.033,0.717C5528.941,2250.254,5610.438,2202.378,5611.67,2143.047z"
		/>
	<path fill="#EB7523" d="M5408.071,2250.254c2.928,3.951,7.593,6.531,12.884,6.531h166.525c5.836,0,10.465-1.904,13.73-6.531
		H5408.071z"/>
	<path fill="#EB7523" d="M5900.89,2109.486v-2.087c0-8.866-7.19-16.054-16.058-16.054h-51.695c-8.872,0-16.057,7.188-16.057,16.054
		v2.087v15.325v131.974h180.135v-147.299H5900.89z"/>
	<g>
		<rect x="5827.421" y="2122.364" fill="#FFFFFF" width="158.361" height="113.743"/>
		<path fill="#545554" d="M5988.43,2238.754h-163.656v-119.038h163.656V2238.754z M5830.07,2233.457h153.062v-108.443H5830.07
			V2233.457z"/>
	</g>
	<path fill="#FBB116" d="M6033.943,2143.047h-5.193c-1.23,59.331-82.728,107.207-183.1,107.207c-7.119,0-14.133-0.246-21.033-0.717
		c2.872,4.364,7.803,7.248,13.416,7.248h166.527c8.867,0,14.971-4.35,17.691-16.057l27.748-81.627
		C6050,2150.235,6042.811,2143.047,6033.943,2143.047z"/>
	<g>
		<path fill="#515252" d="M5842.197,2137.704h0.002l125.27-0.15c0.916-0.003,1.662-0.37,1.656-0.821
			c0-0.454-0.746-0.815-1.656-0.815h-0.006l-125.266,0.153c-0.922,0-1.656,0.367-1.656,0.818
			C5840.541,2137.337,5841.287,2137.704,5842.197,2137.704z"/>
		<path fill="#515252" d="M5967.469,2154.139h-0.006l-125.266,0.15c-0.922,0-1.656,0.367-1.656,0.821
			c0,0.451,0.746,0.812,1.656,0.812h0.002l125.27-0.15c0.916-0.003,1.662-0.367,1.656-0.821
			C5969.125,2154.503,5968.379,2154.139,5967.469,2154.139z"/>
		<path fill="#515252" d="M5937.846,2163.251h-0.01l-66.02,0.15c-0.92,0.003-1.659,0.37-1.653,0.817
			c0,0.451,0.743,0.815,1.653,0.815h0.012l66.023-0.153c0.916-0.003,1.656-0.37,1.65-0.821
			C5939.502,2163.612,5938.76,2163.251,5937.846,2163.251z"/>
		<path fill="#515252" d="M5967.469,2145.027h-0.006l-125.266,0.152c-0.922,0.003-1.656,0.368-1.656,0.818s0.746,0.818,1.656,0.818
			h0.002l125.27-0.156c0.916,0,1.662-0.367,1.656-0.817C5969.125,2145.394,5968.379,2145.027,5967.469,2145.027z"/>
	</g>
	<path fill="#FADE39" d="M6028.75,2143.047h-161.329c-8.868,0-13.614,6.138-17.687,16.054l-27.755,81.627
		c0,3.254,0.974,6.276,2.638,8.809c6.9,0.471,13.914,0.717,21.033,0.717C5946.022,2250.254,6027.52,2202.378,6028.75,2143.047z"/>
	<path fill="#EB7523" d="M5825.154,2250.254c2.925,3.951,7.584,6.531,12.879,6.531h166.527c5.836,0,10.465-1.904,13.73-6.531
		H5825.154z"/>
	<path fill="#EB7523" d="M5689.425,1706.18c-0.839-8.078-7.589-14.398-15.89-14.398h-51.695c-8.3,0-15.052,6.32-15.89,14.398h-0.167
		v1.656v17.412v131.973h180.135V1706.18H5689.425z"/>
	<g>
		<rect x="5616.123" y="1722.803" fill="#FFFFFF" width="158.361" height="113.74"/>
		<path fill="#545554" d="M5777.132,1839.19h-163.655v-119.038h163.655V1839.19z M5618.773,1833.893h153.061v-108.444h-153.061
			V1833.893z"/>
	</g>
	<path fill="#FBB116" d="M5822.646,1743.483h-5.193c-1.231,59.331-82.729,107.209-183.1,107.209c-7.113,0-14.132-0.249-21.033-0.717
		c2.869,4.361,7.799,7.245,13.414,7.245h166.529c8.867,0,14.971-4.349,17.692-16.057l27.747-81.625
		C5838.703,1750.671,5831.513,1743.483,5822.646,1743.483z"/>
	<g>
		<path fill="#515252" d="M5630.9,1738.14h0.002l125.269-0.15c0.915-0.003,1.663-0.367,1.656-0.818c0-0.454-0.745-0.818-1.656-0.818
			h-0.006l-125.265,0.153c-0.918,0-1.656,0.37-1.656,0.818C5629.244,1737.772,5629.989,1738.14,5630.9,1738.14z"/>
		<path fill="#515252" d="M5756.171,1754.575h-0.006l-125.265,0.15c-0.918,0-1.656,0.37-1.656,0.821s0.745,0.815,1.656,0.815h0.002
			l125.269-0.153c0.915-0.003,1.663-0.367,1.656-0.821C5757.827,1754.939,5757.082,1754.575,5756.171,1754.575z"/>
		<path fill="#515252" d="M5726.549,1763.69h-0.008l-66.021,0.147c-0.92,0.003-1.66,0.37-1.654,0.818
			c0,0.453,0.744,0.815,1.654,0.815h0.011l66.024-0.153c0.916-0.003,1.656-0.367,1.65-0.821
			C5728.205,1764.048,5727.459,1763.69,5726.549,1763.69z"/>
		<path fill="#515252" d="M5756.171,1745.463h-0.006l-125.265,0.153c-0.918,0.003-1.656,0.367-1.656,0.818
			c0,0.451,0.745,0.817,1.656,0.817h0.002l125.269-0.153c0.915-0.003,1.663-0.367,1.656-0.821
			C5757.827,1745.83,5757.082,1745.463,5756.171,1745.463z"/>
	</g>
	<path fill="#FADE39" d="M5817.453,1743.483h-161.33c-8.866,0-13.617,6.138-17.688,16.057l-27.754,81.625
		c0,3.257,0.974,6.28,2.639,8.812c6.901,0.468,13.92,0.717,21.033,0.717C5734.725,1850.692,5816.222,1802.814,5817.453,1743.483z"/>
	<path fill="#EB7523" d="M5613.857,1850.692c2.924,3.948,7.583,6.528,12.877,6.528h166.529c5.834,0,10.465-1.901,13.728-6.528
		H5613.857z"/>
	<circle fill="#EE5450" cx="5725.727" cy="2067.024" r="43.371"/>
	<path fill="#8D8D8D" d="M5913.395,2304.776c0,0-95.941,59.356-187.383,51.398c-56.93-4.957-110.264-17.34-154.556-46.914
		l30.483-2.814c4.373-0.404,7.586-4.274,7.182-8.644c-0.402-4.37-4.309-7.584-8.645-7.182l-62.414,5.765l0.773,8.39h-0.207
		c0.072,0.058,0.15,0.115,0.225,0.173l5.109,55.178c0.383,4.121,3.848,7.214,7.902,7.214c0.246,0,0.494-0.009,0.742-0.032
		c4.373-0.407,7.583-4.276,7.182-8.646l-3.766-40.658c48.095,34.014,106.732,54.059,169.988,54.059
		C5797.098,2372.063,5862.393,2346.796,5913.395,2304.776z"/>
	<path fill="#8D8D8D" d="M5514.593,1809.97c-4.398-0.124-8.04,3.346-8.152,7.734c-0.116,4.387,3.347,8.037,7.733,8.152l32.934,0.87
		c-65.945,50.461-110.168,127.93-115.633,215.832c0,0,21.607-129.384,130.583-207.243l-1.026,38.584
		c-0.115,4.387,3.344,8.04,7.73,8.155c0.072,0.003,0.148,0.003,0.22,0.003c4.29,0,7.823-3.418,7.937-7.733l1.668-62.663
		L5514.593,1809.97z"/>
	<path fill="#8D8D8D" d="M6033.424,1990.757c2.213-3.803,0.912-8.658-2.885-10.86c-3.798-2.2-8.658-0.913-10.86,2.884
		l-16.539,28.498c-12.71-82.063-59.533-157.986-134.081-204.882c0,0,82.723,65.605,119.385,213.89l-33.379-19.377
		c-3.797-2.208-8.664-0.916-10.865,2.878c-0.039,0.06-0.07,0.127-0.105,0.188c-2.057,3.766-0.745,8.508,2.986,10.672l54.213,31.475
		L6033.424,1990.757z"/>
</g>
<g>
	<g>
		<path fill="#677D36" d="M4772.639,1826.355c-21.758,0.187-39.438,4.872-39.598,13.869c-0.016,0.058-0.008,0.128-0.016,0.194
			c0.066,9.114,17.893,13.605,39.84,13.434c21.947-0.172,39.65-11.476,39.635-14.063
			C4812.471,1837.204,4794.594,1826.183,4772.639,1826.355z"/>
		<path fill="#677D36" d="M4711.48,1863.782c-0.037,0.055-0.08,0.125-0.117,0.194c-4.722,9.268,10.975,23.203,33.316,34.586
			c22.344,11.384,46.238,9.253,47.594,6.615c1.324-2.628-10.996-23.218-33.332-34.598
			C4736.773,1859.306,4716.393,1854.745,4711.48,1863.782z"/>
		<path fill="#677D36" d="M4687.557,1892.904c-0.066,0.03-0.125,0.088-0.168,0.135c-7.563,7.134,2.525,25.517,19.713,43.731
			c17.197,18.207,40.396,24.228,42.549,22.196c2.139-2.028-2.532-25.527-19.736-43.737
			C4712.85,1897.176,4695.206,1886.045,4687.557,1892.904z"/>
		<path fill="#718D3B" d="M4716.254,1816.776c0.073-0.022,0.131-0.041,0.19-0.074c8.638-2.544,8.462-20.827,2.848-41.864
			c-5.651-21.205-21.032-35.513-23.529-34.858c-2.503,0.682-8.689,20.744-3.03,41.956
			C4698.391,1803.137,4707.454,1819.129,4716.254,1816.776z"/>
		<path fill="#718D3B" d="M4699.307,1843.906c0.059-0.051,0.103-0.103,0.16-0.165c7.402-7.126-2.408-25.567-19.166-43.942
			c-16.91-18.514-40.021-24.916-42.203-22.939c-2.189,2.002,2.107,25.608,19.004,44.118
			C4674.014,1839.492,4691.627,1850.931,4699.307,1843.906z"/>
		<path fill="#718D3B" d="M4679.424,1869.873c4.582-9.199-10.843-23.254-32.775-34.912c-22.123-11.74-46.012-10.004-47.409-7.409
			c-1.377,2.617,10.585,23.382,32.708,35.121c22.116,11.743,42.527,16.585,47.381,7.405
			C4679.379,1870.012,4679.408,1869.943,4679.424,1869.873z"/>
		<g>
			<path fill="#472B12" d="M4645.989,1970.208l-10.169-2.833c26.736-96.114,114.899-164.875,118.641-167.755l6.442,8.364
				C4760.018,1808.664,4671.772,1877.542,4645.989,1970.208z"/>
		</g>
		<path fill="#718D3B" d="M4771.848,1772.357c-16.457,15.571-26.61,31.666-20.366,38.639c0.036,0.063,0.087,0.109,0.132,0.161
			c6.5,6.896,23.279-2.307,39.883-17.995c16.618-15.677,22.095-36.846,20.256-38.812
			C4809.895,1752.411,4788.467,1756.672,4771.848,1772.357z"/>
	</g>
	
		<rect x="4417.282" y="2162.796" transform="matrix(0.8416 -0.5401 0.5401 0.8416 -484.0498 2736.3394)" fill="#773E1A" width="11.29" height="61.178"/>
	<path fill="#0EB0BB" d="M4291.181,2032.325l-103.088-62.117c0,0-10.574,24.034,0,59.152
		C4198.668,2064.478,4291.181,2032.325,4291.181,2032.325z"/>
	<polygon fill="#0EB0BB" points="4654.086,1946.133 4622.321,1964.476 4622.321,1927.792 	"/>
	<polygon fill="#3F6F82" points="4339.406,1873.35 4199.584,1873.35 4220.422,1907.828 4329.83,1907.828 4329.83,1917.407 
		4226.209,1917.407 4243.573,1946.133 4329.83,1946.133 4329.83,1955.713 4249.365,1955.713 4266.726,1984.439 4329.83,1984.439 
		4329.83,1994.019 4272.513,1994.019 4289.877,2022.746 4329.83,2022.746 4329.83,2032.325 4295.665,2032.325 4304.93,2047.65 
		4383.459,2101.279 4488.248,1997.852 	"/>
	<rect x="4188.093" y="2061.051" fill="#FFFFFF" width="195.366" height="9.58"/>
	<path fill="#3F6F82" d="M4638.133,1942.381c0.066,0.279,0.066,0.491,0.066,0.491s-0.066,0.069-0.066,0.139
		c-0.979,18.799-18.725,34.005-40.695,33.368c-3.588,2.961-4.502,12.819-5.695,26.685
		c-8.851,105.989-51.018,166.152-199.377,169.245c-161.925,3.734-206-84.126-229.865-171.987l179.172,44.562l93.707-85.115h67.723
		c42.879-86.385,135.098-73.149,135.098-18.375C4638.199,1941.675,4638.133,1942.027,4638.133,1942.381z"/>
	<path fill="#0EB0BB" d="M4591.742,2003.064c-8.851,105.989-51.018,166.152-199.377,169.245
		C4371.318,2096.447,4486.141,1998.316,4591.742,2003.064z"/>
	<circle fill="#294C54" cx="4606.702" cy="1933.659" r="6.16"/>
	<g>
		<g>
			<rect x="4577.693" y="2189.322" fill="#623613" width="91.268" height="94.251"/>
			<g>
				<path fill="#472B12" d="M4684.35,2170.866c0,12.072-9.795,21.86-21.867,21.86h-78.303c-12.086,0-21.874-9.788-21.874-21.86l0,0
					c0-12.075,9.788-21.859,21.874-21.859h78.303C4674.555,2149.007,4684.35,2158.791,4684.35,2170.866L4684.35,2170.866z"/>
				<path fill="#472B12" d="M4684.35,2302.025c0,12.072-9.795,21.86-21.867,21.86h-78.303c-12.086,0-21.874-9.788-21.874-21.86l0,0
					c0-12.068,9.788-21.86,21.874-21.86h78.303C4674.555,2280.166,4684.35,2289.958,4684.35,2302.025L4684.35,2302.025z"/>
			</g>
		</g>
		<g>
			<rect x="4233.6" y="2223.532" fill="#623613" width="301.457" height="12.932"/>
			<rect x="4233.6" y="2236.464" fill="#472B12" width="301.457" height="12.922"/>
			<path fill="#623613" d="M4233.6,2225.278v11.186h-30.342v-11.186c0-8.375,6.83-15.139,15.205-15.139
				c4.217,0,7.973,1.677,10.719,4.422C4231.926,2217.306,4233.6,2221.058,4233.6,2225.278z"/>
			<path fill="#472B12" d="M4233.6,2236.464v11.114c0,8.372-6.762,15.205-15.137,15.205c-4.217,0-7.973-1.677-10.717-4.488
				c-2.75-2.746-4.488-6.563-4.488-10.717v-11.114H4233.6z"/>
			<polygon fill="#623613" points="4577.658,2216.838 4577.658,2236.464 4535.057,2236.464 4535.057,2223.532 			"/>
			<polygon fill="#472B12" points="4577.658,2236.464 4577.658,2256.088 4535.057,2249.386 4535.057,2236.464 			"/>
		</g>
		<rect x="4607.35" y="2192.727" fill="#773E1A" width="15.981" height="87.439"/>
	</g>
	<ellipse fill="#0EB0BB" cx="4412.231" cy="2161.057" rx="22.298" ry="23.829"/>
	<rect x="4412.229" y="2213.496" fill="#773E1A" width="63.347" height="10.037"/>
	
		<rect x="4482.627" y="2103.773" transform="matrix(0.7069 -0.7073 0.7073 0.7069 -176.7656 3792.9641)" fill="#3F6F82" width="12.033" height="12.03"/>
	
		<rect x="4510.344" y="2067.066" transform="matrix(0.7069 -0.7073 0.7073 0.7069 -142.6816 3801.8098)" fill="#3F6F82" width="12.033" height="12.03"/>
	
		<rect x="4529.041" y="2103.773" transform="matrix(0.707 -0.7072 0.7072 0.707 -163.2622 3825.5215)" fill="#3F6F82" width="12.034" height="12.03"/>
	
		<rect x="4550.345" y="2055.038" transform="matrix(0.7069 -0.7073 0.7073 0.7069 -122.3511 3826.8447)" fill="#3F6F82" width="12.033" height="12.03"/>
	
		<rect x="4564.796" y="2016.729" transform="matrix(0.7069 -0.7073 0.7073 0.7069 -91.1226 3825.5703)" fill="#3F6F82" width="12.032" height="12.03"/>
</g>
<g>
	<g>
		<path fill="#FAB67A" d="M3440.074,1843.614c1.125,9.742,0.248,27.395,12.187,38.854c0,0,5.526,4.298,16.42,8.362l1.107,29.749
			l49.038-1.824l-1.109-29.748c0,0,19.299-3.045,11.568-57.19c-31.98-17.402-72.241-1.262-72.241-1.262
			S3438.941,1833.877,3440.074,1843.614z"/>
		<path fill="#F39C56" d="M3477.614,1838.286c0.418,11.354-16.692,11.918-17.109,0.636l-1.033-27.744
			c-0.421-11.316,16.688-11.96,17.108-0.638L3477.614,1838.286z"/>
		<path fill="#F39C56" d="M3494.721,1837.649c0.421,11.355-16.69,11.919-17.106,0.637l-1.034-27.746
			c-0.42-11.314,16.687-11.959,17.109-0.635L3494.721,1837.649z"/>
		<path fill="#F39C56" d="M3511.828,1837.015c0.422,11.352-16.689,11.917-17.107,0.634l-1.031-27.744
			c-0.421-11.314,16.686-11.958,17.109-0.636L3511.828,1837.015z"/>
		<path fill="#F39C56" d="M3528.937,1836.379c0.423,11.353-16.688,11.917-17.108,0.636l-1.029-27.746
			c-0.424-11.315,16.686-11.958,17.106-0.635L3528.937,1836.379z"/>
		<path fill="#3C3F98" d="M3015.832,2029.524l-40.972,149.684l82.168,24.758l48.324-112.791
			C3105.352,2091.175,3034.066,1976.041,3015.832,2029.524z"/>
		<polygon fill="#303083" points="3373.819,2092.665 3494.296,2133.438 3546.211,2061.87 3398.833,1980.081 3373.819,2059.229 		"/>
		<path fill="#FAB67A" d="M3440.074,1843.614c0,0-3.334-27.687,4.922-32.595l57.419,3.234c0,0,6.093,12.185-8.01,14.917
			l-30.958-0.749c0,0,23.586,32.802,23.118,46.225L3440.074,1843.614z"/>
		<path fill="#F39C56" d="M3481.621,1858.421c0,0,9.221,9.374,9.05,25.408c0,0,9.72-21.077,21.911-26.56l-20.307,7.747
			L3481.621,1858.421z"/>
		<path fill="#303083" d="M3459.848,1909.592l-4.925,189.226c-4.694,31.97,104.396,67.941,101.13-4.196l-25.854-185.029H3459.848z"
			/>
		<rect x="3170.277" y="1926.534" fill="#3DBFCD" width="138.24" height="42.937"/>
		<path fill="#F39C56" d="M3186.297,1909.334h106.213c1.691,11.913,8.238,46.78,19.588,56.371
			c-0.844,113.74-147.022,113.253-145.389,0C3178.048,1956.114,3184.597,1921.247,3186.297,1909.334z"/>
		<path fill="#FAB67A" d="M3239.398,1709.896l94.275,58.186l-18.631,132.457c0,0-31.445,43.945-75.644,43.945
			c-44.206,0-75.647-43.945-75.647-43.945l-18.642-132.457L3239.398,1709.896z"/>
		<path fill="#3DBFCD" d="M3195.669,1970.606l43.729-4.988l43.733,4.988l47.371,39.058
			c-16.417,50.284-66.283,108.654-91.104,132.295c-24.834-23.641-74.683-82.011-91.109-132.295L3195.669,1970.606z"/>
		<g>
			<path fill="#FAB67A" d="M3322.516,1821.228c17.29-14.827,29.964,3.321,9.754,34.396c0,0,1.539,10.22-12.932,10.22
				L3322.516,1821.228z"/>
			<path fill="#FAB67A" d="M3156.28,1821.228c-17.294-14.827-29.971,3.321-9.755,34.396c0,0-1.537,10.22,12.946,10.22
				L3156.28,1821.228z"/>
		</g>
		<g>
			<path fill="#F39C56" d="M3326.618,1827.847c0,0,4.159-1.864,7.571,0c0,0,4.097,1.859,1.43,7.437l-5.77,15.799
				c0,0-3.887-1.595-6.869,0C3321.287,1840.913,3340.7,1831.56,3326.618,1827.847z"/>
			<path fill="#F39C56" d="M3152.168,1827.847c0,0-4.157-1.864-7.56,0c0,0-4.11,1.859-1.443,7.437l5.775,15.799
				c0,0,3.893-1.595,6.875,0C3157.511,1840.913,3138.093,1831.56,3152.168,1827.847z"/>
		</g>
		<rect x="3120.841" y="2126.925" fill="#2B286B" width="43.57" height="13.027"/>
		<g>
			<polygon fill="#DF3826" points="3223.358,2013.562 3257.46,2013.562 3271.785,2153.32 3254.1,2184.731 3240.402,2188.608 
				3226.716,2184.731 3209.042,2153.32 			"/>
			<polygon fill="#C22026" points="3217.986,1965.618 3262.832,1965.618 3275.647,1983.578 3257.46,2013.562 3223.358,2013.562 
				3205.176,1983.578 			"/>
		</g>
		<path fill="#313C3B" d="M3328.968,1817.074l-9.639,30.182h-10.759l8.548-75.743c-14.54-23.031-40.368-22.346-77.72-18.461
			c-37.353-3.884-63.18-4.57-77.723,18.461l8.549,75.743h-10.752l-9.643-30.182
			C3079.119,1647.636,3399.663,1647.648,3328.968,1817.074z"/>
		<g>
			<g>
				<path fill="#303083" d="M3349.301,1949.633l-109.903,192.326v24.802l-94.463,42.987l224.831-0.001l3.669-118.572l73.783-69.204
					C3439.362,1961.869,3349.301,1949.633,3349.301,1949.633z"/>
				<path fill="#3C3F98" d="M3239.402,2141.969v24.79l-94.467,42.989h-35.914l-2.73-87.898l-0.944-30.664l-89.543-61.676
					c18.245-53.488,113.682-79.875,113.682-79.875l67.174,117.55l14.959,36.546l27.691,38.076L3239.402,2141.969z"/>
			</g>
			<path fill="#2D2D2D" d="M3210.325,2200.026c0,3.596,2.92,6.508,6.516,6.508c3.598,0,6.509-2.913,6.509-6.508
				c0-3.601-2.911-6.519-6.509-6.519C3213.245,2193.507,3210.325,2196.425,3210.325,2200.026z"/>
		</g>
		<g>
			<polygon fill="#BEDFE1" points="3170.277,1926.534 3239.398,1965.618 3194.597,2014.68 3142.414,1957.803 			"/>
			<polygon fill="#BEDFE1" points="3308.518,1926.534 3239.398,1965.618 3284.193,2014.68 3336.375,1957.803 			"/>
		</g>
		<g>
			<g>
				<path fill="#313C3B" d="M3301.005,1793.044l11.151,14.533l-13.013-6.462l-29.305,12.062c-6.396,2.634-9.999-7.359-3.388-9.408
					C3266.451,1803.769,3300.866,1793.086,3301.005,1793.044z"/>
			</g>
			<g>
				<path fill="#313C3B" d="M3179.826,1793.044l-11.155,14.533l13.015-6.462l29.3,12.062c6.403,2.634,10.003-7.359,3.394-9.408
					C3214.38,1803.769,3179.96,1793.086,3179.826,1793.044z"/>
			</g>
		</g>
		<g>
			<path fill="#3DBFCD" d="M3226,1829.896v23.764c0,2.531-2.066,4.599-4.62,4.599h-46.836c-2.535,0-4.602-2.068-4.602-4.599v-23.764
				c0-2.534,2.067-4.599,4.602-4.599h46.836C3224.101,1825.297,3226,1827.565,3226,1829.896z"/>
		</g>
		<g>
			<path fill="#3DBFCD" d="M3308.836,1829.896v23.764c0,2.531-2.063,4.599-4.615,4.599h-46.839c-2.535,0-4.603-2.068-4.603-4.599
				v-23.764c0-2.534,2.067-4.599,4.603-4.599h46.839C3306.937,1825.297,3308.836,1827.565,3308.836,1829.896z"/>
		</g>
		<polygon fill="#C22026" points="3261.48,1914.958 3219.354,1914.958 3221.036,1903.322 3259.795,1903.322 		"/>
		<polygon fill="#FFFFFF" points="3259.795,1903.322 3221.036,1903.322 3222.192,1895.458 3258.666,1895.458 		"/>
		<path fill="#F39C56" d="M3252.896,1865.333c-6.679,6.797-20.33,6.796-27.007,0h-4.931l6.352,5.845
			c3.412,9.568,20.682,9.777,24.167,0l6.35-5.845H3252.896z"/>
		<path fill="#F39C56" d="M3198.929,1871.412h-17.089c-7.36,0-6.755-10.576,0-10.576h17.089
			C3205.672,1860.836,3206.281,1871.412,3198.929,1871.412z"/>
		<path fill="#F39C56" d="M3296.947,1871.412h-17.088c-7.357,0-6.752-10.576,0-10.576h17.088
			C3303.697,1860.836,3304.299,1871.412,3296.947,1871.412z"/>
		<rect x="2948.212" y="2209.748" fill="#A44124" width="607.84" height="109.837"/>
		<rect x="3002.917" y="2319.585" fill="#712513" width="516.663" height="49.415"/>
		<polygon fill="#303083" points="3105.692,2102.394 3176.544,2089.059 3190.38,2115.479 3107.218,2148.605 		"/>
		<g>
			<path fill="#252261" d="M3320.166,1931.546c-11.648,39.06-25.942,135.949-80.768,210.413c0,0,64.551-23.323,106.009-81.609
				c-12.491-13.443-24.731-26.63-24.731-26.63l64.328-74.778L3320.166,1931.546z"/>
			<path fill="#2F2E7D" d="M3158.625,1931.546c11.652,39.06,25.944,135.949,80.773,210.413c0,0-64.554-23.323-106.026-81.609
				c12.491-13.443,24.75-26.63,24.75-26.63l-64.337-74.778L3158.625,1931.546z"/>
		</g>
		<g>
			<path fill="#FAB67A" d="M3280.609,2035.298c0,0-3.57,19.177-12.285,23.343c-8.71,4.166-25.434,8.986-32.3,23.77
				c0,0-2.233,6.524-2.542,17.972l-27.358,10.537l17.366,45.099l27.365-10.537c0,0,13.341,13.843,61.308-10.665
				c5.993-35.352-26.249-64.538-26.249-64.538s15.789-16.4,9.051-28.369C3294.965,2041.911,3292.66,2028.106,3280.609,2035.298z"/>
			<path fill="#FAB67A" d="M3281.455,2084.567c-10.446,4.024-16.438-11.738-6.061-15.734l58.842-22.661
				c10.41-4.011,16.477,11.723,6.063,15.734L3281.455,2084.567z"/>
			<path fill="#FAB67A" d="M3295.712,2121.59c-10.438,4.023-16.436-11.739-6.055-15.735l58.843-22.661
				c10.403-4.011,16.473,11.723,6.056,15.734L3295.712,2121.59z"/>
			<path fill="#FAB67A" d="M3297.105,2140.617c-9.867,3.8-15.527-11.088-5.726-14.863l55.587-21.411
				c9.831-3.785,15.565,11.077,5.728,14.866L3297.105,2140.617z"/>
			<path fill="#FAB67A" d="M3295.608,2100.915c-10.438,4.021-16.436-11.739-6.059-15.734l58.843-22.663
				c10.412-4.008,16.478,11.725,6.064,15.734L3295.608,2100.915z"/>
		</g>
		<path fill="#3C3F98" d="M3246.64,2163.475l-192.217,87.46c-99.44,25.438-96.362-93.265-52.91-104.733l212.126-49.304l9.715-2.266
			L3246.64,2163.475z"/>
		<g>
			<polygon fill="#CD6428" points="3362.572,2028.912 3358.205,2036.689 3426.188,2074.86 3426.188,2209.748 3435.098,2209.748 
				3435.098,2069.641 			"/>
			<path fill="#87D2DC" d="M3424.229,2050.248l-50.371-28.277c-16.869-9.477-32.668,18.448-15.704,27.977l50.363,28.278
				L3424.229,2050.248z"/>
			<path fill="#0EA2A9" d="M3376.266,2034.458c0,2.111-1.713,3.821-3.822,3.821c-2.114,0-3.819-1.71-3.819-3.821
				c0-2.109,1.705-3.818,3.819-3.818C3374.553,2030.64,3376.266,2032.349,3376.266,2034.458z"/>
			<path fill="#0EA2A9" d="M3387.548,2041.221c0,2.107-1.704,3.813-3.821,3.813c-2.102,0-3.814-1.706-3.814-3.813
				c0-2.111,1.713-3.824,3.814-3.824C3385.844,2037.397,3387.548,2039.11,3387.548,2041.221z"/>
			<path fill="#0EA2A9" d="M3398.833,2047.136c0,2.107-1.705,3.822-3.814,3.822c-2.112,0-3.819-1.715-3.819-3.822
				c0-2.11,1.707-3.82,3.819-3.82C3397.128,2043.316,3398.833,2045.026,3398.833,2047.136z"/>
			<polygon fill="#CD6428" points="3435.924,2028.912 3431.561,2036.689 3499.538,2074.86 3499.538,2209.748 3508.454,2209.748 
				3508.454,2069.641 			"/>
			<path fill="#87D2DC" d="M3497.578,2050.248l-50.36-28.277c-16.883-9.477-32.679,18.448-15.711,27.977l50.365,28.278
				L3497.578,2050.248z"/>
			<path fill="#0EA2A9" d="M3449.618,2034.458c0,2.111-1.716,3.821-3.828,3.821c-2.107,0-3.814-1.71-3.814-3.821
				c0-2.109,1.707-3.818,3.814-3.818C3447.902,2030.64,3449.618,2032.349,3449.618,2034.458z"/>
			<path fill="#0EA2A9" d="M3460.908,2041.221c0,2.107-1.719,3.813-3.826,3.813c-2.109,0-3.818-1.706-3.818-3.813
				c0-2.111,1.709-3.824,3.818-3.824C3459.189,2037.397,3460.908,2039.11,3460.908,2041.221z"/>
			<path fill="#0EA2A9" d="M3472.19,2047.136c0,2.107-1.711,3.822-3.819,3.822c-2.111,0-3.82-1.715-3.82-3.822
				c0-2.11,1.709-3.82,3.82-3.82C3470.479,2043.316,3472.19,2045.026,3472.19,2047.136z"/>
		</g>
	</g>
	<g>
		<g>
			<path fill="#FFFFFF" d="M3283.775,1842.33c0.617,1.794-13.35,14.469-35.968,6.249
				C3248.132,1834.155,3278.482,1826.449,3283.775,1842.33z"/>
			<path fill="#2F2E7D" d="M3276.861,1842.403c0,2.573-0.91,4.984-2.438,6.823c-3.972,1.5-9.089,2.484-15.264,1.956
				c-2.648-2.015-4.354-5.176-4.354-8.779c0-2,0.501-3.853,1.44-5.454c4.854-2.751,11.03-4.031,16.384-3.192
				C3275.188,1835.742,3276.861,1838.889,3276.861,1842.403z"/>
			<path fill="#FFFFFF" d="M3273.246,1840.167c0,1.236-1,2.251-2.234,2.251c-1.235,0-2.265-1.015-2.265-2.251
				c0-1.25,1.029-2.263,2.265-2.263C3272.246,1837.904,3273.246,1838.918,3273.246,1840.167z"/>
			<path fill="#1C1D1D" d="M3271.159,1843.242c0,2.941-2.412,5.337-5.325,5.337c-2.939,0-5.352-2.396-5.352-5.337
				c0-2.956,2.412-5.337,5.352-5.337C3268.747,1837.904,3271.159,1840.286,3271.159,1843.242z"/>
		</g>
		<g>
			<path fill="#FFFFFF" d="M3162.845,1842.33c-0.617,1.794,13.353,14.469,35.968,6.249
				C3198.488,1834.155,3168.139,1826.449,3162.845,1842.33z"/>
			<path fill="#2F2E7D" d="M3169.785,1842.403c0,2.573,0.884,4.984,2.381,6.823c4,1.5,9.146,2.484,15.294,1.956
				c2.646-2.015,4.383-5.176,4.383-8.779c0-2-0.527-3.853-1.472-5.454c-4.854-2.751-11.028-4.031-16.38-3.192
				C3171.432,1835.742,3169.785,1838.889,3169.785,1842.403z"/>
			<path fill="#FFFFFF" d="M3173.374,1840.167c0,1.236,0.998,2.251,2.235,2.251c1.234,0,2.264-1.015,2.264-2.251
				c0-1.25-1.029-2.263-2.264-2.263C3174.372,1837.904,3173.374,1838.918,3173.374,1840.167z"/>
			<path fill="#1C1D1D" d="M3175.461,1843.242c0,2.941,2.38,5.337,5.323,5.337c2.973,0,5.354-2.396,5.354-5.337
				c0-2.956-2.381-5.337-5.354-5.337C3177.842,1837.904,3175.461,1840.286,3175.461,1843.242z"/>
		</g>
	</g>
	<rect x="3208.894" y="1833.511" fill="#3DBFCD" width="26.168" height="8.033"/>
</g>
<g>
	<rect x="1687.5" y="2116.857" fill="#ED2424" width="428.54" height="175.813"/>
	<polygon fill="#EE4744" points="2028.132,2034.451 1775.402,2034.451 1687.5,2116.857 2116.04,2116.857 	"/>
	<polygon fill="#D51F26" points="2116.04,2116.857 1687.5,2292.67 2116.04,2292.67 	"/>
	<path fill="#1B1C1C" d="M1995.063,2069.133c0,4.738-3.843,8.583-8.583,8.583h-169.425c-4.742,0-8.585-3.845-8.585-8.583l0,0
		c0-4.746,3.843-8.59,8.585-8.59h169.425C1991.22,2060.543,1995.063,2064.387,1995.063,2069.133L1995.063,2069.133z"/>
	<path fill="#F5AA71" d="M1958.326,2011.59c-0.183,0.034-0.375,0.054-0.565,0.054c-0.234-12.048-9.998-22.406-15.995-17.142
		l-2.708-6.658l24.309-20.011l4.654,30.552C1968.983,2004.701,1964.645,2010.607,1958.326,2011.59z"/>
	<path fill="#E78848" d="M1983.113,2007.871c-0.153,0.018-0.299,0.043-0.451,0.062c-7.208,0.83-13.809-4.21-14.924-11.417
		l-1.148-7.541l-3.25-21.142l6.437-8.547l22.521-5.167l2.381,39.535C1995.113,2000.683,1990.073,2006.855,1983.113,2007.871z"/>
	<path fill="#FCD9C1" d="M1957.761,2011.644c-5.11,0.552-9.982-2.359-11.923-7.127l-4.072-10.015
		c4.614-4.053,12.195,1.18,15.038,11.013C1957.403,2007.625,1957.723,2009.7,1957.761,2011.644z"/>
	<path fill="#FCD9C1" d="M1982.662,2007.933c-7.208,0.83-13.809-4.21-14.924-11.417l-1.148-7.541
		C1973.234,1983.102,1983.515,1995.603,1982.662,2007.933z"/>
	<polygon fill="#BBE5F7" points="1927.381,1771.174 2043.42,1901.95 1858.674,2063.381 1742.635,1932.6 	"/>
	<path fill="#524F4F" d="M1881.277,2007.968l43.495-38.591l-38.592-43.498l-43.495,38.596L1881.277,2007.968z M1885.717,1933.632
		l31.299,35.283l-35.272,31.301l-31.306-35.277L1885.717,1933.632L1885.717,1933.632z"/>
	<path fill="#524F4F" d="M1930.261,1963.26l43.497-38.59l-38.591-43.498l-43.495,38.597L1930.261,1963.26z M1934.699,1888.926
		l31.316,35.282l-35.287,31.3l-31.304-35.275L1934.699,1888.926L1934.699,1888.926z"/>
	<path fill="#E62425" d="M1873.604,1975.814l-6.02,35.064l22.329,4.252l14.358-66.533c-25.193,9.148-75.593,17.708-118.327,14.086
		C1786.615,1962.954,1815.902,1985.84,1873.604,1975.814z"/>
	<path fill="#F5AA71" d="M2159.926,1981.972l-37.189-12.773h-0.009h0.009c0,0-50.622-72.183-69.547-93.692l-33.199-25.213
		c-5.293-4.023-12.583-4.197-18.065-0.421l-3.078,1.842l44.572,50.234l-38.009,31.286l-83.838-40.622
		c-6.758-3.541-15.151-1.656-19.72,4.504c-5.204,7.019-3.604,16.966,3.562,21.989l68.58,47.924c0,0,11.374,22.852,33.26,36.141
		c21.916,13.284,38.594,11.176,38.594,11.176l102.213,54.89L2159.926,1981.972z"/>
	<g>
		<path fill="#FCD9C1" d="M1933.051,1906.524l-10.026,16.314c-14.402-5.571-21.621-13.185-17.468-20.029
			C1911.076,1893.721,1919.877,1894.941,1933.051,1906.524L1933.051,1906.524z"/>
	</g>
	<g>
		<rect x="2159.926" y="1953.994" fill="#434343" width="88.785" height="141.049"/>
		<rect x="2159.926" y="1961.228" fill="#434343" width="177.574" height="126.584"/>
		<rect x="2136.21" y="1961.228" fill="#87D2DC" width="23.716" height="126.584"/>
		<rect x="2248.711" y="1961.228" fill="#1B1C1C" width="20.017" height="126.584"/>
		<path fill="#DADCDC" d="M2198.44,2061.198c0,4.44-3.599,8.041-8.041,8.041c-4.441,0-8.039-3.601-8.039-8.041
			c0-4.444,3.598-8.049,8.039-8.049C2194.841,2053.148,2198.44,2056.753,2198.44,2061.198z"/>
	</g>
	<path fill="#E78848" d="M2036.303,1907.813c0,0,12.233,16.668,3.534,23.602c-15.773,12.576-34.426,1.821-34.426,1.821
		L2036.303,1907.813z"/>
</g>
<g>
	<g>
		
			<rect x="530.335" y="1798.107" transform="matrix(-0.7287 -0.6848 0.6848 -0.7287 -241.4749 3648.2876)" fill="#B54F26" width="143.055" height="147.728"/>
		<g>
			<path fill="#472B12" d="M461.771,1881.381c12.96-13.791,34.651-14.456,48.439-1.5l89.438,84.048
				c13.804,12.972,14.481,34.66,1.521,48.449l0,0c-12.961,13.792-34.644,14.46-48.448,1.486l-89.438-84.048
				C449.497,1916.86,448.811,1895.172,461.771,1881.381L461.771,1881.381z"/>
			<path fill="#472B12" d="M602.553,1731.572c12.957-13.789,34.65-14.457,48.438-1.499l89.437,84.048
				c13.806,12.972,14.48,34.66,1.523,48.449l0,0c-12.954,13.783-34.642,14.458-48.448,1.486l-89.439-84.048
				C590.278,1767.051,589.6,1745.355,602.553,1731.572L602.553,1731.572z"/>
		</g>
	</g>
	<g>
		
			<rect x="857.785" y="1899.62" transform="matrix(-0.6848 0.7287 -0.7287 -0.6848 3018.7334 2966.064)" fill="#623613" width="20.272" height="472.496"/>
		
			<rect x="871.671" y="1884.855" transform="matrix(-0.6848 0.7287 -0.7287 -0.6848 3031.3506 2931.0781)" fill="#472B12" width="20.251" height="472.496"/>
		<path fill="#623613" d="M1035.016,2303.043l12.006-12.777l34.659,32.57l-12.006,12.778c-8.99,9.566-24.051,9.959-33.615,0.97
			c-4.82-4.527-7.309-10.471-7.496-16.553C1028.372,2313.95,1030.485,2307.865,1035.016,2303.043z"/>
		<path fill="#472B12" d="M1047.021,2290.267l11.93-12.692c8.983-9.561,24.046-10.107,33.613-1.117
			c4.815,4.526,7.303,10.471,7.423,16.627c0.197,6.091-1.919,12.314-6.377,17.06l-11.93,12.692L1047.021,2290.267z"/>
		<polygon fill="#623613" points="632.978,1943.39 654.044,1920.972 702.703,1966.697 688.82,1981.47 		"/>
		<polygon fill="#472B12" points="654.044,1920.972 675.107,1898.559 716.571,1951.939 702.703,1966.697 		"/>
	</g>
	
		<rect x="598.46" y="1812.02" transform="matrix(-0.7288 -0.6848 0.6848 -0.7288 -231.4915 3669.3997)" fill="#F5841F" width="25.051" height="137.054"/>
	<rect x="543.208" y="2195.931" fill="#372110" width="219.77" height="74.113"/>
	<rect x="450" y="2270.044" fill="#623613" width="406.187" height="73.024"/>
</g>
<g>
	<path fill="#9F4B23" d="M5796.707,872.248v18.661h-368.738v-18.661c0-8.206,6.628-14.831,14.831-14.831h339.079
		C5790.082,857.417,5796.707,864.042,5796.707,872.248z"/>
	<rect x="5400" y="799.253" fill="#F9EF75" width="98.357" height="16.191"/>
	
		<rect x="5418.762" y="719.608" transform="matrix(0.8884 0.4591 -0.4591 0.8884 944.2837 -2428.949)" fill="#F9EF75" width="98.357" height="16.191"/>
	
		<rect x="5685.587" y="690.613" transform="matrix(0.9633 0.2684 -0.2684 0.9633 398.9375 -1506.687)" fill="#9F4B23" width="51.035" height="30.807"/>
	<path fill="#9F4B23" d="M6049.316,786.546l-3.539,12.707l-310.093-86.391l3.542-12.707c2.737-9.834,12.926-15.582,22.758-12.841
		l274.49,76.473C6046.311,766.525,6052.057,776.714,6049.316,786.546z"/>
	
		<rect x="5557.11" y="659.548" transform="matrix(0.2684 -0.9633 0.9633 0.2684 3461.812 5926.4023)" fill="#F4812E" width="150.861" height="49.153"/>
	<path fill="#D22432" d="M5738.411,635.33l-123.898-34.517c-12.78-3.562-20.252-16.808-16.692-29.587l0.131-0.466
		c3.561-12.78,16.806-20.254,29.584-16.693l123.9,34.517c12.779,3.561,20.254,16.808,16.693,29.587l-0.131,0.467
		C5764.438,631.416,5751.191,638.891,5738.411,635.33z"/>
	<path fill="#D22432" d="M5684.905,827.387l-123.898-34.517c-12.78-3.562-20.252-16.808-16.693-29.587l0.13-0.466
		c3.563-12.78,16.809-20.255,29.587-16.693l123.899,34.518c12.779,3.561,20.252,16.808,16.692,29.587l-0.13,0.467
		C5710.931,823.474,5697.686,830.948,5684.905,827.387z"/>
	
		<rect x="5604.472" y="672.729" transform="matrix(0.2684 -0.9633 0.9633 0.2684 3483.8547 5981.7236)" fill="#C06028" width="150.861" height="49.181"/>
	<path fill="#7C3B1A" d="M6045.777,799.253l-3.541,12.707c-2.739,9.835-12.926,15.582-22.76,12.841l-274.49-76.472
		c-9.832-2.74-15.582-12.927-12.842-22.759l3.54-12.707L6045.777,799.253z"/>
	<path fill="#F9EF75" d="M5658.27,683.37c-9.732-4.158-15.416-13.587-12.988-22.306c2.697-9.676,14.431-14.923,26.117-11.668
		c7.953,2.217,13.885,7.792,15.982,14.158l13.352-7.532c-4.32-9.876-13.369-17.972-25.25-21.282
		c-19.781-5.512-39.907,4.471-44.857,22.242c-4.658,16.717,5.773,34.489,23.549,41.095c9.733,4.155,15.416,13.584,12.988,22.303
		c-2.695,9.676-14.43,14.923-26.117,11.668c-7.953-2.216-13.883-7.79-15.98-14.157l-13.352,7.534
		c4.318,9.876,13.369,17.972,25.248,21.28c19.781,5.511,39.908-4.471,44.857-22.242
		C5686.477,707.745,5676.047,689.974,5658.27,683.37z"/>
	<path fill="#7C3B1A" d="M5796.707,890.908v18.619c0,8.203-6.625,14.828-14.828,14.828H5442.8c-8.203,0-14.831-6.625-14.831-14.828
		v-18.619H5796.707z"/>
</g>
<g>
	<polygon fill="#F5841F" points="4403.975,600.104 4425.639,645.646 4510.947,594.965 4475.41,674.768 4569.258,701.952 
		4519.074,752.225 4545.161,821.381 4448.694,798.172 4449.924,897.395 4393.896,796.723 4328.114,894.394 4334.222,795.367 
		4236.727,813.811 4305.074,741.874 4218.535,693.338 4317.115,682.152 4282.018,589.339 4362.184,624.489 	"/>
	<path fill="#9E4A23" d="M4538.826,867.35v-8.42c0-10.304-8.354-18.663-18.656-18.663h-253.801
		c-10.316,0-18.671,8.359-18.671,18.663v8.42H4538.826z"/>
	<path fill="#753617" d="M4581.047,920.991v-27.004c0-14.716-11.922-26.637-26.637-26.637h-322.295
		c-14.701,0-26.624,11.921-26.624,26.637v27.004H4581.047z"/>
	<path fill="#9E4A23" d="M4599.342,975.345h-412.147c-32.571,0-33.279-54.354,0-54.354h412.147
		C4632.516,920.991,4632.008,975.345,4599.342,975.345z"/>
	<g>
		<g>
			<g>
				<path fill="#9E4A23" d="M4571.305,683.723l-6.484,13.959l246.05,114.184c20.05-43.208-150.048-113.44-225.745-121.728
					C4585.205,690.178,4571.77,683.942,4571.305,683.723z"/>
				<path fill="#753617" d="M4564.82,697.682l-6.481,13.966l13.834,6.416c51.628,49.077,218.263,137.853,238.685,93.822
					C4810.87,811.865,4564.849,697.696,4564.82,697.682z"/>
			</g>
			<polygon fill="#753617" points="4553.436,709.215 4505.775,687.104 4518.739,659.171 4566.385,681.29 			"/>
			<path fill="#9E4A23" d="M4583.066,681.55l-18.672,40.229c-7.137,15.382-34.936,2.886-27.639-12.83l18.672-40.229
				C4562.697,653.05,4590.229,666.121,4583.066,681.55z"/>
		</g>
		<g>
			<g>
				<polygon fill="#FCEE3B" points="4503.582,713.287 4370.816,651.673 4404.509,579.068 4537.277,640.673 				"/>
				<polygon fill="#FDF4A2" points="4420.586,674.768 4386.867,659.125 4420.562,586.513 4454.279,602.163 				"/>
			</g>
			<g>
				<path fill="#753617" d="M4567.644,558.532l-120.006-55.692c-3.516-1.63-7.698-0.1-9.342,3.422l-30.847,66.477l132.768,61.614
					l30.848-66.478C4572.692,564.346,4571.17,560.164,4567.644,558.532z"/>
				<path fill="#9E4A23" d="M4546.416,644.924l-151.049-70.105c-13.123-6.088-3.783-25.521,9.076-19.553l151.063,70.099
					C4568.377,631.346,4559.517,650.999,4546.416,644.924z"/>
				<path fill="#9E4A23" d="M4563.807,607.476l-151.064-70.099c-13.124-6.089-3.782-25.521,9.074-19.553l151.051,70.099
					C4585.764,593.903,4576.902,613.556,4563.807,607.476z"/>
			</g>
			<g>
				<path fill="#753617" d="M4340.451,733.821l120.003,55.684c3.528,1.638,7.7,0.108,9.343-3.42l30.846-66.478l-132.754-61.612
					l-30.857,66.484C4335.398,728,4336.936,732.184,4340.451,733.821z"/>
				<path fill="#9E4A23" d="M4361.674,647.43l151.066,70.099c13.109,6.089,3.779,25.527-9.088,19.56L4352.6,666.983
					C4339.716,661.002,4348.577,641.35,4361.674,647.43z"/>
				<path fill="#9E4A23" d="M4344.299,684.873l151.051,70.099c13.123,6.086,3.795,25.526-9.073,19.56l-151.065-70.105
					C4322.34,698.451,4331.188,678.792,4344.299,684.873z"/>
			</g>
		</g>
	</g>
</g>
<g>
	<path fill="#472B12" d="M3377.019,452.834v449.398c0,21.528-17.353,38.966-35.737,38.966h-383.01V452.834H3377.019z"/>
	<polygon fill="#FFC514" points="3272.155,632.819 3320.678,727.92 3327.011,725.559 3279.699,632.813 3272.164,632.813 	"/>
	<polygon fill="#FFC514" points="3143.719,725.559 3137.385,727.92 3088.864,632.813 3096.399,632.813 3096.409,632.819 	"/>
	<g>
		<g>
			<polygon fill="#B54F26" points="3426.119,545.414 3441.695,636.357 3535.614,620.27 3520.032,529.325 			"/>
			<g>
				<path fill="#472B12" d="M3535.795,510.84c-12.029,2.063-20.109,13.492-18.049,25.521l13.364,78.024
					c2.065,12.044,13.487,20.129,25.515,18.066l0,0c12.035-2.062,20.116-13.487,18.053-25.531l-13.371-78.024
					C3559.249,516.867,3547.831,508.78,3535.795,510.84L3535.795,510.84z"/>
				<path fill="#472B12" d="M3405.106,533.232c-12.033,2.06-20.114,13.489-18.052,25.518l13.367,78.024
					c2.061,12.042,13.487,20.125,25.517,18.066l0,0c12.025-2.058,20.108-13.487,18.043-25.531l-13.362-78.024
					C3428.556,539.259,3417.125,531.172,3405.106,533.232L3405.106,533.232z"/>
			</g>
		</g>
		<g>
			<polygon fill="#623613" points="3508.802,668.591 3495.912,670.798 3545.005,950.45 3557.893,948.242 			"/>
			<polygon fill="#472B12" points="3495.912,670.798 3483.041,673.006 3532.133,952.654 3545.005,950.45 			"/>
			<path fill="#623613" d="M3556.155,948.542l-11.15,1.908l5.183,30.236l11.147-1.906c8.342-1.432,13.918-9.392,12.49-17.738
				c-0.722-4.206-3.034-7.656-6.235-9.921C3564.383,948.847,3560.36,947.822,3556.155,948.542z"/>
			<path fill="#472B12" d="M3545.005,950.45l-11.067,1.897c-8.347,1.43-13.999,9.333-12.569,17.682
				c0.716,4.201,3.03,7.658,6.303,9.912c3.205,2.273,7.304,3.35,11.442,2.641l11.074-1.896L3545.005,950.45z"/>
			<polygon fill="#623613" points="3508.199,625 3488.644,628.35 3495.912,670.798 3508.802,668.591 			"/>
			<polygon fill="#472B12" points="3488.644,628.35 3469.091,631.701 3483.041,673.006 3495.912,670.798 			"/>
		</g>
		
			<rect x="3474.152" y="546.601" transform="matrix(-0.1688 -0.9857 0.9857 -0.1688 3487.6858 4122.7876)" fill="#F5841F" width="16.153" height="88.4"/>
	</g>
	<path fill="#CCEBF8" d="M3377.019,902.233v62.603c0,21.439-17.353,38.854-38.879,38.854h-379.868v-62.49h383.01
		C3359.666,941.199,3377.019,923.761,3377.019,902.233z"/>
	<path fill="#CA5827" d="M3338.14,994.769h-379.856v29.931h382.998c18.395,0,35.729-17.425,35.729-38.956v-29.854
		C3377.01,977.341,3359.676,994.769,3338.14,994.769z"/>
	<rect x="2925" y="452.837" fill="#DF2F26" width="78.212" height="488.362"/>
	<rect x="2925" y="941.199" fill="#82381B" width="33.283" height="83.5"/>
	<path fill="#F6901E" d="M3100.688,628.259c-1.202,3.139-4.492,5.45-8.053,5.435c-3.559-0.013-6.567-2.265-7.745-5.411l-5.849-0.024
		c1.327,6.283,6.891,11.015,13.574,11.039c5.1,0.02,9.549-2.715,11.988-6.792l24.287,0.092l55.393,7.038l0.026-11.376H3100.688z"/>
	<polygon fill="#FDE156" points="3096.409,632.819 3047.889,727.92 3041.554,725.559 3088.864,632.813 3096.399,632.813 	"/>
	<path fill="#F5841F" d="M3044.488,732.833c8.921,16.4,27.105,27.655,48.146,27.655s39.223-11.255,48.147-27.655H3044.488z"/>
	<rect x="3041.55" y="725.563" fill="#F5841F" width="102.169" height="13.2"/>
	<path fill="#F6901E" d="M3267.876,628.259c1.203,3.139,4.495,5.45,8.05,5.435c3.564-0.013,6.573-2.265,7.75-5.411l5.851-0.024
		c-1.327,6.283-6.895,11.015-13.574,11.039c-5.102,0.02-9.549-2.715-11.992-6.792l-24.283,0.092l-55.395,7.038l-0.027-11.376
		H3267.876z"/>
	<polygon fill="#FDE156" points="3224.847,725.559 3231.179,727.92 3279.699,632.813 3272.164,632.813 3272.155,632.819 	"/>
	<path fill="#F5841F" d="M3327.016,725.563h-102.171v13.2h6.735c9.749,13.124,25.954,21.724,44.346,21.724
		c18.397,0,34.606-8.601,44.355-21.724h6.734V725.563z"/>
	<rect x="3162.258" y="777.49" fill="#D47828" width="43.996" height="11.014"/>
	<rect x="3131.62" y="788.504" fill="#F6901E" width="105.27" height="15.228"/>
	<path fill="#F5841F" d="M3197.341,603.391c0-7.228-5.861-13.089-13.085-13.089c-7.225,0-13.087,5.861-13.087,13.089
		c0,5.824,3.806,10.756,9.068,12.451l-9.068,161.648h13.087h13.085l-9.067-161.648
		C3193.533,614.147,3197.341,609.215,3197.341,603.391z"/>
</g>
<g>
	<polygon fill="#5DB1E2" points="2104.866,817.651 2119.282,823.017 2229.765,606.46 2212.603,606.46 2212.587,606.478 	"/>
	<polygon fill="#5DB1E2" points="1920.139,817.651 1905.718,823.017 1795.235,606.46 1812.397,606.46 1812.413,606.478 	"/>
	<path fill="#FFC514" d="M1822.163,596.097c-2.742,7.14-10.236,12.411-18.338,12.379c-8.107-0.032-14.955-5.168-17.638-12.325
		l-13.319-0.054c3.021,14.302,15.692,25.078,30.91,25.136c11.608,0.043,21.742-6.19,27.295-15.474l55.298,0.205l126.132,16.029
		l0.06-25.896H1822.163z"/>
	<polygon fill="#90D4DB" points="1812.413,606.478 1803.835,623.301 1701.932,823.017 1687.511,817.651 1795.235,606.46 
		1812.397,606.46 	"/>
	<path fill="#EDA120" d="M1694.192,834.209c20.315,37.338,61.722,62.972,109.632,62.972c47.911,0,89.301-25.633,109.628-62.972
		H1694.192z"/>
	<rect x="1687.5" y="817.651" fill="#A84724" width="232.645" height="30.059"/>
	<path fill="#F6901E" d="M2202.842,596.097c2.737,7.14,10.231,12.411,18.333,12.379c8.107-0.032,14.959-5.168,17.638-12.325
		l13.324-0.054c-3.025,14.302-15.697,25.078-30.915,25.136c-11.609,0.043-21.738-6.19-27.301-15.474l-55.292,0.205l-126.127,16.029
		l-0.064-25.896H2202.842z"/>
	<polygon fill="#90D4DB" points="2212.587,606.478 2221.165,623.301 2323.068,823.017 2337.489,817.651 2229.765,606.46 
		2212.603,606.46 	"/>
	<path fill="#EDA120" d="M2330.809,834.209c-20.311,37.338-61.716,62.972-109.633,62.972c-47.906,0-89.307-25.633-109.628-62.972
		H2330.809z"/>
	<rect x="2104.861" y="817.651" fill="#A84724" width="232.639" height="30.059"/>
	<path fill="#F6A169" d="M2106.417,607.6v105.377c0,0,0,45.068-75.672,45.068c-57.393,0-75.832-127.474-75.832-127.474
		L2106.417,607.6z"/>
	<path fill="#E98A48" d="M2060.478,588.357c0,30.738-45.933,30.136-45.933,0v-19.647c0-30.385,45.933-30.412,45.933,0V588.357z"/>
	<path fill="#E98A48" d="M2015.763,588.357c0,30.743-45.934,30.145-45.934,0v-19.647c0-30.385,45.934-30.412,45.934,0V588.357z"/>
	<path fill="#E98A48" d="M1969.552,623.586c0,30.738-45.939,30.134-45.939,0v-48.715c0-30.383,45.939-30.404,45.939,0V623.586z"/>
	<g>
		<g>
			<g>
				<rect x="1946.585" y="767.174" fill="#166E38" width="135.924" height="164.449"/>
			</g>
			<rect x="1937.846" y="767.174" fill="#60AA45" width="153.402" height="105.39"/>
			<path fill="#F7B717" d="M1966.36,853.941c-7.717,0-13.971-6.253-13.971-13.97c0-7.708,6.254-13.961,13.971-13.961
				c7.714,0,13.966,6.253,13.966,13.961C1980.327,847.688,1974.074,853.941,1966.36,853.941z"/>
			<rect x="1958.439" y="836.379" fill="#F47E20" width="15.842" height="7.194"/>
		</g>
	</g>
	<rect x="1955.575" y="726.094" fill="#F6A169" width="124.075" height="41.08"/>
	<path fill="#E98A48" d="M2077.224,599.657c0,0-0.433,6.735-2.641,15.002c-3.479,13.137-11.444,30.145-29.231,30.145
		c-28.984,0-46.628,0-46.628,0v25.394c-3.191-0.016-28.333,0.14-28.333,0.14V637.68c0,0,40.877,0,69.858,0
		c18.974,0,27.766-19.488,30.956-38.023H2077.224z"/>
	<path fill="#F18E4C" d="M2104.701,625.28c-2.923,30.594-48.595,25.633-45.73-4.368l4.035-42.287
		c2.897-30.333,48.617-25.843,45.731,4.366L2104.701,625.28z"/>
	<path fill="#FBC49F" d="M2094.278,631.176c-1.352,14.178-27.493,11.217-26.178-2.497l1.021-10.712
		c0.534-5.579,5.473-9.678,11.032-9.149l6.045,0.577c5.553,0.534,9.631,5.487,9.103,11.074L2094.278,631.176z"/>
	<path fill="#E98A48" d="M1985.735,660.191c46.757-2.972,71.434,24.662,69.436,65.902l-71.237-55.757L1985.735,660.191z"/>
	<path fill="#F6A169" d="M2071.109,592.547c-0.93,14.881-8.573,45.133-31.877,45.133c-28.979,0-55.298,0-55.298,0v32.657
		c27.286-2.187,59.483,9.294,66.81,39.636c10.68,44.246-4.5,48.896-4.5,48.896l-90.664-6.05
		c-13.213-4.939-24.196-13.545-32.705-24.277c-37.542-47.301-27.243-135.995,50.081-135.995H2071.109z"/>
	<path fill="#FBC49F" d="M2071.205,592.547c0,0-0.433,6.735-2.639,14.999c-0.396,0.038-30.968,0.046-30.968,0.046
		c-6.409,0-12.753-4.269-12.753-15.045H2071.205z"/>
	<path fill="#E98A48" d="M2055.171,745.763c-1.059,0.663-22.887,13.854-48.734-5.4c0,0-5.559,11.717-36.607,14.058
		c28.216-13.307,29.344-28.979,34.8-46.681C2005.827,731.993,2033.679,751.91,2055.171,745.763z"/>
</g>
<g>
	<g>
		<rect x="720.68" y="546.011" fill="#3DBFCD" width="89.049" height="27.657"/>
		<path fill="#F39C56" d="M799.412,534.929h-68.423c-1.091,7.678-5.311,30.139-12.617,36.318c0.542,73.271,94.707,72.956,93.654,0
			C804.723,565.067,800.505,542.606,799.412,534.929z"/>
		<path fill="#FAB67A" d="M765.204,406.455l-60.732,37.483l12,85.326c0,0,20.259,28.309,48.732,28.309
			c28.473,0,48.732-28.309,48.732-28.309l12-85.326L765.204,406.455z"/>
		<path fill="#3DBFCD" d="M793.373,574.402l-28.169-3.215l-28.17,3.215l-30.522,25.162c10.582,32.392,42.698,69.993,58.692,85.224
			c15.993-15.231,48.111-52.832,58.692-85.224L793.373,574.402z"/>
		<g>
			<path fill="#FAB67A" d="M711.662,478.173c-11.14-9.55-19.308,2.141-6.287,22.156c0,0-0.99,6.588,8.336,6.588L711.662,478.173z"/>
			<path fill="#FAB67A" d="M818.749,478.173c11.138-9.55,19.306,2.141,6.285,22.156c0,0,0.99,6.588-8.336,6.588L818.749,478.173z"/>
		</g>
		<g>
			<path fill="#F39C56" d="M709.015,482.437c0,0-2.681-1.198-4.878,0c0,0-2.64,1.198-0.92,4.791l3.716,10.181
				c0,0,2.503-1.032,4.427,0C712.454,490.854,699.948,484.831,709.015,482.437z"/>
			<path fill="#F39C56" d="M821.396,482.437c0,0,2.678-1.198,4.87,0c0,0,2.645,1.198,0.925,4.791l-3.719,10.181
				c0,0-2.5-1.032-4.425,0C817.954,490.854,830.462,484.831,821.396,482.437z"/>
		</g>
		<g>
			<polygon fill="#DF3826" points="775.532,602.074 753.563,602.074 744.338,692.105 755.73,712.34 764.559,714.841 773.374,712.34 
				784.758,692.105 			"/>
			<polygon fill="#DF3826" points="778.996,571.188 750.109,571.188 741.85,582.759 753.563,602.074 775.532,602.074 
				787.246,582.759 			"/>
		</g>
		<path fill="#313C3B" d="M707.502,475.5l6.209,19.44h6.929l-5.503-48.792c9.365-14.836,26.004-14.393,50.067-11.893
			c24.063-2.5,40.699-2.944,50.064,11.893l-5.504,48.792h6.93l6.209-19.44C868.452,366.347,661.958,366.355,707.502,475.5z"/>
		<g>
			<g>
				<path fill="#3C3F98" d="M694.403,560.892c0,0-61.481,16.995-73.231,51.456l-3.64,116.107h53.015l8.305-76.383l2.368,76.383
					h83.983v-43.667l-19.836-25.347l-8.683-24.557L694.403,560.892z"/>
				<path fill="#3C3F98" d="M836.004,560.892c0,0,61.481,16.995,73.231,51.456l3.642,116.107H859.86l-8.306-76.383l-2.365,76.383
					h-83.985v-43.667l14.529-18.101l11.969-28.27L836.004,560.892z"/>
			</g>
			<circle fill="#2B286B" cx="779.733" cy="694.448" r="4.196"/>
		</g>
		<g>
			<polygon fill="#87D2DC" points="809.729,546.011 765.204,571.188 794.062,602.793 827.678,566.152 			"/>
			<polygon fill="#87D2DC" points="720.68,546.011 765.204,571.188 736.346,602.793 702.73,566.152 			"/>
		</g>
		<g>
			<path fill="#2B286B" d="M817.231,549.24c-7.503,25.163-16.711,87.577-52.027,135.548c0,0,41.586-15.025,68.295-52.573
				c-8.047-8.661-15.94-17.156-15.94-17.156l41.446-48.171L817.231,549.24z"/>
			<path fill="#2B286B" d="M713.174,549.24c7.505,25.163,16.714,87.577,52.03,135.548c0,0-41.586-15.025-68.295-52.573
				c8.047-8.661,15.94-17.156,15.94-17.156l-41.446-48.171L713.174,549.24z"/>
		</g>
		<rect x="813.507" y="675.104" fill="#2B286B" width="28.071" height="8.391"/>
	</g>
	<rect x="612.424" y="773.013" fill="#8D3A1E" width="305.563" height="310.882"/>
	<rect x="612.424" y="773.009" fill="#6F2412" width="305.563" height="46.949"/>
	<rect x="584.187" y="723.151" fill="#A44124" width="362.034" height="72.108"/>
	<g>
		<g>
			<path fill="#EE904B" d="M545.814,760.599c-1.71,13.574-21.875,10.771-20.213-2.525l10.427-89.282
				c1.647-13.145,21.883-10.826,20.209,2.53L545.814,760.599z"/>
			<path fill="#EE904B" d="M523.209,753.602c-0.392,13.493-20.748,12.94-20.368-0.573l2.088-73.315
				c0.354-13.003,20.729-13.038,20.354,0.573L523.209,753.602z"/>
			<path fill="#EE904B" d="M549.232,757.046c-2.905,13.772,17.244,16.974,19.935,4.18l15.068-71.781
				c2.833-13.496-17.239-17.013-19.934-4.183L549.232,757.046z"/>
			<path fill="#EE904B" d="M566.57,783.712c-3.109,11.33,13.645,15.389,16.625,4.564l19.725-76.314
				c3.085-11.207-13.655-15.356-16.62-4.563L566.57,783.712z"/>
			<path fill="#EE904B" d="M567.902,843.504c-3.433,14.309-5.155,41.201-5.155,41.201l-64.177-4.32
				c0.93-27.775,1.799-35.9-2.286-44.357c-26.016-20.318-28.078-58.267-37.554-82.551c-4.663-12.034-8.731-21.292-8.731-21.292
				s11.042-11.227,21.249,3.348c10.213,14.579,16.283,50.674,24.566,43.29c4.239-3.778,7.214-32.158,7.214-32.158
				s34.006,1.88,53.022,6.632c19.016,4.755,29.35,10.992,29.35,10.992S586.348,841.554,567.902,843.504z"/>
		</g>
		
			<rect x="485.052" y="851.867" transform="matrix(0.9943 0.1065 -0.1065 0.9943 96.2331 -51.4489)" fill="#27BDCA" width="89.227" height="46.256"/>
		<polygon fill="#0A282B" points="580.049,880.403 558.241,1083.896 456.292,1083.896 479.277,869.603 		"/>
		<circle fill="#0D525C" cx="563.428" cy="900.351" r="6.067"/>
		<path fill="#0D525C" d="M567.44,919.847c-0.357,3.333-3.348,5.744-6.677,5.387c-3.331-0.357-5.745-3.348-5.388-6.679
			c0.359-3.33,3.348-5.742,6.679-5.386C565.385,913.525,567.796,916.516,567.44,919.847z"/>
	</g>
	<g>
		<g>
			<path fill="#FAB67A" d="M642.807,806.523c0.255,13.679,20.604,13.042,20.365-0.357l-0.853-89.886
				c-0.239-13.245-20.604-13.096-20.365,0.362L642.807,806.523z"/>
			<path fill="#FAB67A" d="M666.029,801.976c-1.048,13.457,19.252,15.075,20.313,1.599l5.735-73.121
				c1.033-12.967-19.221-15.172-20.3-1.598L666.029,801.976z"/>
			<path fill="#FAB67A" d="M639.787,802.626c1.421,14.005-18.954,15.04-20.264,2.032l-7.337-72.976
				c-1.377-13.722,18.954-15.078,20.267-2.037L639.787,802.626z"/>
			<path fill="#FAB67A" d="M619.708,827.293c1.883,11.598-15.211,13.848-17.018,2.768l-11.482-77.982
				c-1.874-11.471,15.213-13.815,17.012-2.765L619.708,827.293z"/>
			<path fill="#FAB67A" d="M612.01,886.604c1.889,14.592,0.737,41.516,0.737,41.516l64.271,2.543
				c2.035-27.718,2.035-35.887,7-43.862c28.032-17.43,34.128-54.942,46.136-78.08c5.918-11.469,10.95-20.24,10.95-20.24
				s-9.784-12.34-21.483,1.064c-11.711,13.408-21.591,48.651-29.041,40.427c-3.811-4.209-3.746-32.745-3.746-32.745
				s-34.013-1.755-53.427,0.944c-19.417,2.703-30.354,7.803-30.354,7.803S593.877,882.7,612.01,886.604z"/>
		</g>
		<rect x="602.062" y="898.862" fill="#27BDCA" width="89.227" height="46.258"/>
		<rect x="595.995" y="921.991" fill="#3C3F98" width="101.359" height="161.905"/>
		<path fill="#6A69AF" d="M604.336,943.603c0,3.352,2.717,6.067,6.067,6.067s6.065,0.634,6.065-2.716
			c0-3.352-2.714-9.418-6.065-9.418S604.336,940.253,604.336,943.603z"/>
		<circle fill="#6A69AF" cx="610.402" cy="962.563" r="6.066"/>
	</g>
	<g>
		<g>
			<path fill="#EE904B" d="M781.448,845.242c-0.253,13.679-20.602,13.042-20.366-0.357l0.855-89.886
				c0.238-13.246,20.604-13.096,20.363,0.362L781.448,845.242z"/>
			<path fill="#EE904B" d="M758.226,840.694c1.047,13.457-19.25,15.075-20.31,1.599l-5.737-73.121
				c-1.034-12.967,19.224-15.172,20.3-1.598L758.226,840.694z"/>
			<path fill="#EE904B" d="M784.471,841.345c-1.421,14.005,18.952,15.04,20.265,2.032l7.334-72.976
				c1.378-13.722-18.954-15.079-20.267-2.037L784.471,841.345z"/>
			<path fill="#EE904B" d="M804.55,866.012c-1.886,11.598,15.208,13.848,17.017,2.768l11.482-77.982
				c1.871-11.472-15.213-13.815-17.015-2.765L804.55,866.012z"/>
			<path fill="#EE904B" d="M812.245,925.322c-1.888,14.592-0.737,41.516-0.737,41.516l-64.268,2.542
				c-2.038-27.718-2.038-35.887-7.002-43.862c-28.032-17.43-34.126-54.942-46.133-78.08c-5.92-11.469-10.95-20.24-10.95-20.24
				s9.782-12.339,21.483,1.065c11.708,13.408,21.592,48.652,29.039,40.427c3.811-4.209,3.746-32.745,3.746-32.745
				s34.015-1.754,53.427,0.944c19.417,2.703,30.354,7.803,30.354,7.803S830.378,921.418,812.245,925.322z"/>
		</g>
		<rect x="732.969" y="937.581" fill="#27BDCA" width="89.227" height="46.258"/>
		<g>
			<rect x="728.423" y="955.776" fill="#DF3826" width="101.362" height="128.12"/>
		</g>
		<path fill="#6F2412" d="M819.919,982.32c0,3.352-2.717,6.068-6.065,6.068c-3.353,0-6.067,0.633-6.067-2.716
			c0-3.352,2.714-9.418,6.067-9.418C817.203,976.254,819.919,978.971,819.919,982.32z"/>
		<path fill="#6F2412" d="M819.919,1001.28c0,3.35-2.717,6.066-6.065,6.066c-3.353,0-6.067-2.717-6.067-6.066
			c0-3.35,2.714-6.067,6.067-6.067C817.203,995.213,819.919,997.93,819.919,1001.28z"/>
	</g>
	<g>
		<g>
			<path fill="#FAB67A" d="M908.392,795.96c-0.252,13.679-20.601,13.042-20.365-0.358l0.855-89.886
				c0.238-13.245,20.604-13.096,20.363,0.363L908.392,795.96z"/>
			<path fill="#FAB67A" d="M885.173,791.413c1.045,13.458-19.253,15.075-20.313,1.6l-5.737-73.122
				c-1.033-12.967,19.224-15.172,20.3-1.598L885.173,791.413z"/>
			<path fill="#FAB67A" d="M911.415,792.063c-1.421,14.005,18.952,15.04,20.264,2.032l7.334-72.976
				c1.378-13.722-18.954-15.078-20.267-2.037L911.415,792.063z"/>
			<path fill="#FAB67A" d="M931.494,816.73c-1.884,11.598,15.208,13.847,17.017,2.768l11.482-77.982
				c1.872-11.472-15.213-13.815-17.015-2.765L931.494,816.73z"/>
			<path fill="#FAB67A" d="M939.19,876.041c-1.889,14.591-0.737,41.516-0.737,41.516l-64.268,2.542
				c-2.038-27.718-2.038-35.887-7.002-43.862c-28.032-17.431-34.126-54.942-46.133-78.08c-5.92-11.469-10.95-20.24-10.95-20.24
				s9.782-12.34,21.483,1.064c11.708,13.408,21.591,48.652,29.039,40.427c3.811-4.209,3.746-32.745,3.746-32.745
				s34.015-1.755,53.427,0.944c19.416,2.703,30.354,7.803,30.354,7.803S957.322,872.137,939.19,876.041z"/>
		</g>
		<rect x="859.913" y="888.299" fill="#27BDCA" width="89.227" height="46.257"/>
		<rect x="853.846" y="911.427" fill="#2B286B" width="101.362" height="172.468"/>
		<path fill="#3C3F98" d="M946.864,933.039c0,3.352-2.717,6.067-6.065,6.067c-3.353,0-6.068-2.716-6.068-6.067
			c0-3.349,2.715-6.066,6.068-6.066C944.146,926.973,946.864,929.69,946.864,933.039z"/>
		<path fill="#3C3F98" d="M946.864,951.999c0,3.35-2.717,6.066-6.065,6.066c-3.353,0-6.068-2.717-6.068-6.066
			c0-3.351,2.715-6.067,6.068-6.067C944.146,945.932,946.864,948.648,946.864,951.999z"/>
	</g>
	<g>
		<g>
			<path fill="#F39C56" d="M1005.026,814.573c2.194,13.504,22.247,9.984,20.11-3.246l-13.604-88.854
				c-2.117-13.077-22.253-10.037-20.107,3.25L1005.026,814.573z"/>
			<path fill="#F39C56" d="M1027.369,806.775c0.872,13.472,21.197,12.191,20.332-1.301l-4.7-73.193
				c-0.821-12.983-21.184-12.291-20.322,1.297L1027.369,806.775z"/>
			<path fill="#F39C56" d="M1001.483,811.144c3.394,13.662-16.627,17.58-19.771,4.89l-17.62-71.196
				c-3.312-13.387,16.62-17.617,19.771-4.893L1001.483,811.144z"/>
			<path fill="#F39C56" d="M985.108,838.412c3.512,11.212-13.091,15.866-16.451,5.155l-22.437-75.562
				c-3.48-11.09,13.101-15.833,16.449-5.155L985.108,838.412z"/>
			<path fill="#F39C56" d="M985.911,898.216c3.938,14.175,6.622,40.988,6.622,40.988l63.979-6.606
				c-1.917-27.725-3.079-35.812,0.703-44.411c25.274-21.234,25.982-59.231,34.583-83.838c4.232-12.194,7.968-21.59,7.968-21.59
				s-11.437-10.827-21.117,4.105c-9.688,14.934-14.464,51.222-23.005,44.138c-4.37-3.624-8.358-31.881-8.358-31.881
				s-33.917,3.091-52.75,8.521c-18.836,5.432-28.94,12.033-28.94,12.033S967.405,896.922,985.911,898.216z"/>
		</g>
		
			<rect x="980.632" y="905.194" transform="matrix(-0.9899 0.142 -0.142 -0.9899 2171.8911 1701.7014)" fill="#27BDCA" width="89.227" height="46.257"/>
		<polygon fill="#DF3826" points="1100,1083.896 996.362,1083.896 975.086,935.508 1075.407,921.126 		"/>
		<circle fill="#6F2412" cx="992.409" cy="954.865" r="6.066"/>
		<circle fill="#6F2412" cx="995.101" cy="973.632" r="6.067"/>
	</g>
</g>
</svg>
