<?xml version="1.0" encoding="utf-8"?>
<!-- Generator: Adobe Illustrator 16.0.0, SVG Export Plug-In . SVG Version: 6.00 Build 0)  -->
<!DOCTYPE svg PUBLIC "-//W3C//DTD SVG 1.1//EN" "http://www.w3.org/Graphics/SVG/1.1/DTD/svg11.dtd">
<svg version="1.1" id="Layer_1" xmlns="http://www.w3.org/2000/svg" xmlns:xlink="http://www.w3.org/1999/xlink" x="0px" y="0px"
	 width="450px" height="450px" viewBox="0 0 450 450" enable-background="new 0 0 450 450" xml:space="preserve">
<g>
	<rect fill-rule="evenodd" clip-rule="evenodd" fill="#FFFFFF" width="450" height="450"/>
	<g>
		<path fill-rule="evenodd" clip-rule="evenodd" fill="#995503" d="M61.738,46.397c0.249-3.236,1.346-6.629,0.557-9.633
			c-1.839-4.291-10.525-6.314-14.7-5.555c-2.609,4.391-1.531,9.807-1.051,14.811L61.738,46.397z"/>
		<path fill-rule="evenodd" clip-rule="evenodd" fill="#8B4801" d="M54.096,46.207V31.613c3.563,0.835,7.102,2.589,8.2,5.151
			c0.789,3.003-0.309,6.397-0.557,9.633L54.096,46.207z"/>
		<path fill-rule="evenodd" clip-rule="evenodd" fill="#B2D8DE" d="M53.963,76.758c2.305,0.033,4.573-0.066,6.813-0.301V55.905
			l-0.765-0.334c-1.684-0.737-3.769-1.584-6.048-1.894V76.758z"/>
		<path fill-rule="evenodd" clip-rule="evenodd" fill="#B2D8DE" d="M53.963,76.758c-2.305,0.033-4.573-0.066-6.813-0.301V55.905
			l0.765-0.334c1.685-0.737,3.77-1.584,6.048-1.894V76.758z"/>
		<path fill-rule="evenodd" clip-rule="evenodd" fill="#E0AC7E" d="M49.099,49.633h9.729v5.869c-3.243,2.577-6.486,2.68-9.729,0
			V49.633z"/>
		<path fill-rule="evenodd" clip-rule="evenodd" fill="#F2C196" d="M49.957,37.583c-1.378-0.27-2.697,1.141-2.944,2.523
			c-0.227,1.267-0.387,2.567-0.445,3.87c-0.037-0.006,0.166-0.009-0.112-0.009s-1.184,0.205-1.141,1.409
			c0.032,0.903,0.817,3.527,1.85,3.097c1.494,4.004,3.506,6.264,6.799,7.065c0.055-0.106,0.081-0.025,0.133-0.059V38.004
			C52.768,38.008,51.439,37.873,49.957,37.583z"/>
		<path fill-rule="evenodd" clip-rule="evenodd" fill="#EBB688" d="M58.102,37.583c1.378-0.27,2.698,1.141,2.945,2.523
			c0.227,1.267,0.386,2.567,0.444,3.87c0.037-0.006-0.166-0.009,0.112-0.009c0.278,0,1.184,0.205,1.141,1.409
			c-0.033,0.903-0.817,3.527-1.85,3.097c-1.515,4.059-3.559,6.294-6.932,7.065V38.004C55.291,38.008,56.62,37.873,58.102,37.583z"/>
		<polygon fill-rule="evenodd" clip-rule="evenodd" fill="#FF3705" points="53.963,57.473 55.626,57.473 54.922,60.113 
			53.964,60.113 53.962,60.113 53.004,60.113 52.299,57.473 		"/>
		<polygon fill-rule="evenodd" clip-rule="evenodd" fill="#FF5527" points="54.922,60.033 55.603,70.021 53.963,73.017 
			52.323,70.021 53.004,60.033 		"/>
		<path fill-rule="evenodd" clip-rule="evenodd" fill="#F0FAFC" d="M53.963,57.473l-2.854,2.775l-3.194-4.678l1.184-0.645
			C50.293,56.187,51.932,56.988,53.963,57.473z"/>
		<path fill-rule="evenodd" clip-rule="evenodd" fill="#096385" d="M53.963,72.747L46.957,55.99
			c-6.331,2.73-10.397,4.836-11.112,12.855c2.877,5.132,9.745,9.333,18.118,9.326V72.747z"/>
		<path fill-rule="evenodd" clip-rule="evenodd" fill="#08426A" d="M41.569,74.687c0.253,0.177,0.542,0.322,0.808,0.489
			l-0.019-3.318L41.569,74.687z"/>
		<polygon fill-rule="evenodd" clip-rule="evenodd" fill="#0174A3" points="53.963,72.747 53.963,76.981 47.369,65.171 
			49.33,62.793 46.343,61.797 44.995,56.848 48.257,55.421 		"/>
		<path fill-rule="evenodd" clip-rule="evenodd" fill="#F0FAFC" d="M53.963,57.473l2.854,2.775l3.194-4.678l-1.183-0.645
			C57.632,56.187,55.994,56.988,53.963,57.473z"/>
		<path fill-rule="evenodd" clip-rule="evenodd" fill="#0B5975" d="M53.963,72.747l7.006-16.757
			c6.332,2.73,10.397,4.836,11.112,12.855c-2.877,5.132-9.745,9.333-18.118,9.326V72.747z"/>
		<path fill-rule="evenodd" clip-rule="evenodd" fill="#08426A" d="M66.356,74.687c-0.253,0.177-0.542,0.322-0.808,0.489
			l0.019-3.318L66.356,74.687z"/>
		<polygon fill-rule="evenodd" clip-rule="evenodd" fill="#0A6D94" points="53.963,72.747 53.963,76.981 60.557,65.171 
			58.596,62.793 61.583,61.797 62.931,56.848 59.786,55.448 		"/>
		<rect x="34.593" y="71.748" fill-rule="evenodd" clip-rule="evenodd" fill="#8B4801" width="38.74" height="26.926"/>
		<rect x="38.937" y="76.118" fill-rule="evenodd" clip-rule="evenodd" fill="#995503" width="30.052" height="17.946"/>
		<rect x="32.412" y="66.481" fill-rule="evenodd" clip-rule="evenodd" fill="#995503" width="43.101" height="5.448"/>
		<rect x="53.597" y="62.374" fill-rule="evenodd" clip-rule="evenodd" fill="#4A250A" width="0.996" height="4.107"/>
		<path fill-rule="evenodd" clip-rule="evenodd" fill="#4A250A" d="M54.095,60.521L54.095,60.521c0.902,0,1.64,0.738,1.64,1.64
			v0.292c0,0.902-0.738,1.64-1.64,1.64h0c-0.902,0-1.64-0.738-1.64-1.64v-0.292C52.455,61.259,53.193,60.521,54.095,60.521z"/>
		<path fill-rule="evenodd" clip-rule="evenodd" fill="#92D3E0" d="M69.033,45.13l-4.6,7.577l8.265-4.778
			c2.493,1.303,5.623,2.079,9.021,2.079c8.14,0,14.738-4.448,14.738-9.935s-6.598-9.935-14.738-9.935
			c-8.139,0-14.737,4.448-14.737,9.935C66.982,41.92,67.73,43.648,69.033,45.13z"/>
		<circle fill-rule="evenodd" clip-rule="evenodd" fill="#F0FAFC" cx="76.127" cy="41.003" r="1.2"/>
		<circle fill-rule="evenodd" clip-rule="evenodd" fill="#F0FAFC" cx="81.226" cy="41.003" r="1.2"/>
		<circle fill-rule="evenodd" clip-rule="evenodd" fill="#F0FAFC" cx="86.324" cy="41.003" r="1.2"/>
	</g>
	<g>
		<path fill-rule="evenodd" clip-rule="evenodd" fill="#995503" d="M397.476,51.959c0.376-4.903,2.038-10.044,0.844-14.595
			c-2.786-6.501-15.946-9.567-22.271-8.416c-3.954,6.653-2.319,14.859-1.593,22.439L397.476,51.959z"/>
		<path fill-rule="evenodd" clip-rule="evenodd" fill="#8B4801" d="M385.896,51.672V29.56c5.396,1.266,10.76,3.922,12.423,7.804
			c1.194,4.551-0.468,9.692-0.844,14.595L385.896,51.672z"/>
		<path fill-rule="evenodd" clip-rule="evenodd" fill="#B2D8DE" d="M385.694,97.96c3.493,0.05,6.929-0.101,10.323-0.456V66.365
			l-1.159-0.507c-2.552-1.117-5.711-2.4-9.164-2.87V97.96z"/>
		<path fill-rule="evenodd" clip-rule="evenodd" fill="#B2D8DE" d="M385.694,97.96c-3.492,0.05-6.928-0.101-10.322-0.456V66.365
			l1.159-0.507c2.552-1.117,5.711-2.4,9.163-2.87V97.96z"/>
		<path fill-rule="evenodd" clip-rule="evenodd" fill="#E0AC7E" d="M378.324,56.862h14.741v8.892c-4.913,3.904-9.827,4.061-14.741,0
			V56.862z"/>
		<path fill-rule="evenodd" clip-rule="evenodd" fill="#F2C196" d="M379.625,38.605c-2.088-0.408-4.087,1.728-4.462,3.823
			c-0.343,1.92-0.585,3.89-0.673,5.864c-0.057-0.009,0.251-0.014-0.171-0.014c-0.421,0-1.793,0.311-1.728,2.135
			c0.049,1.368,1.237,5.344,2.802,4.692c2.265,6.067,5.313,9.491,10.301,10.705c0.084-0.161,0.124-0.038,0.202-0.089V39.243
			C383.884,39.25,381.871,39.044,379.625,38.605z"/>
		<path fill-rule="evenodd" clip-rule="evenodd" fill="#EBB688" d="M391.967,38.605c2.087-0.408,4.086,1.728,4.461,3.823
			c0.344,1.92,0.585,3.89,0.674,5.864c0.056-0.009-0.252-0.014,0.17-0.014s1.793,0.311,1.729,2.135
			c-0.049,1.368-1.238,5.344-2.803,4.692c-2.295,6.15-5.393,9.535-10.503,10.705V39.243C387.707,39.25,389.72,39.044,391.967,38.605
			z"/>
		<polygon fill-rule="evenodd" clip-rule="evenodd" fill="#FF3705" points="385.694,68.741 388.215,68.741 387.147,72.74 
			385.696,72.74 385.692,72.74 384.242,72.74 383.175,68.741 		"/>
		<polygon fill-rule="evenodd" clip-rule="evenodd" fill="#FF5527" points="387.147,72.619 388.18,87.753 385.694,92.291 
			383.211,87.753 384.242,72.619 		"/>
		<path fill-rule="evenodd" clip-rule="evenodd" fill="#F0FAFC" d="M385.694,68.741l-4.324,4.205l-4.839-7.087l1.793-0.978
			C380.136,66.792,382.617,68.006,385.694,68.741z"/>
		<path fill-rule="evenodd" clip-rule="evenodd" fill="#096385" d="M385.694,91.882L375.08,66.494
			c-9.593,4.138-15.753,7.327-16.836,19.477c4.358,7.776,14.764,14.141,27.45,14.131V91.882z"/>
		<path fill-rule="evenodd" clip-rule="evenodd" fill="#08426A" d="M366.918,94.822c0.383,0.269,0.82,0.488,1.224,0.741
			l-0.028-5.027L366.918,94.822z"/>
		<polygon fill-rule="evenodd" clip-rule="evenodd" fill="#0174A3" points="385.694,91.882 385.694,98.298 375.704,80.405 
			378.676,76.801 374.149,75.292 372.107,67.793 377.05,65.633 		"/>
		<path fill-rule="evenodd" clip-rule="evenodd" fill="#F0FAFC" d="M385.694,68.741l4.324,4.205l4.84-7.087l-1.793-0.978
			C391.254,66.792,388.772,68.006,385.694,68.741z"/>
		<path fill-rule="evenodd" clip-rule="evenodd" fill="#0B5975" d="M385.694,91.882l10.615-25.389
			c9.593,4.138,15.753,7.327,16.836,19.477c-4.358,7.776-14.765,14.141-27.451,14.131V91.882z"/>
		<path fill-rule="evenodd" clip-rule="evenodd" fill="#08426A" d="M404.472,94.822c-0.383,0.269-0.82,0.488-1.224,0.741
			l0.029-5.027L404.472,94.822z"/>
		<polygon fill-rule="evenodd" clip-rule="evenodd" fill="#0A6D94" points="385.694,91.882 385.694,98.298 395.686,80.405 
			392.714,76.801 397.239,75.292 399.282,67.793 394.518,65.672 		"/>
		<path fill-rule="evenodd" clip-rule="evenodd" fill="#FF5527" d="M406.672,43.069c2.213-0.433,4.33,1.831,4.727,4.05
			c1.086,6.065,0.622,9.723-0.244,13.433c-2.432,6.516-5.713,10.104-11.128,11.343c-5.415-1.239-8.696-4.827-11.129-11.343
			c-0.865-3.709-1.329-7.368-0.244-13.433c0.397-2.219,2.516-4.483,4.728-4.05c2.38,0.465,4.513,0.683,6.646,0.675
			C402.159,43.752,404.291,43.535,406.672,43.069L406.672,43.069z M400.026,66.058c2.57-0.028,5.142-1.21,5.122-3.433
			c-1.692,0.416-3.4,0.615-5.122,0.608c-1.694-0.006-3.401-0.212-5.122-0.608C394.933,64.978,397.479,66.084,400.026,66.058
			L400.026,66.058z M397.445,54.325c0.024-3.271-6.478-3.495-6.514,0C393.137,53.735,395.311,53.715,397.445,54.325L397.445,54.325z
			 M409.121,54.325c0.025-3.271-6.477-3.495-6.514,0C404.813,53.735,406.986,53.715,409.121,54.325z"/>
	</g>
	<g>
		<rect x="278.319" y="355.682" fill-rule="evenodd" clip-rule="evenodd" fill="#435D76" width="0.579" height="4.056"/>
		<path fill-rule="evenodd" clip-rule="evenodd" fill="#435D76" d="M278.608,359.261c3.32,0,6.012,2.154,6.012,4.812
			c0,1.546-0.912,2.922-2.328,3.802h-7.367c-1.416-0.88-2.327-2.256-2.327-3.802C272.598,361.415,275.289,359.261,278.608,359.261z"
			/>
		<path fill-rule="evenodd" clip-rule="evenodd" fill="#7ECDD9" d="M278.608,394.24c6.16,0,11.153-5.875,11.153-13.123
			c0-4.218-1.691-7.971-4.318-10.371h-13.669c-2.628,2.4-4.319,6.153-4.319,10.371C267.455,388.365,272.449,394.24,278.608,394.24z"
			/>
		<rect x="260.802" y="376.541" fill-rule="evenodd" clip-rule="evenodd" fill="#435D76" width="35.614" height="11.262"/>
		<rect x="245.292" y="386.056" fill-rule="evenodd" clip-rule="evenodd" fill="#7ECDD9" width="66.632" height="29.595"/>
		<path fill-rule="evenodd" clip-rule="evenodd" fill="#435D76" d="M302.234,388.945h-10.672v3.007h10.672h5.697v-3.007H302.234
			L302.234,388.945z M307.932,411.199h-5.697h-10.672v3.008h10.672h5.697V411.199L307.932,411.199z M307.932,406.749h-5.697h-10.672
			v3.007h10.672h5.697V406.749L307.932,406.749z M307.932,402.298h-5.697h-10.672v3.007h10.672h5.697V402.298L307.932,402.298z
			 M307.932,397.848h-5.697h-10.672v3.007h10.672h5.697V397.848L307.932,397.848z M307.932,393.396h-5.697h-10.672v3.007h10.672
			h5.697V393.396z"/>
		<path fill-rule="evenodd" clip-rule="evenodd" fill="#435D76" d="M259.533,388.945h-10.672v3.007h10.672h5.697v-3.007H259.533
			L259.533,388.945z M265.23,411.199h-5.697h-10.672v3.008h10.672h5.697V411.199L265.23,411.199z M265.23,406.749h-5.697h-10.672
			v3.007h10.672h5.697V406.749L265.23,406.749z M265.23,402.298h-5.697h-10.672v3.007h10.672h5.697V402.298L265.23,402.298z
			 M265.23,397.848h-5.697h-10.672v3.007h10.672h5.697V397.848L265.23,397.848z M265.23,393.396h-5.697h-10.672v3.007h10.672h5.697
			V393.396z"/>
		<rect x="260.318" y="388.945" fill-rule="evenodd" clip-rule="evenodd" fill="#435D76" width="36.58" height="26.705"/>
		<rect x="260.285" y="390" fill-rule="evenodd" clip-rule="evenodd" fill="#A8DEE6" width="2.535" height="25.65"/>
		<rect x="294.415" y="390" fill-rule="evenodd" clip-rule="evenodd" fill="#A8DEE6" width="2.534" height="25.65"/>
		<polygon fill-rule="evenodd" clip-rule="evenodd" fill="#A8DEE6" points="278.608,378.165 289.038,384.083 299.467,390 
			278.608,390 257.75,390 268.18,384.083 		"/>
		<polygon fill-rule="evenodd" clip-rule="evenodd" fill="#435D76" points="278.608,381.649 269.232,386.97 287.984,386.97 		"/>
		<rect x="265.654" y="390" fill-rule="evenodd" clip-rule="evenodd" fill="#A8DEE6" width="2.879" height="25.65"/>
		<rect x="271.412" y="390" fill-rule="evenodd" clip-rule="evenodd" fill="#A8DEE6" width="2.879" height="25.65"/>
		<rect x="277.169" y="390" fill-rule="evenodd" clip-rule="evenodd" fill="#A8DEE6" width="2.879" height="25.65"/>
		<rect x="282.927" y="390" fill-rule="evenodd" clip-rule="evenodd" fill="#A8DEE6" width="2.878" height="25.65"/>
		<rect x="288.684" y="390" fill-rule="evenodd" clip-rule="evenodd" fill="#A8DEE6" width="2.879" height="25.65"/>
		<path fill-rule="evenodd" clip-rule="evenodd" fill="#A8DEE6" d="M271.642,370.746h13.935c0.151,0,0.275-0.123,0.275-0.275v-0.947
			c0-0.151-0.124-0.275-0.275-0.275h-13.935c-0.151,0-0.275,0.124-0.275,0.275v0.947
			C271.366,370.623,271.49,370.746,271.642,370.746z"/>
		<rect x="272.251" y="366.002" fill-rule="evenodd" clip-rule="evenodd" fill="#7ECDD9" width="13.129" height="3.246"/>
		<rect x="271.85" y="365.506" fill-rule="evenodd" clip-rule="evenodd" fill="#435D76" width="13.512" height="3.742"/>
		<rect x="271.837" y="365.506" fill-rule="evenodd" clip-rule="evenodd" fill="#A8DEE6" width="0.937" height="3.742"/>
		<rect x="284.444" y="365.506" fill-rule="evenodd" clip-rule="evenodd" fill="#A8DEE6" width="0.936" height="3.742"/>
		<rect x="273.82" y="365.506" fill-rule="evenodd" clip-rule="evenodd" fill="#A8DEE6" width="1.063" height="3.742"/>
		<rect x="275.947" y="365.506" fill-rule="evenodd" clip-rule="evenodd" fill="#A8DEE6" width="1.063" height="3.742"/>
		<rect x="278.074" y="365.506" fill-rule="evenodd" clip-rule="evenodd" fill="#A8DEE6" width="1.063" height="3.742"/>
		<rect x="280.2" y="365.506" fill-rule="evenodd" clip-rule="evenodd" fill="#A8DEE6" width="1.063" height="3.742"/>
		<rect x="282.327" y="365.506" fill-rule="evenodd" clip-rule="evenodd" fill="#A8DEE6" width="1.063" height="3.742"/>
		<path fill-rule="evenodd" clip-rule="evenodd" fill="#A8DEE6" d="M271.642,365.506h13.935c0.151,0,0.275-0.124,0.275-0.275v-0.947
			c0-0.152-0.124-0.275-0.275-0.275h-13.935c-0.151,0-0.275,0.123-0.275,0.275v0.947
			C271.366,365.382,271.49,365.506,271.642,365.506z"/>
		<polygon fill-rule="evenodd" clip-rule="evenodd" fill="#435D76" points="278.319,355.682 282.375,355.682 281.65,356.695 
			282.375,357.71 278.319,357.71 		"/>
	</g>
	<g>
		<path fill-rule="evenodd" clip-rule="evenodd" fill="#995503" d="M290.031,265.182c0.338-4.401,1.83-9.017,0.758-13.102
			c-2.502-5.836-14.315-8.588-19.993-7.555c-3.549,5.972-2.083,13.338-1.43,20.144L290.031,265.182z"/>
		<path fill-rule="evenodd" clip-rule="evenodd" fill="#8B4801" d="M279.637,264.924v-19.85c4.845,1.136,9.658,3.521,11.152,7.006
			c1.072,4.086-0.42,8.7-0.758,13.102L279.637,264.924z"/>
		<path fill-rule="evenodd" clip-rule="evenodd" fill="#B2D8DE" d="M279.455,306.476c3.136,0.045,6.22-0.091,9.267-0.41v-27.952
			l-1.04-0.455c-2.29-1.002-5.126-2.154-8.227-2.576V306.476z"/>
		<path fill-rule="evenodd" clip-rule="evenodd" fill="#B2D8DE" d="M279.455,306.476c-3.135,0.045-6.219-0.091-9.266-0.41v-27.952
			l1.04-0.455c2.291-1.002,5.127-2.154,8.226-2.576V306.476z"/>
		<path fill-rule="evenodd" clip-rule="evenodd" fill="#E0AC7E" d="M272.84,269.582h13.232v7.982c-4.411,3.504-8.822,3.645-13.232,0
			V269.582z"/>
		<path fill-rule="evenodd" clip-rule="evenodd" fill="#F2C196" d="M274.007,253.194c-1.874-0.367-3.669,1.551-4.005,3.431
			c-0.309,1.724-0.525,3.492-0.604,5.264c-0.05-0.008,0.226-0.013-0.152-0.013c-0.379,0-1.61,0.279-1.552,1.917
			c0.043,1.228,1.111,4.797,2.516,4.212c2.032,5.446,4.77,8.52,9.246,9.609c0.075-0.145,0.111-0.034,0.182-0.08v-23.768
			C277.83,253.772,276.023,253.588,274.007,253.194z"/>
		<path fill-rule="evenodd" clip-rule="evenodd" fill="#EBB688" d="M285.086,253.194c1.874-0.367,3.668,1.551,4.005,3.431
			c0.308,1.724,0.524,3.492,0.604,5.264c0.05-0.008-0.226-0.013,0.152-0.013s1.609,0.279,1.551,1.917
			c-0.043,1.228-1.111,4.797-2.515,4.212c-2.061,5.521-4.84,8.56-9.429,9.609v-23.848
			C281.262,253.772,283.068,253.588,285.086,253.194z"/>
		<polygon fill-rule="evenodd" clip-rule="evenodd" fill="#FF3705" points="279.455,280.245 281.718,280.245 280.76,283.836 
			279.457,283.836 279.454,283.836 278.152,283.836 277.193,280.245 		"/>
		<polygon fill-rule="evenodd" clip-rule="evenodd" fill="#FF5527" points="280.76,283.727 281.686,297.313 279.455,301.386 
			277.226,297.313 278.152,283.727 		"/>
		<path fill-rule="evenodd" clip-rule="evenodd" fill="#F0FAFC" d="M279.455,280.245l-3.881,3.775l-4.345-6.362l1.61-0.877
			C274.465,278.496,276.692,279.586,279.455,280.245z"/>
		<path fill-rule="evenodd" clip-rule="evenodd" fill="#096385" d="M279.455,301.02l-9.527-22.791
			c-8.611,3.714-14.141,6.577-15.114,17.483c3.913,6.98,13.254,12.694,24.642,12.686V301.02z"/>
		<path fill-rule="evenodd" clip-rule="evenodd" fill="#08426A" d="M262.6,303.658c0.345,0.241,0.737,0.438,1.1,0.664l-0.026-4.512
			L262.6,303.658z"/>
		<polygon fill-rule="evenodd" clip-rule="evenodd" fill="#0174A3" points="279.455,301.02 279.455,306.778 270.487,290.716 
			273.155,287.481 269.093,286.127 267.258,279.396 271.696,277.455 		"/>
		<path fill-rule="evenodd" clip-rule="evenodd" fill="#F0FAFC" d="M279.455,280.245l3.883,3.775l4.344-6.362l-1.609-0.877
			C284.446,278.496,282.219,279.586,279.455,280.245z"/>
		<path fill-rule="evenodd" clip-rule="evenodd" fill="#0B5975" d="M279.455,301.02l9.529-22.791
			c8.611,3.714,14.141,6.577,15.113,17.483c-3.913,6.98-13.254,12.694-24.643,12.686V301.02z"/>
		<path fill-rule="evenodd" clip-rule="evenodd" fill="#08426A" d="M296.312,303.658c-0.344,0.241-0.736,0.438-1.099,0.664
			l0.025-4.512L296.312,303.658z"/>
		<polygon fill-rule="evenodd" clip-rule="evenodd" fill="#0A6D94" points="279.455,301.02 279.455,306.778 288.425,290.716 
			285.756,287.481 289.819,286.127 291.652,279.396 287.375,277.491 		"/>
		<rect x="252.821" y="286.569" fill-rule="evenodd" clip-rule="evenodd" fill="#B2D8DE" width="51.706" height="26.278"/>
		<path fill-rule="evenodd" clip-rule="evenodd" fill="#E0AC7E" d="M306.833,303.82c-0.16,0.037-0.333,0.063-0.52,0.075h-5.144
			c-0.761,0.004-0.955-0.901-0.724-1.326l1.972,0.004c0.402,0,0.322-0.401,0.01-0.401h-2.41c-0.6-0.036-0.733-1.322-0.134-1.487
			l2.451-0.04c0.354-0.023,0.3-0.422,0.003-0.401h-2.572c-0.559-0.037-0.668-1.523,0.012-1.688h2.678
			c0.405-0.036,0.368-0.398-0.037-0.401h-2.371c-0.361-0.402-0.241-1.527,1.002-1.692l3.255-0.04
			c-0.534-1.103-0.569-1.944-0.157-3.011c0.444-0.953,1.526-0.643,1.688,0.162c0.201,0.883-0.237,1.329,0.201,1.928
			c0.23,0.086,0.514,0.205,0.798,0.352C307.525,298.465,307.435,301.126,306.833,303.82z"/>
		<path fill-rule="evenodd" clip-rule="evenodd" fill="#E0AC7E" d="M250.384,304.549c0.16,0.037,0.333,0.063,0.52,0.075h5.144
			c0.761,0.004,0.954-0.901,0.724-1.326l-1.973,0.004c-0.401,0-0.321-0.402-0.01-0.401h2.411c0.6-0.036,0.733-1.322,0.134-1.487
			l-2.451-0.04c-0.355-0.023-0.3-0.422-0.003-0.402h2.571c0.56-0.036,0.668-1.523-0.012-1.688h-2.678
			c-0.404-0.036-0.367-0.398,0.037-0.402h2.371c0.361-0.402,0.241-1.526-1.001-1.691l-3.256-0.04
			c0.534-1.104,0.569-1.944,0.158-3.01c-0.444-0.954-1.527-0.644-1.688,0.16c-0.202,0.885,0.237,1.33-0.202,1.93
			c-0.229,0.085-0.513,0.204-0.797,0.351C249.691,299.193,249.781,301.854,250.384,304.549z"/>
		<g>
			<path fill="#FF5527" d="M265.596,302.99c0,0.75-0.263,1.391-0.789,1.923c-0.526,0.533-1.162,0.799-1.906,0.799h-2.694v-11.378
				h2.694c0.75,0,1.387,0.266,1.91,0.798s0.785,1.171,0.785,1.915V302.99z M261.921,304.016h1.034c0.272,0,0.502-0.099,0.689-0.295
				c0.188-0.197,0.281-0.429,0.281-0.694v-5.952c0-0.272-0.095-0.505-0.285-0.699c-0.19-0.193-0.419-0.29-0.686-0.29h-1.034V304.016
				z"/>
			<path fill="#FF5527" d="M267.102,305.712v-11.378h4.882v1.724h-3.167v3.104h2.313v1.724h-2.313v3.104h3.167v1.724H267.102z"/>
			<path fill="#FF5527" d="M273.163,305.712v-11.378h2.567c0.678,0,1.289,0.178,1.833,0.535c0.466,0.303,0.799,0.771,0.998,1.406
				c0.109,0.339,0.164,0.741,0.164,1.207c0,0.762-0.203,1.373-0.608,1.833c-0.169,0.193-0.369,0.342-0.599,0.444
				c0.381,0.146,0.704,0.433,0.971,0.862c0.176,0.29,0.306,0.665,0.39,1.125c0.043,0.235,0.064,0.499,0.064,0.789
				c0,0.72-0.137,1.331-0.409,1.833c-0.211,0.394-0.511,0.708-0.897,0.943c-0.436,0.267-0.868,0.399-1.298,0.399H273.163z
				 M275.014,298.979h0.717c0.532,0,0.89-0.26,1.071-0.78c0.066-0.193,0.1-0.433,0.1-0.717c0-0.472-0.115-0.829-0.345-1.071
				c-0.212-0.224-0.487-0.335-0.826-0.335h-0.717V298.979z M275.014,304.016h0.717c0.581,0,0.983-0.3,1.207-0.898
				c0.079-0.206,0.118-0.441,0.118-0.708c0-0.635-0.121-1.098-0.363-1.389c-0.218-0.266-0.538-0.398-0.962-0.398h-0.717V304.016z"/>
			<path fill="#FF5527" d="M282.324,303.099l-0.417,2.613h-1.785l1.933-11.369h2.359l1.905,11.369h-1.804l-0.4-2.613H282.324z
				 M283.226,296.947l-0.636,4.481h1.271L283.226,296.947z"/>
			<path fill="#FF5527" d="M287.979,296.066h-1.823v-1.724h5.354v1.724h-1.814v9.646h-1.716V296.066z"/>
			<path fill="#FF5527" d="M292.889,305.712v-11.378h4.882v1.724h-3.167v3.104h2.313v1.724h-2.313v3.104h3.167v1.724H292.889z"/>
		</g>
	</g>
	<g>
		<path fill-rule="evenodd" clip-rule="evenodd" fill="#995503" d="M360.158,150.762h51.072c1.661,0,3.021,1.359,3.021,3.02v38.441
			c0,1.661-1.359,3.021-3.021,3.021h-51.072c-1.661,0-3.021-1.359-3.021-3.021v-38.441
			C357.138,152.121,358.497,150.762,360.158,150.762z"/>
		<path fill-rule="evenodd" clip-rule="evenodd" fill="#F5F5F7" d="M412.879,159.686v32.538c0,0.905-0.742,1.647-1.648,1.647
			h-51.072c-0.905,0-1.646-0.741-1.646-1.647v-32.538H412.879z"/>
		<path fill-rule="evenodd" clip-rule="evenodd" fill="#8B4801" d="M370.937,150.762v3.363c0,2.02-1.652,3.672-3.673,3.672l0,0
			c-2.02,0-3.672-1.652-3.672-3.672v-3.363H370.937z"/>
		<path fill-rule="evenodd" clip-rule="evenodd" fill="#92D3E0" d="M367.264,147.742L367.264,147.742
			c1.265,0,2.299,1.035,2.299,2.299v4.085c0,1.265-1.034,2.299-2.299,2.299l0,0c-1.265,0-2.299-1.035-2.299-2.299v-4.085
			C364.965,148.776,365.999,147.742,367.264,147.742z"/>
		<path fill-rule="evenodd" clip-rule="evenodd" fill="#8B4801" d="M407.798,150.762v3.363c0,2.02-1.652,3.672-3.672,3.672l0,0
			c-2.021,0-3.673-1.652-3.673-3.672v-3.363H407.798z"/>
		<path fill-rule="evenodd" clip-rule="evenodd" fill="#92D3E0" d="M404.125,147.742L404.125,147.742c1.266,0,2.3,1.035,2.3,2.299
			v4.085c0,1.265-1.034,2.299-2.299,2.299h-0.001c-1.265,0-2.299-1.035-2.299-2.299v-4.085
			C401.826,148.776,402.86,147.742,404.125,147.742z"/>
		<g>
			<path fill="#FF5527" d="M365.656,176.119v-9.768h4.191v1.48h-2.719v2.664h1.986v1.48h-1.986v2.664h2.719v1.48H365.656z"/>
			<path fill="#FF5527" d="M374.871,176.119h-4.012v-9.76h1.473v8.296h2.539V176.119z"/>
			<path fill="#FF5527" d="M375.884,176.119v-9.768h4.191v1.48h-2.719v2.664h1.986v1.48h-1.986v2.664h2.719v1.48H375.884z"/>
			<path fill="#FF5527" d="M383.424,176.244c-0.648,0-1.2-0.227-1.655-0.682c-0.454-0.454-0.682-1.003-0.682-1.647v-5.328
				c0-0.649,0.229-1.201,0.686-1.655c0.457-0.454,1.008-0.682,1.651-0.682c0.649,0,1.2,0.229,1.651,0.686
				c0.452,0.457,0.678,1.008,0.678,1.651v1.114h-1.526v-1.145c0-0.234-0.083-0.434-0.249-0.6c-0.166-0.166-0.366-0.249-0.6-0.249
				c-0.234,0-0.433,0.083-0.597,0.249c-0.163,0.167-0.245,0.366-0.245,0.6v5.343c0,0.234,0.082,0.433,0.245,0.596
				c0.164,0.164,0.362,0.245,0.597,0.245c0.233,0,0.434-0.082,0.6-0.245s0.249-0.362,0.249-0.596v-1.348h1.526v1.363
				c0,0.649-0.229,1.2-0.686,1.651C384.61,176.018,384.063,176.244,383.424,176.244z"/>
			<path fill="#FF5527" d="M388.332,167.839h-1.566v-1.48h4.597v1.48h-1.559v8.28h-1.472V167.839z"/>
			<path fill="#FF5527" d="M394.019,176.119h-1.473v-9.76h1.473V176.119z"/>
			<path fill="#FF5527" d="M397.647,166.234c0.649,0,1.201,0.229,1.655,0.685c0.455,0.457,0.682,1.008,0.682,1.651v5.328
				c0,0.649-0.229,1.201-0.686,1.655c-0.457,0.455-1.007,0.682-1.651,0.682c-0.648,0-1.199-0.229-1.651-0.686
				c-0.451-0.457-0.678-1.007-0.678-1.651v-5.328c0-0.649,0.229-1.201,0.686-1.655C396.461,166.461,397.009,166.234,397.647,166.234
				z M398.45,168.54c0-0.234-0.082-0.433-0.245-0.596c-0.164-0.164-0.362-0.245-0.596-0.245c-0.234,0-0.434,0.082-0.601,0.245
				c-0.166,0.164-0.249,0.362-0.249,0.596v5.343c0,0.234,0.083,0.433,0.249,0.596c0.167,0.164,0.366,0.245,0.601,0.245
				c0.233,0,0.432-0.082,0.596-0.245c0.163-0.164,0.245-0.362,0.245-0.596V168.54z"/>
			<path fill="#FF5527" d="M402.931,166.351l1.954,6.565v-6.565h1.472v9.768h-1.581l-2.025-6.255v6.255h-1.473v-9.768H402.931z"/>
		</g>
		<g>
			<path fill="#FF5527" d="M382.621,187.897c0,0.644-0.227,1.194-0.678,1.651c-0.452,0.457-0.997,0.686-1.636,0.686h-2.314v-9.768
				h2.314c0.644,0,1.19,0.229,1.64,0.686c0.448,0.457,0.674,1.005,0.674,1.644V187.897z M379.466,188.778h0.888
				c0.234,0,0.432-0.084,0.593-0.253c0.16-0.168,0.241-0.367,0.241-0.596v-5.11c0-0.234-0.082-0.434-0.245-0.6
				c-0.164-0.166-0.36-0.249-0.589-0.249h-0.888V188.778z"/>
			<path fill="#FF5527" d="M385.524,187.991l-0.358,2.243h-1.533l1.66-9.76h2.024l1.636,9.76h-1.548l-0.344-2.243H385.524z
				 M386.297,182.709l-0.545,3.848h1.091L386.297,182.709z"/>
			<path fill="#FF5527" d="M390.574,186.145l-1.972-5.679h1.621l1.09,3.505l1.083-3.505h1.628l-1.979,5.679v4.089h-1.472V186.145z"
				/>
		</g>
	</g>
	<g>
		<polygon fill-rule="evenodd" clip-rule="evenodd" fill="#E74037" points="69.342,189.406 90.491,189.406 90.491,149.068 
			79.869,139.367 69.342,149.068 		"/>
		<g>
			<path fill-rule="evenodd" clip-rule="evenodd" fill="#995503" d="M85.961,179.183c0.191-2.489,1.035-5.099,0.429-7.407
				c-1.414-3.301-8.094-4.857-11.304-4.272c-2.007,3.376-1.178,7.542-0.809,11.39L85.961,179.183z"/>
			<path fill-rule="evenodd" clip-rule="evenodd" fill="#8B4801" d="M80.084,179.037v-11.224c2.74,0.643,5.462,1.991,6.306,3.962
				c0.606,2.309-0.238,4.918-0.429,7.408L80.084,179.037z"/>
			<path fill-rule="evenodd" clip-rule="evenodd" fill="#B2D8DE" d="M79.982,202.531c1.773,0.026,3.517-0.051,5.24-0.23v-15.807
				l-0.588-0.257c-1.295-0.566-2.899-1.218-4.651-1.456V202.531z"/>
			<path fill-rule="evenodd" clip-rule="evenodd" fill="#B2D8DE" d="M79.982,202.531c-1.773,0.026-3.517-0.051-5.24-0.23v-15.807
				l0.589-0.257c1.295-0.566,2.898-1.218,4.651-1.456V202.531z"/>
			<path fill-rule="evenodd" clip-rule="evenodd" fill="#E0AC7E" d="M76.241,181.671h7.482v4.514c-2.494,1.981-4.988,2.061-7.482,0
				V181.671z"/>
			<path fill-rule="evenodd" clip-rule="evenodd" fill="#F2C196" d="M76.901,172.404c-1.06-0.207-2.075,0.877-2.265,1.94
				c-0.174,0.975-0.297,1.975-0.341,2.977c-0.028-0.005,0.127-0.007-0.086-0.007s-0.911,0.157-0.877,1.084
				c0.025,0.693,0.628,2.711,1.422,2.381c1.149,3.079,2.697,4.817,5.229,5.434c0.042-0.082,0.063-0.02,0.102-0.045v-13.439
				C79.063,172.731,78.042,172.627,76.901,172.404z"/>
			<path fill-rule="evenodd" clip-rule="evenodd" fill="#EBB688" d="M83.165,172.404c1.06-0.207,2.075,0.877,2.265,1.94
				c0.175,0.975,0.297,1.975,0.342,2.977c0.028-0.005-0.128-0.007,0.086-0.007c0.213,0,0.91,0.157,0.877,1.084
				c-0.025,0.693-0.628,2.711-1.422,2.381c-1.165,3.121-2.737,4.84-5.331,5.434v-13.484
				C81.003,172.731,82.025,172.627,83.165,172.404z"/>
			<polygon fill-rule="evenodd" clip-rule="evenodd" fill="#FF3705" points="79.982,187.701 81.261,187.701 80.72,189.73 
				79.983,189.73 79.981,189.73 79.245,189.73 78.703,187.701 			"/>
			<polygon fill-rule="evenodd" clip-rule="evenodd" fill="#FF5527" points="80.719,189.669 81.243,197.351 79.982,199.654 
				78.721,197.351 79.244,189.669 			"/>
			<path fill-rule="evenodd" clip-rule="evenodd" fill="#F0FAFC" d="M79.982,187.701l-2.195,2.134l-2.456-3.598l0.91-0.495
				C77.16,186.711,78.42,187.328,79.982,187.701z"/>
			<path fill-rule="evenodd" clip-rule="evenodd" fill="#096385" d="M79.982,199.447l-5.388-12.887
				c-4.869,2.1-7.996,3.719-8.545,9.885c2.212,3.947,7.494,7.178,13.933,7.174V199.447z"/>
			<path fill-rule="evenodd" clip-rule="evenodd" fill="#08426A" d="M70.451,200.938c0.194,0.137,0.417,0.247,0.621,0.376
				l-0.015-2.551L70.451,200.938z"/>
			<polygon fill-rule="evenodd" clip-rule="evenodd" fill="#0174A3" points="79.982,199.447 79.982,202.703 74.911,193.621 
				76.419,191.791 74.122,191.025 73.085,187.22 75.594,186.123 			"/>
			<path fill-rule="evenodd" clip-rule="evenodd" fill="#F0FAFC" d="M79.982,187.701l2.195,2.134l2.457-3.598l-0.91-0.495
				C82.804,186.711,81.544,187.328,79.982,187.701z"/>
			<path fill-rule="evenodd" clip-rule="evenodd" fill="#0B5975" d="M79.982,199.447l5.388-12.887
				c4.869,2.1,7.995,3.719,8.545,9.885c-2.212,3.947-7.494,7.178-13.934,7.174V199.447z"/>
			<path fill-rule="evenodd" clip-rule="evenodd" fill="#08426A" d="M89.513,200.938c-0.194,0.137-0.417,0.247-0.621,0.376
				l0.015-2.551L89.513,200.938z"/>
			<polygon fill-rule="evenodd" clip-rule="evenodd" fill="#0A6D94" points="79.982,199.447 79.982,202.703 85.053,193.621 
				83.544,191.791 85.842,191.025 86.879,187.22 84.46,186.143 			"/>
		</g>
		<polygon fill-rule="evenodd" clip-rule="evenodd" fill="#FE912A" points="38.248,197.49 59.396,197.49 59.396,163.621 
			48.775,153.919 38.248,163.621 		"/>
		<g>
			<path fill-rule="evenodd" clip-rule="evenodd" fill="#995503" d="M54.867,179.183c0.191-2.489,1.035-5.099,0.429-7.407
				c-1.415-3.301-8.094-4.857-11.305-4.272c-2.007,3.376-1.178,7.542-0.809,11.39L54.867,179.183z"/>
			<path fill-rule="evenodd" clip-rule="evenodd" fill="#8B4801" d="M48.99,179.037v-11.224c2.739,0.643,5.461,1.991,6.306,3.962
				c0.606,2.309-0.238,4.918-0.429,7.408L48.99,179.037z"/>
			<path fill-rule="evenodd" clip-rule="evenodd" fill="#B2D8DE" d="M48.888,202.531c1.772,0.026,3.517-0.051,5.239-0.23v-15.807
				l-0.588-0.257c-1.295-0.566-2.899-1.218-4.651-1.456V202.531z"/>
			<path fill-rule="evenodd" clip-rule="evenodd" fill="#B2D8DE" d="M48.888,202.531c-1.773,0.026-3.517-0.051-5.24-0.23v-15.807
				l0.588-0.257c1.295-0.566,2.898-1.218,4.651-1.456V202.531z"/>
			<path fill-rule="evenodd" clip-rule="evenodd" fill="#E0AC7E" d="M45.146,181.671h7.482v4.514c-2.494,1.981-4.988,2.061-7.482,0
				V181.671z"/>
			<path fill-rule="evenodd" clip-rule="evenodd" fill="#F2C196" d="M45.807,172.404c-1.06-0.207-2.074,0.877-2.265,1.94
				c-0.174,0.975-0.297,1.975-0.342,2.977c-0.028-0.005,0.127-0.007-0.086-0.007s-0.91,0.157-0.877,1.084
				c0.024,0.693,0.628,2.711,1.422,2.381c1.15,3.079,2.697,4.817,5.229,5.434c0.042-0.082,0.062-0.02,0.102-0.045v-13.439
				C47.968,172.731,46.947,172.627,45.807,172.404z"/>
			<path fill-rule="evenodd" clip-rule="evenodd" fill="#EBB688" d="M52.071,172.404c1.06-0.207,2.074,0.877,2.265,1.94
				c0.174,0.975,0.297,1.975,0.342,2.977c0.028-0.005-0.127-0.007,0.086-0.007s0.91,0.157,0.877,1.084
				c-0.025,0.693-0.628,2.711-1.422,2.381c-1.165,3.121-2.737,4.84-5.331,5.434v-13.484
				C49.909,172.731,50.931,172.627,52.071,172.404z"/>
			<polygon fill-rule="evenodd" clip-rule="evenodd" fill="#FF3705" points="48.888,187.701 50.167,187.701 49.625,189.73 
				48.889,189.73 48.887,189.73 48.15,189.73 47.608,187.701 			"/>
			<polygon fill-rule="evenodd" clip-rule="evenodd" fill="#FF5527" points="49.625,189.669 50.148,197.351 48.888,199.654 
				47.626,197.351 48.15,189.669 			"/>
			<path fill-rule="evenodd" clip-rule="evenodd" fill="#F0FAFC" d="M48.888,187.701l-2.195,2.134l-2.456-3.598l0.911-0.495
				C46.065,186.711,47.325,187.328,48.888,187.701z"/>
			<path fill-rule="evenodd" clip-rule="evenodd" fill="#096385" d="M48.888,199.447L43.5,186.561
				c-4.869,2.1-7.996,3.719-8.546,9.885c2.212,3.947,7.494,7.178,13.934,7.174V199.447z"/>
			<path fill-rule="evenodd" clip-rule="evenodd" fill="#08426A" d="M39.356,200.938c0.195,0.137,0.417,0.247,0.622,0.376
				l-0.015-2.551L39.356,200.938z"/>
			<polygon fill-rule="evenodd" clip-rule="evenodd" fill="#0174A3" points="48.888,199.447 48.888,202.703 43.816,193.621 
				45.325,191.791 43.028,191.025 41.991,187.22 44.5,186.123 			"/>
			<path fill-rule="evenodd" clip-rule="evenodd" fill="#F0FAFC" d="M48.888,187.701l2.195,2.134l2.457-3.598l-0.911-0.495
				C51.709,186.711,50.45,187.328,48.888,187.701z"/>
			<path fill-rule="evenodd" clip-rule="evenodd" fill="#0B5975" d="M48.888,199.447l5.388-12.887
				c4.869,2.1,7.996,3.719,8.545,9.885c-2.212,3.947-7.494,7.178-13.933,7.174V199.447z"/>
			<path fill-rule="evenodd" clip-rule="evenodd" fill="#08426A" d="M58.418,200.938c-0.195,0.137-0.417,0.247-0.621,0.376
				l0.015-2.551L58.418,200.938z"/>
			<polygon fill-rule="evenodd" clip-rule="evenodd" fill="#0A6D94" points="48.888,199.447 48.888,202.703 53.959,193.621 
				52.45,191.791 54.747,191.025 55.784,187.22 53.365,186.143 			"/>
		</g>
	</g>
	<g>
		<path fill-rule="evenodd" clip-rule="evenodd" fill="#E74037" d="M151.661,292.803c3.897-2.926,9.427-2.138,12.353,1.759
			s2.139,9.428-1.759,12.354c-3.897,2.925-9.427,2.137-12.353-1.76S147.764,295.728,151.661,292.803L151.661,292.803z
			 M153.031,294.627c-2.889,2.169-3.473,6.27-1.305,9.158c2.17,2.889,6.27,3.473,9.158,1.305c2.889-2.169,3.473-6.27,1.305-9.158
			C160.021,293.043,155.92,292.459,153.031,294.627z"/>
		
			<rect x="141.345" y="301.85" transform="matrix(0.7998 -0.6003 0.6003 0.7998 -153.2083 146.3994)" fill-rule="evenodd" clip-rule="evenodd" fill="#E74037" width="3.042" height="2.054"/>
		<polygon fill-rule="evenodd" clip-rule="evenodd" fill="#E74037" points="143.025,301.063 160.111,277.961 180.029,251.029 
			191.531,266.353 203.033,281.675 171.613,293.283 144.661,303.241 		"/>
		<polygon fill-rule="evenodd" clip-rule="evenodd" fill="#2D96B3" points="170.967,263.282 178.33,253.327 200.354,282.665 
			188.738,286.956 		"/>
		<polygon fill-rule="evenodd" clip-rule="evenodd" fill="#2D96B3" points="202.856,282.563 179.127,250.953 180.958,248.478 
			193.352,264.986 205.744,281.495 		"/>
		
			<rect x="139.539" y="300.083" transform="matrix(0.7997 -0.6004 0.6004 0.7997 -154.4569 145.5899)" fill-rule="evenodd" clip-rule="evenodd" fill="#E74037" width="2.89" height="8.429"/>
		<polygon fill-rule="evenodd" clip-rule="evenodd" fill="#FFFFFF" points="175.583,259.55 177.939,261.213 180.242,259.477 
			179.389,262.232 181.752,263.886 178.867,263.926 178.025,266.684 177.096,263.953 174.213,264.004 176.522,262.276 		"/>
		<polygon fill-rule="evenodd" clip-rule="evenodd" fill="#FFFFFF" points="180.114,265.586 182.471,267.249 184.773,265.514 
			183.92,268.268 186.283,269.922 183.398,269.962 182.556,272.72 181.627,269.989 178.743,270.04 181.054,268.313 		"/>
		<polygon fill-rule="evenodd" clip-rule="evenodd" fill="#FFFFFF" points="184.775,271.795 187.131,273.458 189.435,271.722 
			188.581,274.477 190.943,276.131 188.06,276.17 187.217,278.929 186.288,276.198 183.404,276.249 185.715,274.521 		"/>
		<polygon fill-rule="evenodd" clip-rule="evenodd" fill="#FFFFFF" points="189.307,277.83 191.662,279.493 193.965,277.758 
			193.112,280.513 195.475,282.167 192.591,282.206 191.748,284.965 190.819,282.234 187.936,282.284 190.245,280.558 		"/>
	</g>
	<g>
		<rect x="251.538" y="28.71" fill-rule="evenodd" clip-rule="evenodd" fill="#435D76" width="54.14" height="42.475"/>
		<rect x="253.124" y="30.194" fill-rule="evenodd" clip-rule="evenodd" fill="#F5F5F7" width="50.968" height="39.507"/>
		<g>
			<g>
				<path fill-rule="evenodd" clip-rule="evenodd" fill="#0A6D94" d="M261.067,83.838c0.27-1.773,0.62-3.558,0.193-5.182
					c-0.019-0.043-0.039-0.086-0.06-0.13l-0.009-0.019c-0.021-0.041-0.041-0.082-0.063-0.123l-0.013-0.022
					c-0.021-0.041-0.045-0.082-0.069-0.122l-0.006-0.009c-0.023-0.039-0.047-0.077-0.073-0.115l-0.012-0.02
					c-0.026-0.039-0.054-0.078-0.081-0.117l-0.015-0.019c-0.028-0.039-0.057-0.078-0.087-0.116l-0.008-0.01
					c-0.028-0.036-0.058-0.072-0.087-0.107l-0.017-0.02c-0.031-0.036-0.063-0.072-0.095-0.108l-0.02-0.021
					c-0.033-0.037-0.067-0.073-0.101-0.108l-0.014-0.013c-0.031-0.032-0.064-0.065-0.098-0.097l-0.021-0.021
					c-0.034-0.034-0.07-0.067-0.106-0.1l-0.025-0.023c-0.038-0.033-0.075-0.066-0.113-0.099l-0.015-0.013
					c-0.037-0.031-0.073-0.061-0.11-0.091l-0.023-0.019c-0.038-0.032-0.078-0.062-0.118-0.093l-0.03-0.023
					c-0.04-0.031-0.081-0.061-0.122-0.091l-0.024-0.017c-0.036-0.026-0.074-0.053-0.111-0.079l-0.03-0.021
					c-0.042-0.029-0.085-0.057-0.128-0.085l-0.033-0.022c-0.044-0.028-0.088-0.056-0.133-0.084l-0.028-0.018
					c-0.04-0.024-0.079-0.048-0.119-0.072l-0.03-0.018c-0.043-0.025-0.087-0.05-0.131-0.076l-0.054-0.03
					c-0.041-0.023-0.083-0.046-0.125-0.068l-0.051-0.027l-0.097-0.051l-0.062-0.031c-0.042-0.021-0.084-0.043-0.127-0.064
					L258.318,76c-0.045-0.022-0.088-0.043-0.133-0.063l-0.064-0.03l-0.092-0.042l-0.081-0.037l-0.107-0.047l-0.071-0.031
					c-0.042-0.017-0.083-0.035-0.124-0.052l-0.081-0.033l-0.075-0.03l-0.12-0.046l-0.089-0.034l-0.072-0.027l-0.117-0.043
					l-0.101-0.036l-0.065-0.022c-0.048-0.017-0.096-0.033-0.144-0.049l-0.065-0.021l-0.097-0.032l-0.004-0.001l-0.116-0.037l0,0
					l-0.087-0.026l-0.078-0.023l-0.127-0.038l-0.082-0.023l-0.09-0.025l-0.006-0.001l-0.117-0.032l-0.098-0.026l-0.063-0.016
					c-0.049-0.013-0.098-0.025-0.147-0.037l-0.065-0.016l-0.1-0.023l-0.001,0c-1.706-0.4-3.421-0.504-4.615-0.287
					c-1.604,2.698-1.246,5.94-0.9,9.067c-0.255,0.039-0.747,0.243-0.72,0.994c0.022,0.641,0.58,2.504,1.313,2.199
					c0.396,1.063,0.846,1.954,1.373,2.681v1.9l-0.84,0.458l-0.543,0.238v0l-0.15,0.065c-0.302,0.13-0.597,0.259-0.885,0.387
					l-0.496,0.217l0.002,0.006c-3.353,1.536-5.597,3.107-6.323,7.177h25.38c-0.727-4.07-2.971-5.641-6.323-7.177l0.002-0.006
					l-2.233-0.994l-0.681-0.371v-1.78c0.569-0.746,1.048-1.675,1.468-2.802c0.733,0.305,1.291-1.559,1.314-2.199
					C261.6,84.197,261.316,83.943,261.067,83.838z"/>
				<path fill-rule="evenodd" clip-rule="evenodd" fill="#0A6D94" d="M307.597,83.838c0.27-1.773,0.62-3.558,0.194-5.182
					c-0.02-0.043-0.039-0.086-0.061-0.13l-0.009-0.019c-0.021-0.041-0.041-0.082-0.063-0.123l-0.012-0.022
					c-0.022-0.041-0.046-0.082-0.069-0.122l-0.007-0.009c-0.022-0.039-0.047-0.077-0.072-0.115l-0.013-0.02
					c-0.026-0.039-0.053-0.078-0.081-0.117l-0.014-0.019c-0.028-0.039-0.058-0.078-0.087-0.116l-0.008-0.01
					c-0.029-0.036-0.058-0.072-0.088-0.107l-0.017-0.02c-0.031-0.036-0.063-0.072-0.095-0.108l-0.02-0.021
					c-0.032-0.037-0.066-0.073-0.101-0.108l-0.013-0.013c-0.032-0.032-0.064-0.065-0.098-0.097l-0.021-0.021
					c-0.034-0.034-0.07-0.067-0.106-0.1l-0.025-0.023c-0.037-0.033-0.074-0.066-0.113-0.099l-0.015-0.013
					c-0.036-0.031-0.072-0.061-0.109-0.091l-0.023-0.019c-0.039-0.032-0.079-0.062-0.118-0.093l-0.031-0.023
					c-0.04-0.031-0.081-0.061-0.122-0.091l-0.024-0.017c-0.036-0.026-0.073-0.053-0.111-0.079l-0.03-0.021
					c-0.042-0.029-0.085-0.057-0.128-0.085l-0.033-0.022c-0.043-0.028-0.087-0.056-0.132-0.084l-0.029-0.018
					c-0.039-0.024-0.079-0.048-0.119-0.072l-0.03-0.018c-0.043-0.025-0.086-0.05-0.131-0.076l-0.054-0.03
					c-0.041-0.023-0.083-0.046-0.124-0.068l-0.052-0.027l-0.097-0.051l-0.061-0.031c-0.043-0.021-0.085-0.043-0.128-0.064
					L304.848,76c-0.044-0.022-0.088-0.043-0.132-0.063l-0.064-0.03l-0.092-0.042l-0.082-0.037l-0.107-0.047l-0.071-0.031
					c-0.041-0.017-0.082-0.035-0.124-0.052l-0.081-0.033l-0.075-0.03l-0.119-0.046l-0.089-0.034l-0.072-0.027l-0.117-0.043
					l-0.102-0.036l-0.064-0.022c-0.049-0.017-0.097-0.033-0.145-0.049l-0.065-0.021l-0.096-0.032l-0.004-0.001l-0.116-0.037h-0.001
					l-0.087-0.026l-0.078-0.023l-0.127-0.038l-0.082-0.023l-0.09-0.025l-0.005-0.001l-0.118-0.032l-0.097-0.026l-0.063-0.016
					c-0.049-0.013-0.099-0.025-0.147-0.037l-0.066-0.016l-0.099-0.023l-0.001,0c-1.707-0.4-3.422-0.504-4.616-0.287
					c-1.604,2.698-1.246,5.94-0.9,9.067c-0.254,0.039-0.746,0.243-0.72,0.994c0.022,0.641,0.58,2.504,1.313,2.199
					c0.397,1.063,0.846,1.954,1.374,2.681v1.9l-0.841,0.458l-0.543,0.238v0l-0.149,0.065c-0.303,0.13-0.598,0.259-0.886,0.387
					l-0.495,0.217l0.002,0.006c-3.353,1.536-5.597,3.107-6.324,7.177h25.381c-0.728-4.07-2.971-5.641-6.323-7.177l0.001-0.006
					l-2.233-0.994l-0.68-0.371v-1.78c0.568-0.746,1.047-1.675,1.468-2.802c0.732,0.305,1.29-1.559,1.313-2.199
					C308.129,84.197,307.846,83.943,307.597,83.838z"/>
			</g>
			<path fill-rule="evenodd" clip-rule="evenodd" fill="#0A6D94" d="M284.711,83.838c0.27-1.773,0.619-3.558,0.193-5.182
				c-0.019-0.043-0.039-0.086-0.06-0.13l-0.009-0.019c-0.021-0.041-0.042-0.082-0.063-0.123l-0.014-0.022
				c-0.021-0.041-0.045-0.082-0.069-0.122l-0.005-0.009c-0.024-0.039-0.049-0.077-0.074-0.115l-0.012-0.02
				c-0.026-0.039-0.053-0.078-0.081-0.117l-0.015-0.019c-0.027-0.039-0.057-0.078-0.087-0.116l-0.008-0.01
				c-0.028-0.036-0.058-0.072-0.087-0.107l-0.017-0.02c-0.031-0.036-0.063-0.072-0.095-0.108l-0.02-0.021
				c-0.033-0.037-0.066-0.073-0.102-0.108l-0.012-0.013c-0.033-0.032-0.065-0.065-0.098-0.097l-0.021-0.021
				c-0.035-0.034-0.07-0.067-0.107-0.1l-0.024-0.023c-0.037-0.033-0.075-0.066-0.114-0.099l-0.014-0.013
				c-0.036-0.031-0.073-0.061-0.109-0.091l-0.024-0.019c-0.038-0.032-0.078-0.062-0.118-0.093l-0.03-0.023
				c-0.04-0.031-0.081-0.061-0.122-0.091l-0.024-0.017c-0.037-0.026-0.074-0.053-0.111-0.079l-0.03-0.021
				c-0.042-0.029-0.084-0.057-0.128-0.085l-0.033-0.022c-0.044-0.028-0.088-0.056-0.132-0.084l-0.029-0.018
				c-0.039-0.024-0.079-0.048-0.12-0.072l-0.029-0.018c-0.044-0.025-0.087-0.05-0.131-0.076l-0.054-0.03
				c-0.042-0.023-0.082-0.046-0.125-0.068l-0.051-0.027L282.2,76.12l-0.061-0.031c-0.042-0.021-0.085-0.043-0.128-0.064L281.962,76
				c-0.044-0.022-0.088-0.043-0.133-0.063l-0.063-0.03l-0.093-0.042l-0.082-0.037l-0.106-0.047l-0.072-0.031
				c-0.041-0.017-0.082-0.035-0.123-0.052l-0.081-0.033l-0.075-0.03l-0.119-0.046l-0.09-0.034l-0.072-0.027l-0.117-0.043
				l-0.101-0.036l-0.065-0.022c-0.048-0.017-0.096-0.033-0.144-0.049l-0.065-0.021l-0.097-0.032l-0.003-0.001l-0.117-0.037l0,0
				l-0.086-0.026l-0.078-0.023l-0.128-0.038l-0.083-0.023l-0.089-0.025l-0.005-0.001l-0.119-0.032l-0.097-0.026l-0.063-0.016
				c-0.05-0.013-0.1-0.025-0.148-0.037l-0.065-0.016l-0.099-0.023l-0.002,0c-1.707-0.4-3.421-0.504-4.616-0.287
				c-1.603,2.698-1.246,5.94-0.899,9.067c-0.254,0.039-0.747,0.243-0.72,0.994c0.022,0.641,0.58,2.504,1.313,2.199
				c0.397,1.063,0.845,1.954,1.373,2.681v1.9l-0.841,0.458l-0.542,0.238v0L274,92.315c-0.303,0.13-0.598,0.259-0.886,0.387
				l-0.496,0.217l0.002,0.006c-3.353,1.536-5.597,3.107-6.323,7.177h25.381c-0.728-4.07-2.972-5.641-6.324-7.177l0.002-0.006
				l-2.233-0.994l-0.681-0.371v-1.78c0.569-0.746,1.047-1.675,1.469-2.802c0.732,0.305,1.289-1.559,1.313-2.199
				C285.243,84.197,284.96,83.943,284.711,83.838z"/>
		</g>
		<g>
			<path fill-rule="evenodd" clip-rule="evenodd" fill="#B3B3B3" d="M259.813,36.013V36.01v-0.003v-0.002V36l0.001-0.003v-0.002
				h0.001v-0.003v-0.002l0,0l0.001-0.003l0,0v-0.003h0.001l0.001-0.003l0,0v-0.003l0,0c0.015-0.046,0.058-0.08,0.107-0.082h0.002
				h0.002h0.001h0.002h4.681h4.683h4.684h4.683h4.684h4.683h4.683h4.681h0.002h0.001h0.002h0.002
				c0.051,0.002,0.093,0.036,0.107,0.082l0,0l0.001,0.003l0,0l0.001,0.003l0,0v0.003l0,0l0.001,0.003v0.002l0.001,0.003l0,0v0.002
				L297.511,36v0.003v0.002v0.003v0.003v4.683V64.11v0.003v0.003v0.003v0.003l-0.001,0.003v0.003l0,0l-0.001,0.002v0.003
				l-0.001,0.002l0,0v0.003l0,0l-0.001,0.002l0,0l-0.001,0.003l0,0c-0.015,0.046-0.057,0.08-0.107,0.082l-0.002,0h-0.002h-0.001
				h-0.002h-4.681h-4.683h-4.683h-4.684h-4.683h-4.684h-4.683h-4.681h-0.002h-0.001h-0.002l-0.002,0
				c-0.051-0.001-0.093-0.036-0.107-0.082l0,0v-0.003l0,0l-0.001-0.002h-0.001v-0.003l0,0l-0.001-0.002l0,0V64.13v-0.002h-0.001
				v-0.003l-0.001-0.003v-0.003v-0.003v-0.003V64.11v-4.683v-4.683v-4.683v-4.683v-4.683V36.013L259.813,36.013z M260.048,36.13
				v4.449h4.448V36.13H260.048L260.048,36.13z M264.73,36.13v4.449h4.448V36.13H264.73L264.73,36.13z M269.413,36.13v4.449h4.449
				V36.13H269.413L269.413,36.13z M274.097,36.13v4.449h4.448V36.13H274.097L274.097,36.13z M278.779,36.13v4.449h4.449V36.13
				H278.779L278.779,36.13z M283.463,36.13v4.449h4.448V36.13H283.463L283.463,36.13z M288.146,36.13v4.449h4.448V36.13H288.146
				L288.146,36.13z M292.828,36.13v4.449h4.448V36.13H292.828L292.828,36.13z M260.048,40.813v4.449h4.448v-4.449H260.048
				L260.048,40.813z M264.73,40.813v4.449h4.448v-4.449H264.73L264.73,40.813z M269.413,40.813v4.449h4.449v-4.449H269.413
				L269.413,40.813z M274.097,40.813v4.449h4.448v-4.449H274.097L274.097,40.813z M278.779,40.813v4.449h4.449v-4.449H278.779
				L278.779,40.813z M283.463,40.813v4.449h4.448v-4.449H283.463L283.463,40.813z M288.146,40.813v4.449h4.448v-4.449H288.146
				L288.146,40.813z M292.828,40.813v4.449h4.448v-4.449H292.828L292.828,40.813z M260.048,45.496v4.449h4.448v-4.449H260.048
				L260.048,45.496z M264.73,45.496v4.449h4.448v-4.449H264.73L264.73,45.496z M269.413,45.496v4.449h4.449v-4.449H269.413
				L269.413,45.496z M274.097,45.496v4.449h4.448v-4.449H274.097L274.097,45.496z M278.779,45.496v4.449h4.449v-4.449H278.779
				L278.779,45.496z M283.463,45.496v4.449h4.448v-4.449H283.463L283.463,45.496z M288.146,45.496v4.449h4.448v-4.449H288.146
				L288.146,45.496z M292.828,45.496v4.449h4.447h0.001v-4.449H292.828L292.828,45.496z M260.048,50.178v4.449h4.448v-4.449H260.048
				L260.048,50.178z M264.73,50.178v4.449h4.448v-4.449H264.73L264.73,50.178z M269.413,50.178v4.449h4.449v-4.449H269.413
				L269.413,50.178z M274.097,50.178v4.449h4.448v-4.449H274.097L274.097,50.178z M278.779,50.178v4.449h4.449v-4.449H278.779
				L278.779,50.178z M283.463,50.178v4.449h4.448v-4.449H283.463L283.463,50.178z M288.146,50.178v4.449h4.448v-4.449H288.146
				L288.146,50.178z M292.828,50.178v4.449h4.448v-4.449h-0.001H292.828L292.828,50.178z M260.048,54.861v4.449h4.448v-4.449
				H260.048L260.048,54.861z M264.73,54.861v4.449h4.448v-4.449H264.73L264.73,54.861z M269.413,54.861v4.449h4.449v-4.449H269.413
				L269.413,54.861z M274.097,54.861v4.449h4.448v-4.449H274.097L274.097,54.861z M278.779,54.861v4.449h4.449v-4.449H278.779
				L278.779,54.861z M283.463,54.861v4.449h4.448v-4.449H283.463L283.463,54.861z M288.146,54.861v4.449h4.448v-4.449H288.146
				L288.146,54.861z M292.828,54.861v4.449h4.448v-4.449H292.828L292.828,54.861z M260.048,59.544v4.449h4.448v-4.449H260.048
				L260.048,59.544z M264.73,59.544v4.449h4.448v-4.449H264.73L264.73,59.544z M269.413,59.544v4.449h4.449v-4.449H269.413
				L269.413,59.544z M274.097,59.544v4.449h4.448v-4.449H274.097L274.097,59.544z M278.779,59.544v4.449h4.449v-4.449H278.779
				L278.779,59.544z M283.463,59.544v4.449h4.448v-4.449H283.463L283.463,59.544z M288.146,59.544v4.449h4.448v-4.449H288.146
				L288.146,59.544z M292.828,59.544v4.449h4.448v-4.449H292.828z"/>
			<polygon fill-rule="evenodd" clip-rule="evenodd" fill="#055586" points="259.798,55.419 271.565,44.42 271.676,44.313 
				271.799,44.407 279.078,50.006 283.007,40.605 283.345,40.626 292.963,49.326 296.51,44.279 296.808,44.477 293.045,49.851 
				292.789,49.644 283.229,41.004 279.318,50.359 279.229,50.574 279.044,50.432 271.704,44.785 260.048,55.676 			"/>
			<polygon fill-rule="evenodd" clip-rule="evenodd" fill="#DF2938" points="260.304,64.007 265.098,54.537 265.16,54.414 
				265.295,54.442 281.511,57.875 289.579,55.13 297.276,56.36 297.276,56.704 289.676,55.476 281.579,58.23 281.484,58.236 
				265.355,54.821 260.624,64.168 			"/>
			<g>
				<circle fill-rule="evenodd" clip-rule="evenodd" fill="#2D96B3" cx="271.69" cy="44.549" r="1.272"/>
				<circle fill-rule="evenodd" clip-rule="evenodd" fill="#FFFFFF" cx="271.69" cy="44.549" r="0.535"/>
			</g>
			<g>
				<circle fill-rule="evenodd" clip-rule="evenodd" fill="#2D96B3" cx="279.154" cy="50.29" r="1.272"/>
				<circle fill-rule="evenodd" clip-rule="evenodd" fill="#FFFFFF" cx="279.154" cy="50.29" r="0.535"/>
			</g>
			<g>
				<circle fill-rule="evenodd" clip-rule="evenodd" fill="#2D96B3" cx="283.173" cy="40.674" r="1.272"/>
				<circle fill-rule="evenodd" clip-rule="evenodd" fill="#FFFFFF" cx="283.173" cy="40.673" r="0.535"/>
			</g>
			<g>
				<circle fill-rule="evenodd" clip-rule="evenodd" fill="#2D96B3" cx="292.828" cy="49.944" r="1.272"/>
				<circle fill-rule="evenodd" clip-rule="evenodd" fill="#FFFFFF" cx="292.828" cy="49.944" r="0.535"/>
			</g>
			<g>
				<circle fill-rule="evenodd" clip-rule="evenodd" fill="#E34856" cx="281.521" cy="58.061" r="1.272"/>
				<circle fill-rule="evenodd" clip-rule="evenodd" fill="#FFFFFF" cx="281.521" cy="58.061" r="0.535"/>
			</g>
			<g>
				<circle fill-rule="evenodd" clip-rule="evenodd" fill="#E34856" cx="265.258" cy="54.617" r="1.272"/>
				<circle fill-rule="evenodd" clip-rule="evenodd" fill="#FFFFFF" cx="265.258" cy="54.617" r="0.535"/>
			</g>
			<g>
				<rect x="259.813" y="63.622" fill-rule="evenodd" clip-rule="evenodd" fill="#384146" width="36.563" height="0.976"/>
				<rect x="259.488" y="35.896" fill-rule="evenodd" clip-rule="evenodd" fill="#384146" width="0.976" height="28.703"/>
				<polygon fill-rule="evenodd" clip-rule="evenodd" fill="#384146" points="299.044,64.11 297.254,63.208 295.465,62.307 
					295.465,64.11 295.465,65.914 297.254,65.012 				"/>
				<polygon fill-rule="evenodd" clip-rule="evenodd" fill="#384146" points="259.977,33.982 260.878,35.771 261.779,37.561 
					259.977,37.561 258.173,37.561 259.074,35.771 				"/>
			</g>
			<g>
				<circle fill-rule="evenodd" clip-rule="evenodd" fill="#E34856" cx="289.532" cy="55.146" r="1.272"/>
				<circle fill-rule="evenodd" clip-rule="evenodd" fill="#FFFFFF" cx="289.532" cy="55.146" r="0.535"/>
			</g>
		</g>
	</g>
	<g>
		<path fill-rule="evenodd" clip-rule="evenodd" fill="#2D96B3" d="M276.484,152.869v25.1l14.223,20.684
			c-4.043,2.784-8.942,4.415-14.223,4.415c-13.861,0-25.099-11.237-25.099-25.099C251.386,164.106,262.623,152.869,276.484,152.869z
			"/>
		<path fill-rule="evenodd" clip-rule="evenodd" fill="#FFCC00" d="M279.151,169.134v-25.099c6.157,0,11.797,2.217,16.163,5.897
			L279.151,169.134z"/>
		<path fill-rule="evenodd" clip-rule="evenodd" fill="#FE912A" d="M297.035,163.556c1.94,2.762,3.339,5.933,4.039,9.357
			l-24.59,5.056l16.164-19.203C294.309,160.165,295.785,161.775,297.035,163.556z"/>
		<path fill-rule="evenodd" clip-rule="evenodd" fill="#E74037" d="M276.484,177.969l24.59-5.056
			c0.334,1.633,0.509,3.323,0.509,5.056c0,8.581-4.307,16.156-10.876,20.684L276.484,177.969z"/>
		<path fill-rule="evenodd" clip-rule="evenodd" fill="#FFFFFF" d="M295.033,169.382c1.038,0,1.885-0.847,1.885-1.884
			c0-1.038-0.847-1.885-1.885-1.885s-1.884,0.847-1.884,1.885C293.149,168.535,293.995,169.382,295.033,169.382z"/>
		<circle fill-rule="evenodd" clip-rule="evenodd" fill="#384146" cx="295.033" cy="167.497" r="1.083"/>
		<polygon fill-rule="evenodd" clip-rule="evenodd" fill="#384146" points="294.731,167.352 298.907,158.738 299,158.548 
			299.21,158.548 312.265,158.548 312.265,159.221 299.42,159.221 295.336,167.644 		"/>
		<g>
			<path fill-rule="evenodd" clip-rule="evenodd" fill="#FFFFFF" d="M296.485,184.07c1.038,0,1.885-0.847,1.885-1.885
				c0-1.037-0.847-1.884-1.885-1.884c-1.037,0-1.884,0.847-1.884,1.884C294.602,183.224,295.448,184.07,296.485,184.07z"/>
			<circle fill-rule="evenodd" clip-rule="evenodd" fill="#384146" cx="296.485" cy="182.186" r="1.083"/>
			<polygon fill-rule="evenodd" clip-rule="evenodd" fill="#384146" points="296.298,181.907 302.489,177.734 302.677,177.678 
				315.731,177.678 315.731,178.35 302.779,178.35 296.674,182.465 			"/>
			<g>
				<path fill="#384146" d="M305.223,176.867h-1.139v-2.771h0.418v2.355h0.721V176.867z"/>
				<path fill="#384146" d="M306.172,174.061c0.185,0,0.341,0.065,0.47,0.194c0.13,0.13,0.194,0.286,0.194,0.469v1.513
					c0,0.185-0.065,0.341-0.195,0.47c-0.13,0.129-0.286,0.193-0.469,0.193c-0.184,0-0.34-0.065-0.469-0.195
					c-0.128-0.129-0.192-0.286-0.192-0.469v-1.513c0-0.184,0.065-0.341,0.194-0.47C305.835,174.125,305.991,174.061,306.172,174.061
					z M306.4,174.715c0-0.066-0.023-0.123-0.07-0.169c-0.046-0.046-0.103-0.07-0.169-0.07s-0.123,0.023-0.17,0.07
					c-0.048,0.046-0.071,0.103-0.071,0.169v1.517c0,0.066,0.023,0.123,0.071,0.169c0.047,0.046,0.104,0.069,0.17,0.069
					s0.123-0.023,0.169-0.069c0.047-0.046,0.07-0.103,0.07-0.169V174.715z"/>
				<path fill="#384146" d="M307.863,174.096c0.233,0,0.404,0.064,0.513,0.192c0.096,0.112,0.145,0.269,0.145,0.469v0.403
					c0,0.196-0.075,0.362-0.224,0.498l0.31,1.209h-0.452l-0.253-1.044c-0.013,0-0.024,0-0.038,0h-0.241v1.044h-0.418v-2.771H307.863
					z M308.113,174.764c0-0.161-0.08-0.241-0.239-0.241h-0.252v0.887h0.252c0.066,0,0.123-0.023,0.17-0.071
					c0.046-0.047,0.069-0.104,0.069-0.17V174.764z"/>
				<path fill="#384146" d="M308.965,176.867v-2.773h1.189v0.42h-0.771v0.756h0.564v0.42h-0.564v0.756h0.771v0.42H308.965z"/>
				<path fill="#384146" d="M310.859,176.867h-0.418v-2.773h0.6l0.39,1.992l0.374-1.992h0.576v2.773h-0.418v-1.743l-0.362,1.743
					h-0.336l-0.405-1.738V176.867z"/>
				<path fill="#384146" d="M313.6,176.867v-2.134h-0.356v-0.292c0.101-0.012,0.196-0.05,0.286-0.114
					c0.091-0.064,0.156-0.142,0.196-0.233h0.292v2.773H313.6z"/>
			</g>
		</g>
		<g>
			<path fill="#384146" d="M302.014,157.89h-1.139v-2.771h0.418v2.355h0.721V157.89z"/>
			<path fill="#384146" d="M302.963,155.083c0.185,0,0.341,0.065,0.47,0.194c0.13,0.13,0.194,0.286,0.194,0.469v1.513
				c0,0.185-0.065,0.341-0.195,0.47c-0.13,0.129-0.286,0.193-0.469,0.193c-0.184,0-0.34-0.065-0.469-0.195
				c-0.128-0.129-0.192-0.286-0.192-0.469v-1.513c0-0.184,0.065-0.341,0.194-0.47C302.626,155.148,302.782,155.083,302.963,155.083z
				 M303.191,155.738c0-0.066-0.023-0.123-0.07-0.169c-0.046-0.046-0.103-0.07-0.169-0.07s-0.123,0.023-0.17,0.07
				c-0.048,0.046-0.071,0.103-0.071,0.169v1.517c0,0.066,0.023,0.123,0.071,0.169c0.047,0.046,0.104,0.069,0.17,0.069
				s0.123-0.023,0.169-0.069c0.047-0.046,0.07-0.103,0.07-0.169V155.738z"/>
			<path fill="#384146" d="M304.654,155.119c0.233,0,0.404,0.064,0.513,0.192c0.096,0.112,0.145,0.269,0.145,0.469v0.403
				c0,0.196-0.075,0.362-0.224,0.498l0.31,1.209h-0.452l-0.253-1.044c-0.013,0-0.024,0-0.038,0h-0.241v1.044h-0.418v-2.771H304.654z
				 M304.904,155.787c0-0.161-0.08-0.241-0.239-0.241h-0.252v0.887h0.252c0.066,0,0.123-0.023,0.17-0.071
				c0.046-0.047,0.069-0.104,0.069-0.17V155.787z"/>
			<path fill="#384146" d="M305.756,157.89v-2.773h1.189v0.42h-0.771v0.756h0.564v0.42h-0.564v0.756h0.771v0.42H305.756z"/>
			<path fill="#384146" d="M307.65,157.89h-0.418v-2.773h0.6l0.39,1.992l0.374-1.992h0.576v2.773h-0.418v-1.743l-0.362,1.743h-0.336
				l-0.405-1.738V157.89z"/>
			<path fill="#384146" d="M310.041,155.899c0-0.262,0.07-0.463,0.212-0.602c0.123-0.123,0.283-0.184,0.482-0.184
				c0.183,0,0.339,0.069,0.468,0.206c0.129,0.137,0.193,0.297,0.193,0.48c0,0.189-0.042,0.371-0.126,0.546
				c-0.046,0.097-0.152,0.265-0.32,0.502c-0.046,0.065-0.114,0.166-0.204,0.303l-0.075,0.113c-0.048,0.074-0.085,0.132-0.11,0.175
				c-0.012,0.022-0.018,0.035-0.018,0.04h0.82v0.409h-1.329v-0.383c0-0.009,0.03-0.06,0.092-0.153
				c0.027-0.042,0.06-0.09,0.095-0.141l0.109-0.157c0.063-0.087,0.163-0.226,0.299-0.418c0.128-0.18,0.225-0.342,0.288-0.488
				c0.052-0.12,0.077-0.231,0.077-0.334c0-0.084-0.023-0.155-0.07-0.214c-0.052-0.062-0.118-0.093-0.199-0.093
				c-0.117,0-0.199,0.067-0.248,0.201c-0.017,0.044-0.024,0.097-0.024,0.159v0.106h-0.411V155.899z"/>
		</g>
		<g>
			<path fill-rule="evenodd" clip-rule="evenodd" fill="#FFFFFF" d="M286.255,150.241c1.038,0,1.885-0.847,1.885-1.885
				c0-1.038-0.847-1.884-1.885-1.884s-1.884,0.847-1.884,1.884C284.371,149.395,285.217,150.241,286.255,150.241z"/>
			<circle fill-rule="evenodd" clip-rule="evenodd" fill="#384146" cx="286.255" cy="148.356" r="1.083"/>
			<polygon fill-rule="evenodd" clip-rule="evenodd" fill="#384146" points="286.067,148.078 292.258,143.906 292.446,143.848 
				305.501,143.848 305.501,144.521 292.548,144.521 286.443,148.635 			"/>
			<g>
				<path fill="#384146" d="M294.992,143.038h-1.139v-2.771h0.418v2.355h0.721V143.038z"/>
				<path fill="#384146" d="M295.941,140.232c0.185,0,0.341,0.065,0.47,0.194c0.13,0.13,0.194,0.286,0.194,0.469v1.513
					c0,0.185-0.065,0.341-0.195,0.47c-0.13,0.129-0.286,0.193-0.469,0.193c-0.184,0-0.34-0.065-0.469-0.195
					c-0.128-0.129-0.192-0.286-0.192-0.469v-1.513c0-0.184,0.065-0.341,0.194-0.47C295.604,140.296,295.761,140.232,295.941,140.232
					z M296.17,140.886c0-0.066-0.023-0.123-0.07-0.169c-0.046-0.046-0.103-0.07-0.169-0.07s-0.123,0.023-0.17,0.07
					c-0.048,0.046-0.071,0.103-0.071,0.169v1.517c0,0.066,0.023,0.123,0.071,0.169c0.047,0.046,0.104,0.069,0.17,0.069
					s0.123-0.023,0.169-0.069c0.047-0.046,0.07-0.103,0.07-0.169V140.886z"/>
				<path fill="#384146" d="M297.633,140.267c0.233,0,0.404,0.064,0.513,0.192c0.096,0.112,0.145,0.269,0.145,0.469v0.403
					c0,0.196-0.075,0.362-0.224,0.498l0.31,1.209h-0.452l-0.253-1.044c-0.013,0-0.024,0-0.038,0h-0.241v1.044h-0.418v-2.771H297.633
					z M297.883,140.935c0-0.161-0.08-0.241-0.239-0.241h-0.252v0.887h0.252c0.066,0,0.123-0.023,0.17-0.071
					c0.046-0.047,0.069-0.104,0.069-0.17V140.935z"/>
				<path fill="#384146" d="M298.734,143.038v-2.773h1.189v0.42h-0.771v0.756h0.564v0.42h-0.564v0.756h0.771v0.42H298.734z"/>
				<path fill="#384146" d="M300.629,143.038h-0.418v-2.773h0.6l0.39,1.992l0.374-1.992h0.576v2.773h-0.418v-1.743l-0.362,1.743
					h-0.336l-0.405-1.738V143.038z"/>
				<path fill="#384146" d="M303.663,142.64c0.191,0,0.287-0.089,0.287-0.268v-0.163c0-0.285-0.148-0.427-0.446-0.427v-0.357
					c0.16,0,0.279-0.045,0.355-0.135c0.071-0.081,0.106-0.195,0.106-0.34v-0.064c0-0.181-0.079-0.272-0.238-0.272
					c-0.089,0-0.153,0.034-0.195,0.101c-0.03,0.051-0.046,0.118-0.046,0.2v0.073h-0.409v-0.064c0-0.197,0.05-0.358,0.15-0.482
					c0.113-0.142,0.273-0.212,0.479-0.212c0.196,0,0.354,0.066,0.472,0.199c0.105,0.119,0.159,0.268,0.159,0.447v0.117
					c0,0.172-0.052,0.321-0.155,0.447c-0.044,0.053-0.096,0.098-0.154,0.135c0.123,0.069,0.22,0.175,0.287,0.316
					c0.035,0.072,0.053,0.16,0.053,0.263v0.219c0,0.205-0.069,0.373-0.21,0.504c-0.134,0.127-0.295,0.19-0.484,0.19
					c-0.184,0-0.34-0.065-0.469-0.195c-0.128-0.129-0.192-0.285-0.192-0.466v-0.069l0.398-0.031l0.009,0.097
					c0.006,0.069,0.03,0.126,0.074,0.17C303.537,142.618,303.594,142.64,303.663,142.64z"/>
			</g>
		</g>
		<g>
			<path fill-rule="evenodd" clip-rule="evenodd" fill="#FFFFFF" d="M260.568,170.109c1.038,0,1.885-0.847,1.885-1.885
				c0-1.037-0.847-1.885-1.885-1.885s-1.884,0.848-1.884,1.885C258.685,169.263,259.53,170.109,260.568,170.109z"/>
			<circle fill-rule="evenodd" clip-rule="evenodd" fill="#384146" cx="260.568" cy="168.225" r="1.083"/>
			<polygon fill-rule="evenodd" clip-rule="evenodd" fill="#384146" points="260.319,168.447 254.391,161.816 241.484,161.816 
				241.484,161.144 254.54,161.144 254.688,161.144 254.789,161.257 260.818,168.002 			"/>
			<g>
				<path fill="#384146" d="M244.648,160.771h-1.139V158h0.418v2.355h0.721V160.771z"/>
				<path fill="#384146" d="M245.598,157.965c0.185,0,0.341,0.065,0.47,0.194c0.13,0.13,0.194,0.286,0.194,0.469v1.513
					c0,0.185-0.065,0.341-0.195,0.47c-0.13,0.129-0.286,0.193-0.469,0.193c-0.184,0-0.34-0.065-0.469-0.195
					c-0.128-0.129-0.192-0.286-0.192-0.469v-1.513c0-0.184,0.065-0.341,0.194-0.47C245.261,158.03,245.417,157.965,245.598,157.965z
					 M245.826,158.62c0-0.066-0.023-0.123-0.07-0.169c-0.046-0.046-0.103-0.07-0.169-0.07s-0.123,0.023-0.17,0.07
					c-0.048,0.046-0.071,0.103-0.071,0.169v1.517c0,0.066,0.023,0.123,0.071,0.169c0.047,0.046,0.104,0.069,0.17,0.069
					s0.123-0.023,0.169-0.069c0.047-0.046,0.07-0.103,0.07-0.169V158.62z"/>
				<path fill="#384146" d="M247.289,158c0.233,0,0.404,0.064,0.513,0.192c0.096,0.112,0.145,0.269,0.145,0.469v0.403
					c0,0.196-0.075,0.362-0.224,0.498l0.31,1.209h-0.452l-0.253-1.044c-0.013,0-0.024,0-0.038,0h-0.241v1.044h-0.418V158H247.289z
					 M247.539,158.668c0-0.161-0.08-0.241-0.239-0.241h-0.252v0.887h0.252c0.066,0,0.123-0.023,0.17-0.071
					c0.046-0.047,0.069-0.104,0.069-0.17V158.668z"/>
				<path fill="#384146" d="M248.391,160.771v-2.773h1.189v0.42h-0.771v0.756h0.564v0.42h-0.564v0.756h0.771v0.42H248.391z"/>
				<path fill="#384146" d="M250.285,160.771h-0.418v-2.773h0.6l0.39,1.992l0.374-1.992h0.576v2.773h-0.418v-1.743l-0.362,1.743
					h-0.336l-0.405-1.738V160.771z"/>
				<path fill="#384146" d="M252.669,159.752l0.739-1.756h0.418v1.756h0.268v0.42h-0.268v0.597h-0.418v-0.597h-0.739V159.752z
					 M253.408,159.752v-0.866l-0.346,0.866H253.408z"/>
			</g>
		</g>
	</g>
	<g>
		<rect x="171.521" y="77.188" fill-rule="evenodd" clip-rule="evenodd" fill="#8B4801" width="2.015" height="19.344"/>
		<rect x="169.507" y="77.188" fill-rule="evenodd" clip-rule="evenodd" fill="#995503" width="2.015" height="19.344"/>
		<circle fill-rule="evenodd" clip-rule="evenodd" fill="#096385" cx="171.521" cy="59.649" r="27.37"/>
		<circle fill-rule="evenodd" clip-rule="evenodd" fill="#B2D8DE" cx="171.521" cy="59.649" r="25.01"/>
		<circle fill-rule="evenodd" clip-rule="evenodd" fill="#096385" cx="171.521" cy="59.65" r="22.907"/>
		<path fill-rule="evenodd" clip-rule="evenodd" fill="#0174A3" d="M171.521,87.019c-15.115,0-27.37-12.254-27.37-27.37
			c0-15.115,12.254-27.37,27.37-27.37V87.019z"/>
		<path fill-rule="evenodd" clip-rule="evenodd" fill="#D3E9ED" d="M171.521,84.659c-13.813,0-25.01-11.197-25.01-25.01
			s11.197-25.01,25.01-25.01V84.659z"/>
		<path fill-rule="evenodd" clip-rule="evenodd" fill="#0174A3" d="M171.521,82.557c-12.651,0-22.907-10.256-22.907-22.907
			s10.256-22.907,22.907-22.907V82.557z"/>
		<path fill-rule="evenodd" clip-rule="evenodd" fill="#D3E9ED" d="M148.014,53.109h23.508V66.19h-23.508
			c-0.616-2.073-0.949-4.268-0.949-6.541C147.064,57.377,147.397,55.182,148.014,53.109z"/>
		<path fill-rule="evenodd" clip-rule="evenodd" fill="#B2D8DE" d="M195.029,53.109h-23.508V66.19h23.508
			c0.616-2.073,0.949-4.268,0.949-6.541C195.979,57.377,195.646,55.182,195.029,53.109z"/>
		<polygon fill-rule="evenodd" clip-rule="evenodd" fill="#D3E9ED" points="171.521,45.637 172.322,48.12 174.931,48.114 
			172.818,49.643 173.629,52.123 171.521,50.585 169.414,52.123 170.225,49.643 168.111,48.114 170.721,48.12 		"/>
		<polygon fill-rule="evenodd" clip-rule="evenodd" fill="#B2D8DE" points="171.521,45.637 172.322,48.12 174.931,48.114 
			172.818,49.644 173.629,52.123 171.521,50.585 		"/>
		<polygon fill-rule="evenodd" clip-rule="evenodd" fill="#D3E9ED" points="164.633,45.648 165.434,48.13 168.042,48.125 
			165.929,49.654 166.74,52.133 164.633,50.596 162.525,52.133 163.336,49.654 161.223,48.125 163.832,48.13 		"/>
		<polygon fill-rule="evenodd" clip-rule="evenodd" fill="#D3E9ED" points="157.813,45.648 158.615,48.131 161.223,48.125 
			159.109,49.655 159.921,52.134 157.813,50.597 155.707,52.134 156.518,49.655 154.404,48.125 157.012,48.131 		"/>
		<polygon fill-rule="evenodd" clip-rule="evenodd" fill="#B2D8DE" points="185.159,45.637 185.96,48.119 188.568,48.114 
			186.455,49.643 187.266,52.122 185.159,50.585 183.052,52.122 183.863,49.643 181.75,48.114 184.357,48.119 		"/>
		<polygon fill-rule="evenodd" clip-rule="evenodd" fill="#B2D8DE" points="178.34,45.637 179.141,48.119 181.75,48.114 
			179.637,49.643 180.447,52.122 178.34,50.585 176.232,52.122 177.044,49.643 174.931,48.114 177.539,48.119 		"/>
		<polygon fill-rule="evenodd" clip-rule="evenodd" fill="#D3E9ED" points="171.521,67.017 172.322,69.499 174.931,69.494 
			172.818,71.023 173.629,73.502 171.521,71.965 169.414,73.502 170.225,71.023 168.111,69.494 170.721,69.499 		"/>
		<polygon fill-rule="evenodd" clip-rule="evenodd" fill="#B2D8DE" points="171.521,67.017 172.322,69.499 174.931,69.494 
			172.818,71.023 173.629,73.502 171.521,71.965 		"/>
		<polygon fill-rule="evenodd" clip-rule="evenodd" fill="#D3E9ED" points="164.633,67.028 165.434,69.51 168.042,69.505 
			165.929,71.035 166.74,73.514 164.633,71.977 162.525,73.514 163.336,71.035 161.223,69.505 163.832,69.51 		"/>
		<polygon fill-rule="evenodd" clip-rule="evenodd" fill="#D3E9ED" points="157.813,67.028 158.615,69.511 161.223,69.506 
			159.109,71.035 159.921,73.514 157.813,71.977 155.707,73.514 156.518,71.035 154.404,69.506 157.012,69.511 		"/>
		<polygon fill-rule="evenodd" clip-rule="evenodd" fill="#B2D8DE" points="185.159,67.017 185.96,69.499 188.568,69.494 
			186.455,71.023 187.266,73.502 185.159,71.965 183.052,73.502 183.863,71.023 181.75,69.494 184.357,69.499 		"/>
		<polygon fill-rule="evenodd" clip-rule="evenodd" fill="#B2D8DE" points="178.34,67.017 179.141,69.499 181.75,69.494 
			179.637,71.023 180.447,73.502 178.34,71.965 176.232,73.502 177.044,71.023 174.931,69.494 177.539,69.499 		"/>
		<g>
			<path fill="#FF5527" d="M162.598,64.641l-1.673-9.357h1.479l1.175,7.294l1.183-7.294h1.48l-1.703,9.357H162.598z"/>
			<path fill="#FF5527" d="M169.446,55.164c0.623,0,1.151,0.219,1.587,0.657c0.436,0.438,0.653,0.966,0.653,1.583v5.108
				c0,0.623-0.219,1.151-0.657,1.587c-0.438,0.436-0.966,0.653-1.583,0.653c-0.623,0-1.15-0.219-1.583-0.657
				c-0.433-0.438-0.65-0.966-0.65-1.583v-5.108c0-0.622,0.219-1.151,0.657-1.587S168.833,55.164,169.446,55.164z M170.215,57.375
				c0-0.224-0.078-0.415-0.235-0.571c-0.157-0.157-0.348-0.235-0.571-0.235c-0.224,0-0.416,0.079-0.575,0.235
				s-0.239,0.347-0.239,0.571v5.123c0,0.224,0.08,0.414,0.239,0.571c0.159,0.157,0.351,0.235,0.575,0.235
				c0.224,0,0.414-0.078,0.571-0.235c0.157-0.157,0.235-0.348,0.235-0.571V57.375z"/>
			<path fill="#FF5527" d="M174.158,56.702h-1.501v-1.419h4.406v1.419h-1.494v7.938h-1.412V56.702z"/>
			<path fill="#FF5527" d="M178.198,64.641v-9.365h4.018v1.419h-2.606v2.554h1.904v1.418h-1.904v2.554h2.606v1.419H178.198z"/>
		</g>
	</g>
	<g>
		<polygon fill-rule="evenodd" clip-rule="evenodd" fill="#8B4801" points="150.691,383.202 192.352,383.202 188.04,372.47 
			155.003,372.47 		"/>
		<path fill-rule="evenodd" clip-rule="evenodd" fill="#E0AC7E" d="M173.466,353.063c-0.9,0.525-1.847,0.746-2.827,0.679
			c-1.141-0.078-2.326-0.545-3.537-1.373c-0.514-0.211-1.22-0.059-2.368,0.449l-1.728,0.932c0.094,0.329,0.656,1.032,1.996,0.312
			l1.147-0.201c0.582,0.426,1.055,0.867,1.608,1.25l-4.621,0.198l-2.518,1.978l-2.006,2.273c0.836,1.174,2.063,0.456,3.396-1.02
			l1.885-0.979l2.461,0.431l-0.021,0.228l-4.313,1.438l-2.785,4.383c0.869,0.845,1.597,0.604,2.608-0.416l1.195-1.837
			c1.282-0.352,2.525-0.642,3.763-1.195l0.088,0.323l-3.297,2.411c-0.248,0.678-1.146,4.489-1.209,4.337
			c-0.137,0.936,1.066,0.498,1.633-0.248c0.113-0.276,1.187-2.994,1.211-3.022c0.729-0.846,2.879-1.598,3.91-1.92
			c1.672-0.663,5.526-0.542,7.674,2.524c0.422,0.602,1.262,2.353,1.569,3.164c0.284,1.138,2.417,1.919,2.275,1.066
			c-2.986-9.457-0.427-7.323-0.781-13.234l0.31-1.781l-5.875-2.262C174.118,352.365,173.893,352.813,173.466,353.063z"/>
		
			<rect x="173.969" y="352.043" transform="matrix(-0.9345 -0.3558 0.3558 -0.9345 217.4189 745.8957)" fill-rule="evenodd" clip-rule="evenodd" fill="#B2D8DE" width="6.683" height="1.818"/>
		
			<rect x="174.402" y="349.691" transform="matrix(-0.9345 -0.3559 0.3559 -0.9345 219.183 742.9752)" fill-rule="evenodd" clip-rule="evenodd" fill="#096385" width="7.053" height="3.274"/>
		<rect x="150.691" y="383.202" fill-rule="evenodd" clip-rule="evenodd" fill="#995503" width="41.66" height="5.266"/>
		<polygon fill-rule="evenodd" clip-rule="evenodd" fill="#8B4801" points="152.8,388.293 190.244,388.293 187.236,422.79 
			155.806,422.79 		"/>
		<polygon fill-rule="evenodd" clip-rule="evenodd" fill="#995503" points="156.998,392.517 186.045,392.517 183.039,418.87 
			160.004,418.87 		"/>
		<rect x="161.256" y="376.773" fill-rule="evenodd" clip-rule="evenodd" fill="#304559" width="19.389" height="1.804"/>
		<polygon fill-rule="evenodd" clip-rule="evenodd" fill="#92D3E0" points="178.371,367.953 178.365,369.197 178.365,377.675 
			163.454,377.675 163.454,367.953 		"/>
	</g>
	<g>
		<rect x="395.711" y="243.42" fill-rule="evenodd" clip-rule="evenodd" fill="#8B4801" width="1.391" height="15.932"/>
		<path fill-rule="evenodd" clip-rule="evenodd" fill="#EBB688" d="M392.969,265.056c0.281-0.203,1.051-0.615,1.154-0.777
			l0.01,0.009c0.175-0.599,0.295-1.218,0.402-1.823l0.238-1.008c-0.305-0.336-0.254-0.841,0.094-1.489l-0.537-1.205
			c-0.191-0.467,0.596-0.346,0.944-0.111l0.437,0.609c0.079-0.294,0.079-0.247,0.499-0.389c0.565-0.021,1.043,0.396,1.777,1.367
			c0.298,0.294,0.438,0.742,0.506,1.15c-0.194,1.672-0.006,0.841-1.106,2.553l-1.969,2.415L392.969,265.056z"/>
		<path fill-rule="evenodd" clip-rule="evenodd" fill="#F2C196" d="M398.362,260.321l-3.148-1.94
			c-0.554,0.055-0.691,0.508-0.358,1.043c-0.496,0.09-0.635,0.48-0.355,1.041c-0.448,0.049-0.608,0.591-0.32,0.94
			c-0.408,0.072-0.501,0.593-0.172,0.897l2.879,1.754C398.28,263.178,398.729,261.916,398.362,260.321z"/>
		<path fill-rule="evenodd" clip-rule="evenodd" fill="#4A250A" d="M378.583,309.631c-1.607,0-2.911,1.505-2.911,3.361
			c0,0.454,0.078,0.888,0.22,1.283h5.384c0.141-0.396,0.22-0.829,0.22-1.283C381.495,311.136,380.191,309.631,378.583,309.631z"/>
		<rect x="375.688" y="313.683" fill-rule="evenodd" clip-rule="evenodd" fill="#6E4823" width="5.79" height="0.593"/>
		<path fill-rule="evenodd" clip-rule="evenodd" fill="#08426A" d="M372.261,282.144l10.405,0.483
			c0.328,9.656-1.147,13.509-1.242,28.87h-5.671c0.205-6.685-0.322-15.206-0.292-21.68c0.004-0.824-1.008,0.252-1.113-0.565
			C373.427,287.488,372.07,283.729,372.261,282.144z"/>
		<path fill-rule="evenodd" clip-rule="evenodd" fill="#F2C196" d="M366.356,283.585c0.571,0.902,0.585,1.712,0.573,2.671
			l-0.063,1.287c0.021,0.308-0.418,0.37-0.547,0.073c-0.302-0.528-0.362-1.103-0.42-1.713c-0.272,0.453-0.582,1.466-0.518,2.006
			c0.089,0.684,0.428,1.411,0.752,1.929c0.155,0.437-0.264,0.679-0.892,0.231c-0.931-0.674-1.476-1.475-2.031-2.99
			c-0.225-1.257,0.016-3.106,0.457-3.706c0.161-0.44,0.148-0.878,0.042-1.313l2.728,0.394
			C366.275,282.851,366.243,283.229,366.356,283.585z"/>
		<path fill-rule="evenodd" clip-rule="evenodd" fill="#4A250A" d="M372.079,309.629c1.608,0,2.911,1.505,2.911,3.361
			c0,0.454-0.078,0.888-0.22,1.283h-5.383c-0.142-0.396-0.22-0.829-0.22-1.283C369.168,311.134,370.471,309.629,372.079,309.629z"/>
		<rect x="369.185" y="313.681" fill-rule="evenodd" clip-rule="evenodd" fill="#6E4823" width="5.789" height="0.593"/>
		<path fill-rule="evenodd" clip-rule="evenodd" fill="#08426A" d="M378.402,282.142l-10.405,0.483
			c-0.329,9.656,1.147,13.509,1.242,28.87h5.671c-0.205-6.685,0.322-15.207,0.291-21.68c-0.004-0.824,1.009,0.252,1.114-0.566
			C377.235,287.486,378.593,283.728,378.402,282.142z"/>
		<path fill-rule="evenodd" clip-rule="evenodd" fill="#EE3330" d="M372.408,257.813c1.985,0.444,3.672,0.425,5.692,0l0.322,0.997
			c-1.939,1.038-4.352,1.04-6.408,0.021L372.408,257.813z"/>
		<path fill-rule="evenodd" clip-rule="evenodd" fill="#995503" d="M380.307,252.822c0.16-2.096,0.871-4.293,0.36-6.239
			c-1.191-2.779-6.817-4.09-9.521-3.597c-1.69,2.843-0.992,6.351-0.682,9.592L380.307,252.822z"/>
		<path fill-rule="evenodd" clip-rule="evenodd" fill="#8B4801" d="M375.356,252.699v-9.452c2.308,0.541,4.6,1.677,5.311,3.336
			c0.511,1.946-0.2,4.144-0.36,6.239L375.356,252.699z"/>
		<path fill-rule="evenodd" clip-rule="evenodd" fill="#B2D8DE" d="M375.271,272.487c1.493,0.021,2.961-0.044,4.412-0.195V258.98
			l-0.495-0.217c-1.091-0.477-2.441-1.025-3.917-1.227V272.487z"/>
		<path fill-rule="evenodd" clip-rule="evenodd" fill="#B2D8DE" d="M375.271,272.487c-1.493,0.021-2.962-0.044-4.413-0.195V258.98
			l0.496-0.217c1.09-0.477,2.44-1.025,3.917-1.227V272.487z"/>
		<path fill-rule="evenodd" clip-rule="evenodd" fill="#E0AC7E" d="M372.12,254.918h6.301v3.802c-2.101,1.669-4.201,1.735-6.301,0
			V254.918z"/>
		<path fill-rule="evenodd" clip-rule="evenodd" fill="#F2C196" d="M372.676,247.113c-0.893-0.174-1.747,0.739-1.908,1.635
			c-0.146,0.82-0.249,1.663-0.287,2.506c-0.023-0.003,0.107-0.006-0.072-0.006c-0.182,0-0.768,0.133-0.739,0.913
			c0.021,0.585,0.528,2.284,1.198,2.006c0.968,2.593,2.271,4.057,4.403,4.576c0.035-0.069,0.053-0.017,0.086-0.038v-11.318
			C374.496,247.39,373.636,247.302,372.676,247.113z"/>
		<path fill-rule="evenodd" clip-rule="evenodd" fill="#EBB688" d="M377.951,247.113c0.893-0.174,1.747,0.739,1.907,1.635
			c0.147,0.82,0.25,1.663,0.288,2.506c0.023-0.003-0.107-0.006,0.072-0.006c0.181,0,0.767,0.133,0.739,0.913
			c-0.021,0.585-0.529,2.284-1.198,2.006c-0.981,2.629-2.305,4.076-4.489,4.576v-11.356
			C376.131,247.39,376.991,247.302,377.951,247.113z"/>
		<polygon fill-rule="evenodd" clip-rule="evenodd" fill="#FF3705" points="375.271,259.996 376.348,259.996 375.891,261.706 
			375.271,261.706 375.27,261.706 374.649,261.706 374.193,259.996 		"/>
		<polygon fill-rule="evenodd" clip-rule="evenodd" fill="#FF5527" points="375.891,261.654 376.332,268.123 375.271,270.063 
			374.208,268.123 374.649,261.654 		"/>
		<path fill-rule="evenodd" clip-rule="evenodd" fill="#F0FAFC" d="M375.271,259.996l-1.849,1.797l-2.068-3.029l0.767-0.418
			C372.894,259.163,373.954,259.682,375.271,259.996z"/>
		<path fill-rule="evenodd" clip-rule="evenodd" fill="#096385" d="M375.271,269.889l-4.538-10.854
			c-4.101,1.77-6.86,3.109-7.323,8.303c-0.44,4.959-0.452,10.399-0.218,16.115l3.703-0.054l0.097-10.581l0.71,12.392l7.743-0.011
			l-0.137-12.512L375.271,269.889z"/>
		<polygon fill-rule="evenodd" clip-rule="evenodd" fill="#0174A3" points="375.271,269.889 375.271,272.631 370.999,264.982 
			372.27,263.441 370.335,262.797 369.462,259.591 371.574,258.668 		"/>
		<path fill-rule="evenodd" clip-rule="evenodd" fill="#F0FAFC" d="M375.271,259.996l1.848,1.797l2.069-3.029l-0.767-0.418
			C377.646,259.163,376.586,259.682,375.271,259.996z"/>
		<path fill-rule="evenodd" clip-rule="evenodd" fill="#0B5975" d="M375.271,269.889l4.537-10.854
			c2.42,1.044,4.374,1.939,5.663,3.564c0.896,1.13,1.989,3.406,3.74,5.607l3.975-4.152l3.615,2.561l-8.006,8.292l-5.301-3.58
			l-0.655,13.883l-7.568-0.011V269.889z"/>
		<polygon fill-rule="evenodd" clip-rule="evenodd" fill="#0A6D94" points="375.271,269.889 375.271,272.631 379.541,264.982 
			378.271,263.441 380.205,262.797 381.078,259.591 379.042,258.685 		"/>
		<circle fill-rule="evenodd" clip-rule="evenodd" fill="#08426A" cx="376.18" cy="274.233" r="0.387"/>
		<circle fill-rule="evenodd" clip-rule="evenodd" fill="#08426A" cx="376.173" cy="277.114" r="0.387"/>
		<circle fill-rule="evenodd" clip-rule="evenodd" fill="#08426A" cx="376.141" cy="280.034" r="0.387"/>
		<rect x="384.648" y="244.929" fill-rule="evenodd" clip-rule="evenodd" fill="#B2D8DE" width="23.701" height="12.045"/>
		<polygon fill-rule="evenodd" clip-rule="evenodd" fill="#8B4801" points="395.711,263.34 396.884,263.966 397.102,272.915 
			395.711,272.915 		"/>
		<g>
			<path fill="#FF5527" d="M387.314,253.785h-0.761v-5.048h1.092l0.709,3.626l0.681-3.626h1.049v5.048h-0.761v-3.172l-0.66,3.172
				h-0.612l-0.736-3.164V253.785z"/>
			<path fill="#FF5527" d="M391.715,251.672l-1.019-2.935h0.837l0.563,1.812l0.56-1.812h0.842l-1.022,2.935v2.113h-0.761V251.672z"
				/>
			<path fill="#FF5527" d="M396.492,253.785l-0.901-5.044h0.798l0.633,3.932l0.638-3.932h0.798l-0.918,5.044H396.492z"/>
			<path fill="#FF5527" d="M400.184,248.677c0.336,0,0.621,0.118,0.855,0.354c0.235,0.236,0.353,0.521,0.353,0.854v2.753
				c0,0.336-0.118,0.621-0.354,0.855c-0.236,0.235-0.521,0.353-0.854,0.353c-0.335,0-0.619-0.118-0.853-0.354
				c-0.234-0.236-0.351-0.521-0.351-0.854v-2.753c0-0.336,0.118-0.621,0.354-0.855C399.57,248.794,399.854,248.677,400.184,248.677z
				 M400.599,249.868c0-0.12-0.042-0.224-0.127-0.308c-0.084-0.085-0.188-0.127-0.308-0.127c-0.121,0-0.225,0.042-0.311,0.127
				c-0.086,0.084-0.128,0.188-0.128,0.308v2.762c0,0.121,0.042,0.224,0.128,0.308c0.086,0.085,0.189,0.127,0.311,0.127
				c0.12,0,0.224-0.042,0.308-0.127c0.085-0.084,0.127-0.187,0.127-0.308V249.868z"/>
			<path fill="#FF5527" d="M402.723,249.506h-0.809v-0.765h2.375v0.765h-0.805v4.279h-0.762V249.506z"/>
			<path fill="#FF5527" d="M404.901,253.785v-5.048h2.166v0.765h-1.405v1.377h1.026v0.765h-1.026v1.377h1.405v0.765H404.901z"/>
		</g>
	</g>
	<g>
		<path fill-rule="evenodd" clip-rule="evenodd" fill="#0A6D94" d="M76.174,267.539c0.552-3.637,1.27-7.296,0.396-10.626
			c-0.038-0.089-0.08-0.179-0.122-0.267l-0.019-0.039c-0.042-0.085-0.084-0.168-0.129-0.251l-0.026-0.047
			c-0.046-0.084-0.093-0.167-0.143-0.249l-0.012-0.02c-0.048-0.079-0.098-0.158-0.149-0.236l-0.025-0.039
			c-0.054-0.081-0.109-0.161-0.166-0.24l-0.029-0.039c-0.058-0.08-0.118-0.16-0.179-0.238l-0.017-0.021
			c-0.058-0.073-0.118-0.147-0.179-0.219l-0.035-0.042c-0.063-0.075-0.127-0.148-0.193-0.222l-0.041-0.044
			c-0.067-0.073-0.136-0.147-0.208-0.22l-0.025-0.026c-0.065-0.066-0.132-0.134-0.2-0.199l-0.043-0.043
			c-0.071-0.068-0.145-0.136-0.219-0.203l-0.052-0.048c-0.076-0.069-0.153-0.137-0.231-0.204l-0.031-0.025
			c-0.074-0.063-0.148-0.125-0.225-0.187l-0.048-0.039c-0.079-0.064-0.16-0.127-0.242-0.19l-0.063-0.048
			c-0.082-0.063-0.165-0.125-0.25-0.187l-0.049-0.034c-0.076-0.055-0.152-0.109-0.229-0.162l-0.061-0.043
			c-0.087-0.059-0.174-0.117-0.263-0.175l-0.068-0.045c-0.089-0.059-0.18-0.115-0.271-0.172l-0.06-0.037
			c-0.082-0.05-0.163-0.099-0.246-0.148l-0.061-0.037c-0.089-0.052-0.178-0.104-0.269-0.154l-0.11-0.062
			c-0.084-0.048-0.169-0.095-0.255-0.142l-0.105-0.056l-0.198-0.104l-0.125-0.063c-0.087-0.045-0.174-0.089-0.262-0.132l-0.103-0.05
			c-0.09-0.044-0.181-0.088-0.271-0.13l-0.132-0.062l-0.189-0.087l-0.167-0.075l-0.22-0.096l-0.147-0.063
			c-0.084-0.035-0.168-0.07-0.254-0.105l-0.165-0.067l-0.155-0.062l-0.245-0.096l-0.182-0.069l-0.149-0.056l-0.241-0.088
			l-0.207-0.073l-0.133-0.046c-0.098-0.035-0.197-0.068-0.295-0.101l-0.134-0.045l-0.197-0.064l-0.008-0.002l-0.239-0.075h0
			l-0.178-0.055l-0.16-0.049l-0.261-0.076l-0.168-0.048l-0.184-0.052l-0.012-0.004l-0.242-0.065l-0.199-0.053l-0.129-0.033
			c-0.101-0.026-0.202-0.051-0.303-0.076l-0.136-0.032l-0.202-0.049h-0.002c-3.5-0.822-7.017-1.034-9.466-0.588
			c-3.288,5.532-2.556,12.183-1.846,18.594c-0.521,0.078-1.531,0.496-1.476,2.036c0.047,1.315,1.19,5.137,2.693,4.51
			c0.814,2.181,1.734,4.007,2.817,5.5v3.896l-1.724,0.939l-1.114,0.487v0.001l-0.306,0.134c-0.62,0.268-1.225,0.53-1.815,0.793
			l-1.017,0.445l0.003,0.013c-6.875,3.149-11.477,6.372-12.967,14.718c14.354,10.303,38.281,10.159,52.048,0
			c-1.491-8.346-6.093-11.568-12.968-14.718l0.003-0.013l-4.58-2.039l-1.396-0.761v-3.65c1.167-1.53,2.148-3.435,3.011-5.746
			c1.503,0.627,2.646-3.194,2.693-4.51C77.265,268.275,76.683,267.754,76.174,267.539z"/>
		<path fill-rule="evenodd" clip-rule="evenodd" fill="#92D3E0" d="M66.789,276.469c-0.006-1.243-1.03-2.256-2.272-2.25
			c-1.242,0.007-2.255,1.029-2.25,2.272c0.006,1.242,1.03,2.255,2.272,2.249C65.782,278.734,66.795,277.711,66.789,276.469
			L66.789,276.469z M61.584,263.071c-0.351-1.041-0.128-2.113,0.63-2.804c1.577-1.438,4.622,0.429,4.254,3.06
			c-0.383,2.735-4.315,4.438-4.301,7.167c0.006,1.316,0.846,2.115,2.162,2.109c3.115-0.017,0.739-2.868,4.041-4.136
			c2.372-0.911,3.288-2.48,3.574-4.418c0.592-4.013-2.992-8.526-8.12-8.028c-4.986,0.483-6.984,5.193-6.971,7.955
			c0.007,1.381,0.929,2.943,2.277,2.937C61.282,266.902,62.256,265.061,61.584,263.071z"/>
	</g>
	<g>
		<g>
			<polygon fill-rule="evenodd" clip-rule="evenodd" fill="#E3E4E6" points="142.978,139.367 177.613,139.367 186.521,148.272 
				186.521,196.105 142.978,196.105 			"/>
			<polygon fill-rule="evenodd" clip-rule="evenodd" fill="#C3C3C9" points="177.615,148.272 186.521,157.179 186.521,148.272 
				182.068,143.819 			"/>
			<polygon fill-rule="evenodd" clip-rule="evenodd" fill="#A5DBE5" points="177.615,139.367 186.521,148.272 177.615,148.272 			
				"/>
			<rect x="147.52" y="146.206" fill-rule="evenodd" clip-rule="evenodd" fill="#92D3E0" width="10.352" height="11.851"/>
			<path fill-rule="evenodd" clip-rule="evenodd" fill="#096385" d="M157.205,158.057c0-2.218-1.158-4.116-2.797-4.886
				c0.691-0.52,1.138-1.347,1.138-2.278c0-1.574-1.276-2.851-2.851-2.851s-2.852,1.276-2.852,2.851c0,0.961,0.477,1.812,1.205,2.328
				c-1.583,0.8-2.693,2.665-2.693,4.836H157.205z"/>
			<rect x="147.52" y="177.852" fill-rule="evenodd" clip-rule="evenodd" fill="#92D3E0" width="10.221" height="11.701"/>
			<path fill-rule="evenodd" clip-rule="evenodd" fill="#096385" d="M148.345,189.553c0-2.865,1.956-5.188,4.369-5.188
				s4.368,2.322,4.368,5.188H148.345z"/>
			<circle fill-rule="evenodd" clip-rule="evenodd" fill="#096385" cx="152.798" cy="182.479" r="2.814"/>
			<rect x="147.52" y="162.092" fill-rule="evenodd" clip-rule="evenodd" fill="#92D3E0" width="10.24" height="11.725"/>
			<path fill-rule="evenodd" clip-rule="evenodd" fill="#096385" d="M157.102,173.816c0-2.195-1.146-4.072-2.767-4.834
				c0.683-0.516,1.124-1.333,1.124-2.254c0-1.558-1.262-2.82-2.819-2.82s-2.819,1.263-2.819,2.82c0,0.951,0.471,1.792,1.191,2.303
				c-1.566,0.791-2.666,2.636-2.666,4.785H157.102z"/>
			<rect x="159.216" y="146.206" fill-rule="evenodd" clip-rule="evenodd" fill="#999999" width="16.813" height="0.934"/>
			<rect x="159.216" y="148.073" fill-rule="evenodd" clip-rule="evenodd" fill="#999999" width="16.813" height="0.934"/>
			<rect x="159.216" y="149.941" fill-rule="evenodd" clip-rule="evenodd" fill="#999999" width="16.813" height="0.934"/>
			<rect x="159.216" y="162.115" fill-rule="evenodd" clip-rule="evenodd" fill="#999999" width="16.813" height="0.934"/>
			<rect x="159.216" y="163.982" fill-rule="evenodd" clip-rule="evenodd" fill="#999999" width="16.813" height="0.934"/>
			<rect x="159.216" y="165.85" fill-rule="evenodd" clip-rule="evenodd" fill="#999999" width="16.813" height="0.935"/>
			<rect x="159.216" y="177.852" fill-rule="evenodd" clip-rule="evenodd" fill="#999999" width="16.813" height="0.934"/>
			<rect x="159.216" y="179.719" fill-rule="evenodd" clip-rule="evenodd" fill="#999999" width="16.813" height="0.934"/>
			<rect x="159.216" y="181.586" fill-rule="evenodd" clip-rule="evenodd" fill="#999999" width="16.813" height="0.935"/>
			<path fill-rule="evenodd" clip-rule="evenodd" fill="#999999" d="M159.216,158.057h5.357V152.7h-5.357V158.057L159.216,158.057z
				 M159.911,153.395h3.968v3.968h-3.968V153.395z"/>
			<path fill-rule="evenodd" clip-rule="evenodd" fill="#999999" d="M159.216,173.816h5.357v-5.357h-5.357V173.816L159.216,173.816z
				 M159.911,169.153h3.968v3.968h-3.968V169.153z"/>
			<path fill-rule="evenodd" clip-rule="evenodd" fill="#999999" d="M159.216,189.553h5.357v-5.357h-5.357V189.553L159.216,189.553z
				 M159.911,184.89h3.968v3.968h-3.968V184.89z"/>
		</g>
		<g>
			<path fill-rule="evenodd" clip-rule="evenodd" fill="#FF5527" d="M165.566,164.906l27.068-4.662
				c0.557-0.096,1.09,0.28,1.186,0.836l6.229,36.166c0.096,0.557-0.28,1.09-0.837,1.186l-27.068,4.662l-7.068-37.663
				L165.566,164.906z"/>
			<path fill-rule="evenodd" clip-rule="evenodd" fill="#E74037" d="M165.076,165.431l27.068-4.662
				c0.556-0.096,1.088,0.28,1.185,0.837l6.229,36.166c0.096,0.556-0.281,1.089-0.836,1.185l-27.068,4.663L165.076,165.431z"/>
			<path fill-rule="evenodd" clip-rule="evenodd" fill="#FFFFFF" d="M179.86,194.672c0.05,0.287,0.028,0.554-0.064,0.803
				c-0.091,0.249-0.248,0.455-0.471,0.621c-0.222,0.165-0.501,0.277-0.837,0.334l-1.106,0.191l0.271,1.568l-0.936,0.16l-0.768-4.458
				l2.004-0.345c0.533-0.092,0.965-0.04,1.295,0.155C179.58,193.899,179.783,194.223,179.86,194.672L179.86,194.672z
				 M178.924,194.85c-0.081-0.469-0.398-0.656-0.951-0.561l-0.965,0.166l0.25,1.447l0.99-0.17c0.258-0.045,0.445-0.143,0.561-0.294
				C178.926,195.286,178.965,195.09,178.924,194.85L178.924,194.85z M183.709,197.146l-0.591-1.07l-1.698,0.292l-0.199,1.207
				l-0.934,0.16l0.858-4.738l1.101-0.189l2.389,4.18L183.709,197.146L183.709,197.146z M181.814,193.588l-0.008,0.073
				c-0.008,0.08-0.018,0.171-0.03,0.273c-0.014,0.103-0.103,0.667-0.269,1.695l1.281-0.221l-0.66-1.206l-0.211-0.408
				L181.814,193.588L181.814,193.588z M188.654,194.973c-0.031-0.186-0.09-0.345-0.17-0.478c-0.082-0.132-0.185-0.241-0.311-0.324
				s-0.287-0.147-0.484-0.193c-0.198-0.046-0.519-0.076-0.963-0.093c-0.374-0.018-0.625-0.041-0.752-0.072
				c-0.126-0.03-0.227-0.078-0.299-0.142c-0.073-0.063-0.119-0.153-0.141-0.27c-0.061-0.354,0.191-0.58,0.757-0.678
				c0.266-0.046,0.479-0.032,0.638,0.04s0.277,0.199,0.357,0.383l0.884-0.279c-0.149-0.384-0.377-0.638-0.684-0.764
				c-0.308-0.125-0.737-0.139-1.29-0.044c-0.578,0.1-1,0.282-1.266,0.548c-0.266,0.268-0.364,0.602-0.295,1.004
				c0.027,0.159,0.072,0.296,0.135,0.411c0.062,0.114,0.139,0.212,0.228,0.29s0.192,0.141,0.309,0.186
				c0.116,0.047,0.244,0.082,0.383,0.106c0.14,0.024,0.382,0.048,0.729,0.069c0.398,0.011,0.672,0.033,0.817,0.063
				c0.146,0.032,0.263,0.083,0.352,0.151c0.089,0.07,0.146,0.168,0.167,0.295c0.068,0.396-0.225,0.65-0.875,0.764
				c-0.315,0.054-0.57,0.042-0.766-0.035c-0.195-0.074-0.345-0.226-0.445-0.452l-0.877,0.305c0.164,0.396,0.426,0.667,0.785,0.813
				s0.825,0.17,1.396,0.072c0.627-0.108,1.082-0.306,1.366-0.593C188.625,195.771,188.729,195.409,188.654,194.973L188.654,194.973z
				 M192.977,194.229c0.076,0.436-0.029,0.798-0.313,1.084c-0.284,0.287-0.739,0.484-1.366,0.593
				c-0.57,0.099-1.037,0.074-1.396-0.071c-0.359-0.147-0.621-0.418-0.785-0.814l0.876-0.304c0.102,0.226,0.251,0.377,0.446,0.452
				c0.195,0.076,0.45,0.088,0.766,0.034c0.651-0.112,0.943-0.367,0.875-0.764c-0.021-0.126-0.078-0.225-0.166-0.294
				c-0.09-0.068-0.207-0.12-0.353-0.151c-0.146-0.03-0.418-0.053-0.817-0.063c-0.348-0.021-0.59-0.045-0.729-0.07
				c-0.14-0.024-0.267-0.059-0.384-0.105c-0.116-0.046-0.22-0.107-0.31-0.186c-0.088-0.078-0.165-0.176-0.227-0.291
				c-0.063-0.114-0.107-0.252-0.135-0.41c-0.069-0.402,0.029-0.736,0.295-1.004c0.266-0.266,0.688-0.449,1.266-0.549
				c0.554-0.095,0.983-0.08,1.291,0.045c0.306,0.125,0.534,0.38,0.683,0.764l-0.884,0.279c-0.08-0.184-0.198-0.312-0.357-0.384
				c-0.159-0.071-0.372-0.085-0.637-0.039c-0.566,0.097-0.818,0.323-0.758,0.677c0.021,0.117,0.067,0.207,0.141,0.27
				c0.072,0.063,0.172,0.111,0.299,0.143s0.378,0.055,0.752,0.072c0.445,0.016,0.765,0.047,0.963,0.093
				c0.197,0.045,0.359,0.109,0.484,0.193c0.126,0.083,0.229,0.192,0.311,0.323C192.888,193.883,192.945,194.043,192.977,194.229z"/>
			<path fill-rule="evenodd" clip-rule="evenodd" fill="#FFFFFF" d="M181.207,176.407l-0.754-4.38
				c-1.792,0.479-2.861,2.342-3.273,4.217C178.377,176.537,179.76,176.607,181.207,176.407z"/>
			<path fill-rule="evenodd" clip-rule="evenodd" fill="#FFFFFF" d="M181.014,171.93l0.756,4.387
				c1.447-0.269,2.749-0.776,3.808-1.436C184.561,173.216,182.901,171.765,181.014,171.93z"/>
			<path fill-rule="evenodd" clip-rule="evenodd" fill="#FFFFFF" d="M183.568,172.006c1.01,0.598,1.847,1.523,2.482,2.559
				l0.989-0.845C186.053,172.865,184.861,172.271,183.568,172.006z"/>
			<path fill-rule="evenodd" clip-rule="evenodd" fill="#FFFFFF" d="M187.457,174.108l-1.122,0.952
				c0.507,0.943,0.897,2.027,1.129,3.205l2.046-0.352C189.195,176.423,188.463,175.12,187.457,174.108z"/>
			<path fill-rule="evenodd" clip-rule="evenodd" fill="#FFFFFF" d="M186.902,178.362c-0.217-1.098-0.578-2.107-1.043-2.987
				c-1.117,0.692-2.481,1.223-3.992,1.503l0.393,2.284L186.902,178.362z"/>
			<path fill-rule="evenodd" clip-rule="evenodd" fill="#FFFFFF" d="M181.698,179.259l-0.394-2.29
				c-1.514,0.212-2.966,0.14-4.23-0.164c-0.158,1.008-0.166,2.111,0.002,3.25L181.698,179.259z"/>
			<path fill-rule="evenodd" clip-rule="evenodd" fill="#FFFFFF" d="M176.515,180.152c-0.182-1.226-0.169-2.414,0.008-3.499
				l-1.331-0.546c-0.653,1.32-0.932,2.839-0.722,4.396L176.515,180.152z"/>
			<path fill-rule="evenodd" clip-rule="evenodd" fill="#FFFFFF" d="M175.462,175.607l1.169,0.483
				c0.258-1.151,0.73-2.266,1.461-3.142C177.002,173.607,176.102,174.525,175.462,175.607z"/>
			<path fill-rule="evenodd" clip-rule="evenodd" fill="#FFFFFF" d="M176.611,180.713l-2.045,0.353
				c0.322,1.535,1.091,2.871,2.145,3.896l1.073-0.962C177.256,183.037,176.85,181.925,176.611,180.713z"/>
			<path fill-rule="evenodd" clip-rule="evenodd" fill="#FFFFFF" d="M177.174,180.616c0.222,1.126,0.596,2.16,1.08,3.056
				c1.091-0.711,2.436-1.266,3.934-1.572l-0.393-2.279L177.174,180.616z"/>
			<path fill-rule="evenodd" clip-rule="evenodd" fill="#FFFFFF" d="M182.356,179.724l0.392,2.272
				c1.52-0.242,2.984-0.197,4.268,0.081c0.145-0.981,0.146-2.05-0.017-3.153L182.356,179.724z"/>
			<path fill-rule="evenodd" clip-rule="evenodd" fill="#FFFFFF" d="M187.561,178.827c0.176,1.184,0.17,2.333,0.01,3.389
				l1.378,0.524c0.607-1.289,0.86-2.759,0.657-4.266L187.561,178.827z"/>
			<path fill-rule="evenodd" clip-rule="evenodd" fill="#FFFFFF" d="M188.687,183.245l-1.218-0.467
				c-0.252,1.19-0.732,2.348-1.485,3.251C187.116,185.346,188.042,184.384,188.687,183.245z"/>
			<path fill-rule="evenodd" clip-rule="evenodd" fill="#FFFFFF" d="M183.603,186.957c1.837-0.479,2.917-2.406,3.314-4.318
				c-1.22-0.268-2.616-0.312-4.071-0.08L183.603,186.957z"/>
			<path fill-rule="evenodd" clip-rule="evenodd" fill="#FFFFFF" d="M183.041,187.051l-0.757-4.39
				c-1.433,0.296-2.713,0.826-3.745,1.503C179.555,185.797,181.189,187.2,183.041,187.051z"/>
			<path fill-rule="evenodd" clip-rule="evenodd" fill="#FFFFFF" d="M180.508,186.973c-0.984-0.582-1.806-1.478-2.434-2.479
				l-0.941,0.849C178.1,186.151,179.258,186.717,180.508,186.973z"/>
		</g>
	</g>
	<g>
		<g>
			<path fill-rule="evenodd" clip-rule="evenodd" fill="#E0AC7E" d="M417.377,398.104v-8.836c1.527-1.006,2.729-2.787,2.901-5.939
				v-14.882c0.009-2.2-2.105-2.762-3.099-2.093l0.01,5.706c0,1.162-0.938,0.93-0.938,0.028v-6.977
				c-0.085-1.734-3.09-2.121-3.475-0.386l-0.094,7.092c-0.054,1.028-0.986,0.867-0.939,0.01v-7.441
				c-0.085-1.619-3.558-1.933-3.942,0.034v7.747c-0.085,1.171-0.93,1.064-0.938-0.107v-6.86c-0.939-1.047-3.567-0.697-3.952,2.897
				l-0.094,9.418c-2.577-1.545-4.541-1.646-7.031-0.456c-2.229,1.285-1.502,4.418,0.375,4.884c2.065,0.581,3.107-0.688,4.507,0.581
				c0.657,2.205,2.197,6.065,3.942,6.279l0.02,6.234L417.377,398.104z"/>
			<rect x="404.117" y="390.542" fill-rule="evenodd" clip-rule="evenodd" fill="#92D3E0" width="13.649" height="2.678"/>
			<path fill-rule="evenodd" clip-rule="evenodd" fill="#096385" d="M418.315,393.147v21.075h-14.738c0,0-0.015-16.644-0.006-21.075
				H418.315z"/>
		</g>
		<g>
			<path fill-rule="evenodd" clip-rule="evenodd" fill="#E0AC7E" d="M374.081,398.104v-8.836c1.528-1.006,2.729-2.787,2.901-5.939
				v-14.882c0.009-2.2-2.105-2.762-3.098-2.093l0.009,5.706c0,1.162-0.938,0.93-0.937,0.028v-6.977
				c-0.085-1.734-3.091-2.121-3.476-0.386l-0.094,7.092c-0.053,1.028-0.986,0.867-0.939,0.01v-7.441
				c-0.084-1.619-3.558-1.933-3.942,0.034v7.747c-0.084,1.171-0.93,1.064-0.938-0.107v-6.86c-0.939-1.047-3.567-0.697-3.952,2.897
				l-0.094,9.418c-2.576-1.545-4.541-1.646-7.031-0.456c-2.228,1.285-1.502,4.418,0.375,4.884c2.065,0.581,3.107-0.688,4.507,0.581
				c0.657,2.205,2.197,6.065,3.942,6.279l0.021,6.234L374.081,398.104z"/>
			<rect x="360.822" y="390.542" fill-rule="evenodd" clip-rule="evenodd" fill="#92D3E0" width="13.648" height="2.678"/>
			<path fill-rule="evenodd" clip-rule="evenodd" fill="#096385" d="M375.021,393.147v21.075h-14.738c0,0-0.017-16.644-0.007-21.075
				H375.021z"/>
		</g>
		<g>
			<path fill-rule="evenodd" clip-rule="evenodd" fill="#F2C196" d="M396.877,396.181v-9.851c1.703-1.121,3.042-3.106,3.234-6.621
				v-16.591c0.01-2.452-2.348-3.078-3.453-2.333l0.01,6.361c0,1.297-1.047,1.037-1.045,0.032v-7.776
				c-0.095-1.936-3.445-2.366-3.874-0.432l-0.104,7.906c-0.06,1.146-1.1,0.966-1.047,0.01v-8.295
				c-0.095-1.805-3.967-2.154-4.396,0.039v8.636c-0.095,1.306-1.036,1.187-1.047-0.12v-7.647c-1.046-1.167-3.977-0.777-4.405,3.23
				l-0.104,10.499c-2.873-1.723-5.063-1.835-7.839-0.508c-2.483,1.432-1.674,4.925,0.418,5.443c2.304,0.648,3.464-0.768,5.024,0.648
				c0.733,2.458,2.449,6.762,4.396,6.999l0.022,6.95L396.877,396.181z"/>
			<rect x="382.096" y="387.752" fill-rule="evenodd" clip-rule="evenodd" fill="#92D3E0" width="15.215" height="2.984"/>
			<path fill-rule="evenodd" clip-rule="evenodd" fill="#E74037" d="M397.924,390.656v23.495h-16.431c0,0-0.018-18.555-0.007-23.495
				H397.924z"/>
		</g>
	</g>
	<g>
		<g>
			<polygon fill-rule="evenodd" clip-rule="evenodd" fill="#E3E4E6" points="36.125,355.682 72.733,355.682 82.148,365.096 
				82.148,415.65 36.125,415.65 			"/>
			<polygon fill-rule="evenodd" clip-rule="evenodd" fill="#C3C3C9" points="72.735,365.096 82.148,374.508 82.148,365.096 
				77.441,360.389 			"/>
			<polygon fill-rule="evenodd" clip-rule="evenodd" fill="#A5DBE5" points="72.735,355.682 82.148,365.096 72.735,365.096 			"/>
			<rect x="40.925" y="362.91" fill-rule="evenodd" clip-rule="evenodd" fill="#92D3E0" width="10.941" height="12.526"/>
			<path fill-rule="evenodd" clip-rule="evenodd" fill="#096385" d="M51.162,375.436c0-2.345-1.225-4.351-2.955-5.164
				c0.729-0.55,1.201-1.424,1.201-2.408c0-1.663-1.349-3.012-3.013-3.012c-1.664,0-3.013,1.349-3.013,3.012
				c0,1.017,0.503,1.915,1.273,2.461c-1.674,0.846-2.848,2.816-2.848,5.111H51.162z"/>
			<rect x="40.925" y="396.357" fill-rule="evenodd" clip-rule="evenodd" fill="#92D3E0" width="10.803" height="12.367"/>
			<path fill-rule="evenodd" clip-rule="evenodd" fill="#096385" d="M41.797,408.725c0-3.027,2.067-5.482,4.618-5.482
				s4.618,2.455,4.618,5.482H41.797z"/>
			<circle fill-rule="evenodd" clip-rule="evenodd" fill="#096385" cx="46.504" cy="401.248" r="2.975"/>
			<rect x="40.925" y="379.701" fill-rule="evenodd" clip-rule="evenodd" fill="#92D3E0" width="10.824" height="12.391"/>
			<path fill-rule="evenodd" clip-rule="evenodd" fill="#096385" d="M51.052,392.092c0-2.319-1.211-4.304-2.923-5.108
				c0.722-0.544,1.188-1.408,1.188-2.383c0-1.646-1.334-2.98-2.98-2.98c-1.646,0-2.98,1.335-2.98,2.98
				c0,1.006,0.498,1.895,1.26,2.435c-1.656,0.837-2.817,2.786-2.817,5.057H51.052z"/>
			<rect x="53.288" y="362.91" fill-rule="evenodd" clip-rule="evenodd" fill="#999999" width="17.769" height="0.987"/>
			<rect x="53.288" y="364.885" fill-rule="evenodd" clip-rule="evenodd" fill="#999999" width="17.769" height="0.986"/>
			<rect x="53.288" y="366.858" fill-rule="evenodd" clip-rule="evenodd" fill="#999999" width="17.769" height="0.987"/>
			<rect x="53.288" y="379.725" fill-rule="evenodd" clip-rule="evenodd" fill="#999999" width="17.769" height="0.987"/>
			<rect x="53.288" y="381.698" fill-rule="evenodd" clip-rule="evenodd" fill="#999999" width="17.769" height="0.988"/>
			<rect x="53.288" y="383.673" fill-rule="evenodd" clip-rule="evenodd" fill="#999999" width="17.769" height="0.987"/>
			<rect x="53.288" y="396.356" fill-rule="evenodd" clip-rule="evenodd" fill="#999999" width="17.769" height="0.987"/>
			<rect x="53.288" y="398.331" fill-rule="evenodd" clip-rule="evenodd" fill="#999999" width="17.769" height="0.987"/>
			<rect x="53.288" y="400.305" fill-rule="evenodd" clip-rule="evenodd" fill="#999999" width="17.769" height="0.987"/>
			<path fill-rule="evenodd" clip-rule="evenodd" fill="#999999" d="M53.288,375.436h5.662v-5.661h-5.662V375.436L53.288,375.436z
				 M54.022,370.509h4.194v4.193h-4.194V370.509z"/>
			<path fill-rule="evenodd" clip-rule="evenodd" fill="#E74037" d="M52.87,372.015c-0.211-0.269-0.165-0.658,0.104-0.869
				c0.269-0.211,0.658-0.165,0.87,0.104l2.109,2.677l2.338-4.245c0.165-0.299,0.541-0.409,0.84-0.244
				c0.299,0.164,0.409,0.54,0.245,0.84l-2.78,5.045c-0.04,0.079-0.096,0.149-0.169,0.207c-0.269,0.212-0.658,0.165-0.869-0.104
				L52.87,372.015z"/>
			<path fill-rule="evenodd" clip-rule="evenodd" fill="#999999" d="M53.288,392.092h5.662v-5.662h-5.662V392.092L53.288,392.092z
				 M54.022,387.164h4.194v4.194h-4.194V387.164z"/>
			<path fill-rule="evenodd" clip-rule="evenodd" fill="#999999" d="M53.288,408.725h5.662v-5.662h-5.662V408.725L53.288,408.725z
				 M54.022,403.797h4.194v4.193h-4.194V403.797z"/>
		</g>
		<g>
			<path fill-rule="evenodd" clip-rule="evenodd" fill="#E74037" d="M58.968,382.435l1.39,1.391l1.501,1.501l4.414-3.46
				l-1.978-1.978l-1.391-1.391l-4.818-2.14c-0.615-0.294-1.798-0.144-1.272,1.235L58.968,382.435z"/>
			<path fill-rule="evenodd" clip-rule="evenodd" fill="#2D96B3" d="M64.14,379.732l13.659,13.666
				c-1.311,1.311-2.622,2.622-3.934,3.934l-13.66-13.666L64.14,379.732z"/>
			<polygon fill-rule="evenodd" clip-rule="evenodd" fill="#FF5527" points="73.865,397.332 74.85,396.348 75.834,395.363 
				76.818,394.379 77.802,393.395 78.912,394.504 77.928,395.488 76.943,396.473 75.959,397.457 74.975,398.441 			"/>
			<path fill-rule="evenodd" clip-rule="evenodd" fill="#2D96B3" d="M78.91,394.506c5.104,3.867,9.566,8.537,13.66,13.666
				c0.96,1.927-2.291,4.894-3.933,3.934c-4.984-4.125-9.56-8.658-13.66-13.666L78.91,394.506z"/>
		</g>
	</g>
</g>
</svg>
